<svg width="80" height="81" viewBox="0 0 80 81" fill="none" xmlns="http://www.w3.org/2000/svg">
<path fill-rule="evenodd" clip-rule="evenodd" d="M56.9494 6.15624L47.8499 0.950711L46.7444 0.592246L45.5957 0.315605L44.4115 0.124683L43.188 0.0194818L41.9252 0L40.6309 0.0701344L39.3012 0.229885L37.944 0.483148L36.5552 0.826028L35.1429 1.26242L33.703 1.78843L32.2396 2.41574L30.7525 3.13267L29.2497 3.95091L27.743 4.85486L26.2598 5.83285L24.7963 6.88486L23.3565 7.99922L21.9402 9.18371L20.5515 10.4267L19.1943 11.7319L17.8645 13.0879L16.5702 14.4983L15.3074 15.9595L14.0839 17.4635L12.8958 19.0142L11.751 20.6L10.6456 22.2248L9.58336 23.8847L8.56837 25.5718L7.60059 27.2862L6.68002 29.0279L5.8106 30.789L4.99625 32.5658L4.23698 34.3581L3.53278 36.1621L2.88366 37.9739L2.29749 39.7896L1.77426 41.6092L1.31397 43.4249L0.920569 45.2406L0.594042 47.0446L0.338329 48.8369L0.149494 50.6215L0.0393405 52.3826L0 54.1282L0.0393405 55.827L0.149494 57.4596L0.338329 59.0259L0.594042 60.526L0.920569 61.956L1.31397 63.3197L1.77426 64.6094L2.29749 65.8289L2.88366 66.9745L3.53278 68.046L4.23698 69.0434L4.99625 69.9669L5.8106 70.8124L6.68002 71.5761L15.7795 76.7816L14.914 76.014L14.0957 75.1724L13.3364 74.249L12.6322 73.2515L11.9871 72.18L11.4009 71.0345L10.8777 69.8149L10.4174 68.5213L10.02 67.1615L9.69351 65.7315L9.4378 64.2314L9.2529 62.6651L9.13881 61.0286L9.09947 59.3298L9.13881 57.5882L9.2529 55.8231L9.4378 54.0425L9.69351 52.2462L10.02 50.4422L10.4174 48.6304L10.8777 46.8108L11.4009 44.9912L11.9871 43.1755L12.6322 41.3637L13.3364 39.5597L14.0957 37.7674L14.914 35.9906L15.7795 34.2295L16.7001 32.4917L17.6678 30.7773L18.6868 29.0863L19.745 27.4304L20.8505 25.8056L21.9992 24.2159L23.1834 22.669L24.4108 21.1611L25.6697 19.7039L26.9679 18.2934L28.2937 16.9336L29.6549 15.6322L31.0436 14.3853L32.4559 13.2048L33.8958 12.0865L35.3593 11.0384L36.8464 10.0604L38.3492 9.15644L39.8559 8.3382L41.339 7.61738L42.8025 6.99396L44.2424 6.46406L45.6586 6.02766L47.0434 5.68868L48.4046 5.43542L49.7304 5.27567L51.0286 5.20553L52.2875 5.22112L53.511 5.32632L54.6991 5.51724L55.8439 5.79388L56.9494 6.15624Z" fill="#BF392A"/>
<path fill-rule="evenodd" clip-rule="evenodd" d="M38.3513 76.045C54.5005 66.8107 67.5931 44.356 67.5931 25.8872C67.5931 7.41849 54.5005 -0.0781007 38.3513 9.15627C22.202 18.3906 9.10156 40.8492 9.10156 59.3297C9.10156 77.8101 22.202 85.2794 38.3513 76.045Z" fill="#E74C3C"/>
<path fill-rule="evenodd" clip-rule="evenodd" d="M38.351 68.7745C51.2744 61.3715 61.7507 43.4132 61.7507 28.6421C61.7507 13.871 51.2744 7.86281 38.351 15.2542C25.4276 22.6456 14.9434 40.6195 14.9434 55.41C14.9434 70.2006 25.4158 76.162 38.351 68.7745Z" fill="white"/>
<path fill-rule="evenodd" clip-rule="evenodd" d="M38.351 68.7745C51.2744 61.3715 61.7507 43.4132 61.7507 28.6421C61.7507 13.871 51.2744 7.86281 38.351 15.2542C25.4276 22.6456 14.9434 40.6195 14.9434 55.41C14.9434 70.2006 25.4158 76.162 38.351 68.7745Z" fill="url(#paint0_linear_2858_6621)"/>
<path fill-rule="evenodd" clip-rule="evenodd" d="M38.3449 62.0965C48.0462 56.5519 55.9104 43.0589 55.9104 31.9659C55.9104 20.873 48.0423 16.3805 38.3449 21.925C28.6474 27.4695 20.7793 40.9587 20.7793 52.0556C20.7793 63.1524 28.6435 67.6449 38.3449 62.0965Z" fill="#E74C3C"/>
<path fill-rule="evenodd" clip-rule="evenodd" d="M38.3426 29.1953C44.8181 25.4938 50.07 28.494 50.07 35.901C50.07 43.3079 44.8181 52.3124 38.3426 56.0179C31.8672 59.7233 26.6191 56.7192 26.6191 49.3122C26.6191 41.9053 31.8672 32.9008 38.3426 29.1953Z" fill="white"/>
<path fill-rule="evenodd" clip-rule="evenodd" d="M38.3426 29.1953C44.8181 25.4938 50.07 28.494 50.07 35.901C50.07 43.3079 44.8181 52.3124 38.3426 56.0179C31.8672 59.7233 26.6191 56.7192 26.6191 49.3122C26.6191 41.9053 31.8672 32.9008 38.3426 29.1953Z" fill="url(#paint1_linear_2858_6621)"/>
<path fill-rule="evenodd" clip-rule="evenodd" d="M38.3444 48.7359C35.0949 50.5944 32.4434 49.0865 32.4434 45.3733C32.4434 41.6601 35.0752 37.1403 38.3444 35.2856C41.6136 33.431 44.2259 34.9311 44.2259 38.6482C44.2259 42.3653 41.59 46.8773 38.3444 48.7359Z" fill="#E74C3C"/>
<path fill-rule="evenodd" clip-rule="evenodd" d="M56.9501 6.15624L47.8506 0.950711L46.7451 0.592246L45.6003 0.315605L44.4122 0.124683L43.1887 0.0194818L41.9259 0L40.6316 0.0701344L39.3019 0.229885L37.9446 0.483148L36.5559 0.826028L35.1436 1.26242L33.7037 1.78843L32.2403 2.41574L30.7532 3.13267L29.2504 3.95091L27.7436 4.85486L26.2605 5.83285L24.797 6.88486L23.3572 7.99922L21.9409 9.18371L20.5522 10.4267L19.1949 11.7319L17.8652 13.0879L16.5709 14.4983L15.3081 15.9595L14.0846 17.4635L12.8965 19.0142L11.7517 20.6L10.6462 22.2248L9.58405 23.8847L8.56906 25.5718L7.60129 27.2862L6.68072 29.0279L5.81129 30.789L4.99694 32.5658L4.23767 34.3581L3.53347 36.1621L2.88436 37.9739L2.29818 39.7896L2.11328 40.4403L11.2128 45.6419L11.4016 44.9912L11.9878 43.1755L12.6329 41.3637L13.3371 39.5597L14.0964 37.7674L14.9147 35.9906L15.7841 34.2295L16.7008 32.4917L17.6685 30.7773L18.6875 29.0863L19.7457 27.4304L20.8512 25.8056L21.9999 24.2159L23.1841 22.669L24.4115 21.1611L25.6704 19.7039L26.9686 18.2934L28.2944 16.9336L29.6556 15.6322L31.0443 14.3853L32.4566 13.2048L33.8965 12.0865L35.36 11.0384L36.8471 10.0604L38.3499 9.15644L39.8566 8.3382L41.3397 7.61738L42.8032 6.99396L44.2431 6.46406L45.6593 6.02766L47.0441 5.68868L48.4053 5.43542L49.7311 5.27567L51.0293 5.20553L52.2882 5.22112L53.5117 5.32632L54.6998 5.51724L55.8446 5.79388L56.9501 6.15624Z" fill="#BF392A"/>
<path fill-rule="evenodd" clip-rule="evenodd" d="M8.42578 25.821L17.5292 31.0266L17.6669 30.7772L18.6858 29.0862L19.7441 27.4302L20.8495 25.8054L21.9983 24.2157L23.1824 22.6689L24.4098 21.161L25.6687 19.7038L26.967 18.2933L28.2928 16.9334L29.6539 15.6321L31.0427 14.3852L32.455 13.2046L33.8949 12.0864L35.3583 11.0383L36.8454 10.0603L38.3482 9.15631L39.8549 8.33808L41.3381 7.61725L42.8016 6.99383L44.2414 6.46393L45.6577 6.02754L47.0425 5.68856L47.8529 5.5366L38.7495 0.334961L37.943 0.483022L36.5543 0.825902L35.1419 1.26229L33.7021 1.7883L32.2386 2.41562L30.7515 3.13255L29.2487 3.95078L27.742 4.85473L26.2589 5.83272L24.7954 6.88474L23.3555 7.99909L21.9393 9.18359L20.5505 10.4265L19.1933 11.7318L17.8636 13.0877L16.5693 14.4982L15.3064 15.9594L14.083 17.4633L12.8949 19.0141L11.7501 20.5999L10.6446 22.2247L9.58239 23.8845L8.56741 25.5717L8.42578 25.821Z" fill="#BF392A"/>
<path fill-rule="evenodd" clip-rule="evenodd" d="M38.3513 76.045C54.5005 66.8107 67.5931 44.356 67.5931 25.8872C67.5931 7.41849 54.5005 -0.0781007 38.3513 9.15627C22.202 18.3906 9.10156 40.8492 9.10156 59.3297C9.10156 77.8101 22.202 85.2794 38.3513 76.045ZM38.3513 75.2658C22.5796 84.2858 9.78609 76.9801 9.78609 58.9439C9.78609 40.9077 22.5796 18.9595 38.3513 9.93943C54.1229 0.919368 66.9085 8.23283 66.9085 26.2808C66.9085 44.3287 54.1347 66.2496 38.3513 75.2619V75.2658Z" fill="#BF392A"/>
<path fill-rule="evenodd" clip-rule="evenodd" d="M60.5254 53.6528L65.502 51.5254C65.7223 51.428 65.8954 51.5761 66.0645 51.6813L79.4403 59.2986C79.6385 59.4033 79.7979 59.5677 79.8955 59.768C79.9931 59.9683 80.0238 60.1942 79.9832 60.413C79.8888 60.8377 78.3585 61.5235 77.8156 61.8118L76.2419 62.6495L60.5254 53.6528Z" fill="#E74C3C"/>
<path fill-rule="evenodd" clip-rule="evenodd" d="M60.166 54.4243L60.7915 59.5948C60.823 59.8364 61.0276 59.8987 61.2085 60.0039L74.5529 67.6797C74.7438 67.7974 74.9676 67.8518 75.1918 67.835C75.4161 67.8181 75.6291 67.731 75.7999 67.5862C76.1225 67.294 75.9534 65.7978 75.9376 65.19L75.8865 63.421L60.166 54.4243Z" fill="#E74C3C"/>
<path fill-rule="evenodd" clip-rule="evenodd" d="M76.3601 64.3951L38.0897 42.5092C37.9963 42.4564 37.9145 42.3857 37.8489 42.3013C37.7833 42.2169 37.7352 42.1205 37.7074 42.0177C37.6796 41.9148 37.6726 41.8075 37.6869 41.7019C37.7012 41.5964 37.7365 41.4947 37.7907 41.4027L38.0582 40.939C38.112 40.8464 38.1837 40.7653 38.2692 40.7003C38.3548 40.6352 38.4524 40.5876 38.5566 40.5601C38.6608 40.5326 38.7695 40.5257 38.8764 40.5399C38.9832 40.5541 39.0862 40.5891 39.1794 40.6429L77.442 62.5404C77.6297 62.648 77.7666 62.8249 77.8227 63.0324C77.8788 63.2399 77.8494 63.4609 77.741 63.647L77.4774 64.099C77.3681 64.2841 77.1894 64.419 76.9802 64.4745C76.771 64.5299 76.5482 64.5014 76.3601 64.3951Z" fill="#383838"/>
<defs>
<linearGradient id="paint0_linear_2858_6621" x1="38.347" y1="12.0913" x2="38.347" y2="71.944" gradientUnits="userSpaceOnUse">
<stop stop-color="white"/>
<stop offset="1" stop-color="white" stop-opacity="0"/>
</linearGradient>
<linearGradient id="paint1_linear_2858_6621" x1="38.3446" y1="27.6099" x2="38.3446" y2="57.605" gradientUnits="userSpaceOnUse">
<stop stop-color="white"/>
<stop offset="1" stop-color="white" stop-opacity="0"/>
</linearGradient>
</defs>
</svg>
