<svg xmlns="http://www.w3.org/2000/svg" width="176.5" height="48.1" viewBox="0 0 176.5 48.1">
  <g id="fujifilm_corporate_logo" transform="translate(-1.7 -0.9)">
    <path id="패스_1" data-name="패스 1" d="M136.2,1V24c0,1.5.7,2.3,2.2,2.3H146v2.6a.472.472,0,0,1-.5.5H133.2c-3.8,0-4.4-2.1-4.4-4V2.6c0-1.1.4-1.6,1.7-1.6h5.7" fill="#fff"/>
    <path id="패스_2" data-name="패스 2" d="M122.1,1V27.9c0,1.2-.5,1.5-1.5,1.5h-5.8V2.5c0-.9.3-1.5,1.6-1.5h5.7" fill="#fff"/>
    <path id="패스_3" data-name="패스 3" d="M1.7,4.9C1.7,2.7,1.7,1,5.3,1H20.9V3.7a.366.366,0,0,1-.4.4H11.1c-1.2,0-1.8.6-1.8,1.9v7.2h11v2.9a.366.366,0,0,1-.4.4H9.3V27.9c0,1.1-.6,1.5-1.8,1.5H1.7V4.9" fill="#fff"/>
    <path id="패스_4" data-name="패스 4" d="M32.2,1V22.7c0,1.9.3,3.2,1.6,3.9a7.416,7.416,0,0,0,6.5,0c1.2-.7,1.7-1.8,1.7-3.9V2.4c0-.9.3-1.4,1.6-1.4h5.7V22a7.283,7.283,0,0,1-5.8,7.6,26.413,26.413,0,0,1-12.5,0c-4.1-1.2-6-3.6-6-7.6V2.4c0-.9.3-1.5,1.4-1.5h5.8" fill="#fff"/>
    <path id="패스_5" data-name="패스 5" d="M169.9,1a2.427,2.427,0,0,0-2.6,2l-4.6,19.6h-.1L157.7,1h-6.5c-1.3,0-1.7.6-1.7,1.7V29.5h2.8c.4,0,.6-.2.6-.7V6.3h.4l5.9,23.1h3.9c1.5,0,2-.6,2.4-2l5.3-21.1h.4V29.4h5.2c1.3,0,1.8-.5,1.8-1.7V1h-8.3" fill="#fff"/>
    <path id="패스_6" data-name="패스 6" d="M83.8,16.4H76.5v13h5.8c1,0,1.5-.3,1.5-1.5V16.4" fill="#fff"/>
    <path id="패스_7" data-name="패스 7" d="M83.4,10.9a.812.812,0,0,0,.4-.8V1H78.1c-1.3,0-1.6.6-1.6,1.5V16.3l6.9-5.4" fill="#fb0020"/>
    <path id="패스_8" data-name="패스 8" d="M58.4,27.2c3.2-.4,4.2-2.3,4.2-5.1V2.5c0-1.2.6-1.5,1.4-1.5h5.8V19.5c0,4.5-1,6.8-3.6,8.8-1.4,1-3.8,2.2-9.2,2.2-3,0-4.4-.2-4.6-.2-.3-.1-.4-.2-.4-.4V27.5c1.5-.1,4.3,0,6.4-.3" fill="#fff"/>
    <path id="패스_9" data-name="패스 9" d="M94.9,1c-3.6,0-3.6,1.8-3.6,3.9v7.3c0,.2-.1.2-.1.3l-5,3.9h5.1v13h5.8c1.2,0,1.8-.4,1.8-1.5V16.4h10.6a.366.366,0,0,0,.4-.4V13.1h-11V5.9A1.654,1.654,0,0,1,100.8,4h9.4a.366.366,0,0,0,.4-.4V1H94.9" fill="#fff"/>
    <path id="패스_10" data-name="패스 10" d="M10.8,37.9l3.4,7.5,3.2-7.5H19L14.5,48.5a.622.622,0,0,1-.6.4h-.7L8.4,38.3c-.1-.2.1-.4.3-.4h2.1" fill="#fff"/>
    <path id="패스_11" data-name="패스 11" d="M29.9,48.4a.43.43,0,0,1-.4.4H27.6V37.2a.43.43,0,0,1,.4-.4h1.9V48.4" fill="#fff"/>
    <path id="패스_12" data-name="패스 12" d="M94.9,38.4a.458.458,0,0,1,.5-.4h2.1V48.4c0,.2-.2.5-.4.5H95V38.4" fill="#fff"/>
    <path id="패스_13" data-name="패스 13" d="M128.6,40.5l2.3,5.1,2.3-5.1h1.6l-3.7,8.1a.822.822,0,0,1-.6.4h-.6l-3.6-8.1c-.1-.2.1-.4.3-.4h2" fill="#fff"/>
    <path id="패스_14" data-name="패스 14" d="M150.5,41.1c0-.2.2-.5.4-.5h1.9v7.8a.43.43,0,0,1-.4.4h-1.9V41.1" fill="#fff"/>
    <path id="패스_15" data-name="패스 15" d="M64.8,40.4a3.577,3.577,0,0,0-2.1.9v-.7H60.8a.536.536,0,0,0-.5.5v7.8h1.9a.536.536,0,0,0,.5-.5V42.8a2.4,2.4,0,0,1,3.5-.1V40.8a2.108,2.108,0,0,0-1.4-.4" fill="#fff"/>
    <path id="패스_16" data-name="패스 16" d="M23.2,47V44.3c-1.6.5-2.3,1.5-2.3,2.3a1.009,1.009,0,0,0,.9,1.1,3.028,3.028,0,0,0,1.4-.7m-.9-6.6c2.6,0,3.2,1.2,3.2,2.2v5.7a.458.458,0,0,1-.5.4H23.1v-.8a3.337,3.337,0,0,1-2.2.9,2.22,2.22,0,0,1-2.4-2.2c0-2.2,2.8-3,4.7-3.5h0a4.121,4.121,0,0,0-.1-1.2c-.1-.4-.7-.5-.9-.5a7.142,7.142,0,0,0-3.1.8V41.1a10.7,10.7,0,0,1,3.2-.7" fill="#fff"/>
    <path id="패스_17" data-name="패스 17" d="M58.3,38.3a4.4,4.4,0,0,1,1.6.2V37.4a5.537,5.537,0,0,0-1.8-.2c-1,0-3.2.4-3.2,2.3v1.1H53.4v1h1.5v7.2h1.9a.43.43,0,0,0,.4-.4V41.6h1.9v-1H57.2v-.5a4.121,4.121,0,0,1,.1-1.2,1.559,1.559,0,0,1,1-.6" fill="#fff"/>
    <path id="패스_18" data-name="패스 18" d="M40.4,45a4.078,4.078,0,0,0,4,4,4.162,4.162,0,0,0,2.9-1.3,3.2,3.2,0,0,0,1-2H47.1a2.321,2.321,0,0,1-2.2,1.7c-1.8,0-2.1-1.7-2.1-2.8h5.4a3.6,3.6,0,0,0-3.6-4.1C42.3,40.4,40.4,42.1,40.4,45ZM44,41.5c.7,0,1.4.5,1.4,2.2H42.7C42.8,43,42.9,41.5,44,41.5Z" fill="#fff" fill-rule="evenodd"/>
    <path id="패스_19" data-name="패스 19" d="M70.6,41.4c-.8.1-1.8,1.4-1.3,4.2.3,1.8,1.2,2.4,1.9,2.4s1.5-1,1.5-2.7c0-3.5-1.5-4-2.1-3.9m4.6,3.2A4.352,4.352,0,0,1,70.9,49a4.25,4.25,0,1,1,0-8.5,3.992,3.992,0,0,1,4.3,4.1" fill="#fff"/>
    <path id="패스_20" data-name="패스 20" d="M121.2,41.4c-.8.1-1.8,1.4-1.3,4.2.3,1.8,1.2,2.4,1.9,2.4s1.5-1,1.5-2.7c0-3.5-1.5-4-2.1-3.9m4.6,3.2a4.352,4.352,0,0,1-4.3,4.4,4.25,4.25,0,1,1,0-8.5,4.045,4.045,0,0,1,4.3,4.1" fill="#fff"/>
    <path id="패스_21" data-name="패스 21" d="M158.4,41.4c-.8.1-1.8,1.4-1.3,4.2.3,1.8,1.2,2.4,1.9,2.4s1.5-1,1.5-2.7c0-3.5-1.4-4-2.1-3.9m4.7,3.2a4.352,4.352,0,0,1-4.3,4.4,4.25,4.25,0,1,1,0-8.5,4.045,4.045,0,0,1,4.3,4.1" fill="#fff"/>
    <path id="패스_22" data-name="패스 22" d="M153,38.6a1.3,1.3,0,1,1-1.3-1.3,1.324,1.324,0,0,1,1.3,1.3" fill="#fff"/>
    <path id="패스_23" data-name="패스 23" d="M34.2,40.6v5.8a1.193,1.193,0,0,0,1.1,1.2c.4,0,.9-.5,1.3-1V41.1a.458.458,0,0,1,.5-.4H39v7.8a.458.458,0,0,1-.5.4H36.6v-.8a3.592,3.592,0,0,1-1,.7,1.8,1.8,0,0,1-1,.2,2.668,2.668,0,0,1-2.7-2.6V41.1a.458.458,0,0,1,.5-.4h1.8" fill="#fff"/>
    <path id="패스_24" data-name="패스 24" d="M144.7,40.6V38.5c0-.2.2-.5.4-.5H147v2.6h1.9v1H147v5.3c0,.2,0,.3.1.4a.764.764,0,0,0,.5.2,1.983,1.983,0,0,0,1.3-.6v1.2a3.737,3.737,0,0,1-2.3.9,1.876,1.876,0,0,1-2-2V41.6h-1.2v-1h1.3" fill="#fff"/>
    <path id="패스_25" data-name="패스 25" d="M111,42.8a2.912,2.912,0,0,1,1.6-.9c.5,0,.8.6.8,1.3v5.6h1.9a.43.43,0,0,0,.4-.4V43a2.521,2.521,0,0,0-2.4-2.5,3.923,3.923,0,0,0-2.4.8v-.6H109c-.2,0-.5.2-.5.4v7.8h1.9c.2,0,.5-.2.5-.4V42.8Z" fill="#fff"/>
    <path id="패스_26" data-name="패스 26" d="M166.9,42.8a2.912,2.912,0,0,1,1.6-.9c.5,0,.8.6.8,1.3v5.6h1.9a.43.43,0,0,0,.4-.4V43a2.521,2.521,0,0,0-2.4-2.5,3.923,3.923,0,0,0-2.4.8v-.6H165a.43.43,0,0,0-.4.4v7.8h1.9a.43.43,0,0,0,.4-.4Z" fill="#fff"/>
    <path id="패스_27" data-name="패스 27" d="M135.9,41.1v1.1a8.364,8.364,0,0,1,3.1-.8c.2,0,.8.1.9.5a4.121,4.121,0,0,1,.1,1.2h0c-1.9.5-4.7,1.3-4.7,3.5a2.22,2.22,0,0,0,2.4,2.2,2.9,2.9,0,0,0,2.2-.9v.8h1.9c.2,0,.5-.2.5-.4V42.6c0-1-.6-2.2-3.2-2.2a10.7,10.7,0,0,0-3.2.7m2.7,6.5a1.009,1.009,0,0,1-.9-1.1c0-.7.7-1.7,2.3-2.3v2.7a1.891,1.891,0,0,1-1.4.7" fill="#fff"/>
    <path id="패스_28" data-name="패스 28" d="M102,42.8a2.912,2.912,0,0,1,1.6-.9c.5,0,.8.6.8,1.3v5.6h1.9a.43.43,0,0,0,.4-.4V43a2.521,2.521,0,0,0-2.4-2.5,3.923,3.923,0,0,0-2.4.8v-.6H100c-.2,0-.5.2-.5.4v7.8h1.9c.2,0,.5-.2.5-.4V42.8Z" fill="#fff"/>
    <path id="패스_29" data-name="패스 29" d="M86.3,40.4a4.705,4.705,0,0,0-2.8,1,2.319,2.319,0,0,0-2-1,3.923,3.923,0,0,0-2.4.8v-.6H77.2a.43.43,0,0,0-.4.4v7.8h1.9c.2,0,.5-.2.5-.4V42.8a2.912,2.912,0,0,1,1.6-.9c.5,0,.8.6.8,1.3v5.6h1.9a.43.43,0,0,0,.4-.4V42.8a2.912,2.912,0,0,1,1.6-.9c.5,0,.8.6.8,1.3v5.6h1.9a.43.43,0,0,0,.4-.4V43a2.47,2.47,0,0,0-2.3-2.6" fill="#fff"/>
  </g>
</svg>
