<svg xmlns="http://www.w3.org/2000/svg" width="27.912" height="27.912" viewBox="0 0 27.912 27.912">
  <g id="icon_search" transform="translate(-1090 -67)">
    <g id="패스_31" data-name="패스 31" transform="translate(1090 67)" fill="none" stroke-linecap="round" stroke-linejoin="round">
      <path d="M11,0A11,11,0,1,1,0,11,11,11,0,0,1,11,0Z" stroke="none"/>
      <path d="M 11 2 C 6.037380218505859 2 2 6.037380218505859 2 11 C 2 15.96261978149414 6.037380218505859 20 11 20 C 15.96261978149414 20 20 15.96261978149414 20 11 C 20 6.037380218505859 15.96261978149414 2 11 2 M 11 0 C 17.07513046264648 0 22 4.924869537353516 22 11 C 22 17.07513046264648 17.07513046264648 22 11 22 C 4.924869537353516 22 0 17.07513046264648 0 11 C 0 4.924869537353516 4.924869537353516 0 11 0 Z" stroke="none" fill="#fff"/>
    </g>
    <line id="선_12" data-name="선 12" x2="8" y2="9" transform="translate(1108.5 84.5)" fill="none" stroke="#fff" stroke-linecap="round" stroke-width="2"/>
  </g>
</svg>
