<svg xmlns="http://www.w3.org/2000/svg" width="22" height="22" viewBox="0 0 22 22">
  <path id="icon_global" d="M12,23A11,11,0,1,1,23,12,11,11,0,0,1,12,23Zm.729-5.83v4.07a6.633,6.633,0,0,0,2.283-3.891A20.985,20.985,0,0,0,12.729,17.17Zm-1.457,0A21.037,21.037,0,0,0,9,17.363a6.692,6.692,0,0,0,2.269,3.877Zm-3.74.44a13.925,13.925,0,0,0-2.571.8,9.467,9.467,0,0,0,4.07,2.64A11.417,11.417,0,0,1,7.531,17.61Zm8.938,0a11.27,11.27,0,0,1-1.5,3.438,9.633,9.633,0,0,0,4.056-2.64,12.553,12.553,0,0,0-2.557-.8Zm-13.956-4.9a9.6,9.6,0,0,0,1.526,4.51,15.122,15.122,0,0,1,3.176-1.059,22.405,22.405,0,0,1-.344-3.451Zm14.644,0a24.252,24.252,0,0,1-.344,3.451,14.967,14.967,0,0,1,3.163,1.045,9.594,9.594,0,0,0,1.526-4.5Zm-4.414,0V15.7a23.623,23.623,0,0,1,2.612.22,20.741,20.741,0,0,0,.33-3.19Zm-4.4,0a20.566,20.566,0,0,0,.33,3.19,23.658,23.658,0,0,1,2.6-.22v-2.97ZM19.975,6.789A14.334,14.334,0,0,1,16.8,7.834a21.706,21.706,0,0,1,.344,3.4h4.331A9.353,9.353,0,0,0,19.975,6.789Zm-4.62,1.306a23.623,23.623,0,0,1-2.612.22v2.929h2.929a22.01,22.01,0,0,0-.316-3.149Zm-6.682,0a20.215,20.215,0,0,0-.33,3.149h2.929V8.315a23.1,23.1,0,0,1-2.6-.22ZM4.039,6.789a9.389,9.389,0,0,0-1.526,4.455H6.858a23.494,23.494,0,0,1,.344-3.4A15,15,0,0,1,4.039,6.789Zm8.69-4.029V6.83A21.037,21.037,0,0,0,15,6.637,6.633,6.633,0,0,0,12.729,2.76Zm-1.457,0A6.625,6.625,0,0,0,9,6.651c.756.1,1.512.165,2.269.192Zm3.7.193a11.345,11.345,0,0,1,1.5,3.451,12.992,12.992,0,0,0,2.571-.811,9.594,9.594,0,0,0-4.07-2.64Zm-5.926,0A9.5,9.5,0,0,0,4.96,5.606a13.925,13.925,0,0,0,2.571.8A11.051,11.051,0,0,1,9.044,2.953Z" transform="translate(-1 -1)" fill="#fff"/>
</svg>
