<svg xmlns="http://www.w3.org/2000/svg" width="16" height="16" viewBox="0 0 16 16">
  <path id="icon_global" d="M9,17a8,8,0,1,1,8-8A8,8,0,0,1,9,17Zm.53-4.24v2.96a4.824,4.824,0,0,0,1.66-2.83A15.262,15.262,0,0,0,9.53,12.76Zm-1.06,0a15.3,15.3,0,0,0-1.65.14,4.867,4.867,0,0,0,1.65,2.82Zm-2.72.32a10.128,10.128,0,0,0-1.87.58,6.885,6.885,0,0,0,2.96,1.92A8.3,8.3,0,0,1,5.75,13.08Zm6.5,0a8.2,8.2,0,0,1-1.09,2.5,7.006,7.006,0,0,0,2.95-1.92,9.13,9.13,0,0,0-1.86-.58ZM2.1,9.52A6.978,6.978,0,0,0,3.21,12.8a11,11,0,0,1,2.31-.77,16.3,16.3,0,0,1-.25-2.51Zm10.65,0a17.638,17.638,0,0,1-.25,2.51,10.885,10.885,0,0,1,2.3.76,6.978,6.978,0,0,0,1.11-3.27Zm-3.21,0v2.17a17.18,17.18,0,0,1,1.9.16,15.084,15.084,0,0,0,.24-2.32Zm-3.2,0a14.957,14.957,0,0,0,.24,2.32,17.206,17.206,0,0,1,1.89-.16V9.52ZM14.8,5.21a10.425,10.425,0,0,1-2.31.76,15.786,15.786,0,0,1,.25,2.47h3.15A6.8,6.8,0,0,0,14.8,5.21Zm-3.36.95a17.18,17.18,0,0,1-1.9.16V8.45h2.13a16.007,16.007,0,0,0-.23-2.29Zm-4.86,0a14.7,14.7,0,0,0-.24,2.29H8.47V6.32a16.8,16.8,0,0,1-1.89-.16ZM3.21,5.21A6.828,6.828,0,0,0,2.1,8.45H5.26a17.087,17.087,0,0,1,.25-2.47A10.913,10.913,0,0,1,3.21,5.21ZM9.53,2.28V5.24a15.3,15.3,0,0,0,1.65-.14A4.824,4.824,0,0,0,9.53,2.28Zm-1.06,0A4.818,4.818,0,0,0,6.82,5.11c.55.07,1.1.12,1.65.14Zm2.69.14a8.251,8.251,0,0,1,1.09,2.51,9.449,9.449,0,0,0,1.87-.59,6.977,6.977,0,0,0-2.96-1.92Zm-4.31,0A6.906,6.906,0,0,0,3.88,4.35a10.128,10.128,0,0,0,1.87.58,8.037,8.037,0,0,1,1.1-2.51Z" transform="translate(-1 -1)" fill="#fff"/>
</svg>
