<svg width="139" height="140" viewBox="0 0 139 140" fill="none" xmlns="http://www.w3.org/2000/svg">
<path opacity="0.2" d="M138.993 70C138.993 108.66 107.878 140 69.4964 140C31.1146 140 0 108.66 0 70C0 31.3401 31.1146 0 69.4964 0C107.878 0 138.993 31.3401 138.993 70Z" fill="#EAEAEA"/>
<path fill-rule="evenodd" clip-rule="evenodd" d="M73.8124 72.5822C73.7521 72.7379 73.6901 72.897 73.6263 73.0544L71.7627 77.7902C69.7389 75.7783 67.7509 73.6945 65.7588 71.6064C64.4663 70.2515 63.172 68.8948 61.865 67.5548L58.0351 63.7337C57.5303 63.2465 57.022 62.7654 56.5102 62.2904C55.3707 61.2308 54.1901 60.0051 53.028 58.7985C52.351 58.0956 51.6803 57.3993 51.0276 56.746L80.0574 56.7079L73.8124 72.5822ZM47.9335 64.9748L49.4158 60.4727C51.0347 61.2382 64.3013 75.6344 65.8705 77.5151C68.5888 80.7927 69.9754 81.6129 73.5642 81.5881C74.4323 81.5822 75.3052 81.5899 76.1777 81.5977C77.2779 81.6075 78.3773 81.6172 79.4652 81.5997C80.3376 86.289 82.5859 90.2162 86.4088 92.7746C88.774 94.4333 91.5559 95.4957 94.4873 95.8596C97.4186 96.2236 100.401 95.8769 103.147 94.8528C105.894 93.8287 108.313 92.1617 110.171 90.012C112.029 87.8622 113.264 85.302 113.758 82.5773C114.252 79.8527 113.987 77.0551 112.99 74.4535C111.993 71.8519 110.296 69.5337 108.064 67.7217C105.831 65.9097 103.137 64.6647 100.241 64.1065C97.3449 63.5482 94.3438 63.6955 91.5261 64.534C91.3044 64.5655 91.081 64.5937 90.854 64.6202L85.712 53.427C85.3733 52.6449 85.8981 51.664 86.7333 50.4195C86.9409 50.3988 87.1994 50.3956 87.4836 50.3921C88.7676 50.3762 90.5757 50.3539 90.5757 48.6797C90.5726 47.0293 88.7234 47.0738 87.1601 47.1113C86.9341 47.1168 86.714 47.1221 86.5063 47.1221C85.9878 47.1232 85.209 47.1116 84.2964 47.0979C81.1833 47.0513 76.5126 46.9815 75.3019 47.3159C74.9098 48.885 75.6064 48.9758 78.113 49.3027C78.1795 49.3114 78.2472 49.3202 78.3162 49.3292L82.765 50.1826L81.5486 53.2895L51.8007 53.3094C53.3162 47.2969 53.9477 47.3004 56.9795 47.3171C57.7787 47.3215 58.7447 47.3269 59.9376 47.2231C62.3083 47.0193 62.6913 44.0649 59.489 44.0102C53.5331 43.9091 51.5312 44.5206 49.9549 47.6275C49.2779 48.9613 48.6793 50.7568 47.8805 53.1529C47.8298 53.3048 47.7784 53.4592 47.726 53.6159L44.3003 63.9756C40.5563 63.352 36.6966 63.9012 33.3208 65.5377C29.9449 67.1743 27.2417 69.8067 25.631 73.0262L25.6115 73.0677C25.5725 73.1439 25.5299 73.2317 25.498 73.298C25.482 73.3312 25.4665 73.3648 25.451 73.3984C25.4355 73.4319 25.42 73.4654 25.404 73.4985C25.3899 73.5316 25.3739 73.5648 25.3579 73.5979C25.0374 74.3072 24.7737 75.0377 24.5689 75.7835C24.5618 75.8092 24.5551 75.8349 24.5485 75.8606C24.5418 75.8863 24.5352 75.9119 24.5281 75.9376L24.4962 76.0569V76.0834C24.3922 76.4922 24.3047 76.907 24.2338 77.3279C23.6324 80.6479 24.1986 84.0605 25.8473 87.0546C27.0928 89.3773 28.9209 91.3841 31.1756 92.9041C33.4303 94.424 36.0448 95.412 38.7963 95.7837C41.5478 96.1555 44.3547 95.9 46.9778 95.0391C49.6008 94.1782 51.9622 92.7373 53.8607 90.8394C55.7592 88.9414 57.1385 86.6427 57.881 84.139C58.6235 81.6353 58.7073 79.001 58.1251 76.4605C57.5429 73.9201 56.3121 71.5488 54.5375 69.5489C52.7629 67.549 50.4972 65.9797 47.9335 64.9748ZM88.1184 66.0941C86.2194 66.7917 83.8239 69.4363 82.666 70.8994C81.4833 72.3907 80.1836 75.8705 80.0347 78.245H75.9831C76.4524 76.7297 77.088 75.2468 77.7246 73.7617L77.7246 73.7616L77.7246 73.7615C78.1461 72.7782 78.568 71.7938 78.9424 70.7983L84.1944 58.0973L88.1184 66.0941ZM93.0961 67.7456C95.3782 66.9933 99.6567 67.3463 101.871 68.2162C113.482 72.7647 112.264 87.3067 102.091 91.0947C99.3323 92.122 96.5201 92.4004 93.4242 91.6067C88.7271 90.402 84.6613 86.5511 83.9113 81.5386L94.5288 81.6463C94.7832 82.0265 95.1336 82.3425 95.5493 82.5664C95.965 82.7902 96.4333 82.9152 96.9128 82.9303C97.3923 82.9453 97.8684 82.85 98.2993 82.6527C98.7301 82.4554 99.1025 82.1621 99.3836 81.7988C99.6646 81.4354 99.8458 81.013 99.9112 80.5688C99.9766 80.1246 99.9241 79.6722 99.7585 79.2514C99.5928 78.8306 99.319 78.4543 98.9611 78.1557C98.6033 77.857 98.1724 77.6451 97.7063 77.5386L93.0961 67.7456ZM46.721 68.9179C52.8011 72.1359 56.1523 78.131 53.4324 84.5039C47.3133 98.8453 24.6561 92.0317 28.1403 77.4499C29.4826 71.8326 35.2861 66.9047 42.8574 67.8624L40.1835 76.2569C39.7254 76.4954 39.3519 76.8541 39.1092 77.2885C38.8665 77.7229 38.765 78.2143 38.8174 78.7019C38.8697 79.1896 39.0735 79.6523 39.4038 80.033C39.734 80.4138 40.1763 80.6959 40.676 80.8447C41.1757 80.9935 41.711 81.0024 42.2161 80.8704C42.7212 80.7384 43.1739 80.4712 43.5184 80.1017C43.863 79.7322 44.0844 79.2766 44.1554 78.791C44.2263 78.3054 44.1437 77.811 43.9177 77.3687L46.3575 69.6967C46.4584 69.4293 46.5799 69.169 46.721 68.9179ZM84.176 78.6162L94.1925 78.6543L89.8501 69.7992C86.7081 71.491 84.5147 75.3453 84.176 78.6162Z" fill="#686868"/>
</svg>
