<svg width="140" height="140" viewBox="0 0 140 140" fill="none" xmlns="http://www.w3.org/2000/svg">
<path opacity="0.2" d="M140 70C140 108.66 108.66 140 70 140C31.3401 140 0 108.66 0 70C0 31.3401 31.3401 0 70 0C108.66 0 140 31.3401 140 70Z" fill="#EAEAEA"/>
<path fill-rule="evenodd" clip-rule="evenodd" d="M98.5257 69.013C96.6293 69.0171 94.7519 69.3919 92.9989 70.1166L91.5862 66.8682C91.5578 66.8391 91.5418 66.8001 91.5418 66.7594C91.5418 66.7187 91.5578 66.6796 91.5862 66.6506L108.306 56.3769C108.783 56.0869 109.177 55.6782 109.449 55.1907C109.721 54.7031 109.862 54.1533 109.859 53.5948V49.2584C109.859 48.3886 109.514 47.5545 108.899 46.9394C108.285 46.3244 107.452 45.9789 106.583 45.9789H98.1531C97.6947 45.9778 97.241 46.0727 96.8213 46.2574C96.4016 46.4421 96.025 46.7125 95.7158 47.0513L90.9652 52.2737C90.754 52.5112 90.4873 52.6928 90.189 52.8021L74.5401 58.0866C74.2525 55.9932 73.3747 54.0252 72.0096 52.4135C70.978 51.3176 69.7378 50.4395 68.3621 49.8309C66.9863 49.2223 65.5027 48.8955 63.9988 48.8698L67.9421 45.1085H76.8533C77.265 45.1085 77.6599 44.9448 77.951 44.6533C78.2422 44.3618 78.4057 43.9665 78.4057 43.5543C78.4057 43.142 78.2422 42.7467 77.951 42.4552C77.6599 42.1638 77.265 42 76.8533 42H67.9421C67.1502 42.003 66.3894 42.3088 65.8152 42.8548L61.0181 47.3777L58.3478 45.4038C57.7859 44.9956 57.1093 44.7758 56.415 44.7758C55.7207 44.7758 55.0442 44.9956 54.4822 45.4038C50.4147 48.3414 40.9913 56.4235 38.9575 69.1374C36.2369 69.4208 33.6524 70.4714 31.5045 72.1669C29.3565 73.8625 27.7332 76.1335 26.8233 78.716C25.9133 81.2985 25.754 84.0865 26.3638 86.7561C26.9737 89.4256 28.3277 91.8671 30.2685 93.7969C32.2093 95.7266 34.6572 97.0654 37.3278 97.6576C39.9984 98.2498 42.782 98.0712 45.3553 97.1424C47.9285 96.2137 50.1856 94.573 51.8645 92.411C53.5433 90.2489 54.5748 87.6543 54.8393 84.9287H59.7295C60.5869 84.9189 61.4063 84.5729 62.0117 83.965L65.1166 81.1052L73.0808 81.1984L75.0679 83.6697C75.3724 84.0583 75.7614 84.3722 76.2052 84.5877C76.6491 84.8032 77.1362 84.9145 77.6295 84.9131H84.1965C84.476 87.6979 85.5571 90.3415 87.3084 92.523C89.0597 94.7045 91.406 96.33 94.0623 97.2023C96.7186 98.0746 99.5707 98.156 102.272 97.4368C104.974 96.7176 107.409 95.2286 109.282 93.1506C111.154 91.0726 112.384 88.495 112.822 85.7307C113.26 82.9665 112.886 80.1345 111.747 77.5785C110.608 75.0226 108.753 72.8526 106.406 71.3321C104.059 69.8116 101.321 69.006 98.5257 69.013ZM56.3452 47.8906C56.3744 47.8692 56.4098 47.8576 56.4461 47.8576C56.4824 47.8576 56.5177 47.8692 56.547 47.8906L60.661 50.9992C61.4968 51.6122 62.4976 51.9588 63.5331 51.9939C64.6666 51.9668 65.794 52.169 66.8476 52.5883C67.9013 53.0076 68.8597 53.6354 69.6653 54.4341C70.7891 55.791 71.4428 57.4762 71.5283 59.2367L60.661 64.5834C59.0202 65.3942 57.6934 66.7257 56.8874 68.3704C56.0815 70.015 55.8417 71.8805 56.2054 73.6758L57.7579 81.8046H54.8082C54.4317 78.5817 52.9841 75.579 50.6978 73.2788C48.4116 70.9787 45.4195 69.5146 42.2022 69.1218C42.9012 65.2432 44.3687 61.544 46.518 58.242H54.1251C54.5369 58.242 54.9317 58.0783 55.2229 57.7868C55.514 57.4953 55.6776 57.1 55.6776 56.6878C55.6776 56.2755 55.514 55.8802 55.2229 55.5887C54.9317 55.2973 54.5369 55.1335 54.1251 55.1335H48.7536C50.9567 52.3971 53.509 49.962 56.3452 47.8906ZM40.4634 94.8449C38.2189 94.8449 36.0248 94.1785 34.1585 92.9301C32.2922 91.6816 30.8377 89.9072 29.9787 87.8311C29.1198 85.7551 28.895 83.4706 29.3329 81.2667C29.7708 79.0627 30.8517 77.0383 32.4388 75.4493C34.0259 73.8604 36.048 72.7783 38.2494 72.3399C40.4508 71.9015 42.7326 72.1265 44.8063 72.9864C46.88 73.8464 48.6524 75.3026 49.8994 77.171C51.1464 79.0394 51.812 81.2361 51.812 83.4832C51.8078 86.4952 50.6109 89.3827 48.4835 91.5126C46.3561 93.6424 43.472 94.8407 40.4634 94.8449ZM77.4432 81.7424L75.4405 79.3022C75.1355 78.9243 74.75 78.6194 74.3122 78.4097C73.8744 78.1999 73.3953 78.0907 72.91 78.0899H65.1477C64.7121 78.0683 64.2768 78.1388 63.8702 78.2968C63.4636 78.4548 63.0948 78.6967 62.7879 79.0069L60.8008 80.8565L59.2483 73.0852C59.0235 71.9652 59.1739 70.8023 59.6763 69.7767C60.1788 68.751 61.0051 67.9199 62.0272 67.4122L73.7173 61.6614L91.2291 55.7397C92.0064 55.4741 92.709 55.0265 93.2784 54.4341L97.9358 49.2273C97.9578 49.2174 97.9816 49.2124 98.0057 49.2124C98.0297 49.2124 98.0536 49.2174 98.0755 49.2273H106.552C106.597 49.2273 106.641 49.2453 106.673 49.2774C106.705 49.3094 106.723 49.3529 106.723 49.3983V53.7347L90.0493 63.9306C89.3712 64.3315 88.8627 64.9667 88.6197 65.7167C88.3767 66.4666 88.4158 67.2797 88.7297 68.0028L90.2821 71.6397C88.6054 72.8083 87.1958 74.3202 86.1466 76.0753C85.0975 77.8303 84.4327 79.7885 84.1965 81.8201H77.5829C77.5553 81.8184 77.5285 81.8105 77.5043 81.7971C77.4802 81.7836 77.4593 81.765 77.4432 81.7424ZM98.5257 94.8449C96.2805 94.8479 94.0849 94.1842 92.2166 92.9376C90.3483 91.6911 88.8913 89.9177 88.03 87.8419C87.1687 85.7661 86.9417 83.4812 87.3778 81.2762C87.814 79.0712 88.8936 77.0453 90.4801 75.4548C92.0666 73.8643 94.0887 72.7807 96.2905 72.341C98.4923 71.9014 100.775 72.1255 102.85 72.9849C104.924 73.8444 106.697 75.3007 107.945 77.1694C109.193 79.0382 109.859 81.2354 109.859 83.4832C109.855 86.4926 108.66 89.3777 106.536 91.5071C104.412 93.6365 101.532 94.8366 98.5257 94.8449ZM98.526 75.9606C97.0392 75.9576 95.5849 76.3961 94.3472 77.2209C93.1095 78.0456 92.144 79.2194 91.5729 80.5937C91.0019 81.968 90.8508 83.481 91.139 84.9413C91.4272 86.4016 92.1416 87.7434 93.1918 88.797C94.242 89.8507 95.5809 90.5687 97.0388 90.8602C98.4968 91.1517 100.008 91.0036 101.382 90.4347C102.756 89.8658 103.931 88.9016 104.757 87.6642C105.583 86.4268 106.024 84.9718 106.024 83.4833C106.024 81.4908 105.235 79.5798 103.829 78.1695C102.423 76.7591 100.516 75.9648 98.526 75.9606ZM98.526 87.8974C97.6533 87.9004 96.7994 87.6442 96.0723 87.161C95.3452 86.6779 94.7776 85.9896 94.4415 85.1833C94.1055 84.377 94.0159 83.489 94.1843 82.6317C94.3527 81.7744 94.7713 80.9864 95.3873 80.3676C96.0033 79.7487 96.7889 79.3267 97.6446 79.1552C98.5003 78.9836 99.3876 79.0701 100.194 79.4037C101.001 79.7373 101.69 80.3031 102.175 81.0293C102.66 81.7555 102.919 82.6096 102.919 83.4833C102.919 84.6513 102.457 85.7717 101.634 86.599C100.81 87.4264 99.6926 87.8933 98.526 87.8974ZM36.289 77.2284C37.5247 76.4018 38.9775 75.9606 40.4636 75.9606C42.4564 75.9606 44.3676 76.7532 45.7767 78.164C47.1859 79.5747 47.9775 81.4881 47.9775 83.4832C47.9775 84.9711 47.5368 86.4255 46.7112 87.6626C45.8855 88.8997 44.712 89.8639 43.339 90.4332C41.966 91.0026 40.4552 91.1516 38.9977 90.8613C37.5401 90.5711 36.2013 89.8546 35.1504 88.8025C34.0996 87.7505 33.3839 86.4101 33.094 84.9508C32.8041 83.4916 32.9529 81.979 33.5216 80.6045C34.0903 79.2299 35.0534 78.055 36.289 77.2284ZM38.0141 87.1534C38.7391 87.6385 39.5915 87.8974 40.4636 87.8974C41.0426 87.8974 41.6159 87.7832 42.1508 87.5613C42.6857 87.3395 43.1718 87.0144 43.5812 86.6045C43.9906 86.1946 44.3154 85.708 44.537 85.1725C44.7585 84.6369 44.8726 84.0629 44.8726 83.4832C44.8726 82.6102 44.614 81.7568 44.1295 81.0309C43.6451 80.305 42.9565 79.7392 42.1508 79.4052C41.3452 79.0711 40.4587 78.9837 39.6034 79.154C38.7481 79.3243 37.9625 79.7447 37.3459 80.362C36.7293 80.9793 36.3094 81.7659 36.1393 82.6221C35.9692 83.4784 36.0565 84.3659 36.3902 85.1725C36.7239 85.979 37.289 86.6684 38.0141 87.1534Z" fill="#686868"/>
</svg>
