<svg width="140" height="140" viewBox="0 0 140 140" fill="none" xmlns="http://www.w3.org/2000/svg">
<path opacity="0.2" d="M140 70C140 108.66 108.66 140 70 140C31.3401 140 0 108.66 0 70C0 31.3401 31.3401 0 70 0C108.66 0 140 31.3401 140 70Z" fill="#EAEAEA"/>
<path fill-rule="evenodd" clip-rule="evenodd" d="M48.1003 35.7028C47.9647 35.7028 47.8308 35.6951 47.6991 35.6801L41.5901 74.5773L57.3238 96.4286H87.4173C88.6673 89.1187 94.494 83.456 101.663 82.8353C101.809 82.823 101.956 82.8426 102.094 82.8929C102.233 82.9432 102.36 83.023 102.467 83.1275C102.575 83.2319 102.661 83.3586 102.719 83.4996C102.778 83.6406 102.808 83.7928 102.808 83.9466C102.809 84.2243 102.711 84.4922 102.532 84.6973C102.354 84.9025 102.109 85.0299 101.846 85.0543C95.7654 85.5775 90.8003 90.2892 89.5802 96.4286H91.2207C92.4798 90.8563 97.2595 86.6987 102.948 86.6987C109.595 86.6987 115 92.3746 115 99.3493C115 106.324 109.594 112 102.948 112C97.261 112 92.4812 107.843 91.2212 102.272H52.745C52.0073 102.27 51.3004 101.962 50.7787 101.414C50.2571 100.867 49.9629 100.125 49.9606 99.3504C49.9609 99.2546 49.9656 99.1594 49.9747 99.0649C50.1444 88.7989 43.4234 85.4832 40.0372 84.4653L39.5986 87.2576C44.5188 88.8511 48.1034 93.6695 48.1034 99.3493C48.1034 106.324 42.6971 112 36.0517 112C29.4063 112 24 106.325 24 99.3493C24 92.3737 29.4054 86.6987 36.0517 86.6987C36.2106 86.6987 36.3687 86.7019 36.5261 86.7083L44.8064 33.9901C44.8224 33.89 44.8471 33.7925 44.8799 33.6985C44.5938 33.1501 44.4312 32.5207 44.4312 31.8514C44.4312 29.7243 46.0739 28 48.1003 28C50.1266 28 51.7693 29.7243 51.7693 31.8514C51.7693 33.9785 50.1266 35.7028 48.1003 35.7028ZM35.9682 90.26L35.1015 95.778L32.056 91.3709C32.0413 91.3501 32.0262 91.3299 32.0105 91.3102C33.2277 90.636 34.5842 90.274 35.9682 90.26ZM38.6465 93.3203L39.0389 90.8213C39.386 90.9556 39.7247 91.1132 40.0528 91.2931C40.0323 91.3181 40.0127 91.3441 39.994 91.3709L38.6465 93.3203ZM101.707 102.272H98.4332L95.4344 103.295C95.3495 103.324 95.262 103.343 95.1736 103.352C95.5911 104.245 96.1477 105.066 96.8252 105.777C98.0362 107.048 99.5792 107.914 101.259 108.264C101.43 108.3 101.601 108.33 101.773 108.355C101.73 108.222 101.707 108.081 101.707 107.937V102.272ZM105.022 101.441C104.767 101.702 104.469 101.907 104.146 102.048V107.937C104.146 108.083 104.122 108.227 104.077 108.362C104.824 108.259 105.559 108.053 106.262 107.747C107.844 107.059 109.197 105.894 110.148 104.399C110.362 104.063 110.554 103.714 110.722 103.354C110.637 103.345 110.552 103.326 110.47 103.298L105.022 101.441ZM105.443 97.8067C105.663 98.1772 105.803 98.5963 105.849 99.0333L111.222 100.865L111.225 100.861C111.31 100.89 111.391 100.929 111.468 100.977C111.56 100.442 111.608 99.8976 111.608 99.3493C111.606 96.9391 110.693 94.6281 109.07 92.9238C109.022 92.8744 108.975 92.8256 108.927 92.7774C108.908 92.811 108.887 92.8438 108.865 92.8757C108.865 92.8757 106.572 96.1825 105.443 97.8067ZM102.454 96.4286H103.083C103.184 96.4289 103.285 96.435 103.385 96.4467C104.43 94.9343 106.894 91.3688 106.894 91.3688C106.913 91.3424 106.932 91.3169 106.952 91.2922C105.727 90.621 104.356 90.2607 102.948 90.2596C101.537 90.2596 100.153 90.6214 98.9124 91.3072C98.9278 91.3273 98.9427 91.3478 98.957 91.3688L102.454 96.4286ZM94.7481 96.4286H99.453C98.3171 94.7943 96.9841 92.8738 96.9841 92.8738C96.9683 92.8513 96.9532 92.8283 96.9388 92.8048C96.0854 93.6683 95.4059 94.7107 94.9481 95.8708C94.8755 96.0548 94.8088 96.2408 94.7481 96.4286ZM44.3644 81.9251C44.3648 81.6238 44.2799 81.3292 44.1207 81.0785C43.9615 80.8278 43.735 80.6324 43.4699 80.5168C43.2048 80.4013 42.913 80.371 42.6315 80.4296C42.3499 80.4882 42.0913 80.6332 41.8883 80.8462C41.6852 81.0591 41.547 81.3306 41.491 81.6261C41.4349 81.9216 41.4637 82.2279 41.5736 82.5062C41.6835 82.7845 41.8695 83.0224 42.1082 83.1897C42.347 83.357 42.6276 83.4462 42.9146 83.446C43.2988 83.4455 43.6672 83.2851 43.9389 83.0001C44.2107 82.715 44.3637 82.3284 44.3644 81.9251ZM49.5511 87.4839C49.552 87.1824 49.4676 86.8874 49.3086 86.6363C49.1496 86.3852 48.9232 86.1893 48.6581 86.0734C48.3929 85.9576 48.1009 85.9269 47.8192 85.9853C47.5374 86.0438 47.2785 86.1887 47.0753 86.4018C46.8721 86.6149 46.7337 86.8864 46.6776 87.1821C46.6216 87.4778 46.6505 87.7843 46.7605 88.0628C46.8706 88.3413 47.057 88.5792 47.296 88.7464C47.535 88.9136 47.8159 89.0025 48.1031 89.002C48.4867 89.0015 48.8544 88.8414 49.1258 88.5569C49.3972 88.2724 49.5501 87.8865 49.5511 87.4839ZM50.5135 93.3566C50.5135 93.6576 50.5985 93.9519 50.7578 94.2022C50.9172 94.4525 51.1437 94.6475 51.4086 94.7627C51.6736 94.8778 51.9651 94.9079 52.2464 94.8491C52.5276 94.7903 52.786 94.6453 52.9887 94.4324C53.1914 94.2195 53.3294 93.9482 53.3853 93.6529C53.4411 93.3577 53.4123 93.0516 53.3024 92.7736C53.1925 92.4955 53.0066 92.2579 52.768 92.0908C52.5295 91.9237 52.2491 91.8346 51.9623 91.8348C51.772 91.8348 51.5835 91.8742 51.4077 91.9506C51.2318 92.0271 51.0721 92.1393 50.9375 92.2806C50.803 92.4219 50.6962 92.5897 50.6235 92.7743C50.5507 92.9589 50.5133 93.1568 50.5135 93.3566ZM37.9301 98.6876L44.3219 100.867L44.3193 100.864C44.4076 100.894 44.4916 100.934 44.57 100.983C44.6635 100.447 44.7111 99.8999 44.7111 99.3493H44.7066C44.705 96.9399 43.7927 94.6296 42.1701 92.9255C42.1229 92.8759 42.0752 92.8269 42.027 92.7786C42.0079 92.8125 41.9873 92.8456 41.9652 92.8777C41.9652 92.8777 37.9604 98.652 37.9301 98.6876ZM43.2517 104.399C43.4651 104.064 43.6562 103.716 43.8242 103.357C43.7371 103.348 43.6504 103.329 43.5658 103.3L37.24 101.145V107.944C37.24 108.088 37.2169 108.229 37.173 108.363C37.9224 108.26 38.6598 108.054 39.3655 107.747C40.9478 107.059 42.3002 105.894 43.2517 104.399ZM34.3624 108.264C34.5294 108.299 34.697 108.329 34.8651 108.353C34.8231 108.223 34.8011 108.085 34.8011 107.944V101.162L28.5333 103.297C28.4501 103.326 28.3644 103.344 28.2777 103.353C28.6951 104.246 29.2515 105.066 29.9286 105.777C31.1396 107.048 32.6826 107.914 34.3624 108.264ZM28.0515 95.8708C27.4139 97.4865 27.2343 99.2599 27.5325 100.978C27.6104 100.93 27.6933 100.89 27.7798 100.861L34.1297 98.6942C34.094 98.6548 30.083 92.8758 30.083 92.8758C30.0678 92.8535 30.0533 92.8307 30.0396 92.8075C29.1874 93.6705 28.5088 94.7119 28.0515 95.8708Z" fill="#686868"/>
</svg>
