<svg width="26" height="26" viewBox="0 0 26 26" fill="none" xmlns="http://www.w3.org/2000/svg">
<path fill-rule="evenodd" clip-rule="evenodd" d="M18.507 2.00078L15.5499 0.308981L15.1906 0.19248L14.8173 0.102572L14.4325 0.0405221L14.0349 0.00633158L13.6245 0L13.2039 0.0227937L12.7718 0.0747126L12.3307 0.157023L11.8794 0.268459L11.4205 0.410286L10.9526 0.581239L10.477 0.785116L9.99371 1.01812L9.50534 1.28404L9.01569 1.57783L8.53371 1.89567L8.05812 2.23758L7.59021 2.59975L7.12996 2.98471L6.67867 3.38866L6.2376 3.81288L5.80548 4.25355L5.38487 4.71196L4.97448 5.18683L4.57688 5.67563L4.19079 6.17962L3.81875 6.69501L3.45951 7.22307L3.11432 7.76252L2.78448 8.31083L2.46998 8.86801L2.17082 9.43405L1.88828 10.0064L1.62364 10.5839L1.3769 11.1664L1.14806 11.7527L0.93711 12.3415L0.74662 12.9316L0.576585 13.523L0.427005 14.1131L0.299159 14.7032L0.193047 15.2895L0.109947 15.872L0.0485814 16.452L0.0127846 17.0244L0 17.5917L0.0127846 18.1438L0.0485814 18.6744L0.109947 19.1834L0.193047 19.6709L0.299159 20.1357L0.427005 20.5789L0.576585 20.9981L0.74662 21.3944L0.93711 21.7667L1.14806 22.1149L1.3769 22.4391L1.62364 22.7392L1.88828 23.014L2.17082 23.2622L5.1279 24.954L4.84664 24.7046L4.58072 24.431L4.33397 24.1309L4.10513 23.8067L3.89546 23.4585L3.70497 23.0862L3.53494 22.6898L3.38536 22.2694L3.25623 21.8275L3.15012 21.3627L3.06702 20.8752L3.00693 20.3662L2.96986 19.8343L2.95707 19.2822L2.96986 18.7161L3.00693 18.1425L3.06702 17.5638L3.15012 16.98L3.25623 16.3937L3.38536 15.8049L3.53494 15.2135L3.70497 14.6221L3.89546 14.032L4.10513 13.4432L4.33397 12.8569L4.58072 12.2744L4.84664 11.697L5.1279 11.1246L5.42706 10.5598L5.74156 10.0026L6.07268 9.45305L6.41658 8.91486L6.77583 8.38681L7.14914 7.87015L7.53395 7.36743L7.93283 6.87736L8.34194 6.40376L8.76383 5.94535L9.19467 5.50341L9.63702 5.08046L10.0883 4.67524L10.5473 4.29154L11.0152 3.92811L11.4908 3.58747L11.974 3.26963L12.4624 2.97584L12.9521 2.70992L13.434 2.47565L13.9096 2.27304L14.3775 2.10082L14.8378 1.95899L15.2878 1.84882L15.7302 1.76651L16.161 1.71459L16.5829 1.6918L16.992 1.69686L17.3896 1.73105L17.7757 1.7931L18.1477 1.88301L18.507 2.00078Z" fill="#BF392A"/>
<path fill-rule="evenodd" clip-rule="evenodd" d="M12.4624 24.715C17.7104 21.7139 21.9651 14.4161 21.9651 8.41374C21.9651 2.4114 17.7104 -0.0249923 12.4624 2.97618C7.2143 5.97735 2.95703 13.2764 2.95703 19.2825C2.95703 25.2887 7.2143 27.7162 12.4624 24.715Z" fill="#E74C3C"/>
<path fill-rule="evenodd" clip-rule="evenodd" d="M12.4623 22.3517C16.662 19.9457 20.0666 14.1093 20.0666 9.30869C20.0666 4.50808 16.662 2.55542 12.4623 4.95763C8.26256 7.35983 4.85547 13.2013 4.85547 18.0083C4.85547 22.8152 8.25873 24.7527 12.4623 22.3517Z" fill="white"/>
<path fill-rule="evenodd" clip-rule="evenodd" d="M12.4623 22.3517C16.662 19.9457 20.0666 14.1093 20.0666 9.30869C20.0666 4.50808 16.662 2.55542 12.4623 4.95763C8.26256 7.35983 4.85547 13.2013 4.85547 18.0083C4.85547 22.8152 8.25873 24.7527 12.4623 22.3517Z" fill="url(#paint0_linear_2869_7378)"/>
<path fill-rule="evenodd" clip-rule="evenodd" d="M12.4603 20.1831C15.6129 18.3812 18.1686 13.9959 18.1686 10.3907C18.1686 6.78551 15.6117 5.32545 12.4603 7.12741C9.30887 8.92938 6.75195 13.3134 6.75195 16.9198C6.75195 20.5263 9.30759 21.9864 12.4603 20.1831Z" fill="#E74C3C"/>
<path fill-rule="evenodd" clip-rule="evenodd" d="M12.4602 9.48793C14.5645 8.28493 16.2713 9.26 16.2713 11.6673C16.2713 14.0745 14.5645 17.001 12.4602 18.2053C10.3559 19.4095 8.65039 18.4332 8.65039 16.0259C8.65039 13.6187 10.3559 10.6922 12.4602 9.48793Z" fill="white"/>
<path fill-rule="evenodd" clip-rule="evenodd" d="M12.4602 9.48793C14.5645 8.28493 16.2713 9.26 16.2713 11.6673C16.2713 14.0745 14.5645 17.001 12.4602 18.2053C10.3559 19.4095 8.65039 18.4332 8.65039 16.0259C8.65039 13.6187 10.3559 10.6922 12.4602 9.48793Z" fill="url(#paint1_linear_2869_7378)"/>
<path fill-rule="evenodd" clip-rule="evenodd" d="M12.4607 15.8406C11.4046 16.4446 10.543 15.9546 10.543 14.7478C10.543 13.541 11.3983 12.072 12.4607 11.4693C13.5231 10.8665 14.372 11.354 14.372 12.5621C14.372 13.7702 13.5154 15.2366 12.4607 15.8406Z" fill="#E74C3C"/>
<path fill-rule="evenodd" clip-rule="evenodd" d="M18.5079 2.00078L15.5509 0.308981L15.1916 0.19248L14.8196 0.102572L14.4335 0.0405221L14.0359 0.00633158L13.6255 0L13.2049 0.0227937L12.7728 0.0747126L12.3317 0.157023L11.8804 0.268459L11.4214 0.410286L10.9535 0.581239L10.4779 0.785116L9.99468 1.01812L9.5063 1.28404L9.01665 1.57783L8.53468 1.89567L8.05909 2.23758L7.59117 2.59975L7.13093 2.98471L6.67963 3.38866L6.23857 3.81288L5.80645 4.25355L5.38583 4.71196L4.97545 5.18683L4.57785 5.67563L4.19175 6.17962L3.81972 6.69501L3.46048 7.22307L3.11529 7.76252L2.78545 8.31083L2.47095 8.86801L2.17179 9.43405L1.88925 10.0064L1.62461 10.5839L1.37787 11.1664L1.14902 11.7527L0.938078 12.3415L0.747588 12.9316L0.6875 13.1431L3.64457 14.8336L3.70594 14.6221L3.89643 14.032L4.1061 13.4432L4.33494 12.8569L4.58168 12.2744L4.8476 11.697L5.13014 11.1246L5.42802 10.5598L5.74252 10.0026L6.07364 9.45305L6.41755 8.91486L6.7768 8.38681L7.15011 7.87015L7.53492 7.36743L7.9338 6.87736L8.34291 6.40376L8.7648 5.94535L9.19564 5.50341L9.63799 5.08046L10.0893 4.67524L10.5482 4.29154L11.0162 3.92811L11.4917 3.58747L11.975 3.26963L12.4634 2.97584L12.953 2.70992L13.435 2.47565L13.9106 2.27304L14.3785 2.10082L14.8388 1.95899L15.2888 1.84882L15.7311 1.76651L16.162 1.71459L16.5838 1.6918L16.993 1.69686L17.3906 1.73105L17.7767 1.7931L18.1487 1.88301L18.5079 2.00078Z" fill="#BF392A"/>
<path fill-rule="evenodd" clip-rule="evenodd" d="M2.73828 8.39235L5.69663 10.0842L5.74138 10.0031L6.0725 9.45353L6.4164 8.91534L6.77565 8.38729L7.14896 7.87063L7.53378 7.3679L7.93266 6.87784L8.34176 6.40423L8.76365 5.94583L9.19449 5.50388L9.63684 5.08093L10.0881 4.67571L10.5471 4.29202L11.015 3.92859L11.4906 3.58795L11.9739 3.2701L12.4622 2.97632L12.9519 2.71039L13.4339 2.47612L13.9094 2.27351L14.3774 2.10129L14.8376 1.95946L15.2876 1.84929L15.551 1.79991L12.5926 0.109375L12.3306 0.157495L11.8793 0.268931L11.4203 0.410758L10.9524 0.581711L10.4768 0.785588L9.99353 1.01859L9.50516 1.28452L9.01551 1.5783L8.53353 1.89615L8.05794 2.23805L7.59003 2.60022L7.12978 2.98518L6.67849 3.38914L6.23742 3.81335L5.8053 4.25403L5.38469 4.71244L4.9743 5.1873L4.5767 5.6761L4.19061 6.1801L3.81858 6.69549L3.45933 7.22354L3.11415 7.76299L2.78431 8.31131L2.73828 8.39235Z" fill="#BF392A"/>
<path fill-rule="evenodd" clip-rule="evenodd" d="M12.4624 24.715C17.7104 21.7139 21.9651 14.4161 21.9651 8.41374C21.9651 2.4114 17.7104 -0.0249923 12.4624 2.97618C7.2143 5.97735 2.95703 13.2764 2.95703 19.2825C2.95703 25.2887 7.2143 27.7162 12.4624 24.715ZM12.4624 24.4618C7.33703 27.3933 3.17948 25.0189 3.17948 19.1572C3.17948 13.2954 7.33703 6.16223 12.4624 3.23071C17.5877 0.299185 21.7427 2.67606 21.7427 8.54164C21.7427 14.4072 17.5915 21.5315 12.4624 24.4605V24.4618Z" fill="#BF392A"/>
<path fill-rule="evenodd" clip-rule="evenodd" d="M19.668 17.4361L21.2852 16.7447C21.3568 16.713 21.4131 16.7612 21.468 16.7954L25.8148 19.271C25.8792 19.305 25.931 19.3584 25.9627 19.4235C25.9944 19.4887 26.0044 19.5621 25.9912 19.6332C25.9605 19.7712 25.4632 19.9941 25.2868 20.0878L24.7754 20.36L19.668 17.4361Z" fill="#E74C3C"/>
<path fill-rule="evenodd" clip-rule="evenodd" d="M19.5527 17.6875L19.756 19.3679C19.7662 19.4464 19.8327 19.4667 19.8915 19.5009L24.2281 21.9955C24.2901 22.0338 24.3628 22.0514 24.4357 22.046C24.5086 22.0405 24.5778 22.0122 24.6333 21.9651C24.7382 21.8702 24.6832 21.3839 24.6781 21.1863L24.6615 20.6114L19.5527 17.6875Z" fill="#E74C3C"/>
<path fill-rule="evenodd" clip-rule="evenodd" d="M24.8142 20.9271L12.3774 13.8142C12.347 13.7971 12.3204 13.7741 12.2991 13.7467C12.2778 13.7193 12.2622 13.6879 12.2531 13.6545C12.2441 13.621 12.2418 13.5862 12.2465 13.5519C12.2511 13.5176 12.2626 13.4845 12.2802 13.4546L12.3671 13.3039C12.3846 13.2738 12.4079 13.2475 12.4357 13.2263C12.4635 13.2052 12.4953 13.1897 12.5291 13.1808C12.563 13.1718 12.5983 13.1696 12.633 13.1742C12.6678 13.1788 12.7012 13.1902 12.7315 13.2077L25.1658 20.3244C25.2268 20.3593 25.2713 20.4169 25.2895 20.4843C25.3077 20.5517 25.2982 20.6236 25.263 20.684L25.1773 20.8309C25.1418 20.8911 25.0837 20.9349 25.0157 20.953C24.9477 20.971 24.8753 20.9617 24.8142 20.9271Z" fill="#383838"/>
<defs>
<linearGradient id="paint0_linear_2869_7378" x1="12.461" y1="3.92969" x2="12.461" y2="23.3818" gradientUnits="userSpaceOnUse">
<stop stop-color="white"/>
<stop offset="1" stop-color="white" stop-opacity="0"/>
</linearGradient>
<linearGradient id="paint1_linear_2869_7378" x1="12.4608" y1="8.97266" x2="12.4608" y2="18.7211" gradientUnits="userSpaceOnUse">
<stop stop-color="white"/>
<stop offset="1" stop-color="white" stop-opacity="0"/>
</linearGradient>
</defs>
</svg>
