<svg width="46" height="46" viewBox="0 0 46 46" fill="none" xmlns="http://www.w3.org/2000/svg">
<path d="M4.22918 42H17.1665C18.2875 41.9988 19.3623 41.5608 20.155 40.782C20.9476 40.0033 21.3935 38.9474 21.3947 37.8461L21.3947 11.902C21.3935 10.8007 20.9476 9.74482 20.155 8.96608C19.3623 8.18733 18.2875 7.7493 17.1665 7.7481L14.9539 7.7481C14.8389 6.71798 14.3409 5.76583 13.5554 5.07416C12.7699 4.3825 11.7522 4 10.6974 4C9.64253 4 8.62481 4.3825 7.83931 5.07416C7.05382 5.76583 6.55582 6.71798 6.4408 7.7481H4.22918C3.10799 7.74906 2.033 8.18698 1.24011 8.96575C0.447226 9.74453 0.00122921 10.8005 0 11.902L0 37.8461C0.00122921 38.9476 0.447226 40.0036 1.24011 40.7823C2.033 41.5611 3.10799 41.999 4.22918 42V42ZM1.85694 11.8993C1.85768 11.2815 2.10788 10.6892 2.55262 10.2525C2.99737 9.81569 3.60034 9.57013 4.22918 9.56965H7.34699C7.59323 9.56965 7.82939 9.47354 8.00351 9.30248C8.17763 9.13142 8.27546 8.89942 8.27546 8.6575V8.20143C8.28788 7.57774 8.5488 6.98371 9.00217 6.54695C9.45553 6.11018 10.0652 5.86553 10.7002 5.86553C11.3351 5.86553 11.9448 6.11018 12.3982 6.54695C12.8515 6.98371 13.1124 7.57774 13.1249 8.20143V8.6575C13.1249 8.89942 13.2227 9.13142 13.3968 9.30248C13.5709 9.47354 13.8071 9.56965 14.0533 9.56965H17.1693C17.798 9.57037 18.4007 9.81604 18.8452 10.2528C19.2898 10.6895 19.5399 11.2816 19.5406 11.8993L19.5406 37.8461C19.5399 38.4637 19.2898 39.0559 18.8452 39.4926C18.4007 39.9293 17.798 40.175 17.1693 40.1757H4.22918C3.60034 40.1752 2.99737 39.9297 2.55262 39.4929C2.10788 39.0562 1.85768 38.4639 1.85694 37.8461L1.85694 11.8993Z" fill="#103A4F"/>
<path d="M4.23119 38.5055H17.1685C17.3457 38.5052 17.5156 38.436 17.6409 38.3129C17.7662 38.1898 17.8368 38.0228 17.837 37.8487V29.125L4.40203 35.8174L3.56641 36.2352V37.8487C3.56665 38.0222 3.63664 38.1886 3.76116 38.3116C3.88567 38.4346 4.05461 38.5043 4.23119 38.5055V38.5055Z" fill="#103A4F"/>
<path d="M17.8366 13.5201V11.9037C17.8366 11.7295 17.7662 11.5623 17.6409 11.439C17.5155 11.3157 17.3455 11.2463 17.1681 11.2461L4.22709 11.2461C4.04971 11.2463 3.87968 11.3157 3.75434 11.439C3.629 11.5623 3.55859 11.7295 3.55859 11.9037L3.55859 20.6275L16.9926 13.9351L17.8366 13.5201Z" fill="#103A4F"/>
<path d="M17.8329 15.5625L3.55859 22.6727L3.55859 34.1885L17.8329 27.0774V15.5625Z" fill="#103A4F"/>
<path d="M28.8347 42H41.772C42.893 41.9988 43.9677 41.5608 44.7604 40.782C45.5531 40.0033 45.999 38.9474 46.0002 37.8461L46.0002 11.902C45.999 10.8007 45.5531 9.74482 44.7604 8.96608C43.9677 8.18733 42.893 7.7493 41.772 7.7481L39.5594 7.7481C39.4444 6.71798 38.9464 5.76583 38.1609 5.07416C37.3754 4.3825 36.3577 4 35.3028 4C34.248 4 33.2303 4.3825 32.4448 5.07416C31.6593 5.76583 31.1613 6.71798 31.0463 7.7481H28.8347C27.7135 7.74906 26.6385 8.18698 25.8456 8.96575C25.0527 9.74453 24.6067 10.8005 24.6055 11.902L24.6055 37.8461C24.6067 38.9476 25.0527 40.0036 25.8456 40.7823C26.6385 41.5611 27.7135 41.999 28.8347 42V42ZM26.4624 11.8993C26.4631 11.2815 26.7133 10.6892 27.1581 10.2525C27.6028 9.81569 28.2058 9.57013 28.8347 9.56965H31.9525C32.1987 9.56965 32.4349 9.47354 32.609 9.30248C32.7831 9.13142 32.8809 8.89942 32.8809 8.6575V8.20143C32.8933 7.57774 33.1543 6.98371 33.6076 6.54695C34.061 6.11018 34.6706 5.86553 35.3056 5.86553C35.9406 5.86553 36.5503 6.11018 37.0036 6.54695C37.457 6.98371 37.7179 7.57774 37.7303 8.20143V8.6575C37.7303 8.89942 37.8281 9.13142 38.0023 9.30248C38.1764 9.47354 38.4125 9.56965 38.6588 9.56965H41.7747C42.4034 9.57037 43.0062 9.81604 43.4507 10.2528C43.8953 10.6895 44.1453 11.2816 44.1461 11.8993L44.1461 37.8461C44.1453 38.4637 43.8953 39.0559 43.4507 39.4926C43.0062 39.9293 42.4034 40.175 41.7747 40.1757H28.8347C28.2058 40.1752 27.6028 39.9297 27.1581 39.4929C26.7133 39.0562 26.4631 38.4639 26.4624 37.8461L26.4624 11.8993Z" fill="#103A4F"/>
<path d="M28.8367 38.5055H41.774C41.9512 38.5052 42.1211 38.436 42.2464 38.3129C42.3717 38.1898 42.4422 38.0228 42.4425 37.8487V29.125L29.0075 35.8174L28.1719 36.2352V37.8487C28.1721 38.0222 28.2421 38.1886 28.3666 38.3116C28.4911 38.4346 28.6601 38.5043 28.8367 38.5055V38.5055Z" fill="#103A4F"/>
<path d="M42.4421 13.5201V11.9037C42.4421 11.7295 42.3717 11.5623 42.2463 11.439C42.121 11.3157 41.951 11.2463 41.7736 11.2461L28.8326 11.2461C28.6552 11.2463 28.4852 11.3157 28.3598 11.439C28.2345 11.5623 28.1641 11.7295 28.1641 11.9037V20.6275L41.5981 13.9351L42.4421 13.5201Z" fill="#103A4F"/>
<path d="M42.4384 15.5625L28.1641 22.6727L28.1641 34.1885L42.4384 27.0774V15.5625Z" fill="#103A4F"/>
</svg>
