<svg width="46" height="46" viewBox="0 0 46 46" fill="none" xmlns="http://www.w3.org/2000/svg">
<path fill-rule="evenodd" clip-rule="evenodd" d="M32.0135 12.2233C32.0135 12.2233 30.2409 8.94511 29.6749 7.84273C28.9323 6.50005 28.0236 5.26219 26.9716 4.16014C26.1959 3.449 25.2035 3.03871 24.1654 3H19.4883C18.9241 3.03171 18.3745 3.19671 17.8822 3.48221C17.3899 3.76771 16.968 4.16604 16.6494 4.64634C14.1378 8.87771 9.72266 16.1996 9.72266 16.1996L16.0928 19.9736L22.2992 9.72976C23.099 11.2846 25.6059 15.8867 25.6059 15.8867L22.6126 17.5908V17.6293L30.9892 18.1347L35.0302 10.5626V10.5241L32.0135 12.2233ZM7.34977 22.7805C7.34977 22.7805 5.47903 26.0008 4.8383 27.0646C4.07767 28.398 3.49113 29.8287 3.09383 31.3199C2.88151 32.368 3.03207 33.4596 3.51943 34.4054L5.85786 38.5741C6.16716 39.0611 6.58105 39.4685 7.0676 39.7648C7.55413 40.0611 8.10031 40.2383 8.66398 40.2829C13.4811 40.4033 21.8434 40.6776 21.8434 40.6776V33.1154L10.1232 32.7062C11.0258 31.214 13.6448 26.6795 13.6448 26.6795L16.5772 28.4991V28.4558L12.8357 20.7539L4.44545 20.9368L4.42206 20.9753L7.34977 22.7805ZM33.4221 39.5816C32.2061 39.5479 28.5627 39.4901 28.5627 39.4901L28.5019 42.9994H28.4551L24.1055 35.615L28.717 28.3942H28.7638L28.703 31.9131C28.703 31.9131 33.8244 31.9805 35.5315 32.0431L30.0173 21.3901L36.378 17.6016C36.378 17.6016 40.3301 25.2171 42.6359 29.5495C42.8827 30.0761 43.0078 30.6543 43.0013 31.2389C42.9948 31.8235 42.8569 32.3986 42.5985 32.9192L40.26 37.088C39.7052 37.9945 38.8623 38.675 37.8747 39.0136C36.4207 39.401 34.924 39.5919 33.4221 39.5816Z" fill="#103A4F"/>
</svg>
