<svg width="46" height="46" viewBox="0 0 46 46" fill="none" xmlns="http://www.w3.org/2000/svg">
<path d="M18.6629 16H11.1605C10.1075 16 9.25391 16.8501 9.25391 17.8987V38.3434C9.25391 39.3921 10.1075 40.2422 11.1605 40.2422H18.6629C19.7158 40.2422 20.5694 39.3921 20.5694 38.3434V17.8987C20.5694 16.8501 19.7158 16 18.6629 16Z" stroke="#103A4F" stroke-width="1.41818" stroke-linecap="round" stroke-linejoin="round"/>
<path d="M18.6403 19.7773H11.1855V24.6951H18.6403V19.7773Z" stroke="#103A4F" stroke-width="1.41818" stroke-linecap="round" stroke-linejoin="round"/>
<path d="M7.5618 23.0234L5.29297 24.6469V27.8747" stroke="#103A4F" stroke-width="1.41818" stroke-linecap="round" stroke-linejoin="round"/>
<path d="M6.53701 27.0352H5.74101C5.49357 27.0352 5.29297 27.2349 5.29297 27.4814V31.2124C5.29297 31.4588 5.49357 31.6586 5.74101 31.6586H6.53701C6.78446 31.6586 6.98506 31.4588 6.98506 31.2124V27.4814C6.98506 27.2349 6.78446 27.0352 6.53701 27.0352Z" stroke="#103A4F" stroke-width="1.41818" stroke-linecap="round" stroke-linejoin="round"/>
<path d="M6.14062 31.6562V37.6183H8.98619" stroke="#103A4F" stroke-width="1.41818" stroke-linecap="round" stroke-linejoin="round"/>
<path d="M9.25068 21.4492H7.55859V26.1059H9.25068V21.4492Z" stroke="#103A4F" stroke-width="1.41818" stroke-linecap="round" stroke-linejoin="round"/>
<path d="M18.4912 40.2422H11.332V41.9985H18.4912V40.2422Z" stroke="#103A4F" stroke-width="1.41818" stroke-linecap="round" stroke-linejoin="round"/>
<path d="M27.2864 40.1172H34.7887C35.8417 40.1172 36.6953 39.2671 36.6953 38.2184V17.7738C36.6953 16.7251 35.8417 15.875 34.7887 15.875H27.2864C26.2334 15.875 25.3798 16.7251 25.3798 17.7738L25.3798 38.2184C25.3798 39.2671 26.2334 40.1172 27.2864 40.1172Z" stroke="#103A4F" stroke-width="1.41818" stroke-linecap="round" stroke-linejoin="round"/>
<path d="M27.3578 24.6992H34.8125V19.7815H27.3578V24.6992Z" stroke="#103A4F" stroke-width="1.41818" stroke-linecap="round" stroke-linejoin="round"/>
<path d="M38.4316 23.0234L40.7005 24.6469V27.8747" stroke="#103A4F" stroke-width="1.41818" stroke-linecap="round" stroke-linejoin="round"/>
<path d="M39.4591 31.6562H40.2551C40.5025 31.6562 40.7031 31.4565 40.7031 31.21V27.479C40.7031 27.2326 40.5025 27.0328 40.2551 27.0328H39.4591C39.2116 27.0328 39.011 27.2326 39.011 27.479V31.21C39.011 31.4565 39.2116 31.6562 39.4591 31.6562Z" stroke="#103A4F" stroke-width="1.41818" stroke-linecap="round" stroke-linejoin="round"/>
<path d="M28.8335 28.9375C29.1623 28.9375 29.4288 28.6716 29.4288 28.3437C29.4288 28.0158 29.1623 27.75 28.8335 27.75C28.5048 27.75 28.2383 28.0158 28.2383 28.3437C28.2383 28.6716 28.5048 28.9375 28.8335 28.9375Z" fill="#103A4F"/>
<path d="M12.6441 28.9375C12.9728 28.9375 13.2393 28.6716 13.2393 28.3437C13.2393 28.0158 12.9728 27.75 12.6441 27.75C12.3153 27.75 12.0488 28.0158 12.0488 28.3437C12.0488 28.6716 12.3153 28.9375 12.6441 28.9375Z" fill="#103A4F"/>
<path d="M31.2144 28.9375C31.5431 28.9375 31.8096 28.6716 31.8096 28.3437C31.8096 28.0158 31.5431 27.75 31.2144 27.75C30.8856 27.75 30.6191 28.0158 30.6191 28.3437C30.6191 28.6716 30.8856 28.9375 31.2144 28.9375Z" fill="#103A4F"/>
<path d="M15.0249 28.9375C15.3537 28.9375 15.6202 28.6716 15.6202 28.3437C15.6202 28.0158 15.3537 27.75 15.0249 27.75C14.6962 27.75 14.4297 28.0158 14.4297 28.3437C14.4297 28.6716 14.6962 28.9375 15.0249 28.9375Z" fill="#103A4F"/>
<path d="M33.5952 28.9375C33.924 28.9375 34.1905 28.6716 34.1905 28.3437C34.1905 28.0158 33.924 27.75 33.5952 27.75C33.2665 27.75 33 28.0158 33 28.3437C33 28.6716 33.2665 28.9375 33.5952 28.9375Z" fill="#103A4F"/>
<path d="M17.4058 28.9375C17.7345 28.9375 18.001 28.6716 18.001 28.3437C18.001 28.0158 17.7345 27.75 17.4058 27.75C17.0771 27.75 16.8105 28.0158 16.8105 28.3437C16.8105 28.6716 17.0771 28.9375 17.4058 28.9375Z" fill="#103A4F"/>
<path d="M39.8573 31.6562V37.6183H37.0117" stroke="#103A4F" stroke-width="1.41818" stroke-linecap="round" stroke-linejoin="round"/>
<path d="M36.7454 26.1016H38.4375V21.4449H36.7454V26.1016Z" stroke="#103A4F" stroke-width="1.41818" stroke-linecap="round" stroke-linejoin="round"/>
<path d="M27.5049 41.9961H34.6641V40.2398H27.5049V41.9961Z" stroke="#103A4F" stroke-width="1.41818" stroke-linecap="round" stroke-linejoin="round"/>
<path d="M43 14.3355H3L6.42231 9.375H39.5777L43 14.3355Z" stroke="#103A4F" stroke-width="1.41818" stroke-linecap="round" stroke-linejoin="round"/>
<path d="M39.4663 4H6.52539V6.75317H39.4663V4Z" stroke="#103A4F" stroke-width="1.41818" stroke-linecap="round" stroke-linejoin="round"/>
<path d="M10.6445 6.75391V9.37417" stroke="#103A4F" stroke-width="1.41818" stroke-linecap="round" stroke-linejoin="round"/>
<path d="M35.3516 6.75391V9.37417" stroke="#103A4F" stroke-width="1.41818" stroke-linecap="round" stroke-linejoin="round"/>
<path d="M3.74609 14.3281V41.9996" stroke="#103A4F" stroke-width="1.41818" stroke-linecap="round" stroke-linejoin="round"/>
<path d="M42.2461 14.3281V41.9996" stroke="#103A4F" stroke-width="1.41818" stroke-linecap="round" stroke-linejoin="round"/>
</svg>
