<svg xmlns="http://www.w3.org/2000/svg" width="42.579" height="42.912" viewBox="0 0 42.579 42.912">
  <g id="ipin" transform="translate(-1.985)">
    <rect id="사각형_1" data-name="사각형 1" width="23.951" height="2.661" transform="translate(11.299 14.637)" fill="#fff"/>
    <rect id="사각형_2" data-name="사각형 2" width="23.951" height="2.661" transform="translate(11.299 19.959)" fill="#fff"/>
    <rect id="사각형_3" data-name="사각형 3" width="12.641" height="2.661" transform="translate(11.299 25.281)" fill="#fff"/>
    <path id="패스_1" data-name="패스 1" d="M326.349,311.8l-10.814-6.183,1.316,13.08,2.538-3.071,4.8,7.288,3.591-2.364-4.795-7.288Z" transform="translate(-287.271 -279.998)" fill="#fff"/>
    <path id="패스_2" data-name="패스 2" d="M40.572,0H5.977A3.992,3.992,0,0,0,1.985,3.992V33.265a3.992,3.992,0,0,0,3.992,3.992H26.69l-.345-3.326H5.977a.666.666,0,0,1-.665-.665V8.649H41.237V33.265a.666.666,0,0,1-.665.665H38.516l2.207,3.319a3.989,3.989,0,0,0,3.84-3.984V3.992A3.992,3.992,0,0,0,40.572,0ZM27.238,6.071a1.58,1.58,0,1,1,1.58-1.58A1.58,1.58,0,0,1,27.238,6.071Zm5.863,0a1.58,1.58,0,1,1,1.58-1.58A1.58,1.58,0,0,1,33.1,6.071Zm5.863,0a1.58,1.58,0,1,1,1.58-1.58A1.58,1.58,0,0,1,38.964,6.071Z" transform="translate(0)" fill="#fff"/>
  </g>
</svg>
