<!--?xml version="1.0" encoding="utf-8"?-->
<!-- Generator: Adobe Illustrator 18.1.1, SVG Export Plug-In . SVG Version: 6.00 Build 0)  -->

<svg version="1.1" id="_x32_" xmlns="http://www.w3.org/2000/svg" xmlns:xlink="http://www.w3.org/1999/xlink" x="0px" y="0px" viewBox="0 0 512 512" style="width: 48px; height: 48px; opacity: 1;" xml:space="preserve">
<style type="text/css">
	.st0{fill:#4B4B4B;}
</style>
<g>
	<polygon class="st0" points="318.707,4.976 303.326,0 287.273,49.573 302.655,54.549 	" style="fill: rgb(255, 255, 255);"></polygon>
	<polygon class="st0" points="249.911,49.614 233.75,0.083 218.369,5.092 234.537,54.631 	" style="fill: rgb(255, 255, 255);"></polygon>
	<polygon class="st0" points="204.328,76.636 162.14,46.055 152.643,59.152 194.841,89.725 	" style="fill: rgb(255, 255, 255);"></polygon>
	<path class="st0" d="M72.894,244.87c-2.724,18.055,0.736,36.733,9.752,52.71l34.994,44.573l0.588,1.168
		c3.046,6.143,4.164,13.238,3.138,19.986l-11.674,77.357c-1.234,8.236-7.277,14.909-15.034,16.896l-23.321,8.196
		c-6.714,1.862-11.723,7.525-12.766,14.413l-2.07,13.776L176.122,512l2.086-13.76c1.051-7.012-2.178-13.867-8.668-18.056
		l-18.975-14.082c-7.045-4.396-10.795-12.534-9.553-20.722l11.672-77.34c1.018-6.764,4.181-13.221,8.917-18.189l1.25-1.175
		l46.254-32.089c13.304-12.534,22.13-29.373,24.845-47.413l19.67-130.365L92.564,114.52L72.894,244.87z M97.425,248.578l7.053-46.7
		l117.202-17.692l-12.261,81.297c-1.838,12.202-7.724,23.678-16.574,32.32l-29.613,21.947c-4.603,3.419-10.282,5.298-16.011,5.298
		c-1.332,0-2.674-0.1-4.007-0.298c-7.029-1.06-13.462-4.951-17.666-10.688l-22.112-30.193
		C97.83,273.497,95.587,260.789,97.425,248.578z" style="fill: rgb(255, 255, 255);"></path>
	<path class="st0" d="M453.378,465.945c-1.076-6.987-6.201-12.567-13.644-14.637l-22.295-7.782
		c-8.064-2.086-14.074-8.734-15.315-16.938l-11.93-77.307c-1.043-6.756,0.058-13.867,3.088-19.993l0.579-1.176l34.854-44.772
		c8.957-15.903,12.368-34.605,9.586-52.653L418.21,100.388l-160.98,24.819l20.092,130.3c2.782,18.048,11.657,34.854,25.01,47.396
		l46.982,32.42l0.62,0.638c4.744,4.942,7.923,11.382,8.966,18.147l11.922,77.315c1.258,8.22-2.508,16.383-9.314,20.589
		l-19.82,14.794c-5.861,3.783-8.957,10.68-7.889,17.576l2.128,13.759l119.57-18.437L453.378,465.945z M368.248,310.784
		c-1.358,0.208-2.724,0.315-4.09,0.315c-5.787,0-11.3-1.813-15.953-5.249l-30.11-22.22c-8.444-8.238-14.363-19.695-16.25-31.898
		l-12.568-81.529l116.375,11.599l8.13,52.67c1.878,12.202-0.323,24.918-6.193,35.789l-21.715,29.786
		C381.692,305.793,375.268,309.708,368.248,310.784z" style="fill: rgb(255, 255, 255);"></path>
</g>
</svg>
