<!--?xml version="1.0" encoding="utf-8"?-->
<!-- Generator: Adobe Illustrator 18.1.1, SVG Export Plug-In . SVG Version: 6.00 Build 0)  -->

<svg version="1.1" id="_x32_" xmlns="http://www.w3.org/2000/svg" xmlns:xlink="http://www.w3.org/1999/xlink" x="0px" y="0px" viewBox="0 0 512 512" style="width: 48px; height: 48px; opacity: 1;" xml:space="preserve">
<style type="text/css">
	.st0{fill:#4B4B4B;}
</style>
<g>
	<path class="st0" d="M508.788,412.166l-0.157-0.164c-1.034-1.66-2.358-3.094-3.901-4.277c-9.854-10.95-36.431-41.672-63.699-83.086
		c-32.491-49.232-65.61-113.58-73.083-176.254c-1.841-15.635-7.911-28.372-16.864-37.114c-8.915-8.758-20.531-13.27-32.03-13.238
		c-6.361-0.007-12.69,1.379-18.612,3.995c-2.875-5.296-6.642-10.034-11.131-13.974c-8.851-7.786-20.577-12.541-33.314-12.533
		c-12.729-0.008-24.455,4.747-33.307,12.533c-4.488,3.94-8.256,8.672-11.138,13.966c-5.907-2.608-12.236-3.994-18.596-3.987
		c-11.507-0.032-23.123,4.473-32.037,13.238c-8.946,8.742-15.024,21.479-16.872,37.129c-7.708,64.678-42.754,131.158-76.209,180.954
		c-16.701,24.918-32.931,45.707-44.954,60.221c-6.001,7.262-10.958,12.948-14.397,16.794c-0.455,0.509-0.815,0.909-1.214,1.355
		c-1.558,1.191-2.883,2.625-3.917,4.293l-0.141,0.148c-4.292,4.528-4.206,11.444-0.204,16.058c2.742,4.903,7.927,8.256,13.943,8.256
		h478.089c6.016,0,11.194-3.353,13.943-8.248C512.994,423.61,513.081,416.702,508.788,412.166z M338.919,270.863l-32.398-37.56
		c-2.272-2.64-5.624-4.175-9.102-4.175c-3.485,0-6.846,1.535-9.118,4.175l-32.366,37.545l-32.32-37.536
		c-2.272-2.648-5.64-4.183-9.118-4.183c-3.486,0-6.847,1.535-9.118,4.175l-32.351,37.545l-28.466-33.041
		c11.202-27.737,19.771-56.931,23.374-86.54c1.371-11.249,5.319-18.385,9.815-22.803c4.535-4.402,9.8-6.338,15.204-6.369
		c5.687,0.016,11.515,2.256,16.309,7.066c3.22,3.235,7.958,4.371,12.298,2.945c4.339-1.425,7.473-5.162,8.139-9.682
		c0.948-6.462,4.182-12.173,8.86-16.285c4.692-4.097,10.692-6.548,17.436-6.556c6.752,0.008,12.744,2.459,17.436,6.556
		c4.684,4.112,7.911,9.823,8.867,16.292c0.658,4.52,3.799,8.249,8.138,9.682c4.332,1.426,9.079,0.29,12.298-2.953
		c4.802-4.81,10.614-7.05,16.317-7.066c5.404,0.031,10.669,1.967,15.196,6.369c4.496,4.425,8.444,11.562,9.807,22.786
		c3.619,29.618,12.173,58.811,23.375,86.556L338.919,270.863z" style="fill: rgb(255, 255, 255);"></path>
</g>
</svg>
