<svg xmlns="http://www.w3.org/2000/svg" width="30.371" height="47.503" viewBox="0 0 30.371 47.503">
  <g id="phone" transform="translate(-92.328)">
    <path id="패스_3" data-name="패스 3" d="M117.18,0H97.847a5.519,5.519,0,0,0-5.519,5.519V38.673a8.83,8.83,0,0,0,8.83,8.83h12.711a8.83,8.83,0,0,0,8.83-8.83V5.519A5.519,5.519,0,0,0,117.18,0Zm-9.667,44.648a1.363,1.363,0,1,1,1.363-1.363A1.362,1.362,0,0,1,107.513,44.648Zm-3.5-42.571h7.008a.714.714,0,1,1,0,1.428h-7.008a.714.714,0,1,1,0-1.428Zm-8.566,36.6V6.619h24.141V38.673a5.736,5.736,0,0,1-.1,1.043H95.543A5.751,5.751,0,0,1,95.443,38.673Z" transform="translate(0)" fill="#fff"/>
  </g>
</svg>
