<svg xmlns="http://www.w3.org/2000/svg" width="35.146" height="32.288" viewBox="0 0 35.146 32.288">
    <defs>
        <style>
            .cls-2{fill:#fae300}
        </style>
    </defs>
    <g id="Talk" transform="translate(-55.098 -77.391)">
        <path id="패스_249" fill="#391b1b" d="M72.671 77.391c-9.706 0-17.573 6.219-17.573 13.892 0 4.994 3.333 9.371 8.336 11.819-.368 1.372-1.331 4.972-1.524 5.741-.238.956.351.943.736.686.3-.2 4.815-3.269 6.763-4.593a22.252 22.252 0 0 0 3.262.24c9.705 0 17.573-6.221 17.573-13.893s-7.868-13.892-17.573-13.892"/>
        <g id="그룹_291" transform="translate(59.586 87.068)">
            <path id="패스_250" d="M110.413 185.048h-5.139a.874.874 0 1 0 0 1.748h1.671v6.156a.855.855 0 0 0 .852.853h.187a.854.854 0 0 0 .851-.853V186.8h1.578a.874.874 0 1 0 0-1.748z" class="cls-2" transform="translate(-104.4 -184.925)"/>
            <path id="패스_251" d="M263.319 190.93h-2.389v-6.287a.948.948 0 1 0-1.9 0v6.777a.923.923 0 0 0 .015.152.81.81 0 0 0-.015.151.793.793 0 0 0 .793.794h3.492a.793.793 0 0 0 0-1.587z" class="cls-2" transform="translate(-244.956 -183.694)"/>
            <path id="패스_252" d="M326.963 191.218l-2.663-3.5 2.406-2.407a.835.835 0 1 0-1.181-1.18l-2.979 2.979v-2.47a.948.948 0 1 0-1.9 0v6.985a.948.948 0 1 0 1.9 0v-2.155l.542-.541 2.519 3.306a.848.848 0 1 0 1.356-1.019z" class="cls-2" transform="translate(-300.963 -183.694)"/>
            <path id="패스_253" d="M175.053 191.446l-2.561-7.006-.008-.008a1.259 1.259 0 0 0-1.2-.738 1.222 1.222 0 0 0-1.245.882 1.167 1.167 0 0 0-.049.115l-2.518 6.755a.849.849 0 1 0 1.6.563l.436-1.244h3.505l.436 1.244a.849.849 0 1 0 1.6-.563zm-4.987-2.268l1.178-3.361h.038l1.177 3.357z" class="cls-2" transform="translate(-161.686 -183.694)"/>
        </g>
    </g>
</svg>
