<svg width="70" height="70" viewBox="0 0 70 70" fill="none" xmlns="http://www.w3.org/2000/svg">
<path d="M13.7809 57H28.4061C29.6734 56.9986 30.8884 56.503 31.7845 55.6218C32.6806 54.7405 33.1847 53.5458 33.186 52.2995L33.186 22.9417C33.1847 21.6955 32.6806 20.5007 31.7845 19.6195C30.8884 18.7383 29.6734 18.2426 28.4061 18.2413H25.9049C25.7749 17.0756 25.2119 15.9982 24.324 15.2155C23.436 14.4328 22.2855 14 21.093 14C19.9006 14 18.7501 14.4328 17.8621 15.2155C16.9741 15.9982 16.4111 17.0756 16.2811 18.2413H13.7809C12.5135 18.2424 11.2982 18.7379 10.4019 19.6191C9.50557 20.5004 9.00139 21.6953 9 22.9417L9 52.2995C9.00139 53.5459 9.50557 54.7409 10.4019 55.6221C11.2982 56.5034 12.5135 56.9989 13.7809 57ZM11.0992 22.9386C11.1 22.2396 11.3829 21.5694 11.8857 21.0751C12.3884 20.5809 13.0701 20.303 13.7809 20.3025H17.3055C17.5839 20.3025 17.8509 20.1937 18.0477 20.0002C18.2445 19.8066 18.3551 19.5441 18.3551 19.2703V18.7543C18.3692 18.0485 18.6641 17.3763 19.1767 16.8821C19.6892 16.3878 20.3784 16.111 21.0962 16.111C21.814 16.111 22.5032 16.3878 23.0157 16.8821C23.5282 17.3763 23.8232 18.0485 23.8372 18.7543V19.2703C23.8372 19.5441 23.9478 19.8066 24.1446 20.0002C24.3415 20.1937 24.6084 20.3025 24.8868 20.3025H28.4093C29.12 20.3033 29.8014 20.5813 30.3039 21.0755C30.8065 21.5697 31.0892 22.2397 31.09 22.9386L31.09 52.2995C31.0892 52.9984 30.8065 53.6685 30.3039 54.1627C29.8014 54.6569 29.12 54.9349 28.4093 54.9357H13.7809C13.0701 54.9351 12.3884 54.6572 11.8857 54.163C11.3829 53.6688 11.1 52.9986 11.0992 52.2995L11.0992 22.9386Z" fill="#103A4F"/>
<path d="M13.7828 53.043H28.408C28.6083 53.0427 28.8004 52.9643 28.942 52.825C29.0837 52.6857 29.1634 52.4968 29.1637 52.2998V42.4282L13.9759 50.0012L13.0312 50.4739V52.2998C13.0315 52.4961 13.1107 52.6844 13.2514 52.8236C13.3922 52.9628 13.5832 53.0416 13.7828 53.043Z" fill="#103A4F"/>
<path d="M29.1643 24.7719V22.9429C29.1643 22.7457 29.0847 22.5566 28.943 22.4171C28.8013 22.2775 28.6091 22.199 28.4086 22.1987L13.7792 22.1987C13.5786 22.199 13.3864 22.2775 13.2447 22.4171C13.103 22.5566 13.0234 22.7457 13.0234 22.9429L13.0234 32.8145L28.2102 25.2415L29.1643 24.7719Z" fill="#103A4F"/>
<path d="M29.1601 27.0825L13.0234 35.1282L13.0234 48.1593L29.1601 40.1125L29.1601 27.0825Z" fill="#103A4F"/>
<path d="M41.5964 57H56.2216C57.4889 56.9986 58.7038 56.503 59.5999 55.6218C60.496 54.7405 61.0001 53.5458 61.0015 52.2995L61.0015 22.9417C61.0001 21.6955 60.496 20.5007 59.5999 19.6195C58.7038 18.7383 57.4889 18.2426 56.2216 18.2413H53.7204C53.5903 17.0756 53.0274 15.9982 52.1394 15.2155C51.2514 14.4328 50.1009 14 48.9085 14C47.716 14 46.5655 14.4328 45.6775 15.2155C44.7895 15.9982 44.2266 17.0756 44.0965 18.2413H41.5964C40.3289 18.2424 39.1137 18.7379 38.2173 19.6191C37.321 20.5004 36.8168 21.6953 36.8154 22.9417L36.8154 52.2995C36.8168 53.5459 37.321 54.7409 38.2173 55.6221C39.1137 56.5034 40.3289 56.9989 41.5964 57ZM38.9146 22.9386C38.9155 22.2396 39.1983 21.5694 39.7011 21.0751C40.2039 20.5809 40.8855 20.303 41.5964 20.3025H45.121C45.3993 20.3025 45.6663 20.1937 45.8631 20.0002C46.06 19.8066 46.1706 19.5441 46.1706 19.2703V18.7543C46.1846 18.0485 46.4796 17.3763 46.9921 16.8821C47.5046 16.3878 48.1938 16.111 48.9116 16.111C49.6294 16.111 50.3186 16.3878 50.8311 16.8821C51.3436 17.3763 51.6386 18.0485 51.6526 18.7543V19.2703C51.6526 19.5441 51.7632 19.8066 51.9601 20.0002C52.1569 20.1937 52.4239 20.3025 52.7022 20.3025H56.2247C56.9354 20.3033 57.6168 20.5813 58.1193 21.0755C58.6219 21.5697 58.9046 22.2397 58.9054 22.9386L58.9054 52.2995C58.9046 52.9984 58.6219 53.6685 58.1193 54.1627C57.6168 54.6569 56.9354 54.9349 56.2247 54.9357H41.5964C40.8855 54.9351 40.2039 54.6572 39.7011 54.163C39.1983 53.6688 38.9155 52.9986 38.9146 52.2995L38.9146 22.9386Z" fill="#103A4F"/>
<path d="M41.5982 53.043H56.2234C56.4237 53.0427 56.6158 52.9643 56.7575 52.825C56.8991 52.6857 56.9788 52.4968 56.9791 52.2998V42.4282L41.7913 50.0012L40.8467 50.4739V52.2998C40.847 52.4961 40.9261 52.6844 41.0668 52.8236C41.2076 52.9628 41.3986 53.0416 41.5982 53.043Z" fill="#103A4F"/>
<path d="M56.9797 24.7719V22.9429C56.9797 22.7457 56.9001 22.5566 56.7584 22.4171C56.6167 22.2775 56.4245 22.199 56.224 22.1987L41.5946 22.1987C41.3941 22.199 41.2018 22.2775 41.0602 22.4171C40.9185 22.5566 40.8389 22.7457 40.8389 22.9429L40.8389 32.8145L56.0256 25.2415L56.9797 24.7719Z" fill="#103A4F"/>
<path d="M56.9755 27.0825L40.8389 35.1282V48.1593L56.9755 40.1125V27.0825Z" fill="#103A4F"/>
</svg>
