<svg width="70" height="70" viewBox="0 0 70 70" fill="none" xmlns="http://www.w3.org/2000/svg">
<path d="M29.535 25.4219H19.2192C17.7714 25.4219 16.5977 26.5852 16.5977 28.0202V55.9982C16.5977 57.4333 17.7714 58.5966 19.2192 58.5966H29.535C30.9828 58.5966 32.1565 57.4333 32.1565 55.9982V28.0202C32.1565 26.5852 30.9828 25.4219 29.535 25.4219Z" stroke="#103A4F" stroke-width="2" stroke-linecap="round" stroke-linejoin="round"/>
<path d="M29.5041 30.5928H19.2539V37.3226H29.5041V30.5928Z" stroke="#103A4F" stroke-width="2" stroke-linecap="round" stroke-linejoin="round"/>
<path d="M14.272 35.0361L11.1523 37.2577V41.675" stroke="#103A4F" stroke-width="2" stroke-linecap="round" stroke-linejoin="round"/>
<path d="M12.8629 40.5186H11.7684C11.4282 40.5186 11.1523 40.7919 11.1523 41.1292V46.235C11.1523 46.5722 11.4282 46.8456 11.7684 46.8456H12.8629C13.2031 46.8456 13.479 46.5722 13.479 46.235V41.1292C13.479 40.7919 13.2031 40.5186 12.8629 40.5186Z" stroke="#103A4F" stroke-width="2" stroke-linecap="round" stroke-linejoin="round"/>
<path d="M12.3203 46.8452V55.0041H16.233" stroke="#103A4F" stroke-width="2" stroke-linecap="round" stroke-linejoin="round"/>
<path d="M16.5962 32.873H14.2695V39.2456H16.5962V32.873Z" stroke="#103A4F" stroke-width="2" stroke-linecap="round" stroke-linejoin="round"/>
<path d="M29.3009 58.5967H19.457V61.0002H29.3009V58.5967Z" stroke="#103A4F" stroke-width="2" stroke-linecap="round" stroke-linejoin="round"/>
<path d="M41.3947 58.4248H51.7105C53.1583 58.4248 54.332 57.2615 54.332 55.8264L54.332 27.8484C54.332 26.4134 53.1583 25.2501 51.7105 25.2501H41.3947C39.9469 25.2501 38.7732 26.4134 38.7732 27.8484V55.8264C38.7732 57.2615 39.9469 58.4248 41.3947 58.4248Z" stroke="#103A4F" stroke-width="2" stroke-linecap="round" stroke-linejoin="round"/>
<path d="M41.4919 37.3223H51.7422V30.5925H41.4919V37.3223Z" stroke="#103A4F" stroke-width="2" stroke-linecap="round" stroke-linejoin="round"/>
<path d="M56.7188 35.0361L59.8384 37.2577V41.675" stroke="#103A4F" stroke-width="2" stroke-linecap="round" stroke-linejoin="round"/>
<path d="M58.1332 46.8452H59.2277C59.5679 46.8452 59.8438 46.5718 59.8438 46.2346V41.1288C59.8438 40.7916 59.5679 40.5182 59.2277 40.5182H58.1332C57.7929 40.5182 57.5171 40.7916 57.5171 41.1288V46.2346C57.5171 46.5718 57.7929 46.8452 58.1332 46.8452Z" stroke="#103A4F" stroke-width="2" stroke-linecap="round" stroke-linejoin="round"/>
<path d="M43.5216 43.125C43.9736 43.125 44.34 42.7612 44.34 42.3125C44.34 41.8638 43.9736 41.5 43.5216 41.5C43.0696 41.5 42.7031 41.8638 42.7031 42.3125C42.7031 42.7612 43.0696 43.125 43.5216 43.125Z" fill="#103A4F"/>
<path d="M21.2599 43.125C21.7119 43.125 22.0783 42.7612 22.0783 42.3125C22.0783 41.8638 21.7119 41.5 21.2599 41.5C20.8078 41.5 20.4414 41.8638 20.4414 42.3125C20.4414 42.7612 20.8078 43.125 21.2599 43.125Z" fill="#103A4F"/>
<path d="M46.795 43.125C47.247 43.125 47.6135 42.7612 47.6135 42.3125C47.6135 41.8638 47.247 41.5 46.795 41.5C46.343 41.5 45.9766 41.8638 45.9766 42.3125C45.9766 42.7612 46.343 43.125 46.795 43.125Z" fill="#103A4F"/>
<path d="M24.5333 43.125C24.9853 43.125 25.3517 42.7612 25.3517 42.3125C25.3517 41.8638 24.9853 41.5 24.5333 41.5C24.0813 41.5 23.7148 41.8638 23.7148 42.3125C23.7148 42.7612 24.0813 43.125 24.5333 43.125Z" fill="#103A4F"/>
<path d="M50.0685 43.125C50.5205 43.125 50.8869 42.7612 50.8869 42.3125C50.8869 41.8638 50.5205 41.5 50.0685 41.5C49.6164 41.5 49.25 41.8638 49.25 42.3125C49.25 42.7612 49.6164 43.125 50.0685 43.125Z" fill="#103A4F"/>
<path d="M27.8067 43.125C28.2588 43.125 28.6252 42.7612 28.6252 42.3125C28.6252 41.8638 28.2588 41.5 27.8067 41.5C27.3547 41.5 26.9883 41.8638 26.9883 42.3125C26.9883 42.7612 27.3547 43.125 27.8067 43.125Z" fill="#103A4F"/>
<path d="M58.6783 46.8452V55.0041H54.7656" stroke="#103A4F" stroke-width="2" stroke-linecap="round" stroke-linejoin="round"/>
<path d="M54.3999 39.2451H56.7266V32.8726H54.3999V39.2451Z" stroke="#103A4F" stroke-width="2" stroke-linecap="round" stroke-linejoin="round"/>
<path d="M41.6952 61H51.5391V58.5965H41.6952V61Z" stroke="#103A4F" stroke-width="2" stroke-linecap="round" stroke-linejoin="round"/>
<path d="M63 23.1418H8L12.7057 16.3535H58.2943L63 23.1418Z" stroke="#103A4F" stroke-width="2" stroke-linecap="round" stroke-linejoin="round"/>
<path d="M58.1414 9H12.8477V12.7676H58.1414V9Z" stroke="#103A4F" stroke-width="2" stroke-linecap="round" stroke-linejoin="round"/>
<path d="M18.5117 12.7676V16.3533" stroke="#103A4F" stroke-width="2" stroke-linecap="round" stroke-linejoin="round"/>
<path d="M52.4844 12.7676V16.3533" stroke="#103A4F" stroke-width="2" stroke-linecap="round" stroke-linejoin="round"/>
<path d="M9.02734 23.1348V60.9996" stroke="#103A4F" stroke-width="2" stroke-linecap="round" stroke-linejoin="round"/>
<path d="M61.9648 23.1348V60.9996" stroke="#103A4F" stroke-width="2" stroke-linecap="round" stroke-linejoin="round"/>
</svg>
