<svg width="70" height="70" viewBox="0 0 70 70" fill="none" xmlns="http://www.w3.org/2000/svg">
<path fill-rule="evenodd" clip-rule="evenodd" d="M45.8136 22.0672C45.8136 22.0672 43.6866 18.1336 43.0075 16.8108C42.1165 15.1997 41.0261 13.7144 39.7638 12.3921C38.833 11.5388 37.6422 11.0464 36.3966 11H30.7846C30.1075 11.0381 29.4481 11.236 28.8573 11.5786C28.2666 11.9212 27.7604 12.3991 27.378 12.9755C24.3644 18.0527 19.0666 26.8383 19.0666 26.8383L26.7102 31.3668L34.1574 19.0751C35.117 20.9408 38.1251 26.4628 38.1251 26.4628L34.5334 28.5076V28.5538L44.5845 29.1603L49.4333 20.0744V20.0282L45.8136 22.0672ZM16.2195 34.7345C16.2195 34.7345 13.9747 38.5988 13.2059 39.8753C12.2932 41.4753 11.5893 43.1921 11.1126 44.9814C10.8578 46.2391 11.0385 47.549 11.6233 48.684L14.4293 53.6862C14.8005 54.2706 15.2971 54.7594 15.8809 55.115C16.4648 55.4705 17.1202 55.6832 17.7965 55.7367C23.5769 55.8811 33.6112 56.2103 33.6112 56.2103V47.136L19.5475 46.645C20.6306 44.8544 23.7733 39.4132 23.7733 39.4132L27.2921 41.5966V41.5446L22.8025 32.3027L12.7345 32.5222L12.7064 32.5684L16.2195 34.7345ZM47.5034 54.8989C46.0443 54.8585 41.6725 54.7892 41.6725 54.7892L41.5995 59H41.5434L36.3242 50.1394L41.8577 41.4751H41.9138L41.8408 45.6975C41.8408 45.6975 47.986 45.7783 50.0344 45.8534L43.4178 33.0708L51.0502 28.5249C51.0502 28.5249 55.7923 37.6628 58.5591 42.8614C58.8552 43.4932 59.0053 44.187 58.9975 44.8885C58.9897 45.5899 58.8243 46.28 58.5142 46.9047L55.7082 51.9069C55.0425 52.9946 54.031 53.8111 52.846 54.2173C51.1014 54.6822 49.3055 54.9113 47.5034 54.8989Z" fill="#103A4F"/>
</svg>
