<svg width="70" height="70" viewBox="0 0 70 70" fill="none" xmlns="http://www.w3.org/2000/svg">
<circle opacity="0.2" cx="35" cy="35" r="35" fill="#EAEAEA"/>
<path fill-rule="evenodd" clip-rule="evenodd" d="M37.4597 37.2911C37.4289 37.369 37.3972 37.4485 37.3645 37.5272L36.412 39.8951C35.3776 38.8891 34.3616 37.8472 33.3434 36.8032C32.6828 36.1257 32.0212 35.4474 31.3532 34.7774L29.3957 32.8668C29.1377 32.6233 28.8779 32.3827 28.6163 32.1452C28.0339 31.6154 27.4305 31.0025 26.8365 30.3992C26.4905 30.0478 26.1477 29.6996 25.8141 29.373L40.6516 29.354L37.4597 37.2911ZM24.2327 33.4874L24.9903 31.2363C25.8177 31.6191 32.5985 38.8172 33.4005 39.7576C34.7898 41.3963 35.4985 41.8065 37.3328 41.794C37.7765 41.7911 38.2227 41.795 38.6686 41.7988C39.2309 41.8037 39.7929 41.8086 40.3489 41.7998C40.7948 44.1445 41.9439 46.1081 43.8978 47.3873C45.1067 48.2167 46.5286 48.7479 48.0268 48.9298C49.5251 49.1118 51.0493 48.9384 52.4532 48.4264C53.857 47.9144 55.0931 47.0809 56.0429 46.006C56.9926 44.9311 57.624 43.651 57.8763 42.2887C58.1286 40.9263 57.9935 39.5276 57.4838 38.2268C56.9741 36.926 56.107 35.7669 54.9659 34.8608C53.8248 33.9548 52.4479 33.3324 50.9676 33.0532C49.4874 32.7741 47.9535 32.8477 46.5133 33.267C46.4 33.2828 46.2858 33.2968 46.1698 33.3101L43.5417 27.7135C43.3686 27.3225 43.6368 26.832 44.0637 26.2098C44.1698 26.1994 44.3019 26.1978 44.4472 26.1961C45.1035 26.1881 46.0276 26.1769 46.0276 25.3398C46.026 24.5147 45.0809 24.5369 44.2819 24.5557C44.1663 24.5584 44.0538 24.561 43.9477 24.561C43.6826 24.5616 43.2846 24.5558 42.8182 24.549C41.227 24.5257 38.8398 24.4908 38.221 24.658C38.0205 25.4425 38.3766 25.4879 39.6578 25.6513C39.6917 25.6557 39.7263 25.6601 39.7616 25.6646L42.0354 26.0913L41.4137 27.6447L26.2093 27.6547C26.9838 24.6484 27.3066 24.6502 28.8562 24.6586C29.2647 24.6608 29.7584 24.6634 30.3681 24.6116C31.5798 24.5097 31.7756 23.0324 30.1388 23.0051C27.0947 22.9546 26.0715 23.2603 25.2658 24.8137C24.9198 25.4807 24.6139 26.3784 24.2056 27.5765C24.1797 27.6524 24.1534 27.7296 24.1266 27.808L22.3757 32.9878C20.4621 32.676 18.4894 32.9506 16.7639 33.7689C15.0385 34.5871 13.6569 35.9034 12.8336 37.5131L12.8237 37.5338C12.8037 37.5719 12.782 37.6159 12.7657 37.649C12.7575 37.6656 12.7495 37.6824 12.7416 37.6992C12.7337 37.7159 12.7258 37.7327 12.7176 37.7492C12.7104 37.7658 12.7022 37.7824 12.6941 37.799C12.5302 38.1536 12.3954 38.5189 12.2908 38.8918C12.2871 38.9046 12.2837 38.9174 12.2803 38.9303C12.2769 38.9431 12.2735 38.956 12.2699 38.9688L12.2536 39.0285V39.0417C12.2004 39.2461 12.1557 39.4535 12.1195 39.6639C11.8121 41.3239 12.1015 43.0303 12.9442 44.5273C13.5808 45.6886 14.5151 46.6921 15.6675 47.452C16.8199 48.212 18.1562 48.706 19.5626 48.8919C20.9689 49.0777 22.4035 48.95 23.7442 48.5195C25.0849 48.0891 26.2918 47.3687 27.2621 46.4197C28.2325 45.4707 28.9374 44.3213 29.317 43.0695C29.6965 41.8177 29.7393 40.5005 29.4417 39.2303C29.1442 37.96 28.5151 36.7744 27.6081 35.7745C26.7011 34.7745 25.543 33.9899 24.2327 33.4874ZM44.7716 34.047C43.801 34.3958 42.5766 35.7181 41.9848 36.4497C41.3804 37.1954 40.7161 38.9352 40.6399 40.1225H38.5691C38.809 39.3649 39.1339 38.6234 39.4592 37.8808L39.4592 37.8808L39.4592 37.8808C39.6747 37.3891 39.8903 36.8969 40.0817 36.3992L42.7661 30.0486L44.7716 34.047ZM47.3158 34.8728C48.4822 34.4967 50.669 34.6731 51.8009 35.1081C57.7352 37.3824 57.1126 44.6534 51.9133 46.5473C50.5032 47.061 49.0658 47.2002 47.4835 46.8033C45.0828 46.201 43.0047 44.2756 42.6213 41.7693L48.0481 41.8232C48.1781 42.0133 48.3572 42.1712 48.5697 42.2832C48.7821 42.3951 49.0214 42.4576 49.2665 42.4651C49.5116 42.4727 49.755 42.425 49.9752 42.3263C50.1954 42.2277 50.3857 42.0811 50.5294 41.8994C50.673 41.7177 50.7657 41.5065 50.7991 41.2844C50.8325 41.0623 50.8057 40.8361 50.721 40.6257C50.6363 40.4153 50.4964 40.2272 50.3135 40.0778C50.1306 39.9285 49.9103 39.8225 49.6721 39.7693L47.3158 34.8728ZM23.613 35.459C26.7206 37.0679 28.4334 40.0655 27.0432 43.2519C23.9157 50.4227 12.3354 47.0158 14.1162 39.725C14.8022 36.9163 17.7684 34.4523 21.6382 34.9312L20.2716 39.1284C20.0374 39.2477 19.8465 39.427 19.7225 39.6443C19.5984 39.8615 19.5466 40.1071 19.5733 40.351C19.6001 40.5948 19.7043 40.8261 19.8731 41.0165C20.0418 41.2069 20.2679 41.3479 20.5233 41.4223C20.7787 41.4967 21.0523 41.5012 21.3104 41.4352C21.5686 41.3692 21.8 41.2356 21.9761 41.0508C22.1522 40.8661 22.2654 40.6383 22.3016 40.3955C22.3379 40.1527 22.2957 39.9055 22.1802 39.6844L23.4272 35.8484C23.4787 35.7146 23.5408 35.5845 23.613 35.459ZM42.7566 40.3081L47.8762 40.3272L45.6567 35.8996C44.0508 36.7455 42.9297 38.6726 42.7566 40.3081Z" fill="#686868"/>
</svg>
