<svg width="70" height="70" viewBox="0 0 70 70" fill="none" xmlns="http://www.w3.org/2000/svg">
<circle opacity="0.2" cx="35" cy="35" r="35" fill="#EAEAEA"/>
<path fill-rule="evenodd" clip-rule="evenodd" d="M25.1826 14.8514C25.114 14.8514 25.0464 14.8476 24.9797 14.84L21.8917 34.2886L29.845 45.2143H45.0571C45.689 41.5593 48.6343 38.728 52.258 38.4176C52.3318 38.4115 52.4061 38.4213 52.4761 38.4464C52.5461 38.4716 52.6104 38.5115 52.6648 38.5637C52.7192 38.6159 52.7625 38.6793 52.7922 38.7498C52.8218 38.8203 52.8371 38.8964 52.837 38.9733C52.8375 39.1121 52.7878 39.2461 52.6977 39.3487C52.6076 39.4512 52.4837 39.5149 52.3505 39.5271C49.277 39.7888 46.7672 42.1446 46.1504 45.2143H46.9797C47.6162 42.4282 50.0323 40.3493 52.9079 40.3493C56.2676 40.3493 59 43.1873 59 46.6747C59 50.162 56.2671 53 52.9079 53C50.033 53 47.6169 50.9217 46.98 48.1361H27.5304C27.1575 48.135 26.8002 47.9808 26.5365 47.707C26.2728 47.4333 26.1241 47.0624 26.1229 46.6752C26.1231 46.6273 26.1255 46.5797 26.1301 46.5324C26.2159 41.3995 22.8184 39.7416 21.1067 39.2327L20.885 40.6288C23.3722 41.4255 25.1841 43.8348 25.1841 46.6747C25.1841 50.162 22.4513 53 19.0921 53C15.7329 53 13 50.1625 13 46.6747C13 43.1868 15.7324 40.3493 19.0921 40.3493C19.1724 40.3493 19.2523 40.351 19.3319 40.3542L23.5175 13.9951C23.5256 13.945 23.5381 13.8962 23.5547 13.8492C23.4101 13.5751 23.3279 13.2604 23.3279 12.9257C23.3279 11.8622 24.1582 11 25.1826 11C26.2069 11 27.0372 11.8622 27.0372 12.9257C27.0372 13.9892 26.2069 14.8514 25.1826 14.8514ZM19.0499 42.13L18.6118 44.889L17.0722 42.6854C17.0648 42.6751 17.0572 42.6649 17.0492 42.6551C17.6645 42.318 18.3503 42.137 19.0499 42.13ZM20.4037 43.6601L20.6021 42.4106C20.7775 42.4778 20.9487 42.5566 21.1146 42.6465C21.1043 42.6591 21.0943 42.672 21.0849 42.6854L20.4037 43.6601ZM52.2803 48.1361H50.6256L49.1097 48.6476C49.0668 48.662 49.0226 48.6715 48.9779 48.6759C49.1889 49.1227 49.4702 49.5328 49.8127 49.8884C50.4249 50.524 51.2049 50.9568 52.054 51.1322C52.1404 51.15 52.2271 51.1651 52.314 51.1775C52.2919 51.111 52.2803 51.0405 52.2803 50.9687V48.1361ZM53.9563 47.7207C53.8273 47.8512 53.6766 47.9536 53.5131 48.0241V50.9687C53.5131 51.0416 53.5011 51.1133 53.4783 51.1808C53.8559 51.1293 54.2274 51.0265 54.583 50.8736C55.3829 50.5296 56.0665 49.9471 56.5475 49.1997C56.6556 49.0316 56.7524 48.857 56.8375 48.6769C56.7944 48.6723 56.7518 48.6629 56.7103 48.649L53.9563 47.7207ZM54.1688 45.9033C54.2802 46.0886 54.3508 46.2981 54.3743 46.5167L57.0903 47.4326L57.0917 47.4307C57.1346 47.4452 57.1758 47.4646 57.2145 47.4883C57.2613 47.2211 57.2852 46.9488 57.2852 46.6747C57.2844 45.4696 56.8229 44.3141 56.0022 43.4619C55.9784 43.4372 55.9543 43.4128 55.93 43.3887C55.9204 43.4055 55.9101 43.4219 55.899 43.4378C55.899 43.4378 54.7396 45.0913 54.1688 45.9033ZM52.6579 45.2143H52.976C53.0273 45.2144 53.0783 45.2175 53.1288 45.2234C53.6569 44.4671 54.9026 42.6844 54.9026 42.6844C54.9119 42.6712 54.9217 42.6584 54.9319 42.6461C54.3127 42.3105 53.6193 42.1303 52.9079 42.1298C52.1947 42.1298 51.4948 42.3107 50.8678 42.6536C50.8756 42.6636 50.8831 42.6739 50.8904 42.6844L52.6579 45.2143ZM48.7628 45.2143H51.1411C50.5669 44.3971 49.8931 43.4369 49.8931 43.4369C49.8851 43.4256 49.8774 43.4141 49.8702 43.4024C49.4388 43.8342 49.0953 44.3554 48.8639 44.9354C48.8272 45.0274 48.7935 45.1204 48.7628 45.2143ZM23.2941 37.9626C23.2943 37.8119 23.2514 37.6646 23.1709 37.5393C23.0904 37.4139 22.9759 37.3162 22.8419 37.2584C22.7079 37.2007 22.5604 37.1855 22.4181 37.2148C22.2758 37.2441 22.1451 37.3166 22.0424 37.4231C21.9398 37.5296 21.8699 37.6653 21.8416 37.813C21.8133 37.9608 21.8278 38.1139 21.8833 38.2531C21.9389 38.3923 22.033 38.5112 22.1536 38.5948C22.2743 38.6785 22.4161 38.7231 22.5612 38.723C22.7555 38.7228 22.9416 38.6426 23.079 38.5C23.2164 38.3575 23.2937 38.1642 23.2941 37.9626ZM25.9159 40.742C25.9164 40.5912 25.8737 40.4437 25.7934 40.3182C25.713 40.1926 25.5985 40.0947 25.4645 40.0367C25.3305 39.9788 25.1829 39.9634 25.0405 39.9927C24.898 40.0219 24.7672 40.0944 24.6644 40.2009C24.5617 40.3074 24.4918 40.4432 24.4634 40.5911C24.4351 40.7389 24.4497 40.8922 24.5053 41.0314C24.561 41.1706 24.6552 41.2896 24.776 41.3732C24.8968 41.4568 25.0388 41.5013 25.184 41.501C25.3779 41.5007 25.5638 41.4207 25.701 41.2785C25.8382 41.1362 25.9155 40.9433 25.9159 40.742ZM26.4024 43.6783C26.4024 43.8288 26.4454 43.976 26.5259 44.1011C26.6065 44.2262 26.721 44.3238 26.8549 44.3813C26.9888 44.4389 27.1362 44.454 27.2784 44.4246C27.4206 44.3952 27.5511 44.3227 27.6536 44.2162C27.7561 44.1097 27.8259 43.9741 27.8541 43.8265C27.8823 43.6788 27.8677 43.5258 27.8122 43.3868C27.7567 43.2478 27.6627 43.129 27.5421 43.0454C27.4215 42.9619 27.2798 42.9173 27.1348 42.9174C27.0386 42.9174 26.9433 42.9371 26.8544 42.9753C26.7655 43.0136 26.6848 43.0696 26.6168 43.1403C26.5487 43.211 26.4948 43.2948 26.458 43.3872C26.4212 43.4795 26.4023 43.5784 26.4024 43.6783ZM20.0416 46.3438L23.2726 47.4337L23.2713 47.4318C23.3159 47.4468 23.3584 47.467 23.398 47.4917C23.4453 47.2233 23.4693 46.95 23.4693 46.6747H23.4671C23.4662 45.47 23.0051 44.3148 22.1849 43.4627C22.161 43.4379 22.1369 43.4135 22.1125 43.3893C22.1029 43.4062 22.0925 43.4228 22.0813 43.4389C22.0813 43.4389 20.0569 46.326 20.0416 46.3438ZM22.7316 49.1997C22.8395 49.032 22.9361 48.8578 23.021 48.6783C22.977 48.6738 22.9332 48.6644 22.8904 48.65L19.6927 47.5723V50.9721C19.6927 51.044 19.6811 51.1146 19.6589 51.1813C20.0377 51.1299 20.4104 51.027 20.7672 50.8736C21.567 50.5296 22.2507 49.9471 22.7316 49.1997ZM18.2381 51.1322C18.3225 51.1496 18.4073 51.1645 18.4922 51.1767C18.471 51.1113 18.4599 51.0423 18.4599 50.9721V47.5812L15.2915 48.6486C15.2495 48.6628 15.2062 48.6722 15.1624 48.6767C15.3734 49.1231 15.6546 49.533 15.9969 49.8884C16.6091 50.524 17.389 50.9568 18.2381 51.1322ZM15.048 44.9354C14.7257 45.7433 14.6349 46.63 14.7857 47.4892C14.825 47.4649 14.8669 47.4451 14.9107 47.4304L18.1205 46.3471C18.1025 46.3274 16.0749 43.4379 16.0749 43.4379C16.0673 43.4267 16.0599 43.4153 16.053 43.4037C15.6222 43.8352 15.2792 44.356 15.048 44.9354Z" fill="#686868"/>
</svg>
