<svg width="70" height="70" viewBox="0 0 70 70" fill="none" xmlns="http://www.w3.org/2000/svg">
<circle opacity="0.2" cx="35" cy="35" r="35" fill="#EAEAEA"/>
<path fill-rule="evenodd" clip-rule="evenodd" d="M49.6797 35.5065C48.7206 35.5085 47.7711 35.696 46.8845 36.0583L46.17 34.4341C46.1556 34.4196 46.1476 34.4 46.1476 34.3797C46.1476 34.3593 46.1556 34.3398 46.17 34.3253L54.6262 29.1885C54.8673 29.0435 55.0664 28.8391 55.204 28.5953C55.3416 28.3515 55.413 28.0766 55.4113 27.7974V25.6292C55.4113 25.1943 55.2368 24.7772 54.9261 24.4697C54.6154 24.1622 54.194 23.9895 53.7546 23.9895H49.4912C49.2594 23.9889 49.0299 24.0363 48.8177 24.1287C48.6054 24.221 48.415 24.3562 48.2585 24.5257L45.856 27.1368C45.7491 27.2556 45.6143 27.3464 45.4634 27.4011L37.549 30.0433C37.4036 28.9966 36.9596 28.0126 36.2692 27.2068C35.7475 26.6588 35.1203 26.2197 34.4245 25.9154C33.7287 25.6111 32.9784 25.4477 32.2178 25.4349L34.2121 23.5543H38.7189C38.9271 23.5543 39.1268 23.4724 39.2741 23.3266C39.4213 23.1809 39.5041 22.9832 39.5041 22.7771C39.5041 22.571 39.4213 22.3734 39.2741 22.2276C39.1268 22.0819 38.9271 22 38.7189 22H34.2121C33.8116 22.0015 33.4268 22.1544 33.1364 22.4274L30.7103 24.6889L29.3598 23.7019C29.0756 23.4978 28.7335 23.3879 28.3823 23.3879C28.0312 23.3879 27.689 23.4978 27.4048 23.7019C25.3477 25.1707 20.5818 29.2118 19.5532 35.5687C18.1773 35.7104 16.8702 36.2357 15.7839 37.0835C14.6975 37.9312 13.8766 39.0667 13.4164 40.358C12.9561 41.6492 12.8756 43.0432 13.184 44.378C13.4924 45.7128 14.1772 46.9336 15.1588 47.8984C16.1403 48.8633 17.3784 49.5327 18.729 49.8288C20.0797 50.1249 21.4875 50.0356 22.7889 49.5712C24.0903 49.1068 25.2318 48.2865 26.0809 47.2055C26.9299 46.1245 27.4516 44.8272 27.5854 43.4643H30.0586C30.4922 43.4594 30.9066 43.2864 31.2128 42.9825L32.7831 41.5526L36.811 41.5992L37.816 42.8349C37.97 43.0291 38.1667 43.1861 38.3912 43.2938C38.6156 43.4016 38.862 43.4572 39.1115 43.4566H42.4327C42.5741 44.8489 43.1208 46.1707 44.0065 47.2615C44.8923 48.3522 46.0789 49.165 47.4223 49.6011C48.7657 50.0373 50.2082 50.078 51.5745 49.7184C52.9409 49.3588 54.1724 48.6143 55.1195 47.5753C56.0666 46.5363 56.6886 45.2475 56.9099 43.8654C57.1313 42.4832 56.9425 41.0672 56.3665 39.7893C55.7905 38.5113 54.852 37.4263 53.665 36.6661C52.478 35.9058 51.0935 35.503 49.6797 35.5065ZM28.347 24.9453C28.3618 24.9346 28.3797 24.9288 28.398 24.9288C28.4164 24.9288 28.4342 24.9346 28.4491 24.9453L30.5297 26.4996C30.9524 26.8061 31.4586 26.9794 31.9823 26.9969C32.5555 26.9834 33.1257 27.0845 33.6586 27.2942C34.1915 27.5038 34.6761 27.8177 35.0836 28.217C35.6519 28.8955 35.9826 29.7381 36.0258 30.6184L30.5297 33.2917C29.6999 33.6971 29.0288 34.3629 28.6212 35.1852C28.2136 36.0075 28.0924 36.9402 28.2763 37.8379L29.0615 41.9023H27.5697C27.3792 40.2908 26.6471 38.7895 25.4909 37.6394C24.3346 36.4893 22.8214 35.7573 21.1942 35.5609C21.5477 33.6216 22.2899 31.772 23.3769 30.121H27.2242C27.4324 30.121 27.6322 30.0391 27.7794 29.8934C27.9266 29.7477 28.0094 29.55 28.0094 29.3439C28.0094 29.1378 27.9266 28.9401 27.7794 28.7944C27.6322 28.6486 27.4324 28.5668 27.2242 28.5668H24.5076C25.6218 27.1985 26.9126 25.981 28.347 24.9453ZM20.3148 48.4224C19.1797 48.4224 18.07 48.0893 17.1261 47.465C16.1823 46.8408 15.4466 45.9536 15.0122 44.9156C14.5778 43.8775 14.4642 42.7353 14.6856 41.6333C14.9071 40.5314 15.4537 39.5191 16.2564 38.7247C17.0591 37.9302 18.0818 37.3891 19.1951 37.1699C20.3085 36.9507 21.4625 37.0632 22.5112 37.4932C23.56 37.9232 24.4564 38.6513 25.087 39.5855C25.7177 40.5197 26.0543 41.618 26.0543 42.7416C26.0522 44.2476 25.4469 45.6914 24.371 46.7563C23.2951 47.8212 21.8364 48.4204 20.3148 48.4224ZM39.0173 41.8712L38.0044 40.6511C37.8501 40.4622 37.6552 40.3097 37.4337 40.2048C37.2123 40.1 36.9701 40.0453 36.7246 40.045H32.7988C32.5785 40.0341 32.3584 40.0694 32.1527 40.1484C31.9471 40.2274 31.7606 40.3484 31.6054 40.5035L30.6004 41.4283L29.8152 37.5426C29.7015 36.9826 29.7776 36.4012 30.0317 35.8883C30.2858 35.3755 30.7037 34.96 31.2207 34.7061L37.1329 31.8307L45.9894 28.8698C46.3825 28.7371 46.7379 28.5133 47.0259 28.217L49.3813 25.6137C49.3924 25.6087 49.4045 25.6062 49.4167 25.6062C49.4288 25.6062 49.4409 25.6087 49.452 25.6137H53.7389C53.7618 25.6137 53.7838 25.6227 53.8 25.6387C53.8162 25.6547 53.8253 25.6765 53.8253 25.6991V27.8673L45.3927 32.9653C45.0498 33.1658 44.7927 33.4834 44.6697 33.8583C44.5468 34.2333 44.5666 34.6398 44.7253 35.0014L45.5105 36.8199C44.6625 37.4042 43.9496 38.1601 43.419 39.0376C42.8884 39.9152 42.5522 40.8943 42.4327 41.9101H39.0879C39.074 41.9092 39.0604 41.9052 39.0482 41.8985C39.0359 41.8918 39.0254 41.8825 39.0173 41.8712ZM49.6797 48.4224C48.5442 48.424 47.4337 48.0921 46.4889 47.4688C45.544 46.8455 44.8071 45.9588 44.3715 44.9209C43.9359 43.8831 43.8211 42.7406 44.0417 41.6381C44.2622 40.5356 44.8082 39.5227 45.6106 38.7274C46.413 37.9322 47.4357 37.3903 48.5492 37.1705C49.6628 36.9507 50.8172 37.0627 51.8664 37.4925C52.9156 37.9222 53.8125 38.6503 54.4435 39.5847C55.0745 40.5191 55.4113 41.6177 55.4113 42.7416C55.4093 44.2463 54.805 45.6888 53.7308 46.7535C52.6565 47.8182 51.1999 48.4183 49.6797 48.4224ZM49.6798 38.9803C48.9279 38.9788 48.1924 39.1981 47.5664 39.6104C46.9405 40.0228 46.4522 40.6097 46.1633 41.2968C45.8745 41.984 45.7981 42.7405 45.9439 43.4707C46.0896 44.2008 46.4509 44.8717 46.9821 45.3985C47.5132 45.9253 48.1903 46.2843 48.9277 46.4301C49.6651 46.5759 50.4296 46.5018 51.1244 46.2174C51.8192 45.9329 52.4132 45.4508 52.8311 44.8321C53.249 44.2134 53.4721 43.4859 53.4721 42.7416C53.4721 41.7454 53.0728 40.7899 52.3618 40.0847C51.6509 39.3796 50.6863 38.9824 49.6798 38.9803ZM49.6798 44.9487C49.2385 44.9502 48.8066 44.8221 48.4388 44.5805C48.0711 44.3389 47.7841 43.9948 47.6141 43.5916C47.4441 43.1885 47.3989 42.7445 47.484 42.3158C47.5692 41.8872 47.7809 41.4932 48.0924 41.1838C48.404 40.8743 48.8013 40.6634 49.234 40.5776C49.6668 40.4918 50.1156 40.535 50.5235 40.7019C50.9314 40.8687 51.2801 41.1515 51.5255 41.5147C51.7708 41.8778 51.9018 42.3048 51.9018 42.7416C51.9018 43.3256 51.668 43.8858 51.2515 44.2995C50.835 44.7132 50.2698 44.9466 49.6798 44.9487ZM18.2037 39.6142C18.8286 39.2009 19.5633 38.9803 20.3149 38.9803C21.3228 38.9803 22.2894 39.3766 23.002 40.082C23.7147 40.7874 24.1151 41.7441 24.1151 42.7416C24.1151 43.4855 23.8922 44.2128 23.4746 44.8313C23.0571 45.4498 22.4636 45.9319 21.7692 46.2166C21.0748 46.5013 20.3107 46.5758 19.5735 46.4307C18.8364 46.2855 18.1593 45.9273 17.6278 45.4013C17.0963 44.8752 16.7344 44.205 16.5878 43.4754C16.4411 42.7458 16.5164 41.9895 16.804 41.3022C17.0916 40.6149 17.5787 40.0275 18.2037 39.6142ZM19.0761 44.5767C19.4428 44.8192 19.8739 44.9487 20.3149 44.9487C20.6077 44.9487 20.8977 44.8916 21.1682 44.7807C21.4388 44.6698 21.6846 44.5072 21.8916 44.3022C22.0987 44.0973 22.263 43.854 22.375 43.5862C22.4871 43.3185 22.5448 43.0315 22.5448 42.7416C22.5448 42.3051 22.414 41.8784 22.169 41.5155C21.9239 41.1525 21.5757 40.8696 21.1682 40.7026C20.7608 40.5355 20.3124 40.4918 19.8799 40.577C19.4473 40.6621 19.05 40.8723 18.7382 41.181C18.4263 41.4897 18.2139 41.8829 18.1279 42.3111C18.0419 42.7392 18.086 43.1829 18.2548 43.5862C18.4236 43.9895 18.7094 44.3342 19.0761 44.5767Z" fill="#686868"/>
</svg>
