<svg width="22" height="22" viewBox="0 0 22 22" fill="none" xmlns="http://www.w3.org/2000/svg">
<path d="M16.1346 8.69057L17.8213 5.77557C17.968 5.4914 17.858 5.14307 17.583 4.9964C17.3171 4.8589 16.9871 4.9414 16.8221 5.19807L15.0988 8.16807C12.4771 7.0589 9.52547 7.0589 6.9038 8.16807L5.18047 5.19807C5.0063 4.93223 4.6488 4.84973 4.38297 5.01473C4.1263 5.17973 4.0438 5.50973 4.1813 5.77557L5.86797 8.69057C3.0263 10.3131 1.17464 13.2372 0.917969 16.5006H21.0846C20.828 13.2372 18.9763 10.3131 16.1346 8.69057ZM6.41797 13.9797C5.78547 13.9797 5.27214 13.4664 5.27214 12.8339C5.27214 12.2014 5.78547 11.6881 6.41797 11.6881C7.05047 11.6881 7.5638 12.2014 7.5638 12.8339C7.5638 13.4664 7.05047 13.9797 6.41797 13.9797ZM15.5846 13.9797C14.9521 13.9797 14.4388 13.4664 14.4388 12.8339C14.4388 12.2014 14.9521 11.6881 15.5846 11.6881C16.2171 11.6881 16.7305 12.2014 16.7305 12.8339C16.7305 13.4664 16.2171 13.9797 15.5846 13.9797Z" fill="white"/>
<path d="M16.1346 8.69057L17.8213 5.77557C17.968 5.4914 17.858 5.14307 17.583 4.9964C17.3171 4.8589 16.9871 4.9414 16.8221 5.19807L15.0988 8.16807C12.4771 7.0589 9.52547 7.0589 6.9038 8.16807L5.18047 5.19807C5.0063 4.93223 4.6488 4.84973 4.38297 5.01473C4.1263 5.17973 4.0438 5.50973 4.1813 5.77557L5.86797 8.69057C3.0263 10.3131 1.17464 13.2372 0.917969 16.5006H21.0846C20.828 13.2372 18.9763 10.3131 16.1346 8.69057ZM6.41797 13.9797C5.78547 13.9797 5.27214 13.4664 5.27214 12.8339C5.27214 12.2014 5.78547 11.6881 6.41797 11.6881C7.05047 11.6881 7.5638 12.2014 7.5638 12.8339C7.5638 13.4664 7.05047 13.9797 6.41797 13.9797ZM15.5846 13.9797C14.9521 13.9797 14.4388 13.4664 14.4388 12.8339C14.4388 12.2014 14.9521 11.6881 15.5846 11.6881C16.2171 11.6881 16.7305 12.2014 16.7305 12.8339C16.7305 13.4664 16.2171 13.9797 15.5846 13.9797Z" fill="url(#paint0_linear_2727_7360)"/>
<defs>
<linearGradient id="paint0_linear_2727_7360" x1="11.0013" y1="4.92969" x2="11.0013" y2="16.5006" gradientUnits="userSpaceOnUse">
<stop stop-color="white"/>
<stop offset="1" stop-color="white" stop-opacity="0"/>
</linearGradient>
</defs>
</svg>
