<svg width="22" height="22" viewBox="0 0 22 22" fill="none" xmlns="http://www.w3.org/2000/svg">
<path d="M17.7066 15.2482C17.4552 15.8421 17.1577 16.3888 16.813 16.8914C16.3431 17.5767 15.9584 18.051 15.6619 18.3144C15.2023 18.7467 14.7098 18.9681 14.1825 18.9807C13.8039 18.9807 13.3474 18.8705 12.8159 18.647C12.2827 18.4245 11.7927 18.3144 11.3447 18.3144C10.8748 18.3144 10.3709 18.4245 9.83186 18.647C9.29201 18.8705 8.85712 18.987 8.52461 18.9985C8.01892 19.0206 7.51488 18.7929 7.01175 18.3144C6.69063 18.0279 6.28898 17.5368 5.80781 16.8411C5.29156 16.0981 4.86713 15.2366 4.53462 14.2544C4.17851 13.1935 4 12.1662 4 11.1716C4 10.0324 4.24069 9.04975 4.72278 8.22632C5.10166 7.56492 5.6057 7.04318 6.23655 6.66017C6.8674 6.27716 7.54904 6.08198 8.2831 6.06949C8.68476 6.06949 9.21148 6.19657 9.86603 6.44631C10.5187 6.6969 10.9378 6.82397 11.1216 6.82397C11.2589 6.82397 11.7245 6.67538 12.5138 6.37915C13.2602 6.10443 13.8901 5.99068 14.4061 6.03549C15.8045 6.15092 16.8551 6.71473 17.5537 7.73051C16.3031 8.50556 15.6845 9.59111 15.6968 10.9837C15.708 12.0684 16.0928 12.9711 16.8489 13.6878C17.1916 14.0204 17.5742 14.2775 18 14.4601C17.9077 14.734 17.8102 14.9963 17.7066 15.2482ZM14.4995 2.3401C14.4995 3.19029 14.1958 3.98411 13.5905 4.71887C12.86 5.59235 11.9765 6.09709 11.0184 6.01744C11.0062 5.91544 10.9991 5.8081 10.9991 5.69529C10.9991 4.87911 11.3465 4.00563 11.9634 3.29144C12.2713 2.92983 12.6631 2.62916 13.1381 2.38931C13.612 2.15304 14.0604 2.02238 14.482 2C14.4944 2.11366 14.4995 2.22732 14.4995 2.34009V2.3401Z" fill="white"/>
<path d="M17.7066 15.2482C17.4552 15.8421 17.1577 16.3888 16.813 16.8914C16.3431 17.5767 15.9584 18.051 15.6619 18.3144C15.2023 18.7467 14.7098 18.9681 14.1825 18.9807C13.8039 18.9807 13.3474 18.8705 12.8159 18.647C12.2827 18.4245 11.7927 18.3144 11.3447 18.3144C10.8748 18.3144 10.3709 18.4245 9.83186 18.647C9.29201 18.8705 8.85712 18.987 8.52461 18.9985C8.01892 19.0206 7.51488 18.7929 7.01175 18.3144C6.69063 18.0279 6.28898 17.5368 5.80781 16.8411C5.29156 16.0981 4.86713 15.2366 4.53462 14.2544C4.17851 13.1935 4 12.1662 4 11.1716C4 10.0324 4.24069 9.04975 4.72278 8.22632C5.10166 7.56492 5.6057 7.04318 6.23655 6.66017C6.8674 6.27716 7.54904 6.08198 8.2831 6.06949C8.68476 6.06949 9.21148 6.19657 9.86603 6.44631C10.5187 6.6969 10.9378 6.82397 11.1216 6.82397C11.2589 6.82397 11.7245 6.67538 12.5138 6.37915C13.2602 6.10443 13.8901 5.99068 14.4061 6.03549C15.8045 6.15092 16.8551 6.71473 17.5537 7.73051C16.3031 8.50556 15.6845 9.59111 15.6968 10.9837C15.708 12.0684 16.0928 12.9711 16.8489 13.6878C17.1916 14.0204 17.5742 14.2775 18 14.4601C17.9077 14.734 17.8102 14.9963 17.7066 15.2482ZM14.4995 2.3401C14.4995 3.19029 14.1958 3.98411 13.5905 4.71887C12.86 5.59235 11.9765 6.09709 11.0184 6.01744C11.0062 5.91544 10.9991 5.8081 10.9991 5.69529C10.9991 4.87911 11.3465 4.00563 11.9634 3.29144C12.2713 2.92983 12.6631 2.62916 13.1381 2.38931C13.612 2.15304 14.0604 2.02238 14.482 2C14.4944 2.11366 14.4995 2.22732 14.4995 2.34009V2.3401Z" fill="url(#paint0_linear_2872_6597)"/>
<defs>
<linearGradient id="paint0_linear_2872_6597" x1="11" y1="2" x2="11" y2="19" gradientUnits="userSpaceOnUse">
<stop stop-color="white"/>
<stop offset="1" stop-color="white" stop-opacity="0"/>
</linearGradient>
</defs>
</svg>
