<svg xmlns="http://www.w3.org/2000/svg" width="36.001" height="36" viewBox="0 0 36.001 36">
    <g fill-rule="evenodd">
        <path fill="#3e82f1" d="M709.844 711.552a21.1 21.1 0 0 0-.334-3.757h-17.3v7.1h9.89a8.45 8.45 0 0 1-3.665 5.544v4.608h5.936a17.914 17.914 0 0 0 5.477-13.5z" transform="translate(-586.062 -620.945) translate(-87.781 -72.557)"/>
        <path fill="#32a753" d="M613.767 762.14a17.536 17.536 0 0 0 12.156-4.45l-5.936-4.608a11.081 11.081 0 0 1-16.5-5.819h-6.136v4.759a18.36 18.36 0 0 0 16.414 10.119z" transform="translate(-586.062 -620.945) translate(-9.337 -105.195)"/>
        <path fill="#f9bb00" d="M594.152 691.162a10.859 10.859 0 0 1 0-6.98v-4.759h-6.136a18.39 18.39 0 0 0 0 16.5l6.136-4.759z" transform="translate(-586.062 -620.945) translate(0 -48.728)"/>
        <path fill="#e74133" d="M613.767 628.25a9.923 9.923 0 0 1 7.021 2.75l5.268-5.268a17.652 17.652 0 0 0-12.29-4.784 18.36 18.36 0 0 0-16.414 10.119l6.136 4.759a10.946 10.946 0 0 1 10.277-7.572z" transform="translate(-586.062 -620.945) translate(-9.337)"/>
    </g>
</svg>
