<svg width="80" height="80" viewBox="0 0 80 80" fill="none" xmlns="http://www.w3.org/2000/svg">
<path d="M7.3551 73.044H29.8548C31.8044 73.0419 33.6735 72.2801 35.0521 70.9258C36.4307 69.5714 37.2061 67.7351 37.2082 65.8198L37.2082 20.6996C37.2061 18.7843 36.4307 16.948 35.0521 15.5937C33.6735 14.2393 31.8044 13.4776 29.8548 13.4755H26.0069C25.8068 11.684 24.9407 10.028 23.5747 8.82514C22.2086 7.62225 20.4386 6.95703 18.6041 6.95703C16.7696 6.95703 14.9997 7.62225 13.6336 8.82514C12.2675 10.028 11.4014 11.684 11.2014 13.4755L7.3551 13.4755C5.40521 13.4771 3.53565 14.2387 2.15672 15.5931C0.777785 16.9475 0.00213776 18.784 0 20.6996L0 65.8198C0.00213776 67.7354 0.777785 69.5719 2.15672 70.9263C3.53565 72.2807 5.40521 73.0423 7.3551 73.044V73.044ZM3.22946 20.6949C3.23074 19.6205 3.66587 18.5904 4.43935 17.8309C5.21282 17.0713 6.26145 16.6442 7.3551 16.6434H12.7774C13.2056 16.6434 13.6163 16.4762 13.9192 16.1787C14.222 15.8812 14.3921 15.4778 14.3921 15.057V14.2639C14.4137 13.1792 14.8675 12.1461 15.6559 11.3865C16.4444 10.6269 17.5047 10.2014 18.609 10.2014C19.7133 10.2014 20.7735 10.6269 21.562 11.3865C22.3505 12.1461 22.8042 13.1792 22.8258 14.2639V15.057C22.8258 15.4778 22.996 15.8812 23.2988 16.1787C23.6016 16.4762 24.0123 16.6434 24.4406 16.6434L29.8596 16.6434C30.953 16.6446 32.0012 17.0719 32.7743 17.8314C33.5474 18.591 33.9823 19.6207 33.9836 20.6949L33.9836 65.8198C33.9823 66.894 33.5474 67.9237 32.7743 68.6833C32.0012 69.4428 30.953 69.8701 29.8596 69.8713H7.3551C6.26145 69.8705 5.21282 69.4434 4.43935 68.6838C3.66587 67.9243 3.23074 66.8942 3.22946 65.8198L3.22946 20.6949Z" fill="#103A4F"/>
<path d="M7.35927 66.9662H29.8589C30.1671 66.9658 30.4626 66.8453 30.6806 66.6312C30.8985 66.4171 31.0211 66.1269 31.0215 65.8241L31.0215 50.6523L7.65638 62.2913L6.20312 63.0178L6.20312 65.8241C6.20354 66.1258 6.32528 66.4151 6.54182 66.629C6.75837 66.8429 7.05218 66.9641 7.35927 66.9662V66.9662Z" fill="#103A4F"/>
<path d="M31.0208 23.5133V20.7023C31.0208 20.3993 30.8984 20.1086 30.6804 19.8942C30.4624 19.6797 30.1667 19.559 29.8582 19.5586L7.35206 19.5586C7.04357 19.559 6.74787 19.6797 6.52988 19.8942C6.3119 20.1086 6.18945 20.3993 6.18945 20.7023L6.18945 35.8741L29.553 24.2351L31.0208 23.5133Z" fill="#103A4F"/>
<path d="M31.0143 27.0654L6.18945 39.4309L6.18945 59.4584L31.0143 47.0913L31.0143 27.0654Z" fill="#103A4F"/>
<path d="M50.1461 73.044H72.6458C74.5954 73.0419 76.4645 72.2801 77.8431 70.9258C79.2217 69.5714 79.9971 67.7351 79.9993 65.8198V20.6996C79.9971 18.7843 79.2217 16.948 77.8431 15.5937C76.4645 14.2393 74.5954 13.4776 72.6458 13.4755H68.7979C68.5978 11.684 67.7318 10.028 66.3657 8.82514C64.9996 7.62225 63.2296 6.95703 61.3951 6.95703C59.5606 6.95703 57.7907 7.62225 56.4246 8.82514C55.0585 10.028 54.1924 11.684 53.9924 13.4755L50.1461 13.4755C48.1962 13.4771 46.3267 14.2387 44.9477 15.5931C43.5688 16.9475 42.7932 18.784 42.791 20.6996L42.791 65.8198C42.7932 67.7354 43.5688 69.5719 44.9477 70.9263C46.3267 72.2807 48.1962 73.0423 50.1461 73.044V73.044ZM46.0205 20.6949C46.0218 19.6205 46.4569 18.5904 47.2304 17.8309C48.0038 17.0713 49.0525 16.6442 50.1461 16.6434H55.5684C55.9966 16.6434 56.4073 16.4762 56.7102 16.1787C57.013 15.8812 57.1831 15.4778 57.1831 15.057V14.2639C57.2047 13.1792 57.6585 12.1461 58.447 11.3865C59.2354 10.6269 60.2957 10.2014 61.4 10.2014C62.5043 10.2014 63.5646 10.6269 64.353 11.3865C65.1415 12.1461 65.5952 13.1792 65.6169 14.2639V15.057C65.6169 15.4778 65.787 15.8812 66.0898 16.1787C66.3926 16.4762 66.8033 16.6434 67.2316 16.6434L72.6506 16.6434C73.744 16.6446 74.7922 17.0719 75.5653 17.8314C76.3385 18.591 76.7734 19.6207 76.7746 20.6949V65.8198C76.7734 66.894 76.3385 67.9237 75.5653 68.6833C74.7922 69.4428 73.744 69.8701 72.6506 69.8713H50.1461C49.0525 69.8705 48.0038 69.4434 47.2304 68.6838C46.4569 67.9243 46.0218 66.8942 46.0205 65.8198L46.0205 20.6949Z" fill="#103A4F"/>
<path d="M50.1503 66.9662H72.65C72.9582 66.9658 73.2536 66.8453 73.4716 66.6312C73.6895 66.4171 73.8121 66.1269 73.8126 65.8241V50.6523L50.4474 62.2913L48.9941 63.0178V65.8241C48.9946 66.1258 49.1163 66.4151 49.3328 66.629C49.5494 66.8429 49.8432 66.9641 50.1503 66.9662V66.9662Z" fill="#103A4F"/>
<path d="M73.8118 23.5133V20.7023C73.8118 20.3993 73.6894 20.1086 73.4714 19.8942C73.2534 19.6797 72.9577 19.559 72.6492 19.5586L50.1431 19.5586C49.8346 19.559 49.5389 19.6797 49.3209 19.8942C49.1029 20.1086 48.9805 20.3993 48.9805 20.7023V35.8741L72.344 24.2351L73.8118 23.5133Z" fill="#103A4F"/>
<path d="M73.8053 27.0654L48.9805 39.4309L48.9805 59.4584L73.8053 47.0913V27.0654Z" fill="#103A4F"/>
</svg>
