<svg width="80" height="80" viewBox="0 0 80 80" fill="none" xmlns="http://www.w3.org/2000/svg">
<path fill-rule="evenodd" clip-rule="evenodd" d="M55.6769 21.2574C55.6769 21.2574 52.5942 15.5561 51.61 13.6389C50.3185 11.3038 48.7381 9.15104 46.9085 7.23443C45.5595 5.99767 43.8335 5.28411 42.0281 5.2168H33.8941C32.9128 5.27195 31.957 5.5589 31.1008 6.05542C30.2446 6.55194 29.511 7.24469 28.9568 8.07999C24.5888 15.4389 16.9103 28.1726 16.9103 28.1726L27.9888 34.7362L38.7826 16.9207C40.1736 19.6249 44.5334 27.6284 44.5334 27.6284L39.3276 30.5921V30.659L53.8956 31.5381L60.9234 18.3691V18.3021L55.6769 21.2574ZM12.7836 39.6176C12.7836 39.6176 9.53011 45.2182 8.41579 47.0683C7.09295 49.3872 6.07289 51.8755 5.38194 54.4688C5.01269 56.2916 5.27453 58.1899 6.12211 59.835L10.1889 67.0848C10.7269 67.9318 11.4467 68.6403 12.2928 69.1556C13.139 69.6709 14.0889 69.9791 15.0691 70.0567C23.4468 70.2659 37.9898 70.7431 37.9898 70.7431V57.5914L17.6068 56.8798C19.1766 54.2846 23.7315 46.3986 23.7315 46.3986L28.8313 49.563V49.4877L22.3244 36.0932L7.73257 36.4113L7.6919 36.4782L12.7836 39.6176ZM58.1268 68.837C56.012 68.7784 49.6756 68.6779 49.6756 68.6779L49.5699 74.7811H49.4885L41.9239 61.9385L49.944 49.3807H50.0254L49.9196 55.5005C49.9196 55.5005 58.8264 55.6177 61.7953 55.7266L52.2053 37.1995L63.2675 30.6108C63.2675 30.6108 70.1407 43.8552 74.1508 51.3899C74.58 52.3057 74.7975 53.3113 74.7862 54.3279C74.7749 55.3446 74.5352 56.3448 74.0857 57.2503L70.0187 64.5003C69.0539 66.0769 67.5879 67.2603 65.8704 67.8491C63.3418 68.5229 60.7387 68.8549 58.1268 68.837Z" fill="#103A4F"/>
</svg>
