<svg width="80" height="80" viewBox="0 0 80 80" fill="none" xmlns="http://www.w3.org/2000/svg">
<path d="M32.4591 27.8262H19.4115C17.5802 27.8262 16.0957 29.3046 16.0957 31.1283V66.6843C16.0957 68.508 17.5802 69.9864 19.4115 69.9864H32.4591C34.2904 69.9864 35.7749 68.508 35.7749 66.6843V31.1283C35.7749 29.3046 34.2904 27.8262 32.4591 27.8262Z" stroke="#103A4F" stroke-width="1.41818" stroke-linecap="round" stroke-linejoin="round"/>
<path d="M32.4198 34.3955H19.4551V42.9481H32.4198V34.3955Z" stroke="#103A4F" stroke-width="1.41818" stroke-linecap="round" stroke-linejoin="round"/>
<path d="M13.1528 40.041L9.20703 42.8644V48.478" stroke="#103A4F" stroke-width="1.41818" stroke-linecap="round" stroke-linejoin="round"/>
<path d="M11.3706 47.0186H9.98624C9.5559 47.0186 9.20703 47.366 9.20703 47.7946V54.2833C9.20703 54.7119 9.5559 55.0593 9.98624 55.0593H11.3706C11.8009 55.0593 12.1498 54.7119 12.1498 54.2833V47.7946C12.1498 47.366 11.8009 47.0186 11.3706 47.0186Z" stroke="#103A4F" stroke-width="1.41818" stroke-linecap="round" stroke-linejoin="round"/>
<path d="M10.6816 55.0547V65.4235H15.6305" stroke="#103A4F" stroke-width="1.41818" stroke-linecap="round" stroke-linejoin="round"/>
<path d="M16.0892 37.3037H13.1465V45.4022H16.0892V37.3037Z" stroke="#103A4F" stroke-width="1.41818" stroke-linecap="round" stroke-linejoin="round"/>
<path d="M32.1598 69.9873H19.709V73.0418H32.1598V69.9873Z" stroke="#103A4F" stroke-width="1.41818" stroke-linecap="round" stroke-linejoin="round"/>
<path d="M47.455 69.7695H60.5026C62.3338 69.7695 63.8184 68.2911 63.8184 66.4674L63.8184 30.9114C63.8184 29.0877 62.3338 27.6093 60.5026 27.6093H47.455C45.6237 27.6093 44.1392 29.0877 44.1392 30.9114V66.4674C44.1392 68.2911 45.6237 69.7695 47.455 69.7695Z" stroke="#103A4F" stroke-width="1.41818" stroke-linecap="round" stroke-linejoin="round"/>
<path d="M47.5802 42.9561H60.5449V34.4035H47.5802V42.9561Z" stroke="#103A4F" stroke-width="1.41818" stroke-linecap="round" stroke-linejoin="round"/>
<path d="M66.8398 40.041L70.7856 42.8644V48.478" stroke="#103A4F" stroke-width="1.41818" stroke-linecap="round" stroke-linejoin="round"/>
<path d="M68.6255 55.0547H70.0099C70.4402 55.0547 70.7891 54.7073 70.7891 54.2787V47.79C70.7891 47.3614 70.4402 47.0139 70.0099 47.0139H68.6255C68.1952 47.0139 67.8463 47.3614 67.8463 47.79V54.2787C67.8463 54.7073 68.1952 55.0547 68.6255 55.0547Z" stroke="#103A4F" stroke-width="1.41818" stroke-linecap="round" stroke-linejoin="round"/>
<path d="M50.1465 50.3269C50.7183 50.3269 51.1817 49.8646 51.1817 49.2943C51.1817 48.724 50.7183 48.2617 50.1465 48.2617C49.5748 48.2617 49.1113 48.724 49.1113 49.2943C49.1113 49.8646 49.5748 50.3269 50.1465 50.3269Z" fill="#103A4F"/>
<path d="M21.9903 50.3269C22.562 50.3269 23.0255 49.8646 23.0255 49.2943C23.0255 48.724 22.562 48.2617 21.9903 48.2617C21.4186 48.2617 20.9551 48.724 20.9551 49.2943C20.9551 49.8646 21.4186 50.3269 21.9903 50.3269Z" fill="#103A4F"/>
<path d="M54.2872 50.3269C54.8589 50.3269 55.3223 49.8646 55.3223 49.2943C55.3223 48.724 54.8589 48.2617 54.2872 48.2617C53.7154 48.2617 53.252 48.724 53.252 49.2943C53.252 49.8646 53.7154 50.3269 54.2872 50.3269Z" fill="#103A4F"/>
<path d="M26.1309 50.3269C26.7026 50.3269 27.1661 49.8646 27.1661 49.2943C27.1661 48.724 26.7026 48.2617 26.1309 48.2617C25.5592 48.2617 25.0957 48.724 25.0957 49.2943C25.0957 49.8646 25.5592 50.3269 26.1309 50.3269Z" fill="#103A4F"/>
<path d="M58.4278 50.3269C58.9995 50.3269 59.463 49.8646 59.463 49.2943C59.463 48.724 58.9995 48.2617 58.4278 48.2617C57.8561 48.2617 57.3926 48.724 57.3926 49.2943C57.3926 49.8646 57.8561 50.3269 58.4278 50.3269Z" fill="#103A4F"/>
<path d="M30.2715 50.3269C30.8433 50.3269 31.3067 49.8646 31.3067 49.2943C31.3067 48.724 30.8433 48.2617 30.2715 48.2617C29.6998 48.2617 29.2363 48.724 29.2363 49.2943C29.2363 49.8646 29.6998 50.3269 30.2715 50.3269Z" fill="#103A4F"/>
<path d="M69.318 55.0547V65.4235H64.3691" stroke="#103A4F" stroke-width="1.41818" stroke-linecap="round" stroke-linejoin="round"/>
<path d="M63.9069 45.3945H66.8496V37.296H63.9069V45.3945Z" stroke="#103A4F" stroke-width="1.41818" stroke-linecap="round" stroke-linejoin="round"/>
<path d="M47.8363 73.0371H60.2871V69.9826H47.8363V73.0371Z" stroke="#103A4F" stroke-width="1.41818" stroke-linecap="round" stroke-linejoin="round"/>
<path d="M74.784 24.9316H5.21875L11.1706 16.3047H68.8321L74.784 24.9316Z" stroke="#103A4F" stroke-width="1.41818" stroke-linecap="round" stroke-linejoin="round"/>
<path d="M68.6381 6.95703H11.3496V11.7452H68.6381V6.95703Z" stroke="#103A4F" stroke-width="1.41818" stroke-linecap="round" stroke-linejoin="round"/>
<path d="M18.5137 11.7461V16.3031" stroke="#103A4F" stroke-width="1.41818" stroke-linecap="round" stroke-linejoin="round"/>
<path d="M61.4824 11.7461V16.3031" stroke="#103A4F" stroke-width="1.41818" stroke-linecap="round" stroke-linejoin="round"/>
<path d="M6.51562 24.9189V73.0433" stroke="#103A4F" stroke-width="1.41818" stroke-linecap="round" stroke-linejoin="round"/>
<path d="M73.4727 24.9189V73.0433" stroke="#103A4F" stroke-width="1.41818" stroke-linecap="round" stroke-linejoin="round"/>
</svg>
