<svg width="359" height="225" viewBox="0 0 359 225" fill="none" xmlns="http://www.w3.org/2000/svg">
<mask id="mask0_2810_6762" style="mask-type:alpha" maskUnits="userSpaceOnUse" x="0" y="0" width="359" height="225">
<rect width="359" height="225" fill="#C4C4C4"/>
</mask>
<g mask="url(#mask0_2810_6762)">
<ellipse rx="3.58686" ry="3.58687" transform="matrix(0.866044 -0.499967 0.866044 0.499967 5.22546 165)" fill="#E5EFF8"/>
<ellipse rx="3.58686" ry="3.58687" transform="matrix(0.866044 -0.499967 0.866044 0.499967 20.7489 173.967)" fill="#E5EFF8"/>
<ellipse rx="3.58686" ry="3.58687" transform="matrix(0.866044 -0.499967 0.866044 0.499967 36.286 182.934)" fill="#E5EFF8"/>
<ellipse rx="3.58686" ry="3.58687" transform="matrix(0.866044 -0.499967 0.866044 0.499967 51.8163 191.9)" fill="#E5EFF8"/>
<ellipse rx="3.58686" ry="3.58687" transform="matrix(0.866044 -0.499967 0.866044 0.499967 67.3534 200.867)" fill="#E5EFF8"/>
<ellipse rx="3.58686" ry="3.58687" transform="matrix(0.866044 -0.499967 0.866044 0.499967 82.8807 209.835)" fill="#E5EFF8"/>
<ellipse rx="3.58686" ry="3.58687" transform="matrix(0.866044 -0.499967 0.866044 0.499967 98.413 218.802)" fill="#E5EFF8"/>
<ellipse rx="3.58686" ry="3.58687" transform="matrix(0.866044 -0.499967 0.866044 0.499967 113.946 227.766)" fill="#E5EFF8"/>
<ellipse rx="3.58686" ry="3.58687" transform="matrix(0.866044 -0.499967 0.866044 0.499967 20.7489 156.035)" fill="#E5EFF8"/>
<ellipse rx="3.58686" ry="3.58687" transform="matrix(0.866044 -0.499967 0.866044 0.499967 36.286 165)" fill="#E5EFF8"/>
<ellipse rx="3.58686" ry="3.58687" transform="matrix(0.866044 -0.499967 0.866044 0.499967 51.8173 173.967)" fill="#E5EFF8"/>
<ellipse rx="3.58686" ry="3.58687" transform="matrix(0.866044 -0.499967 0.866044 0.499967 67.3534 182.934)" fill="#E5EFF8"/>
<ellipse rx="3.58686" ry="3.58687" transform="matrix(0.866044 -0.499967 0.866044 0.499967 82.8807 191.9)" fill="#E5EFF8"/>
<ellipse rx="3.58686" ry="3.58687" transform="matrix(0.866044 -0.499967 0.866044 0.499967 98.4139 200.867)" fill="#E5EFF8"/>
<ellipse rx="3.58686" ry="3.58687" transform="matrix(0.866044 -0.499967 0.866044 0.499967 113.946 209.835)" fill="#E5EFF8"/>
<ellipse rx="3.58686" ry="3.58687" transform="matrix(0.866044 -0.499967 0.866044 0.499967 129.481 218.802)" fill="#E5EFF8"/>
<ellipse rx="3.58686" ry="3.58687" transform="matrix(0.866044 -0.499967 0.866044 0.499967 145.004 227.766)" fill="#E5EFF8"/>
<ellipse rx="3.58686" ry="3.58687" transform="matrix(0.866044 -0.499967 0.866044 0.499967 36.286 147.067)" fill="#E5EFF8"/>
<ellipse rx="3.58686" ry="3.58687" transform="matrix(0.866044 -0.499967 0.866044 0.499967 51.8173 156.035)" fill="#E5EFF8"/>
<ellipse rx="3.58686" ry="3.58687" transform="matrix(0.866044 -0.499967 0.866044 0.499967 67.3544 165)" fill="#E5EFF8"/>
<ellipse rx="3.58686" ry="3.58687" transform="matrix(0.866044 -0.499967 0.866044 0.499967 82.8807 173.967)" fill="#E5EFF8"/>
<ellipse rx="3.58686" ry="3.58687" transform="matrix(0.866044 -0.499967 0.866044 0.499967 98.4139 182.934)" fill="#E5EFF8"/>
<ellipse rx="3.58686" ry="3.58687" transform="matrix(0.866044 -0.499967 0.866044 0.499967 113.947 191.9)" fill="#E5EFF8"/>
<ellipse rx="3.58686" ry="3.58687" transform="matrix(0.866044 -0.499967 0.866044 0.499967 129.481 200.867)" fill="#E5EFF8"/>
<ellipse rx="3.58686" ry="3.58687" transform="matrix(0.866044 -0.499967 0.866044 0.499967 145.005 209.835)" fill="#E5EFF8"/>
<ellipse rx="3.58686" ry="3.58687" transform="matrix(0.866044 -0.499967 0.866044 0.499967 160.541 218.802)" fill="#E5EFF8"/>
<ellipse rx="3.58686" ry="3.58687" transform="matrix(0.866044 -0.499967 0.866044 0.499967 176.068 227.766)" fill="#E5EFF8"/>
<ellipse rx="3.58686" ry="3.58687" transform="matrix(0.866044 -0.499967 0.866044 0.499967 51.8163 138.1)" fill="#E5EFF8"/>
<ellipse rx="3.58686" ry="3.58687" transform="matrix(0.866044 -0.499967 0.866044 0.499967 67.3524 147.067)" fill="#E5EFF8"/>
<ellipse rx="3.58686" ry="3.58687" transform="matrix(0.866044 -0.499967 0.866044 0.499967 82.8798 156.035)" fill="#E5EFF8"/>
<ellipse rx="3.58686" ry="3.58687" transform="matrix(0.866044 -0.499967 0.866044 0.499967 98.412 165)" fill="#E5EFF8"/>
<ellipse rx="3.58686" ry="3.58687" transform="matrix(0.866044 -0.499967 0.866044 0.499967 113.945 173.967)" fill="#E5EFF8"/>
<ellipse rx="3.58686" ry="3.58687" transform="matrix(0.866044 -0.499967 0.866044 0.499967 129.48 182.934)" fill="#E5EFF8"/>
<ellipse rx="3.58686" ry="3.58687" transform="matrix(0.866044 -0.499967 0.866044 0.499967 145.003 191.9)" fill="#E5EFF8"/>
<ellipse rx="3.58686" ry="3.58687" transform="matrix(0.866044 -0.499967 0.866044 0.499967 207.135 227.766)" fill="#E5EFF8"/>
<ellipse rx="3.58686" ry="3.58687" transform="matrix(0.866044 -0.499967 0.866044 0.499967 160.54 200.867)" fill="#E5EFF8"/>
<ellipse rx="3.58686" ry="3.58687" transform="matrix(0.866044 -0.499967 0.866044 0.499967 176.066 209.835)" fill="#E5EFF8"/>
<ellipse rx="3.58686" ry="3.58687" transform="matrix(0.866044 -0.499967 0.866044 0.499967 191.603 218.802)" fill="#E5EFF8"/>
<ellipse rx="3.58686" ry="3.58687" transform="matrix(0.866044 -0.499967 0.866044 0.499967 67.3534 129.133)" fill="#E5EFF8"/>
<ellipse rx="3.58686" ry="3.58687" transform="matrix(0.866044 -0.499967 0.866044 0.499967 82.8798 138.1)" fill="#E5EFF8"/>
<ellipse rx="3.58686" ry="3.58687" transform="matrix(0.866044 -0.499967 0.866044 0.499967 98.413 147.067)" fill="#E5EFF8"/>
<ellipse rx="3.58686" ry="3.58687" transform="matrix(0.866044 -0.499967 0.866044 0.499967 113.945 156.035)" fill="#E5EFF8"/>
<ellipse rx="3.58686" ry="3.58687" transform="matrix(0.866044 -0.499967 0.866044 0.499967 129.48 165)" fill="#E5EFF8"/>
<ellipse rx="3.58686" ry="3.58687" transform="matrix(0.866044 -0.499967 0.866044 0.499967 145.004 173.967)" fill="#E5EFF8"/>
<ellipse rx="3.58686" ry="3.58687" transform="matrix(0.866044 -0.499967 0.866044 0.499967 222.668 218.802)" fill="#E5EFF8"/>
<ellipse rx="3.58686" ry="3.58687" transform="matrix(0.866044 -0.499967 0.866044 0.499967 160.54 182.934)" fill="#E5EFF8"/>
<ellipse rx="3.58686" ry="3.58687" transform="matrix(0.866044 -0.499967 0.866044 0.499967 176.067 191.9)" fill="#E5EFF8"/>
<ellipse rx="3.58686" ry="3.58687" transform="matrix(0.866044 -0.499967 0.866044 0.499967 191.603 200.867)" fill="#E5EFF8"/>
<ellipse rx="3.58686" ry="3.58687" transform="matrix(0.866044 -0.499967 0.866044 0.499967 207.135 209.835)" fill="#E5EFF8"/>
<ellipse rx="3.58686" ry="3.58687" transform="matrix(0.866044 -0.499967 0.866044 0.499967 238.2 227.766)" fill="#E5EFF8"/>
<ellipse rx="3.58686" ry="3.58687" transform="matrix(0.866044 -0.499967 0.866044 0.499967 82.8807 120.167)" fill="#E5EFF8"/>
<ellipse rx="3.58686" ry="3.58687" transform="matrix(0.866044 -0.499967 0.866044 0.499967 98.413 129.133)" fill="#E5EFF8"/>
<ellipse rx="3.58686" ry="3.58687" transform="matrix(0.866044 -0.499967 0.866044 0.499967 113.946 138.1)" fill="#E5EFF8"/>
<ellipse rx="3.58686" ry="3.58687" transform="matrix(0.866044 -0.499967 0.866044 0.499967 129.48 147.067)" fill="#E5EFF8"/>
<ellipse rx="3.58686" ry="3.58687" transform="matrix(0.866044 -0.499967 0.866044 0.499967 145.004 156.035)" fill="#E5EFF8"/>
<ellipse rx="3.58686" ry="3.58687" transform="matrix(0.866044 -0.499967 0.866044 0.499967 238.201 209.835)" fill="#E5EFF8"/>
<ellipse rx="3.58686" ry="3.58687" transform="matrix(0.866044 -0.499967 0.866044 0.499967 269.263 227.766)" fill="#E5EFF8"/>
<ellipse rx="3.58686" ry="3.58687" transform="matrix(0.866044 -0.499967 0.866044 0.499967 160.541 165)" fill="#E5EFF8"/>
<ellipse rx="3.58686" ry="3.58687" transform="matrix(0.866044 -0.499967 0.866044 0.499967 176.067 173.967)" fill="#E5EFF8"/>
<ellipse rx="3.58686" ry="3.58687" transform="matrix(0.866044 -0.499967 0.866044 0.499967 191.604 182.934)" fill="#E5EFF8"/>
<ellipse rx="3.58686" ry="3.58687" transform="matrix(0.866044 -0.499967 0.866044 0.499967 207.135 191.9)" fill="#E5EFF8"/>
<ellipse rx="3.58686" ry="3.58687" transform="matrix(0.866044 -0.499967 0.866044 0.499967 222.668 200.867)" fill="#E5EFF8"/>
<ellipse rx="3.58686" ry="3.58687" transform="matrix(0.866044 -0.499967 0.866044 0.499967 253.727 218.802)" fill="#E5EFF8"/>
<ellipse rx="3.58686" ry="3.58687" transform="matrix(0.866044 -0.499967 0.866044 0.499967 98.413 111.202)" fill="#E5EFF8"/>
<ellipse rx="3.58686" ry="3.58687" transform="matrix(0.866044 -0.499967 0.866044 0.499967 113.946 120.167)" fill="#E5EFF8"/>
<ellipse rx="3.58686" ry="3.58687" transform="matrix(0.866044 -0.499967 0.866044 0.499967 129.481 129.133)" fill="#E5EFF8"/>
<ellipse rx="3.58686" ry="3.58687" transform="matrix(0.866044 -0.499967 0.866044 0.499967 145.004 138.1)" fill="#E5EFF8"/>
<ellipse rx="3.58686" ry="3.58687" transform="matrix(0.866044 -0.499967 0.866044 0.499967 253.728 200.867)" fill="#E5EFF8"/>
<ellipse rx="3.58686" ry="3.58687" transform="matrix(0.866044 -0.499967 0.866044 0.499967 284.796 218.802)" fill="#E5EFF8"/>
<ellipse rx="3.58686" ry="3.58687" transform="matrix(0.866044 -0.499967 0.866044 0.499967 160.541 147.067)" fill="#E5EFF8"/>
<ellipse rx="3.58686" ry="3.58687" transform="matrix(0.866044 -0.499967 0.866044 0.499967 176.068 156.035)" fill="#E5EFF8"/>
<ellipse rx="3.58686" ry="3.58687" transform="matrix(0.866044 -0.499967 0.866044 0.499967 191.604 165)" fill="#E5EFF8"/>
<ellipse rx="3.58686" ry="3.58687" transform="matrix(0.866044 -0.499967 0.866044 0.499967 207.136 173.967)" fill="#E5EFF8"/>
<ellipse rx="3.58686" ry="3.58687" transform="matrix(0.866044 -0.499967 0.866044 0.499967 222.668 182.934)" fill="#E5EFF8"/>
<ellipse rx="3.58686" ry="3.58687" transform="matrix(0.866044 -0.499967 0.866044 0.499967 238.201 191.9)" fill="#E5EFF8"/>
<ellipse rx="3.58686" ry="3.58687" transform="matrix(0.866044 -0.499967 0.866044 0.499967 269.263 209.835)" fill="#E5EFF8"/>
<ellipse rx="3.58686" ry="3.58687" transform="matrix(0.866044 -0.499967 0.866044 0.499967 300.322 227.766)" fill="#E5EFF8"/>
<ellipse rx="3.58686" ry="3.58687" transform="matrix(0.866044 -0.499967 0.866044 0.499967 113.946 102.235)" fill="#E5EFF8"/>
<ellipse rx="3.58686" ry="3.58687" transform="matrix(0.866044 -0.499967 0.866044 0.499967 129.481 111.202)" fill="#E5EFF8"/>
<ellipse rx="3.58686" ry="3.58687" transform="matrix(0.866044 -0.499967 0.866044 0.499967 145.005 120.167)" fill="#E5EFF8"/>
<ellipse rx="3.58686" ry="3.58687" transform="matrix(0.866044 -0.499967 0.866044 0.499967 269.264 191.9)" fill="#E5EFF8"/>
<ellipse rx="3.58686" ry="3.58687" transform="matrix(0.866044 -0.499967 0.866044 0.499967 300.323 209.835)" fill="#E5EFF8"/>
<ellipse rx="3.58686" ry="3.58687" transform="matrix(0.866044 -0.499967 0.866044 0.499967 160.541 129.133)" fill="#E5EFF8"/>
<ellipse rx="3.58686" ry="3.58687" transform="matrix(0.866044 -0.499967 0.866044 0.499967 176.068 138.1)" fill="#E5EFF8"/>
<ellipse rx="3.58686" ry="3.58687" transform="matrix(0.866044 -0.499967 0.866044 0.499967 191.605 147.067)" fill="#E5EFF8"/>
<ellipse rx="3.58686" ry="3.58687" transform="matrix(0.866044 -0.499967 0.866044 0.499967 207.136 156.035)" fill="#E5EFF8"/>
<ellipse rx="3.58686" ry="3.58687" transform="matrix(0.866044 -0.499967 0.866044 0.499967 222.669 165)" fill="#E5EFF8"/>
<ellipse rx="3.58686" ry="3.58687" transform="matrix(0.866044 -0.499967 0.866044 0.499967 238.201 173.967)" fill="#E5EFF8"/>
<ellipse rx="3.58686" ry="3.58687" transform="matrix(0.866044 -0.499967 0.866044 0.499967 253.728 182.934)" fill="#E5EFF8"/>
<ellipse rx="3.58686" ry="3.58687" transform="matrix(0.866044 -0.499967 0.866044 0.499967 284.796 200.867)" fill="#E5EFF8"/>
<ellipse rx="3.58686" ry="3.58687" transform="matrix(0.866044 -0.499967 0.866044 0.499967 315.861 218.802)" fill="#E5EFF8"/>
<ellipse rx="3.58686" ry="3.58687" transform="matrix(0.866044 -0.499967 0.866044 0.499967 331.392 227.766)" fill="#E5EFF8"/>
<ellipse rx="3.58686" ry="3.58687" transform="matrix(0.866044 -0.499967 0.866044 0.499967 129.481 93.2686)" fill="#E5EFF8"/>
<ellipse rx="3.58686" ry="3.58687" transform="matrix(0.866044 -0.499967 0.866044 0.499967 145.003 102.235)" fill="#E5EFF8"/>
<ellipse rx="3.58686" ry="3.58687" transform="matrix(0.866044 -0.499967 0.866044 0.499967 284.787 182.934)" fill="#E5EFF8"/>
<ellipse rx="3.58686" ry="3.58687" transform="matrix(0.866044 -0.499967 0.866044 0.499967 315.858 200.867)" fill="#E5EFF8"/>
<ellipse rx="3.58686" ry="3.58687" transform="matrix(0.866044 -0.499967 0.866044 0.499967 160.536 111.202)" fill="#E5EFF8"/>
<ellipse rx="3.58686" ry="3.58687" transform="matrix(0.866044 -0.499967 0.866044 0.499967 176.066 120.167)" fill="#E5EFF8"/>
<ellipse rx="3.58686" ry="3.58687" transform="matrix(0.866044 -0.499967 0.866044 0.499967 191.603 129.133)" fill="#E5EFF8"/>
<ellipse rx="3.58686" ry="3.58687" transform="matrix(0.866044 -0.499967 0.866044 0.499967 362.455 227.766)" fill="#E5EFF8"/>
<ellipse rx="3.58686" ry="3.58687" transform="matrix(0.866044 -0.499967 0.866044 0.499967 207.135 138.1)" fill="#E5EFF8"/>
<ellipse rx="3.58686" ry="3.58687" transform="matrix(0.866044 -0.499967 0.866044 0.499967 222.667 147.067)" fill="#E5EFF8"/>
<ellipse rx="3.58686" ry="3.58687" transform="matrix(0.866044 -0.499967 0.866044 0.499967 238.2 156.035)" fill="#E5EFF8"/>
<ellipse rx="3.58686" ry="3.58687" transform="matrix(0.866044 -0.499967 0.866044 0.499967 253.723 165)" fill="#E5EFF8"/>
<ellipse rx="3.58686" ry="3.58687" transform="matrix(0.866044 -0.499967 0.866044 0.499967 269.258 173.967)" fill="#E5EFF8"/>
<ellipse rx="3.58686" ry="3.58687" transform="matrix(0.866044 -0.499967 0.866044 0.499967 300.321 191.9)" fill="#E5EFF8"/>
<ellipse rx="3.58686" ry="3.58687" transform="matrix(0.866044 -0.499967 0.866044 0.499967 331.389 209.836)" fill="#E5EFF8"/>
<ellipse rx="3.58686" ry="3.58687" transform="matrix(0.866044 -0.499967 0.866044 0.499967 346.928 218.802)" fill="#E5EFF8"/>
<ellipse rx="3.58686" ry="3.58687" transform="matrix(0.866044 -0.499967 0.866044 0.499967 145.004 84.3018)" fill="#E5EFF8"/>
<ellipse rx="3.58686" ry="3.58687" transform="matrix(0.866044 -0.499967 0.866044 0.499967 160.541 75.3335)" fill="#E5EFF8"/>
<ellipse rx="3.58686" ry="3.58687" transform="matrix(0.866044 -0.499967 0.866044 0.499967 191.604 57.4014)" fill="#E5EFF8"/>
<ellipse rx="3.58686" ry="3.58687" transform="matrix(0.866044 -0.499967 0.866044 0.499967 176.067 66.3701)" fill="#E5EFF8"/>
<ellipse rx="3.58686" ry="3.58687" transform="matrix(0.866044 -0.499967 0.866044 0.499967 207.136 48.4351)" fill="#E5EFF8"/>
<ellipse rx="3.58686" ry="3.58687" transform="matrix(0.866044 -0.499967 0.866044 0.499967 222.664 39.4663)" fill="#E5EFF8"/>
<ellipse rx="3.58686" ry="3.58687" transform="matrix(0.866044 -0.499967 0.866044 0.499967 238.191 30.5015)" fill="#E5EFF8"/>
<ellipse rx="3.58686" ry="3.58687" transform="matrix(0.866044 -0.499967 0.866044 0.499967 269.265 12.5684)" fill="#E5EFF8"/>
<ellipse rx="3.58686" ry="3.58687" transform="matrix(0.866044 -0.499967 0.866044 0.499967 253.728 21.5366)" fill="#E5EFF8"/>
<ellipse rx="3.58686" ry="3.58687" transform="matrix(0.866044 -0.499967 0.866044 0.499967 284.796 3.60304)" fill="#E5EFF8"/>
<ellipse rx="3.58686" ry="3.58687" transform="matrix(0.866044 -0.499967 0.866044 0.499967 160.536 93.2686)" fill="#E5EFF8"/>
<ellipse rx="3.58686" ry="3.58687" transform="matrix(0.866044 -0.499967 0.866044 0.499967 176.063 84.3018)" fill="#E5EFF8"/>
<ellipse rx="3.58686" ry="3.58687" transform="matrix(0.866044 -0.499967 0.866044 0.499967 207.132 66.3701)" fill="#E5EFF8"/>
<ellipse rx="3.58686" ry="3.58687" transform="matrix(0.866044 -0.499967 0.866044 0.499967 191.6 75.3335)" fill="#E5EFF8"/>
<ellipse rx="3.58686" ry="3.58687" transform="matrix(0.866044 -0.499967 0.866044 0.499967 222.669 57.4019)" fill="#E5EFF8"/>
<ellipse rx="3.58686" ry="3.58687" transform="matrix(0.866044 -0.499967 0.866044 0.499967 238.19 48.4351)" fill="#E5EFF8"/>
<ellipse rx="3.58686" ry="3.58687" transform="matrix(0.866044 -0.499967 0.866044 0.499967 253.727 39.4668)" fill="#E5EFF8"/>
<ellipse rx="3.58686" ry="3.58687" transform="matrix(0.866044 -0.499967 0.866044 0.499967 284.796 21.5366)" fill="#E5EFF8"/>
<ellipse rx="3.58686" ry="3.58687" transform="matrix(0.866044 -0.499967 0.866044 0.499967 269.263 30.5)" fill="#E5EFF8"/>
<ellipse rx="3.58686" ry="3.58687" transform="matrix(0.866044 -0.499967 0.866044 0.499967 300.323 12.5684)" fill="#E5EFF8"/>
<ellipse rx="3.58686" ry="3.58687" transform="matrix(0.866044 -0.499967 0.866044 0.499967 176.067 102.235)" fill="#E5EFF8"/>
<ellipse rx="3.58686" ry="3.58687" transform="matrix(0.866044 -0.499967 0.866044 0.499967 191.604 93.2686)" fill="#E5EFF8"/>
<ellipse rx="3.58686" ry="3.58687" transform="matrix(0.866044 -0.499967 0.866044 0.499967 222.669 75.3335)" fill="#E5EFF8"/>
<ellipse rx="3.58686" ry="3.58687" transform="matrix(0.866044 -0.499967 0.866044 0.499967 207.136 84.3018)" fill="#E5EFF8"/>
<ellipse rx="3.58686" ry="3.58687" transform="matrix(0.866044 -0.499967 0.866044 0.499967 238.202 66.3701)" fill="#E5EFF8"/>
<ellipse rx="3.58686" ry="3.58687" transform="matrix(0.866044 -0.499967 0.866044 0.499967 253.727 57.4019)" fill="#E5EFF8"/>
<ellipse rx="3.58686" ry="3.58687" transform="matrix(0.866044 -0.499967 0.866044 0.499967 269.265 48.4351)" fill="#E5EFF8"/>
<ellipse rx="3.58686" ry="3.58687" transform="matrix(0.866044 -0.499967 0.866044 0.499967 300.323 30.5015)" fill="#E5EFF8"/>
<ellipse rx="3.58686" ry="3.58687" transform="matrix(0.866044 -0.499967 0.866044 0.499967 284.796 39.4668)" fill="#E5EFF8"/>
<ellipse rx="3.58686" ry="3.58687" transform="matrix(0.866044 -0.499967 0.866044 0.499967 315.86 21.5366)" fill="#E5EFF8"/>
<ellipse rx="3.58686" ry="3.58687" transform="matrix(0.866044 -0.499967 0.866044 0.499967 191.603 111.202)" fill="#E5EFF8"/>
<ellipse rx="3.58686" ry="3.58687" transform="matrix(0.866044 -0.499967 0.866044 0.499967 207.135 102.235)" fill="#E5EFF8"/>
<ellipse rx="3.58686" ry="3.58687" transform="matrix(0.866044 -0.499967 0.866044 0.499967 238.191 84.3018)" fill="#E5EFF8"/>
<ellipse rx="3.58686" ry="3.58687" transform="matrix(0.866044 -0.499967 0.866044 0.499967 222.664 93.2686)" fill="#E5EFF8"/>
<ellipse rx="3.58686" ry="3.58687" transform="matrix(0.866044 -0.499967 0.866044 0.499967 253.724 75.3335)" fill="#E5EFF8"/>
<ellipse rx="3.58686" ry="3.58687" transform="matrix(0.866044 -0.499967 0.866044 0.499967 269.258 66.3701)" fill="#E5EFF8"/>
<ellipse rx="3.58686" ry="3.58687" transform="matrix(0.866044 -0.499967 0.866044 0.499967 284.795 57.4019)" fill="#E5EFF8"/>
<ellipse rx="3.58686" ry="3.58687" transform="matrix(0.866044 -0.499967 0.866044 0.499967 315.859 39.4668)" fill="#E5EFF8"/>
<ellipse rx="3.58686" ry="3.58687" transform="matrix(0.866044 -0.499967 0.866044 0.499967 300.322 48.4351)" fill="#E5EFF8"/>
<ellipse rx="3.58686" ry="3.58687" transform="matrix(0.866044 -0.499967 0.866044 0.499967 331.391 30.5015)" fill="#E5EFF8"/>
<ellipse rx="3.58686" ry="3.58687" transform="matrix(0.866044 -0.499967 0.866044 0.499967 207.131 120.167)" fill="#E5EFF8"/>
<ellipse rx="3.58686" ry="3.58687" transform="matrix(0.866044 -0.499967 0.866044 0.499967 222.668 111.202)" fill="#E5EFF8"/>
<ellipse rx="3.58686" ry="3.58687" transform="matrix(0.866044 -0.499967 0.866044 0.499967 253.728 93.2686)" fill="#E5EFF8"/>
<ellipse rx="3.58686" ry="3.58687" transform="matrix(0.866044 -0.499967 0.866044 0.499967 238.201 102.235)" fill="#E5EFF8"/>
<ellipse rx="3.58686" ry="3.58687" transform="matrix(0.866044 -0.499967 0.866044 0.499967 269.266 84.3018)" fill="#E5EFF8"/>
<ellipse rx="3.58686" ry="3.58687" transform="matrix(0.866044 -0.499967 0.866044 0.499967 284.795 75.3335)" fill="#E5EFF8"/>
<ellipse rx="3.58686" ry="3.58687" transform="matrix(0.866044 -0.499967 0.866044 0.499967 300.322 66.3701)" fill="#E5EFF8"/>
<ellipse rx="3.58686" ry="3.58687" transform="matrix(0.866044 -0.499967 0.866044 0.499967 331.391 48.4351)" fill="#E5EFF8"/>
<ellipse rx="3.58686" ry="3.58687" transform="matrix(0.866044 -0.499967 0.866044 0.499967 315.859 57.4019)" fill="#E5EFF8"/>
<ellipse rx="3.58686" ry="3.58687" transform="matrix(0.866044 -0.499967 0.866044 0.499967 346.928 39.4668)" fill="#E5EFF8"/>
<ellipse rx="3.58686" ry="3.58687" transform="matrix(0.866044 -0.499967 0.866044 0.499967 222.668 129.134)" fill="#E5EFF8"/>
<ellipse rx="3.58686" ry="3.58687" transform="matrix(0.866044 -0.499967 0.866044 0.499967 238.201 120.167)" fill="#E5EFF8"/>
<ellipse rx="3.58686" ry="3.58687" transform="matrix(0.866044 -0.499967 0.866044 0.499967 269.264 102.235)" fill="#E5EFF8"/>
<ellipse rx="3.58686" ry="3.58687" transform="matrix(0.866044 -0.499967 0.866044 0.499967 253.728 111.202)" fill="#E5EFF8"/>
<ellipse rx="3.58686" ry="3.58687" transform="matrix(0.866044 -0.499967 0.866044 0.499967 284.789 93.2686)" fill="#E5EFF8"/>
<ellipse rx="3.58686" ry="3.58687" transform="matrix(0.866044 -0.499967 0.866044 0.499967 300.318 84.3018)" fill="#E5EFF8"/>
<ellipse rx="3.58686" ry="3.58687" transform="matrix(0.866044 -0.499967 0.866044 0.499967 315.855 75.3335)" fill="#E5EFF8"/>
<ellipse rx="3.58686" ry="3.58687" transform="matrix(0.866044 -0.499967 0.866044 0.499967 346.928 57.4019)" fill="#E5EFF8"/>
<ellipse rx="3.58686" ry="3.58687" transform="matrix(0.866044 -0.499967 0.866044 0.499967 331.391 66.3701)" fill="#E5EFF8"/>
<ellipse rx="3.58686" ry="3.58687" transform="matrix(0.866044 -0.499967 0.866044 0.499967 362.455 48.4351)" fill="#E5EFF8"/>
<ellipse rx="3.58686" ry="3.58687" transform="matrix(0.866044 -0.499967 0.866044 0.499967 238.19 138.1)" fill="#E5EFF8"/>
<ellipse rx="3.58686" ry="3.58687" transform="matrix(0.866044 -0.499967 0.866044 0.499967 300.322 173.967)" fill="#E5EFF8"/>
<ellipse rx="3.58686" ry="3.58687" transform="matrix(0.866044 -0.499967 0.866044 0.499967 331.39 191.9)" fill="#E5EFF8"/>
<ellipse rx="3.58686" ry="3.58687" transform="matrix(0.866044 -0.499967 0.866044 0.499967 253.724 129.134)" fill="#E5EFF8"/>
<ellipse rx="3.58686" ry="3.58687" transform="matrix(0.866044 -0.499967 0.866044 0.499967 284.796 111.202)" fill="#E5EFF8"/>
<ellipse rx="3.58686" ry="3.58687" transform="matrix(0.866044 -0.499967 0.866044 0.499967 269.259 120.167)" fill="#E5EFF8"/>
<ellipse rx="3.58686" ry="3.58687" transform="matrix(0.866044 -0.499967 0.866044 0.499967 300.323 102.235)" fill="#E5EFF8"/>
<ellipse rx="3.58686" ry="3.58687" transform="matrix(0.866044 -0.499967 0.866044 0.499967 315.858 93.2686)" fill="#E5EFF8"/>
<ellipse rx="3.58686" ry="3.58687" transform="matrix(0.866044 -0.499967 0.866044 0.499967 331.39 84.3018)" fill="#E5EFF8"/>
<ellipse rx="3.58686" ry="3.58687" transform="matrix(0.866044 -0.499967 0.866044 0.499967 362.454 66.3701)" fill="#E5EFF8"/>
<ellipse rx="3.58686" ry="3.58687" transform="matrix(0.866044 -0.499967 0.866044 0.499967 346.927 75.3335)" fill="#E5EFF8"/>
<ellipse rx="3.58686" ry="3.58687" transform="matrix(0.866044 -0.499967 0.866044 0.499967 315.855 165)" fill="#E5EFF8"/>
<ellipse rx="3.58686" ry="3.58687" transform="matrix(0.866044 -0.499967 0.866044 0.499967 346.923 182.934)" fill="#E5EFF8"/>
<ellipse rx="3.58686" ry="3.58687" transform="matrix(0.866044 -0.499967 0.866044 0.499967 346.924 147.067)" fill="#E5EFF8"/>
<ellipse rx="3.58686" ry="3.58687" transform="matrix(0.866044 -0.499967 0.866044 0.499967 331.391 156.036)" fill="#E5EFF8"/>
<ellipse rx="3.58686" ry="3.58687" transform="matrix(0.866044 -0.499967 0.866044 0.499967 362.454 173.967)" fill="#E5EFF8"/>
<ellipse rx="3.58686" ry="3.58687" transform="matrix(0.866044 -0.499967 0.866044 0.499967 362.455 138.101)" fill="#E5EFF8"/>
<ellipse rx="3.58686" ry="3.58687" transform="matrix(0.866044 -0.499967 0.866044 0.499967 253.727 147.067)" fill="#E5EFF8"/>
<ellipse rx="3.58686" ry="3.58687" transform="matrix(0.866044 -0.499967 0.866044 0.499967 269.263 138.1)" fill="#E5EFF8"/>
<ellipse rx="3.58686" ry="3.58687" transform="matrix(0.866044 -0.499967 0.866044 0.499967 300.323 120.167)" fill="#E5EFF8"/>
<ellipse rx="3.58686" ry="3.58687" transform="matrix(0.866044 -0.499967 0.866044 0.499967 284.796 129.134)" fill="#E5EFF8"/>
<ellipse rx="3.58686" ry="3.58687" transform="matrix(0.866044 -0.499967 0.866044 0.499967 315.86 111.202)" fill="#E5EFF8"/>
<ellipse rx="3.58686" ry="3.58687" transform="matrix(0.866044 -0.499967 0.866044 0.499967 331.39 102.235)" fill="#E5EFF8"/>
<ellipse rx="3.58686" ry="3.58687" transform="matrix(0.866044 -0.499967 0.866044 0.499967 346.923 93.2686)" fill="#E5EFF8"/>
<ellipse rx="3.58686" ry="3.58687" transform="matrix(0.866044 -0.499967 0.866044 0.499967 362.454 84.3018)" fill="#E5EFF8"/>
<ellipse rx="3.58686" ry="3.58687" transform="matrix(0.866044 -0.499967 0.866044 0.499967 269.262 156.036)" fill="#E5EFF8"/>
<ellipse rx="3.58686" ry="3.58687" transform="matrix(0.866044 -0.499967 0.866044 0.499967 284.787 147.067)" fill="#E5EFF8"/>
<ellipse rx="3.58686" ry="3.58687" transform="matrix(0.866044 -0.499967 0.866044 0.499967 315.855 129.134)" fill="#E5EFF8"/>
<ellipse rx="3.58686" ry="3.58687" transform="matrix(0.866044 -0.499967 0.866044 0.499967 300.322 138.101)" fill="#E5EFF8"/>
<ellipse rx="3.58686" ry="3.58687" transform="matrix(0.866044 -0.499967 0.866044 0.499967 331.391 120.167)" fill="#E5EFF8"/>
<ellipse rx="3.58686" ry="3.58687" transform="matrix(0.866044 -0.499967 0.866044 0.499967 346.926 111.202)" fill="#E5EFF8"/>
<ellipse rx="3.58686" ry="3.58687" transform="matrix(0.866044 -0.499967 0.866044 0.499967 362.453 102.235)" fill="#E5EFF8"/>
<ellipse rx="3.58686" ry="3.58687" transform="matrix(0.866044 -0.499967 0.866044 0.499967 284.795 165)" fill="#E5EFF8"/>
<ellipse rx="3.58686" ry="3.58687" transform="matrix(0.866044 -0.499967 0.866044 0.499967 315.854 182.934)" fill="#E5EFF8"/>
<ellipse rx="3.58686" ry="3.58687" transform="matrix(0.866044 -0.499967 0.866044 0.499967 346.922 200.867)" fill="#E5EFF8"/>
<ellipse rx="3.58686" ry="3.58687" transform="matrix(0.866044 -0.499967 0.866044 0.499967 362.455 209.836)" fill="#E5EFF8"/>
<ellipse rx="3.58686" ry="3.58687" transform="matrix(0.866044 -0.499967 0.866044 0.499967 300.322 156.036)" fill="#E5EFF8"/>
<ellipse rx="3.58686" ry="3.58687" transform="matrix(0.866044 -0.499967 0.866044 0.499967 331.391 138.101)" fill="#E5EFF8"/>
<ellipse rx="3.58686" ry="3.58687" transform="matrix(0.866044 -0.499967 0.866044 0.499967 315.859 147.067)" fill="#E5EFF8"/>
<ellipse rx="3.58686" ry="3.58687" transform="matrix(0.866044 -0.499967 0.866044 0.499967 346.924 129.134)" fill="#E5EFF8"/>
<ellipse rx="3.58686" ry="3.58687" transform="matrix(0.866044 -0.499967 0.866044 0.499967 362.453 120.167)" fill="#E5EFF8"/>
<ellipse rx="3.58686" ry="3.58687" transform="matrix(0.866044 -0.499967 0.866044 0.499967 331.39 173.967)" fill="#E5EFF8"/>
<ellipse rx="3.58686" ry="3.58687" transform="matrix(0.866044 -0.499967 0.866044 0.499967 362.453 191.902)" fill="#E5EFF8"/>
<ellipse rx="3.58686" ry="3.58687" transform="matrix(0.866044 -0.499967 0.866044 0.499967 362.454 156.036)" fill="#E5EFF8"/>
<ellipse rx="3.58686" ry="3.58687" transform="matrix(0.866044 -0.499967 0.866044 0.499967 346.927 165)" fill="#E5EFF8"/>
</g>
</svg>
