<svg width="88" height="88" viewBox="0 0 88 88" fill="none" xmlns="http://www.w3.org/2000/svg">
<path d="M84.9079 66.7328C84.9351 67.3296 84.9622 67.9354 84.9803 68.5322C84.9893 68.9301 84.9803 69.3279 84.9803 69.7801C85.984 69.7801 86.9696 69.7801 87.9823 69.7801C87.9823 70.8109 87.9823 71.7874 87.9823 72.8273C87.0058 72.8273 86.0202 72.8273 84.9803 72.8273C84.9803 73.0534 84.9803 73.2252 84.9803 73.3879C84.9803 75.0607 84.9803 76.7336 84.9803 78.4154C84.9803 78.5872 84.9622 78.7681 84.9441 78.9399L84.9622 78.9218C83.9675 78.9218 82.9729 78.9218 81.9873 78.9218L82.0054 78.9399C82.0054 77.9272 82.0054 76.9235 82.0054 75.9107C80.9112 75.9107 79.9347 75.9107 78.931 75.9107C78.931 76.9415 78.931 77.9452 78.931 78.9399L78.94 78.9309C76.8964 78.9399 74.8438 78.9399 72.8003 78.9489C72.8003 77.9362 72.8003 76.9235 72.8003 75.9198C68.7583 75.9198 64.7526 75.9198 60.7468 75.9198C60.7468 76.9415 60.7468 77.9181 60.7468 78.9399C61.7505 78.9399 62.7181 78.9399 63.7398 78.9399C63.7398 79.9617 63.7398 80.9382 63.7398 81.9691C64.7797 81.9691 65.7563 81.9691 66.7871 81.9691C66.7871 82.9999 66.7871 83.9765 66.7871 84.9801C68.8307 84.9801 70.82 84.9801 72.8183 84.9801L72.8003 84.9621C72.8003 85.9657 72.8003 86.9695 72.8003 88.0003C68.7945 88.0003 64.7797 88.0003 60.7016 88.0003C60.7016 87.0056 60.7016 86.029 60.7016 84.9982C58.6581 84.9982 56.6778 84.9982 54.6613 84.9982C54.6613 82.9637 54.6613 80.9835 54.6613 78.9218C55.6831 78.9218 56.6959 78.9218 57.7086 78.9218C57.7086 79.9165 57.7086 80.9202 57.7086 81.9238C58.7123 81.9238 59.6889 81.9238 60.6745 81.9238C60.6745 80.9111 60.6745 79.9526 60.6745 78.9399C59.6618 78.9399 58.6761 78.9399 57.6905 78.9399C57.6905 77.9181 57.6905 76.8963 57.6996 75.8746L57.6815 75.8926C58.6761 75.8926 59.6708 75.8926 60.6655 75.8926C60.6655 73.84 60.6655 71.8598 60.6655 69.8614C58.649 69.8614 56.6687 69.8614 54.6161 69.8614C54.6161 70.8651 54.6161 71.8507 54.6161 72.8273L54.6252 72.8092C53.6305 72.8092 52.6268 72.8092 51.5598 72.8092C51.5598 70.7928 51.5598 68.7854 51.5598 66.7871L51.5508 66.7961C54.589 66.7961 57.6272 66.7961 60.6655 66.7961C60.6655 65.7472 60.6655 64.7706 60.6655 63.7217C58.64 63.7217 56.6416 63.7217 54.6523 63.7217C54.6523 62.6909 54.6523 61.7234 54.6523 60.7016C57.6815 60.7016 60.6835 60.7016 63.7037 60.7016C63.7037 59.6617 63.7037 58.6761 63.7037 57.6905C64.7164 57.6905 65.7292 57.6905 66.769 57.6905C66.769 56.6235 66.769 55.6198 66.769 54.6252C69.7892 54.6252 72.8093 54.6252 75.8475 54.6252C75.8475 53.5944 75.8475 52.6178 75.8475 51.587C73.8311 51.587 71.8508 51.587 69.8615 51.587C69.8615 50.5562 69.8615 49.5796 69.8615 48.5578C70.8652 48.5578 71.8327 48.5578 72.8093 48.5578C72.8093 47.527 72.8093 46.5504 72.8093 45.5286C71.8146 45.5286 70.8471 45.5286 69.8163 45.5286C69.8163 44.4978 69.8163 43.5032 69.8163 42.4633C68.7674 42.4633 67.7908 42.4633 66.8233 42.4633C66.8233 41.3963 66.8233 40.3836 66.8233 39.3618L66.8142 39.3708C67.7999 39.3708 68.7855 39.3708 69.8253 39.3708C69.8253 39.19 69.8253 39.0001 69.8253 38.8102C69.8344 37.0018 69.8434 35.1843 69.8525 33.3758L69.8434 33.3848C70.829 33.3848 71.8146 33.3848 72.8364 33.3848C72.8364 30.3376 72.8364 27.3446 72.8364 24.3154C73.8582 24.3154 74.8348 24.3154 75.8656 24.3154C75.8656 25.283 75.8656 26.2595 75.8656 27.2994C77.9182 27.2994 79.9166 27.2994 81.9963 27.2994C81.9963 28.3483 81.9963 29.3339 81.9963 30.3105L82.0144 30.3014C79.9799 30.3014 77.9453 30.3014 75.8747 30.3014C75.8747 32.3902 75.8747 34.3795 75.8747 36.4231C74.8529 36.4231 73.8763 36.4231 72.8726 36.4231C72.8726 38.4666 72.8726 40.4469 72.8726 42.4452C73.8853 42.4452 74.8619 42.4452 75.9018 42.4452C75.9018 41.4415 75.9018 40.465 75.9018 39.4251C76.9326 39.4251 77.9182 39.4251 78.94 39.4251C78.94 38.4033 78.94 37.4358 78.94 36.4231C80.9655 36.4231 82.9548 36.4231 84.9803 36.4231C84.9803 35.3741 84.9803 34.3705 84.9803 33.3758L84.9622 33.3939C85.9659 33.3939 86.9696 33.3939 88.0004 33.3939C88.0004 38.4395 88.0004 43.467 88.0004 48.5397C86.0202 48.5397 84.0399 48.5397 82.0144 48.5397C82.0144 47.5632 82.0144 46.5866 82.0144 45.5467C82.9819 45.5467 83.9585 45.5467 84.9712 45.5467C84.9712 43.5032 84.9712 41.5229 84.9712 39.4974C83.9947 39.4974 83.0181 39.4974 81.9782 39.4974C81.9782 40.4921 81.9782 41.4687 81.9782 42.4814C80.9474 42.4814 79.9799 42.4814 78.9762 42.4814C78.9762 46.5414 78.9762 50.5652 78.9762 54.6252C79.9527 54.6252 80.9203 54.6252 81.924 54.6252C81.924 57.6634 81.924 60.6654 81.924 63.7217C80.9564 63.7217 79.9799 63.7217 78.9762 63.7217C78.9762 64.7887 78.9762 65.8015 78.9762 66.8142C77.9634 66.8142 76.9507 66.8142 75.9199 66.8142C75.9199 68.8306 75.9199 70.8109 75.9199 72.8092C77.9453 72.8092 79.9347 72.8092 81.9421 72.8092C81.9421 71.8055 81.9421 70.838 81.9421 69.8162C80.9293 69.8162 79.9527 69.8162 78.9671 69.8162C78.9671 68.7764 78.9671 67.7908 78.9671 66.8051C80.7846 66.8051 82.6021 66.7961 84.4197 66.7871C84.5734 66.769 84.7452 66.7509 84.9079 66.7328ZM72.8093 63.7488C69.762 63.7488 66.769 63.7488 63.7579 63.7488C63.7579 66.778 63.7579 69.7801 63.7579 72.7911C66.7962 72.7911 69.7982 72.7911 72.8093 72.7911C72.8093 69.771 72.8093 66.778 72.8093 63.7488ZM69.8434 57.6996C69.8434 58.7123 69.8434 59.6798 69.8434 60.6564C70.8471 60.6564 71.8237 60.6564 72.8003 60.6564C72.8003 59.6527 72.8003 58.6852 72.8003 57.6996C71.8146 57.6996 70.8471 57.6996 69.8434 57.6996Z" fill="#383838"/>
<path d="M33.3667 33.3673C33.3667 35.3747 33.3667 37.382 33.3667 39.4346C32.3539 39.4346 31.3683 39.4346 30.3556 39.4346C30.3556 40.4564 30.3556 41.4149 30.3556 42.4457C33.3486 42.4457 36.3506 42.4457 39.3979 42.4457C39.3979 43.4946 39.3979 44.4802 39.3979 45.5201C37.3996 45.5201 35.4102 45.5201 33.3848 45.5201C33.3848 46.5419 33.3848 47.5275 33.3848 48.5312C32.3539 48.5312 31.3774 48.5312 30.3465 48.5312C30.3465 47.5365 30.3465 46.5509 30.3465 45.5382C29.3248 45.5382 28.3572 45.5382 27.3264 45.5382C27.3264 43.5037 27.3264 41.5053 27.3264 39.4799C26.2775 39.4799 25.3009 39.4799 24.2882 39.4799C24.2882 42.5 24.2882 45.493 24.2882 48.5945C23.2393 48.5945 22.2356 48.5945 21.2228 48.5945L21.2319 48.6035C21.2319 47.5908 21.2319 46.5871 21.2319 45.5291C20.1739 45.5291 19.1612 45.5291 18.1575 45.5291L18.1665 45.5382C18.1665 44.5345 18.1665 43.5398 18.1665 42.4819C19.2154 42.4819 20.192 42.4819 21.2047 42.4819C21.2047 41.4511 21.2047 40.4745 21.2047 39.4437C17.1719 39.4437 13.1571 39.4437 9.11514 39.4437C9.11514 38.4309 9.11514 37.4634 9.11514 36.4326C13.1299 36.4326 17.1538 36.4326 21.2047 36.4326C21.2047 35.3927 21.2047 34.4071 21.2047 33.4034C16.1682 33.4034 11.1406 33.4034 6.05883 33.4034C6.05883 34.4071 6.05883 35.3837 6.05883 36.3964C4.02431 36.3964 2.03499 36.3964 0.0185547 36.3964C0.0185547 34.389 0.0185547 32.3907 0.0185547 30.3381C1.00417 30.3381 1.98074 30.3381 3.02965 30.3381C3.02965 29.3163 3.02965 28.3307 3.02965 27.3089C4.06048 27.3089 5.01897 27.3089 6.04979 27.3089C6.04979 26.2872 6.04979 25.3106 6.04979 24.2979C8.09336 24.2979 10.0827 24.2979 12.1172 24.2979C12.1172 26.2781 12.1172 28.2674 12.1172 30.2838C13.139 30.2838 14.1246 30.2838 15.1645 30.2838C15.1645 29.3163 15.1645 28.3398 15.1645 27.3451C16.2134 27.3451 17.1899 27.3451 18.1665 27.3451L18.1575 27.3361C18.1575 28.3126 18.1575 29.2982 18.1575 30.311C20.2643 30.311 22.2808 30.311 24.2972 30.311L24.2882 30.3019C24.2882 31.3147 24.2882 32.3274 24.2882 33.3311C25.328 33.3311 26.3046 33.3311 27.3174 33.3311C27.3174 33.087 27.3174 32.888 27.3174 32.6801C27.3354 31.8843 27.3445 31.0886 27.3626 30.2929L27.3445 30.311C28.3391 30.311 29.3338 30.311 30.3194 30.311L30.3013 30.2929C30.3013 31.3056 30.3013 32.3184 30.3013 33.3673C31.3864 33.3673 32.3811 33.3673 33.3757 33.3673H33.3667ZM9.05185 30.311C9.05185 29.2982 9.05185 28.3307 9.05185 27.3541C8.04815 27.3541 7.07157 27.3541 6.08596 27.3541C6.08596 28.3578 6.08596 29.3254 6.08596 30.311C7.08966 30.311 8.04815 30.311 9.05185 30.311Z" fill="#383838"/>
<path d="M33.3388 3.08291C33.384 3.06483 33.4293 3.02866 33.4654 3.02866C35.4005 3.02866 37.3355 3.02866 39.2706 3.02866C39.2977 3.02866 39.3249 3.05579 39.352 3.07387C39.3791 3.25472 39.4243 3.43556 39.4243 3.61641C39.4334 4.41213 39.4243 5.19881 39.4243 6.01261C41.4769 6.01261 43.4753 6.01261 45.4736 6.01261C45.4736 4.99988 45.4736 4.02331 45.4736 3.02866C43.4662 3.02866 41.495 3.02866 39.5238 3.02866C39.4605 3.02866 39.3972 3.06483 39.3429 3.08291C39.3701 2.6308 39.4153 2.16964 39.4243 1.71753C39.4424 1.16595 39.4243 0.605327 39.4243 0.0175781C44.488 0.0175781 49.5156 0.0175781 54.5883 0.0175781C54.5883 0.994145 54.5883 1.97071 54.5883 3.09196C55.6553 3.09196 56.6861 3.09196 57.7079 3.09196L57.6989 3.08291C57.6808 3.743 57.6627 4.41213 57.6537 5.07222C57.6446 6.38335 57.6537 7.70352 57.6537 9.06891C56.6138 9.06891 55.6011 9.06891 54.5974 9.06891L54.6154 9.08699C54.6154 8.09234 54.6154 7.09769 54.6154 6.10304C51.5501 6.10304 48.548 6.10304 45.5279 6.10304C45.5279 7.12482 45.5279 8.10138 45.5279 9.08699C43.5115 9.08699 41.495 9.08699 39.4062 9.08699C39.4062 8.04713 39.4062 7.07056 39.4062 6.11208C37.3536 6.11208 35.3734 6.11208 33.384 6.11208C33.384 7.11577 33.384 8.0833 33.384 9.11412C34.3968 9.11412 35.3914 9.11412 36.4313 9.11412C36.4313 10.163 36.4313 11.1396 36.4313 12.1614C37.4441 12.1614 38.4116 12.1614 39.3882 12.1614C39.3882 13.1831 39.3882 14.1597 39.3882 15.2086C38.3754 15.2086 37.3988 15.2086 36.4223 15.2086C36.4223 16.2485 36.4223 17.216 36.4223 18.1835C35.4095 18.1835 34.3968 18.1835 33.384 18.1835C33.384 20.2723 33.384 22.2706 33.384 24.3052C34.4149 24.3052 35.4186 24.3052 36.4223 24.3052C36.4223 25.2998 36.4223 26.2945 36.4223 27.3434C37.435 27.3434 38.4025 27.3434 39.3701 27.3434C39.3701 28.3742 39.3701 29.3598 39.3701 30.3454L39.3791 30.3364C38.4116 30.3364 37.4441 30.3364 36.4223 30.3364C36.4223 31.3672 36.4223 32.3437 36.4223 33.4017C35.3643 33.4017 34.3516 33.4017 33.3388 33.4017L33.3569 33.4107C33.3569 32.398 33.3569 31.3943 33.3569 30.3364C32.2718 30.3364 31.2772 30.3364 30.2825 30.3364L30.3006 30.3544C30.3006 28.3561 30.3006 26.3487 30.3006 24.3504C29.2698 24.3504 28.2932 24.3504 27.3257 24.3504C27.3257 26.3758 27.3257 28.3651 27.3257 30.3544L27.3438 30.3364C26.322 30.3364 25.2912 30.3364 24.2694 30.3364L24.2784 30.3454C24.2784 29.3508 24.2784 28.3651 24.2784 27.3705C22.1716 27.3705 20.1551 27.3705 18.1387 27.3705L18.1477 27.3795C18.1477 26.3758 18.1477 25.3812 18.1477 24.3232C20.2094 24.3232 22.1987 24.3232 24.2513 24.3232C24.2513 22.2706 24.2513 20.2723 24.2513 18.2468C25.2731 18.2468 26.2316 18.2468 27.2624 18.2468C27.2624 19.2234 27.2624 20.2 27.2624 21.2127C28.3023 21.2127 29.2698 21.2127 30.3097 21.2127C30.3097 19.2144 30.3097 17.216 30.3097 15.2177L30.2916 15.2267C31.3043 15.2267 32.308 15.2267 33.3298 15.2267C33.3298 14.1507 33.3298 13.156 33.3298 12.1523C32.2899 12.1523 31.2953 12.1523 30.3006 12.1523L30.3097 12.1614C30.3097 11.1577 30.3097 10.163 30.3097 9.11412C29.306 9.11412 28.3475 9.11412 27.3438 9.11412C27.3438 8.09234 27.3438 7.11577 27.3438 6.09399C29.3421 6.09399 31.3224 6.09399 33.3388 6.09399C33.3388 5.06317 33.3388 4.07756 33.3388 3.101V3.08291Z" fill="#383838"/>
<path d="M42.4982 39.3694C42.9593 39.3965 43.4295 39.4327 43.8907 39.4417C44.4423 39.4507 44.9848 39.4236 45.5364 39.4146L45.5274 39.4055C45.5274 40.4183 45.5274 41.431 45.5274 42.4437C47.58 42.4437 49.5693 42.4437 51.6038 42.4437C51.6038 41.44 51.6038 40.4725 51.6038 39.4146C52.6437 39.4146 53.6383 39.4146 54.633 39.4146L54.6149 39.3965C54.6149 41.431 54.6149 43.4655 54.6149 45.5452C52.5713 45.5452 50.5911 45.5452 48.6017 45.5452C48.6017 46.567 48.6017 47.5436 48.6017 48.5835C50.6272 48.5835 52.6075 48.5835 54.5878 48.5835C54.5878 51.6397 54.5878 54.6418 54.5878 57.6981C53.575 57.6981 52.5894 57.6981 51.5857 57.6981C51.5857 57.9241 51.5857 58.0959 51.5857 58.2677C51.5857 60.3384 51.5857 62.4182 51.5857 64.4888C51.5857 65.2574 51.5676 66.017 51.5586 66.7856L51.5676 66.7765C50.573 66.7765 49.5874 66.7765 48.5927 66.7765L48.6017 66.7856C48.6017 65.7728 48.6017 64.7601 48.6017 63.7112C46.4768 63.7112 44.4694 63.7112 42.462 63.7112L42.4801 63.7202C42.4801 62.7346 42.4801 61.749 42.4801 60.7001C44.5146 60.7001 46.522 60.7001 48.5475 60.7001C48.5475 59.6693 48.5475 58.7018 48.5475 57.68C45.5183 57.68 42.5163 57.68 39.4599 57.68C39.4599 56.6492 39.4599 55.6636 39.4599 54.6599C38.4382 54.6599 37.4706 54.6599 36.4579 54.6599C36.4579 55.6364 36.4579 56.622 36.4579 57.6438C35.4271 57.6438 34.4505 57.6438 33.4287 57.6438C33.4287 55.6636 33.4287 53.6652 33.4287 51.6126C34.3962 51.6126 35.3819 51.6126 36.4217 51.6126C36.4217 50.5818 36.4217 49.6052 36.4217 48.6015C37.4525 48.6015 38.411 48.6015 39.4509 48.6015C39.4509 49.5872 39.4509 50.5728 39.4509 51.5674C41.5035 51.5674 43.4928 51.5674 45.5093 51.5674C45.5093 49.5691 45.5093 47.5798 45.5093 45.5543C44.5237 45.5543 43.538 45.5543 42.5434 45.5543C42.5163 45.4458 42.4891 45.3644 42.4891 45.2921C42.4891 43.4113 42.4891 41.5305 42.4891 39.6497C42.4891 39.5593 42.5072 39.4598 42.5253 39.3694C42.5072 39.3513 42.4982 39.3694 42.4982 39.3694Z" fill="#383838"/>
<path d="M0 21.1951C0 14.115 0 7.07107 0 0C7.06206 0 14.106 0 21.1862 0C21.1862 7.04394 21.1862 14.106 21.1862 21.1861C14.1422 21.1951 7.08919 21.1951 0 21.1951ZM3.05631 3.04725C3.05631 8.11093 3.05631 13.1204 3.05631 18.1479C8.11097 18.1479 13.1295 18.1479 18.166 18.1479C18.166 13.0932 18.166 8.0838 18.166 3.04725C13.1204 3.04725 8.10193 3.04725 3.05631 3.04725Z" fill="#383838"/>
<path d="M66.8047 0C73.8848 0 80.9288 0 87.9909 0C87.9909 7.06203 87.9909 14.106 87.9909 21.1861C80.9469 21.1861 73.8939 21.1861 66.8047 21.1861C66.8047 14.1421 66.8047 7.08915 66.8047 0ZM69.8429 3.04725C69.8429 8.11093 69.8429 13.1204 69.8429 18.1479C74.8976 18.1479 79.9161 18.1479 84.9527 18.1479C84.9527 13.0932 84.9527 8.0838 84.9527 3.04725C79.907 3.04725 74.8976 3.04725 69.8429 3.04725Z" fill="#383838"/>
<path d="M21.2047 66.8042C21.2047 73.8843 21.2047 80.9192 21.2047 87.9903C14.1427 87.9903 7.0987 87.9903 0.0185547 87.9903C0.0185547 80.9463 0.0185547 73.8934 0.0185547 66.8042C7.06253 66.8042 14.1156 66.8042 21.2047 66.8042ZM3.05678 69.8424C3.05678 74.9061 3.05678 79.9246 3.05678 84.943C8.11144 84.943 13.139 84.943 18.1575 84.943C18.1575 79.8884 18.1575 74.879 18.1575 69.8424C13.1119 69.8424 8.1024 69.8424 3.05678 69.8424Z" fill="#383838"/>
<path d="M57.6809 24.2966C61.6505 24.2966 65.611 24.2876 69.5806 24.2876C69.6439 24.2876 69.6982 24.3057 69.8428 24.3238C69.8428 27.3439 69.8428 30.364 69.8428 33.3841L69.8519 33.3751C68.8391 33.3751 67.8264 33.3751 66.7685 33.3751C66.7685 31.3315 66.7685 29.3422 66.7685 27.362C64.7249 27.362 62.7265 27.362 60.7463 27.362C60.7463 28.3747 60.7463 29.3332 60.7463 30.3459C61.75 30.3459 62.7175 30.3459 63.6941 30.3459C63.6941 31.3858 63.6941 32.3714 63.6941 33.4022C62.6904 33.4022 61.7228 33.4022 60.7463 33.4022C60.7463 36.4404 60.7463 39.4425 60.7463 42.4897C61.75 42.4897 62.7175 42.4897 63.7483 42.4897C63.7483 43.5205 63.7483 44.5152 63.7483 45.5551C64.7972 45.5551 65.7738 45.5551 66.7594 45.5551C66.7594 46.5768 66.7594 47.5534 66.7594 48.5842C64.743 48.5842 62.7537 48.5842 60.701 48.5842C60.701 49.606 60.701 50.5826 60.701 51.5591C59.6702 51.5591 58.7027 51.5591 57.7261 51.5591C57.7261 50.5554 57.7261 49.5789 57.7261 48.5571C58.7298 48.5571 59.6973 48.5571 60.683 48.5571C60.683 47.5353 60.683 46.5587 60.683 45.5189C59.6702 45.5189 58.6936 45.5189 57.6719 45.5189C57.6719 43.4753 57.6719 41.486 57.6719 39.4515C57.4096 39.4515 57.1926 39.4515 56.9666 39.4515C56.1889 39.4334 55.4113 39.4244 54.6336 39.4063L54.6517 39.4244C54.6517 38.4388 54.6517 37.4622 54.6517 36.4314C53.6119 36.4314 52.6353 36.4314 51.6406 36.4314C51.6406 33.3751 51.6406 30.3821 51.6406 27.3168C53.6751 27.3168 55.6735 27.3168 57.7171 27.3168C57.7171 26.2679 57.7171 25.2822 57.7171 24.2966H57.6809ZM57.708 30.355C57.708 31.3858 57.708 32.3714 57.708 33.3389C58.7208 33.3389 59.6973 33.3389 60.6649 33.3389C60.6649 32.3262 60.6649 31.3496 60.6649 30.355C59.6612 30.355 58.6936 30.355 57.708 30.355Z" fill="#383838"/>
<path d="M24.2702 69.7793C24.2702 67.7539 24.2702 65.7646 24.2702 63.7301C22.2447 63.7301 20.2554 63.7301 18.2028 63.7301C18.2028 62.7083 18.2028 61.7317 18.2028 60.728C17.172 60.728 16.2135 60.728 15.1827 60.728C15.1827 61.7136 15.1827 62.6902 15.1827 63.6939C14.1428 63.6939 13.1572 63.6939 12.1354 63.6939C12.1354 62.7083 12.1354 61.7408 12.1354 60.7371C11.1136 60.7371 10.137 60.7371 9.09717 60.7371C9.09717 61.7136 9.09717 62.6902 9.09717 63.6939C7.0536 63.6939 5.06429 63.6939 3.04785 63.6939C3.04785 62.7083 3.04785 61.7227 3.04785 60.7009C4.03347 60.7009 5.001 60.7009 6.03182 60.7009C6.03182 59.6791 6.03182 58.6935 6.03182 57.6808C7.06265 57.6808 8.03018 57.6808 9.05196 57.6808C9.05196 56.659 9.05196 55.6824 9.05196 54.6606C15.1465 54.6606 21.1958 54.6606 27.2994 54.6606C27.2994 56.659 27.2994 58.6392 27.2994 60.6828C28.3121 60.6828 29.2797 60.6828 30.2834 60.6828C30.2834 63.7391 30.2834 66.7411 30.2834 69.7793C28.3121 69.7793 26.3319 69.7793 24.2702 69.7793ZM12.1716 57.6898C12.1716 58.6754 12.1716 59.661 12.1716 60.6647C13.1662 60.6647 14.1428 60.6647 15.1465 60.6647C15.1465 59.661 15.1465 58.6845 15.1465 57.6898C14.1428 57.6898 13.1753 57.6898 12.1716 57.6898ZM21.1868 60.6738C21.1868 59.652 21.1868 58.6754 21.1868 57.7169C20.174 57.7169 19.1975 57.7169 18.2209 57.7169C18.2209 58.7206 18.2209 59.6882 18.2209 60.6738C19.2246 60.6738 20.1921 60.6738 21.1868 60.6738Z" fill="#383838"/>
<path d="M54.6157 9.06055C54.6157 10.0642 54.6157 11.0589 54.6157 12.1168C57.663 12.1168 60.6651 12.1168 63.6942 12.1168C63.6942 15.1731 63.6942 18.1752 63.6942 21.2043C62.7086 21.2043 61.723 21.2043 60.6831 21.2043C60.6831 20.2006 60.6831 19.2241 60.6831 18.2204C59.6614 18.2204 58.6938 18.2204 57.672 18.2204C57.672 20.2639 57.672 22.2804 57.672 24.2968L57.6811 24.2787C54.6519 24.2787 51.6137 24.2787 48.5755 24.2787C48.5755 22.1899 48.5755 20.1735 48.5755 18.148C49.552 18.148 50.5376 18.148 51.5685 18.148C51.5685 19.2241 51.5685 20.2006 51.5685 21.1953C52.5993 21.1953 53.5849 21.1953 54.5705 21.1953C54.5705 19.1789 54.5705 17.1805 54.5705 15.1912C52.545 15.1912 50.5557 15.1912 48.5664 15.1912C48.5664 14.1694 48.5664 13.1386 48.5664 12.1168C49.552 12.1168 50.5286 12.1168 51.5594 12.1168C51.5594 11.086 51.5594 10.1095 51.5594 9.06959C52.6083 9.06959 53.603 9.06959 54.6067 9.06959L54.6157 9.06055Z" fill="#383838"/>
<path d="M42.4539 78.9399C41.4682 78.9399 40.4826 78.9399 39.4518 78.9399C39.4518 76.8873 39.4518 74.898 39.4518 72.8725C38.43 72.8725 37.4534 72.8725 36.4226 72.8725C36.4226 73.8672 36.4226 74.8438 36.4226 75.8475C34.3791 75.8475 32.3897 75.8475 30.3643 75.8475C30.3643 74.8709 30.3643 73.8943 30.3643 72.8635C31.3318 72.8635 32.3174 72.8635 33.3573 72.8635C33.3573 71.8327 33.3573 70.8561 33.3573 69.8253C35.3918 69.8253 37.3811 69.8253 39.3976 69.8253C39.3976 68.7945 39.3976 67.8179 39.3976 66.7871C38.421 66.7871 37.4444 66.7871 36.4407 66.7871C36.4407 64.7435 36.4407 62.7633 36.4407 60.7378C37.4263 60.7378 38.4029 60.7378 39.4337 60.7378C39.4337 61.7234 39.4337 62.6909 39.4337 63.7217C40.4736 63.7217 41.4773 63.7217 42.4719 63.7217L42.4539 63.7127C42.4539 65.7291 42.4539 67.7456 42.4539 69.7891C43.5118 69.7891 44.5065 69.7891 45.5463 69.7891C45.5463 68.7673 45.5463 67.7908 45.5463 66.7961C46.5952 66.7961 47.5989 66.7961 48.6026 66.7961L48.5936 66.7871C48.5846 68.6046 48.5755 70.4221 48.5665 72.2396C48.5665 72.4295 48.5665 72.6103 48.5665 72.8545C47.5266 72.8545 46.55 72.8545 45.5373 72.8545C45.5373 73.8762 45.5373 74.8438 45.5373 75.8746C44.5155 75.8746 43.5209 75.8746 42.4358 75.8746C42.4358 76.9506 42.4358 77.9634 42.4358 78.9761C42.4358 78.958 42.4539 78.9399 42.4539 78.9399Z" fill="#383838"/>
<path d="M18.1662 48.5838C17.1986 48.5838 16.2311 48.5838 15.1912 48.5838C15.1912 49.5603 15.1912 50.5369 15.1912 51.5677C12.1259 51.5677 9.12383 51.5677 6.06752 51.5677C6.06752 52.6076 6.06752 53.5841 6.06752 54.6331C5.02765 54.6331 4.05108 54.6331 3.06547 54.6331L3.08355 54.6421C3.06547 54.5336 3.0293 54.4251 3.0293 54.3166C3.0293 51.4773 3.0293 48.638 3.0293 45.7987C3.0293 45.7174 3.03834 45.645 3.05642 45.5184C4.05108 45.5184 5.02765 45.5184 6.05848 45.5184C6.05848 44.4786 6.05848 43.502 6.05848 42.4893C7.07122 42.4893 8.03875 42.4893 9.04245 42.4893C9.04245 43.4749 9.04245 44.4695 9.04245 45.5003C8.07492 45.5003 7.10739 45.5003 6.06752 45.5003C6.06752 46.4679 6.05848 47.4083 6.07656 48.3396C6.07656 48.412 6.23933 48.5385 6.32071 48.5385C8.22864 48.5476 10.1456 48.5476 12.1078 48.5476C12.1078 47.5349 12.1078 46.5583 12.1078 45.5184C14.1604 45.5184 16.1678 45.5184 18.1662 45.5184L18.1571 45.5094C18.1571 46.5312 18.1571 47.562 18.1571 48.5838H18.1662Z" fill="#383838"/>
<path d="M48.5931 81.9961C47.5894 81.9961 46.5947 81.9961 45.5458 81.9961C45.5458 83.9766 45.5458 85.9571 45.5458 87.9827C44.515 87.9827 43.5203 87.9827 42.4805 87.9827C42.4805 86.997 42.4805 86.0204 42.4805 84.9894C40.4459 84.9894 38.4657 84.9894 36.4492 84.9894C36.4492 83.9585 36.4492 82.9818 36.4492 81.9509C38.4566 81.9509 40.4459 81.9509 42.4533 81.9509C42.4533 80.9109 42.4533 79.9252 42.4533 78.9395L42.4352 78.9576C44.0448 78.9485 45.6543 78.9304 47.2639 78.9214C47.6798 78.9214 48.0867 78.9214 48.584 78.9214C48.584 79.9704 48.584 80.9923 48.584 82.0051L48.5931 81.9961Z" fill="#383838"/>
<path d="M30.3013 81.9234C28.3028 81.9234 26.3133 81.9234 24.3057 81.9234C24.3057 79.9158 24.3057 77.9354 24.3057 75.9097C25.2823 75.9097 26.259 75.9097 27.2899 75.9097C27.2899 76.8773 27.2899 77.863 27.2899 78.903C28.3209 78.903 29.2975 78.903 30.3013 78.903C30.3013 79.943 30.3013 80.9196 30.3013 81.9234Z" fill="#383838"/>
<path d="M45.5376 39.4074C45.5376 36.3688 45.5376 33.3393 45.5376 30.3008L45.5195 30.3189C46.5143 30.3189 47.5091 30.3189 48.5309 30.3189C48.5309 33.3845 48.5309 36.3869 48.5309 39.3983C47.5091 39.3983 46.5143 39.3983 45.5195 39.3983L45.5376 39.4074Z" fill="#383838"/>
<path d="M57.7268 3.0835C57.7268 2.07065 57.7268 1.05781 57.7268 0.00878906C58.6854 0.00878906 59.6621 0.00878906 60.693 0.00878906C60.693 0.994505 60.693 1.97118 60.693 3.01115C61.7149 3.01115 62.7006 3.01115 63.6954 3.01115C63.6954 4.05113 63.6954 5.0278 63.6954 6.02256C62.7006 6.02256 61.733 6.02256 60.7111 6.02256C60.7111 5.0278 60.7111 4.05113 60.7111 3.06541C59.6711 3.06541 58.6944 3.06541 57.7178 3.06541C57.7178 3.07446 57.7268 3.0835 57.7268 3.0835Z" fill="#383838"/>
<path d="M45.5378 30.3016C44.5069 30.3016 43.485 30.3016 42.4541 30.3016L42.4722 30.3197C42.4631 28.3031 42.4631 26.2955 42.4541 24.2788C43.4669 24.2788 44.4798 24.2788 45.5198 24.2788C45.5198 26.3407 45.5198 28.3302 45.5198 30.3197L45.5378 30.3016Z" fill="#383838"/>
<path d="M30.3192 15.1916C28.3297 15.1916 26.3492 15.1916 24.3145 15.1916C24.3145 14.1607 24.3145 13.166 24.3145 12.135C26.313 12.135 28.3116 12.135 30.3101 12.135L30.3011 12.126C30.3011 13.1479 30.3011 14.1788 30.3011 15.2007L30.3192 15.1916Z" fill="#383838"/>
<path d="M33.3482 3.07446C32.9413 3.05637 32.5253 3.02924 32.1183 3.02924C30.5448 3.0202 28.9713 3.02924 27.3525 3.02924C27.3525 2.00735 27.3525 1.02163 27.3525 0.00878906C29.3421 0.00878906 31.3225 0.00878906 33.3392 0.00878906C33.3392 1.03972 33.3392 2.06161 33.3392 3.09254C33.3392 3.0835 33.3482 3.07446 33.3482 3.07446Z" fill="#383838"/>
<path d="M78.9221 81.9954C78.9221 82.9721 78.9221 83.9578 78.9221 84.9797C78.5694 84.9797 78.271 84.9797 77.9816 84.9797C76.2543 84.9707 74.5271 84.9526 72.7998 84.9435L72.8179 84.9616C72.8179 83.9669 72.8089 82.9811 72.8089 81.9864C74.4638 81.9773 76.1096 81.9592 77.7646 81.9502C78.1625 81.9502 78.5513 81.9773 78.9492 81.9954H78.9221Z" fill="#383838"/>
<path d="M84.9533 81.9861C84.9533 83.9756 84.9533 85.9651 84.9533 87.9818C83.9766 87.9818 82.9999 87.9818 81.9871 87.9818C81.978 87.9094 81.96 87.828 81.96 87.7557C81.96 85.9109 81.96 84.066 81.96 82.2122C81.96 82.1308 81.9871 82.0584 81.9961 81.9771L81.9871 81.9861C82.9818 81.9861 83.9676 81.9861 84.9623 81.9861H84.9533Z" fill="#383838"/>
<path d="M48.585 82.0047C49.5616 82.0047 50.5473 82.0047 51.5511 82.0047C51.5511 83.9942 51.5511 85.9837 51.5511 87.9913C50.5745 87.9913 49.6069 87.9913 48.6392 87.9913C48.6211 87.9642 48.585 87.9461 48.585 87.9189C48.585 85.9475 48.594 83.967 48.594 81.9956C48.594 81.9956 48.585 82.0047 48.585 82.0047Z" fill="#383838"/>
<path d="M42.4543 30.3008C42.4543 31.3046 42.4543 32.3084 42.4543 33.3393C41.4686 33.3393 40.4829 33.3393 39.3977 33.3393C39.3977 32.3355 39.3977 31.3136 39.3977 30.3008L39.3887 30.3098C40.4106 30.3098 41.4415 30.3098 42.4634 30.3098L42.4543 30.3008Z" fill="#383838"/>
<path d="M3.06567 54.6426C3.06567 55.6283 3.06567 56.605 3.06567 57.6269C2.0076 57.6269 1.02189 57.6269 0 57.6269C0 56.6502 0 55.6645 0 54.6516C1.02189 54.6516 2.05282 54.6516 3.07471 54.6516C3.08375 54.6516 3.06567 54.6426 3.06567 54.6426Z" fill="#383838"/>
<path d="M84.9161 66.7416C84.9342 66.0272 84.9613 65.3218 84.9794 64.6074C84.9885 64.3361 84.9794 64.0738 84.9794 63.7573C85.9832 63.7573 86.9599 63.7573 87.9818 63.7573C87.9818 64.725 87.9818 65.7197 87.9818 66.7326C86.9599 66.7326 85.938 66.7326 84.9161 66.7416C84.9161 66.7416 84.9071 66.7326 84.9161 66.7416Z" fill="#383838"/>
<path d="M57.6899 75.8557C56.6861 75.8557 55.6733 75.8557 54.6243 75.8557C54.6243 74.8157 54.6243 73.8029 54.6243 72.79L54.6152 72.8081C55.6281 72.8081 56.6409 72.8081 57.6809 72.8081C57.6809 73.9024 57.6809 74.8881 57.6809 75.8738L57.6899 75.8557Z" fill="#383838"/>
<path d="M81.9966 81.9863C80.9747 81.9863 79.9438 81.9863 78.9219 81.9863L78.94 81.9954C78.94 80.9735 78.94 79.9426 78.94 78.9207L78.9309 78.9297C79.9528 78.9297 80.9837 78.9297 82.0056 78.9297L81.9875 78.9116C81.9875 79.9335 81.9875 80.9644 81.9875 81.9863H81.9966Z" fill="#383838"/>
<path d="M84.9434 78.9395C85.9472 78.9395 86.951 78.9395 87.9819 78.9395C87.9819 79.9252 87.9819 80.9109 87.9819 81.9871C86.9781 81.9871 85.9562 81.9871 84.9434 81.9871L84.9524 81.9961C84.9524 80.9742 84.9524 79.9433 84.9524 78.9214L84.9434 78.9395Z" fill="#383838"/>
<path d="M84.9253 30.2918C84.9434 29.5322 84.9615 28.7726 84.9705 28.0129C84.9705 27.8049 84.9705 27.606 84.9705 27.3618C85.9834 27.3618 86.96 27.3618 87.9729 27.3618C87.9729 28.3204 87.9729 29.2971 87.9729 30.2828C86.951 30.2828 85.9291 30.2828 84.9072 30.2828C84.9163 30.2738 84.9253 30.2918 84.9253 30.2918Z" fill="#383838"/>
<path d="M21.2131 48.5845C21.2131 49.5611 21.2131 50.5469 21.2131 51.5507C20.1912 51.5507 19.2146 51.5507 18.1565 51.5507C18.1565 50.5469 18.1565 49.5611 18.1565 48.5845L18.1475 48.6026C19.1693 48.6026 20.2003 48.6026 21.2222 48.6026L21.2131 48.5845Z" fill="#383838"/>
<path d="M81.9863 30.3179C82.972 30.3089 83.9487 30.2998 84.9254 30.2908L84.9163 30.2817C84.9254 31.3217 84.9344 32.3526 84.9435 33.3926L84.9616 33.3745C83.9668 33.3745 82.972 33.3745 81.9954 33.3745C81.9954 32.3074 81.9954 31.3127 81.9954 30.3089L81.9863 30.3179Z" fill="#383838"/>
<path d="M42.509 39.3519C42.1653 39.379 41.8217 39.4333 41.4781 39.4333C40.8269 39.4514 40.1758 39.4333 39.4795 39.4333C39.4795 38.4204 39.4795 37.4437 39.4795 36.4399C40.4652 36.4399 41.4419 36.4399 42.4909 36.4399C42.4909 37.4257 42.4909 38.3933 42.4909 39.3519C42.4999 39.37 42.509 39.3519 42.509 39.3519Z" fill="#383838"/>
<path d="M27.3525 85.0059C28.3473 85.0059 29.3149 85.0059 30.3006 85.0059C30.3006 86.0097 30.3006 86.9863 30.3006 87.9901C29.324 87.9901 28.3563 87.9901 27.3525 87.9901C27.3525 87.0135 27.3525 86.0368 27.3525 85.0059Z" fill="#383838"/>
<path d="M66.7778 54.6254C65.7559 54.6254 64.725 54.6254 63.7031 54.6254C63.7031 53.6397 63.7031 52.654 63.7031 51.623C64.7341 51.623 65.7288 51.623 66.7778 51.623C66.7778 52.6268 66.7778 53.6306 66.7778 54.6254Z" fill="#383838"/>
<path d="M63.7216 54.6162C63.7216 55.6381 63.7216 56.669 63.7216 57.6909C62.7359 57.6909 61.7502 57.6909 60.7373 57.6909C60.7373 56.6419 60.7373 55.6471 60.7373 54.6162C61.7502 54.6162 62.7359 54.6162 63.7216 54.6162Z" fill="#383838"/>
<path d="M66.8135 39.3514C66.4879 39.3785 66.1623 39.4328 65.8368 39.4328C65.1585 39.4418 64.4713 39.4328 63.7568 39.4328C63.7568 38.4199 63.7568 37.4613 63.7568 36.4575C64.7426 36.4575 65.7373 36.4575 66.8044 36.4575C66.8044 37.4251 66.8044 38.3928 66.8044 39.3604C66.8044 39.3604 66.8135 39.3514 66.8135 39.3514Z" fill="#383838"/>
<path d="M72.8099 78.9214C72.8099 79.9433 72.8099 80.9742 72.8099 81.9961C71.8333 81.9961 70.8476 81.9961 69.8438 81.9961C69.8438 80.92 69.8438 79.9433 69.8438 78.9214C70.8476 78.9214 71.8333 78.9214 72.8099 78.9214Z" fill="#383838"/>
<path d="M69.789 66.813C69.789 67.8078 69.789 68.7754 69.789 69.7792C68.8032 69.7792 67.8175 69.7792 66.8047 69.7792C66.8047 68.8116 66.8047 67.8258 66.8047 66.813C67.7814 66.813 68.758 66.813 69.789 66.813Z" fill="#383838"/>
<path d="M42.4725 21.2141C42.4725 22.236 42.4725 23.2669 42.4725 24.2888C40.4559 24.2888 38.4483 24.2888 36.4316 24.2888C36.4316 22.245 36.4316 20.1922 36.4316 18.1484C37.4083 18.1484 38.394 18.1484 39.434 18.1484C39.434 19.2065 39.434 20.1832 39.434 21.2141C40.483 21.2141 41.4778 21.2141 42.4725 21.2141Z" fill="#383838"/>
<path d="M45.5376 18.1484C45.5376 19.1522 45.5376 20.156 45.5376 21.2231C44.4886 21.2231 43.4757 21.2231 42.4629 21.2231C42.4629 20.2374 42.4629 19.2517 42.4629 18.1484C43.5119 18.1484 44.5248 18.1484 45.5376 18.1484Z" fill="#383838"/>
<path d="M45.5195 9.06055C46.5052 9.06055 47.491 9.06055 48.5942 9.06055C48.5942 10.1186 48.5942 11.1224 48.5942 12.1353C47.5904 12.1353 46.5866 12.1353 45.5195 12.1353C45.5195 11.0862 45.5195 10.0734 45.5195 9.06055Z" fill="#383838"/>
<path d="M48.603 15.1919C48.603 16.1867 48.603 17.1724 48.603 18.1671C47.5811 18.1671 46.5502 18.1671 45.5283 18.1671C45.5283 17.1905 45.5283 16.2047 45.5283 15.1919C46.5773 15.1919 47.5902 15.1919 48.603 15.1919Z" fill="#383838"/>
<path d="M6.08496 15.1382C6.08496 12.1268 6.08496 9.12447 6.08496 6.08594C9.10541 6.08594 12.1078 6.08594 15.1373 6.08594C15.1373 9.10639 15.1373 12.1088 15.1373 15.1382C12.1259 15.1382 9.1235 15.1382 6.08496 15.1382Z" fill="#383838"/>
<path d="M72.8623 6.08594C75.8828 6.08594 78.8851 6.08594 81.9146 6.08594C81.9146 9.10639 81.9146 12.1088 81.9146 15.1382C78.8942 15.1382 75.8918 15.1382 72.8623 15.1382C72.8623 12.1268 72.8623 9.12447 72.8623 6.08594Z" fill="#383838"/>
<path d="M15.138 81.9324C12.1085 81.9324 9.11518 81.9324 6.09473 81.9324C6.09473 78.912 6.09473 75.9096 6.09473 72.8711C9.10613 72.8711 12.0995 72.8711 15.138 72.8711C15.138 75.8825 15.138 78.8758 15.138 81.9324Z" fill="#383838"/>
</svg>
