<svg width="46" height="44" viewBox="0 0 46 44" fill="none" xmlns="http://www.w3.org/2000/svg">
<path d="M22.998 4.13672C12.7925 4.13672 4.50977 12.2118 4.50977 22.1615C4.50977 32.1111 12.7925 40.1862 22.998 40.1862C33.2036 40.1862 41.4863 32.1111 41.4863 22.1615C41.4863 12.2118 33.2036 4.13672 22.998 4.13672ZM19.3004 30.2726V14.0503L30.3933 22.1615L19.3004 30.2726Z" fill="white"/>
<path d="M22.998 4.13672C12.7925 4.13672 4.50977 12.2118 4.50977 22.1615C4.50977 32.1111 12.7925 40.1862 22.998 40.1862C33.2036 40.1862 41.4863 32.1111 41.4863 22.1615C41.4863 12.2118 33.2036 4.13672 22.998 4.13672ZM19.3004 30.2726V14.0503L30.3933 22.1615L19.3004 30.2726Z" fill="url(#paint0_linear_2869_7377)"/>
<defs>
<linearGradient id="paint0_linear_2869_7377" x1="22.998" y1="4.13672" x2="22.998" y2="40.1862" gradientUnits="userSpaceOnUse">
<stop stop-color="white"/>
<stop offset="1" stop-color="white" stop-opacity="0"/>
</linearGradient>
</defs>
</svg>
