<svg width="62" height="26" viewBox="0 0 62 26" fill="none" xmlns="http://www.w3.org/2000/svg">
<path d="M15.748 14.687V0L30.5034 5.34074V20.0278L15.748 14.687Z" fill="#878C8A"/>
<path d="M0 20.0278V5.34074L14.7554 0V14.687L0 20.0278Z" fill="#1DB4BD"/>
<path d="M47.2441 14.687V0L61.9995 5.34074V20.0278L47.2441 14.687Z" fill="#AEB5B3"/>
<path d="M31.498 20.0278V5.34074L46.2534 0V14.687L31.498 20.0278Z" fill="#9FA5A3"/>
<path d="M55.0118 6.41039L54.9787 6.29498L53.8526 5.88281L50.7227 12.9226L52.1469 13.4337L52.8921 11.6532L55.9723 12.7743L56.7341 15.0989L58.1418 15.61L55.0118 6.41039ZM55.5252 11.4553L53.2895 10.6475L54.3991 7.99311L55.5252 11.4553Z" fill="#EAEAEA"/>
<path d="M41.8817 7.20656C41.5836 6.72845 41.153 6.43169 40.5899 6.31628C40.0435 6.20087 39.3976 6.26682 38.6855 6.53061L36.3008 7.38792V15.5653L36.4664 15.5159L38.6524 14.7245C39.381 14.4442 40.0435 14.0486 40.5899 13.5375C41.153 13.0264 41.5836 12.4164 41.8817 11.7239C42.1797 11.0315 42.3288 10.3061 42.3288 9.54768V9.03659C42.3288 8.29469 42.1797 7.68468 41.8817 7.20656ZM40.9874 9.54768V10.0093C40.9874 10.8831 40.7721 11.6415 40.3581 12.2515C39.9441 12.8615 39.3645 13.3066 38.6027 13.5869L37.6587 13.9331V8.08036L38.7186 7.70116C39.4473 7.43738 39.9938 7.47035 40.3912 7.80008C40.7887 8.11333 40.9874 8.70685 40.9874 9.54768Z" fill="#EAEAEA"/>
<path d="M25.0718 11.4433C24.8897 11.1136 24.6247 10.8333 24.3266 10.5695C24.5916 10.5036 24.8069 10.3882 24.9725 10.1903C25.2209 9.92653 25.3368 9.61328 25.3368 9.23409C25.3368 8.49219 25.1049 7.81623 24.6578 7.2392C24.2107 6.66216 23.5814 6.21702 22.803 5.93675C22.0578 5.67296 21.4451 5.65647 20.9483 5.92026C20.4514 6.18405 20.203 6.66216 20.203 7.32163V7.4865L21.5279 7.96461V7.79974C21.5279 7.43704 21.6438 7.18974 21.8591 7.05784C22.0909 6.92595 22.389 6.92595 22.7865 7.07433C23.6145 7.37109 24.012 7.89867 24.012 8.73949C24.012 9.1022 23.896 9.3495 23.6642 9.4649C23.4158 9.5968 23.0846 9.58031 22.654 9.43193L21.7432 9.1022V10.2398L22.654 10.5695C23.1508 10.7509 23.5151 10.9982 23.7801 11.3114C24.0285 11.6247 24.1444 11.9709 24.1444 12.3831C24.1444 12.8117 24.0285 13.092 23.8132 13.2404C23.5814 13.3723 23.2502 13.3723 22.8196 13.2074C22.4056 13.059 22.0744 12.8282 21.8425 12.5149C21.6107 12.2017 21.4948 11.8885 21.4948 11.5093V11.3444L20.1699 10.8663V11.0311C20.1699 11.7236 20.4183 12.3995 20.9151 13.0095C21.412 13.6031 22.0578 14.0647 22.8362 14.345C23.6145 14.6252 24.2604 14.6417 24.7406 14.3779C25.2374 14.1142 25.4858 13.6031 25.4858 12.8447C25.4527 12.3501 25.3368 11.872 25.0718 11.4433Z" fill="#EAEAEA"/>
<path d="M10.136 10.9321C9.62267 11.8224 8.8112 12.5478 7.9335 12.8776C6.64178 13.3392 5.56535 12.8281 5.30038 11.7235L11.9246 9.33292V8.6075C11.8583 6.51369 10.1029 5.44205 7.95006 6.21693C5.74752 7.00829 3.95898 9.43184 3.95898 11.6246C3.95898 13.8173 5.74752 14.9384 7.95006 14.147C9.24177 13.6854 10.4507 12.6138 11.1959 11.2948L11.2787 11.1465L10.2354 10.7838L10.136 10.9321ZM5.31694 10.454C5.61503 9.18454 6.6749 7.93155 7.9335 7.48641C9.19209 7.02478 10.252 7.50289 10.5501 8.55804L5.31694 10.454Z" fill="white"/>
<path d="M10.136 10.9321C9.62267 11.8224 8.8112 12.5478 7.9335 12.8776C6.64178 13.3392 5.56535 12.8281 5.30038 11.7235L11.9246 9.33292V8.6075C11.8583 6.51369 10.1029 5.44205 7.95006 6.21693C5.74752 7.00829 3.95898 9.43184 3.95898 11.6246C3.95898 13.8173 5.74752 14.9384 7.95006 14.147C9.24177 13.6854 10.4507 12.6138 11.1959 11.2948L11.2787 11.1465L10.2354 10.7838L10.136 10.9321ZM5.31694 10.454C5.61503 9.18454 6.6749 7.93155 7.9335 7.48641C9.19209 7.02478 10.252 7.50289 10.5501 8.55804L5.31694 10.454Z" fill="url(#paint0_linear_2714_9908)"/>
<path d="M13.416 8.15854V7.41654L14.7569 6.92188V7.66388L13.416 8.15854Z" fill="white"/>
<path d="M13.416 8.15854V7.41654L14.7569 6.92188V7.66388L13.416 8.15854Z" fill="url(#paint1_linear_2714_9908)"/>
<path d="M15.748 6.92188V7.66388L17.0889 8.15854V7.41654L15.748 6.92188Z" fill="#D2D2D2"/>
<path d="M44.9141 8.15854V7.41654L46.255 6.92188V7.66388L44.9141 8.15854Z" fill="#D2D2D2"/>
<path d="M47.2441 6.92188V7.66388L48.585 8.15854V7.41654L47.2441 6.92188Z" fill="#D2D2D2"/>
<path d="M29.1641 11.7891V12.5311L30.505 13.0092V12.2672L29.1641 11.7891Z" fill="#D2D2D2"/>
<path d="M31.4824 13.0092V12.2672L32.8233 11.7891V12.5311L31.4824 13.0092Z" fill="#D2D2D2"/>
<path d="M5.99449 25.3048V25.6676H3.77539V25.3873L4.9015 24.299C4.98431 24.2001 5.06711 24.1176 5.13335 24.0352C5.19959 23.9527 5.26583 23.8703 5.31551 23.7878C5.3652 23.7054 5.41488 23.6229 5.43144 23.5405C5.448 23.458 5.48112 23.3591 5.48112 23.2767C5.48112 23.1777 5.46456 23.0953 5.43144 23.0293C5.39832 22.9634 5.3652 22.8974 5.29895 22.848C5.23271 22.7985 5.18303 22.7655 5.10023 22.7325C5.03399 22.716 4.95118 22.6996 4.86838 22.6996C4.78558 22.6996 4.70278 22.716 4.63654 22.7325C4.57029 22.749 4.50405 22.7985 4.45437 22.8315C4.40469 22.8809 4.35501 22.9304 4.32189 22.9799C4.28877 23.0458 4.25564 23.0953 4.23908 23.1777C4.22252 23.2437 4.22252 23.2932 4.22252 23.3261L3.82507 23.2602C3.84163 23.1118 3.89131 22.9799 3.95756 22.8644C4.0238 22.749 4.1066 22.6501 4.1894 22.5676C4.28877 22.4852 4.38813 22.4357 4.52061 22.3863C4.6531 22.3368 4.76902 22.3203 4.91806 22.3203C5.05055 22.3203 5.18303 22.3368 5.31551 22.3863C5.448 22.4357 5.54736 22.4852 5.63016 22.5676C5.71297 22.6501 5.79577 22.749 5.84545 22.848C5.89513 22.9634 5.92825 23.0953 5.92825 23.2437C5.92825 23.3591 5.91169 23.4745 5.87857 23.59C5.84545 23.7054 5.79577 23.7878 5.72953 23.8868C5.66328 23.9857 5.59704 24.0681 5.51424 24.1671C5.43144 24.266 5.34864 24.3485 5.24927 24.4474L4.33845 25.3543C4.40469 25.3378 4.47093 25.3213 4.53717 25.3213C4.60341 25.3048 4.66966 25.3048 4.71934 25.3048H5.99449Z" fill="#383838"/>
<path d="M8.75963 24.0343C8.75963 24.3311 8.72651 24.5784 8.66026 24.7928C8.59402 25.0071 8.51122 25.172 8.41186 25.3204C8.29593 25.4523 8.18001 25.5678 8.03097 25.6337C7.88192 25.6997 7.73288 25.7327 7.55071 25.7327C7.38511 25.7327 7.2195 25.6997 7.07046 25.6337C6.92141 25.5678 6.78893 25.4688 6.68957 25.3204C6.5902 25.172 6.49084 25.0071 6.44116 24.7928C6.37492 24.5784 6.3418 24.3311 6.3418 24.0343C6.3418 23.7375 6.37492 23.4902 6.44116 23.2758C6.5074 23.0614 6.5902 22.8801 6.68957 22.7482C6.80549 22.6162 6.92141 22.5008 7.07046 22.4349C7.2195 22.3689 7.36855 22.3359 7.55071 22.3359C7.71632 22.3359 7.88192 22.3689 8.03097 22.4349C8.18001 22.5008 8.31249 22.5998 8.41186 22.7482C8.52778 22.8801 8.61058 23.0614 8.66026 23.2758C8.74307 23.4902 8.75963 23.754 8.75963 24.0343ZM8.34561 24.0343C8.34561 23.7705 8.32905 23.5561 8.27937 23.3912C8.22969 23.2263 8.18001 23.0779 8.09721 22.979C8.03097 22.8801 7.9316 22.7976 7.8488 22.7482C7.74944 22.6987 7.65007 22.6822 7.55071 22.6822C7.45135 22.6822 7.35199 22.6987 7.25262 22.7482C7.15326 22.7976 7.07046 22.8636 7.00422 22.979C6.93797 23.0779 6.87173 23.2263 6.83861 23.3912C6.78893 23.5726 6.77237 23.787 6.77237 24.0343C6.77237 24.2816 6.78893 24.496 6.83861 24.6774C6.88829 24.8587 6.93797 24.9907 7.00422 25.1061C7.07046 25.2215 7.15326 25.2875 7.25262 25.3369C7.35199 25.3864 7.45135 25.4029 7.55071 25.4029C7.65007 25.4029 7.74944 25.3864 7.8488 25.3369C7.94816 25.2875 8.03097 25.2215 8.09721 25.1061C8.16345 24.9907 8.22969 24.8587 8.27937 24.6774C8.32905 24.496 8.34561 24.2816 8.34561 24.0343Z" fill="#383838"/>
<path d="M11.3275 25.3048V25.6676H9.125V25.3873L10.2511 24.299C10.3339 24.2001 10.4167 24.1176 10.483 24.0352C10.5492 23.9527 10.6154 23.8703 10.6651 23.7878C10.7148 23.7054 10.7645 23.6229 10.781 23.5405C10.7976 23.458 10.8307 23.3591 10.8307 23.2767C10.8307 23.1777 10.8142 23.0953 10.781 23.0293C10.7479 22.9634 10.7148 22.8974 10.6486 22.848C10.5989 22.7985 10.5326 22.7655 10.4498 22.7325C10.3836 22.716 10.3008 22.6996 10.218 22.6996C10.1352 22.6996 10.0524 22.716 9.98614 22.7325C9.9199 22.749 9.85366 22.7985 9.80398 22.8315C9.7543 22.8809 9.70462 22.9304 9.6715 22.9799C9.63838 23.0458 9.60525 23.0953 9.58869 23.1777C9.57213 23.2437 9.57213 23.2932 9.57213 23.3261L9.17468 23.2602C9.19124 23.1118 9.24092 22.9799 9.30717 22.8644C9.37341 22.749 9.45621 22.6501 9.53901 22.5676C9.63837 22.4852 9.73774 22.4357 9.87022 22.3863C10.0027 22.3368 10.1186 22.3203 10.2677 22.3203C10.4002 22.3203 10.5326 22.3368 10.6651 22.3863C10.781 22.4357 10.897 22.4852 10.9798 22.5676C11.0626 22.6501 11.1454 22.749 11.1951 22.848C11.2447 22.9634 11.2779 23.0953 11.2779 23.2437C11.2779 23.3591 11.2613 23.4745 11.2282 23.59C11.1951 23.6889 11.1454 23.7878 11.0791 23.8868C11.0129 23.9857 10.9467 24.0681 10.8638 24.1671C10.781 24.266 10.6982 24.3485 10.5989 24.4474L9.68806 25.3543C9.7543 25.3378 9.82054 25.3213 9.88678 25.3213C9.95302 25.3048 10.0193 25.3048 10.0689 25.3048H11.3275Z" fill="#383838"/>
<path d="M14.1092 24.0304C14.1092 24.3272 14.0761 24.5745 14.0099 24.7889C13.9436 25.0032 13.8608 25.1681 13.7615 25.3165C13.6455 25.4484 13.5296 25.5639 13.3806 25.6298C13.2315 25.6958 13.0825 25.7288 12.9003 25.7288C12.7347 25.7288 12.5691 25.6958 12.4201 25.6298C12.271 25.5639 12.1385 25.4649 12.0392 25.3165C11.9398 25.1681 11.8405 25.0032 11.7908 24.7889C11.7245 24.5745 11.6914 24.3272 11.6914 24.0304C11.6914 23.7336 11.7245 23.4863 11.7908 23.2719C11.857 23.0575 11.9398 22.8762 12.0392 22.7443C12.1551 22.6123 12.271 22.4969 12.4201 22.431C12.5691 22.365 12.7182 22.332 12.9003 22.332C13.0659 22.332 13.2315 22.365 13.3806 22.431C13.5296 22.4969 13.6621 22.5959 13.7615 22.7443C13.8774 22.8762 13.9602 23.0575 14.0099 23.2719C14.0761 23.4863 14.1092 23.7501 14.1092 24.0304ZM13.6952 24.0304C13.6952 23.7666 13.6787 23.5522 13.629 23.3873C13.5793 23.2224 13.5296 23.074 13.4468 22.9751C13.3806 22.8762 13.2812 22.7937 13.1984 22.7443C13.1156 22.6948 12.9997 22.6783 12.9003 22.6783C12.801 22.6783 12.7016 22.6948 12.6022 22.7443C12.5029 22.7937 12.4201 22.8597 12.3538 22.9751C12.2876 23.074 12.2213 23.2224 12.1882 23.3873C12.1551 23.5522 12.122 23.7831 12.122 24.0304C12.122 24.2777 12.1385 24.4921 12.1882 24.6735C12.2379 24.8548 12.2876 24.9867 12.3538 25.1022C12.4201 25.2176 12.5029 25.2835 12.6022 25.333C12.7016 25.3825 12.801 25.399 12.9003 25.399C12.9997 25.399 13.099 25.3825 13.1984 25.333C13.2978 25.2835 13.3806 25.2176 13.4468 25.1022C13.5131 24.9867 13.5793 24.8548 13.629 24.6735C13.6787 24.4921 13.6952 24.2777 13.6952 24.0304Z" fill="#383838"/>
<path d="M16.6414 23.126C16.6414 23.3074 16.658 23.4723 16.6911 23.6372C16.7242 23.8021 16.7905 23.967 16.8567 24.1154C16.9229 24.2638 17.0223 24.3957 17.1217 24.5276C17.221 24.643 17.3535 24.7419 17.486 24.8244L17.2541 25.0882C17.0554 24.9728 16.8898 24.8079 16.7573 24.61C16.6248 24.4122 16.5255 24.1813 16.4427 23.9175C16.3764 24.1978 16.2605 24.4451 16.128 24.6595C15.979 24.8738 15.8134 25.0552 15.6147 25.1871L15.3828 24.9068C15.5153 24.8244 15.6478 24.709 15.7637 24.5935C15.8796 24.4616 15.9624 24.3132 16.0452 24.1648C16.128 24.0164 16.1777 23.835 16.2108 23.6537C16.244 23.4723 16.2771 23.2909 16.2771 23.1095V22.7468H15.5153V22.45H17.3535V22.7468H16.6414V23.126ZM17.7178 22.0872H18.0656V25.7972H17.7178V23.7361H17.0554V23.4393H17.7178V22.0872ZM18.8771 21.9883V25.9951H18.5293V21.9883H18.8771Z" fill="#383838"/>
<path d="M23.2361 24.5828H21.5966V26.0008H21.2323V24.5828H19.6094V24.286H23.2361V24.5828ZM19.8081 23.6594C19.9737 23.6264 20.1559 23.5934 20.3215 23.511C20.4871 23.445 20.6361 23.3626 20.7686 23.2636C20.9011 23.1647 21.0005 23.0658 21.0833 22.9339C21.1661 22.8184 21.1992 22.6865 21.1992 22.5546V22.5381H19.924V22.2578H22.8552V22.5546H21.5966V22.5711C21.5966 22.703 21.6298 22.8349 21.7126 22.9503C21.7954 23.0658 21.8947 23.1812 22.0272 23.2801C22.1597 23.3791 22.3087 23.4615 22.4743 23.5275C22.6399 23.5934 22.8221 23.6429 22.9877 23.6759L22.8387 23.9727C22.6896 23.9397 22.524 23.9067 22.375 23.8572C22.2259 23.8078 22.0934 23.7418 21.961 23.6594C21.8285 23.5769 21.7126 23.4945 21.6132 23.3955C21.5138 23.2966 21.431 23.1812 21.3648 23.0658C21.2985 23.1812 21.2157 23.2966 21.1164 23.3955C21.017 23.4945 20.9011 23.5769 20.7686 23.6594C20.6361 23.7418 20.5036 23.8078 20.3546 23.8572C20.2056 23.9067 20.0565 23.9562 19.8909 23.9727L19.8081 23.6594Z" fill="#383838"/>
<path d="M28.3523 25.1534V25.4502H24.709V25.1534H28.3523ZM28.0045 24.3124C27.8555 24.2795 27.7064 24.23 27.5574 24.164C27.4083 24.0981 27.2593 24.0156 27.1268 23.9167C26.9943 23.8178 26.8784 23.7023 26.7625 23.5869C26.6631 23.455 26.5638 23.3231 26.5141 23.1747C26.4478 23.3231 26.365 23.455 26.2657 23.5869C26.1663 23.7188 26.0338 23.8178 25.9013 23.9167C25.7689 24.0156 25.6364 24.0981 25.4873 24.164C25.3383 24.23 25.1892 24.2795 25.0402 24.3289L24.8746 24.0321C25.0568 23.9991 25.2224 23.9332 25.4045 23.8507C25.5701 23.7683 25.7357 23.6529 25.8682 23.5375C26.0007 23.4055 26.1166 23.2736 26.1994 23.1087C26.2822 22.9438 26.3319 22.7954 26.3319 22.6141V22.3008H26.7128V22.6141C26.7128 22.779 26.7625 22.9438 26.8453 23.1087C26.9281 23.2736 27.044 23.4055 27.1765 23.5375C27.309 23.6694 27.4746 23.7683 27.6402 23.8672C27.8224 23.9497 27.988 24.0156 28.1701 24.0486L28.0045 24.3124Z" fill="#383838"/>
<path d="M28.998 22.3996H30.8363V24.9884H28.998V22.3996ZM29.3624 24.6916H30.4885V22.6964H29.3624V24.6916ZM32.5917 23.9001H31.9293V25.9942H31.5649V22.0039H31.9293V23.6033H32.5917V23.9001Z" fill="#383838"/>
<path d="M36.5984 25.1846V25.4814H32.9551V25.1846H36.5984ZM36.1844 24.4426H33.4353V22.332H36.1512V22.6288H33.7997V23.2224H36.0519V23.5027H33.7997V24.1458H36.1844V24.4426Z" fill="#383838"/>
<path d="M38.5013 23.0601C38.5013 23.2414 38.5344 23.4228 38.5841 23.6042C38.6338 23.7856 38.7166 23.9505 38.816 24.0989C38.9153 24.2473 39.0312 24.3957 39.1637 24.5111C39.2962 24.6265 39.4287 24.7254 39.5777 24.7914L39.3625 25.0882C39.1306 24.9728 38.9319 24.8079 38.7497 24.5935C38.5675 24.3792 38.4351 24.1154 38.3357 23.835C38.2363 24.1318 38.1039 24.4122 37.9217 24.643C37.7395 24.8738 37.5242 25.0552 37.2924 25.1706L37.0605 24.8738C37.2096 24.8079 37.3421 24.709 37.4746 24.577C37.607 24.4451 37.723 24.3132 37.8223 24.1483C37.9217 23.9834 38.0045 23.8186 38.0542 23.6207C38.1039 23.4393 38.137 23.2414 38.137 23.0601V22.3345H38.5013V23.0601ZM40.3726 21.9883V25.9951H40.0083V21.9883H40.3726Z" fill="#383838"/>
<path d="M41.8282 24.7254C42.0104 24.7254 42.176 24.7254 42.3416 24.7254C42.5072 24.7254 42.6563 24.709 42.8053 24.709C42.9544 24.6925 43.1034 24.6925 43.2359 24.676C43.3849 24.6595 43.5174 24.643 43.683 24.61L43.7161 24.9068C43.5505 24.9398 43.4015 24.9563 43.2524 24.9728C43.1034 24.9893 42.9544 25.0058 42.8053 25.0058C42.6563 25.0222 42.4907 25.0222 42.3251 25.0222C42.1594 25.0222 41.9773 25.0222 41.7951 25.0222H41.4805V22.351H43.4346V22.6478H41.8448V23.4723H43.2856V23.7691H41.8448V24.7254H41.8282ZM44.4945 21.9883V25.9786H44.1301V21.9883H44.4945Z" fill="#383838"/>
<path d="M48.1752 24.0164C47.9764 23.9505 47.8108 23.8515 47.6618 23.7196C47.5293 23.5877 47.4134 23.4393 47.3471 23.2744C47.2809 23.4558 47.1815 23.6207 47.0325 23.7691C46.8835 23.9175 46.7178 24.0329 46.5191 24.0989L46.3535 23.8186C46.486 23.7691 46.5854 23.7031 46.6847 23.6372C46.7841 23.5547 46.8669 23.4723 46.9331 23.3734C46.9994 23.2744 47.0656 23.1755 47.0987 23.0766C47.1319 22.9776 47.165 22.8622 47.165 22.7633V22.7303H46.4363V22.45H47.165V22.0213H47.5127V22.45H48.2249V22.7303H47.5127V22.7633C47.5127 22.8622 47.5293 22.9611 47.579 23.0601C47.6121 23.159 47.6784 23.2579 47.7446 23.3404C47.8108 23.4228 47.9102 23.5053 48.0096 23.5712C48.1089 23.6372 48.2249 23.7031 48.3573 23.7361L48.1752 24.0164ZM49.8809 25.6653V25.9456H47.0822V24.9728H49.3675V24.5935H47.0822V24.3132H49.7319V25.2531H47.4465V25.6653H49.8809ZM48.8541 24.0989H48.5229V22.0707H48.8707V22.8952H49.3841V21.9883H49.7319V24.1318H49.3841V23.192H48.8541V24.0989Z" fill="#383838"/>
<path d="M52.9426 24.2473C52.777 24.2802 52.628 24.2967 52.4789 24.3132C52.3299 24.3297 52.1808 24.3462 52.0152 24.3462C51.8662 24.3627 51.7006 24.3627 51.535 24.3627C51.3694 24.3627 51.1872 24.3627 51.005 24.3627H50.6738V23.1425H52.1311V22.5819H50.6738V22.2851H52.4955V23.4393H51.0382V24.0824C51.2203 24.0824 51.3859 24.0824 51.5515 24.0824C51.7171 24.0824 51.8662 24.0659 52.0152 24.0659C52.1643 24.0494 52.3133 24.0494 52.4624 24.0329C52.6114 24.0164 52.7604 23.9999 52.9095 23.967L52.9426 24.2473ZM53.8534 25.6158V25.9126H51.121V24.7254H51.4853V25.6158H53.8534ZM53.7541 24.9398H53.3897V21.9883H53.7541V24.9398Z" fill="#383838"/>
<path d="M56.0062 23.2076C56.0062 23.3725 56.0393 23.5374 56.089 23.7188C56.1386 23.8836 56.2214 24.0485 56.3208 24.1804C56.4202 24.3124 56.5361 24.4608 56.6686 24.5597C56.8011 24.6751 56.9335 24.7576 57.0826 24.8235L56.8839 25.1203C56.7679 25.0708 56.652 25.0049 56.5526 24.9224C56.4533 24.84 56.3539 24.7411 56.2546 24.6421C56.1552 24.5432 56.089 24.4278 56.0062 24.2959C55.9234 24.164 55.8737 24.032 55.824 23.9001C55.7743 24.0485 55.7246 24.1804 55.6418 24.3124C55.559 24.4443 55.4928 24.5762 55.3934 24.6916C55.3106 24.807 55.2113 24.906 55.0953 25.0049C54.996 25.1038 54.88 25.1698 54.7641 25.2192L54.5488 24.9224C54.6979 24.8565 54.8304 24.7576 54.9628 24.6421C55.0953 24.5267 55.2112 24.3783 55.3106 24.2299C55.41 24.0815 55.4928 23.9166 55.5425 23.7352C55.5921 23.5539 55.6253 23.389 55.6253 23.2076V22.6964H54.6979V22.4161H56.9501V22.7129H56.0062V23.2076ZM57.8609 22.0039V25.9942H57.4966V22.0039H57.8609Z" fill="#383838"/>
<defs>
<linearGradient id="paint0_linear_2714_9908" x1="7.94178" y1="5.96484" x2="7.94178" y2="14.4006" gradientUnits="userSpaceOnUse">
<stop stop-color="white"/>
<stop offset="1" stop-color="white" stop-opacity="0"/>
</linearGradient>
<linearGradient id="paint1_linear_2714_9908" x1="14.0865" y1="6.92188" x2="14.0865" y2="8.15854" gradientUnits="userSpaceOnUse">
<stop stop-color="white"/>
<stop offset="1" stop-color="white" stop-opacity="0"/>
</linearGradient>
</defs>
</svg>
