<svg width="62" height="26" viewBox="0 0 62 26" fill="none" xmlns="http://www.w3.org/2000/svg">
<path d="M15.75 14.6898V0L30.5051 5.34174V20.0315L15.75 14.6898Z" fill="#878C8A"/>
<path d="M0 20.0315V5.34174L14.7551 0V14.6898L0 20.0315Z" fill="white"/>
<path d="M0 20.0315V5.34174L14.7551 0V14.6898L0 20.0315Z" fill="url(#paint0_linear_2711_9011)"/>
<path d="M47.2441 14.6898V0L61.9992 5.34174V20.0315L47.2441 14.6898Z" fill="#AEB5B3"/>
<path d="M31.4941 20.0315V5.34174L46.2492 0V14.6898L31.4941 20.0315Z" fill="#9FA5A3"/>
<path d="M55.0117 6.4143L54.9786 6.29889L53.8525 5.88672L50.7227 12.9266L52.1468 13.4377L52.892 11.6571L55.9722 12.7782L56.734 15.1029L58.1416 15.614L55.0117 6.4143ZM55.5251 11.4593L53.2895 10.6514L54.399 7.99704L55.5251 11.4593Z" fill="white"/>
<path d="M55.0117 6.4143L54.9786 6.29889L53.8525 5.88672L50.7227 12.9266L52.1468 13.4377L52.892 11.6571L55.9722 12.7782L56.734 15.1029L58.1416 15.614L55.0117 6.4143ZM55.5251 11.4593L53.2895 10.6514L54.399 7.99704L55.5251 11.4593Z" fill="url(#paint1_linear_2711_9011)"/>
<path d="M41.8796 7.20266C41.5815 6.72455 41.151 6.42778 40.5879 6.31237C40.0414 6.19697 39.3956 6.26291 38.6835 6.5267L36.2988 7.38402V15.5615L36.4644 15.512L38.6504 14.7207C39.379 14.4404 40.0414 14.0447 40.5879 13.5336C41.151 13.0225 41.5815 12.4125 41.8796 11.7201C42.1777 11.0276 42.3267 10.3022 42.3267 9.5438V9.0327C42.3267 8.2908 42.1777 7.68078 41.8796 7.20266ZM40.9854 9.5438V10.0054C40.9854 10.8792 40.7701 11.6376 40.3561 12.2476C39.9421 12.8577 39.3625 13.3028 38.6007 13.5831L37.6568 13.9293V8.07647L38.7166 7.69727C39.4453 7.43348 39.9917 7.46645 40.3892 7.79619C40.7866 8.10944 40.9854 8.70297 40.9854 9.5438Z" fill="white"/>
<path d="M41.8796 7.20266C41.5815 6.72455 41.151 6.42778 40.5879 6.31237C40.0414 6.19697 39.3956 6.26291 38.6835 6.5267L36.2988 7.38402V15.5615L36.4644 15.512L38.6504 14.7207C39.379 14.4404 40.0414 14.0447 40.5879 13.5336C41.151 13.0225 41.5815 12.4125 41.8796 11.7201C42.1777 11.0276 42.3267 10.3022 42.3267 9.5438V9.0327C42.3267 8.2908 42.1777 7.68078 41.8796 7.20266ZM40.9854 9.5438V10.0054C40.9854 10.8792 40.7701 11.6376 40.3561 12.2476C39.9421 12.8577 39.3625 13.3028 38.6007 13.5831L37.6568 13.9293V8.07647L38.7166 7.69727C39.4453 7.43348 39.9917 7.46645 40.3892 7.79619C40.7866 8.10944 40.9854 8.70297 40.9854 9.5438Z" fill="url(#paint2_linear_2711_9011)"/>
<path d="M25.0698 11.4395C24.8876 11.1097 24.6227 10.8294 24.3246 10.5656C24.5895 10.4997 24.8048 10.3843 24.9704 10.1864C25.2188 9.92266 25.3347 9.60941 25.3347 9.23021C25.3347 8.4883 25.1029 7.81234 24.6558 7.2353C24.2086 6.65826 23.5794 6.21312 22.801 5.93284C22.0558 5.66905 21.4431 5.65256 20.9463 5.91635C20.4495 6.18014 20.2011 6.65826 20.2011 7.31774V7.48261L21.5259 7.96072V7.79586C21.5259 7.43314 21.6418 7.18584 21.8571 7.05395C22.0889 6.92205 22.387 6.92205 22.7845 7.07043C23.6125 7.3672 24.0099 7.89478 24.0099 8.73561C24.0099 9.09832 23.894 9.34562 23.6622 9.46103C23.4138 9.59292 23.0826 9.57644 22.652 9.42805L21.7412 9.09832V10.2359L22.652 10.5656C23.1488 10.747 23.5131 10.9943 23.7781 11.3076C24.0265 11.6208 24.1424 11.967 24.1424 12.3792C24.1424 12.8079 24.0265 13.0881 23.8112 13.2365C23.5794 13.3684 23.2482 13.3684 22.8176 13.2035C22.4036 13.0552 22.0724 12.8243 21.8405 12.5111C21.6087 12.1978 21.4928 11.8846 21.4928 11.5054V11.3405L20.168 10.8624V11.0273C20.168 11.7197 20.4164 12.3957 20.9132 13.0057C21.41 13.5992 22.0558 14.0609 22.8342 14.3411C23.6125 14.6214 24.2583 14.6379 24.7386 14.3741C25.2354 14.1103 25.4838 13.5992 25.4838 12.8408C25.4507 12.3462 25.3347 11.8681 25.0698 11.4395Z" fill="white"/>
<path d="M25.0698 11.4395C24.8876 11.1097 24.6227 10.8294 24.3246 10.5656C24.5895 10.4997 24.8048 10.3843 24.9704 10.1864C25.2188 9.92266 25.3347 9.60941 25.3347 9.23021C25.3347 8.4883 25.1029 7.81234 24.6558 7.2353C24.2086 6.65826 23.5794 6.21312 22.801 5.93284C22.0558 5.66905 21.4431 5.65256 20.9463 5.91635C20.4495 6.18014 20.2011 6.65826 20.2011 7.31774V7.48261L21.5259 7.96072V7.79586C21.5259 7.43314 21.6418 7.18584 21.8571 7.05395C22.0889 6.92205 22.387 6.92205 22.7845 7.07043C23.6125 7.3672 24.0099 7.89478 24.0099 8.73561C24.0099 9.09832 23.894 9.34562 23.6622 9.46103C23.4138 9.59292 23.0826 9.57644 22.652 9.42805L21.7412 9.09832V10.2359L22.652 10.5656C23.1488 10.747 23.5131 10.9943 23.7781 11.3076C24.0265 11.6208 24.1424 11.967 24.1424 12.3792C24.1424 12.8079 24.0265 13.0881 23.8112 13.2365C23.5794 13.3684 23.2482 13.3684 22.8176 13.2035C22.4036 13.0552 22.0724 12.8243 21.8405 12.5111C21.6087 12.1978 21.4928 11.8846 21.4928 11.5054V11.3405L20.168 10.8624V11.0273C20.168 11.7197 20.4164 12.3957 20.9132 13.0057C21.41 13.5992 22.0558 14.0609 22.8342 14.3411C23.6125 14.6214 24.2583 14.6379 24.7386 14.3741C25.2354 14.1103 25.4838 13.5992 25.4838 12.8408C25.4507 12.3462 25.3347 11.8681 25.0698 11.4395Z" fill="url(#paint3_linear_2711_9011)"/>
<path d="M10.134 10.9322C9.62061 11.8225 8.80916 12.5479 7.93147 12.8776C6.63978 13.3393 5.56337 12.8282 5.2984 11.7235L11.9225 9.33295V8.60752C11.8562 6.51369 10.1009 5.44205 7.94803 6.21693C5.74553 7.0083 3.95703 9.43187 3.95703 11.6246C3.95703 13.8174 5.74553 14.9385 7.94803 14.1471C9.23972 13.6855 10.4486 12.6138 11.1938 11.2949L11.2766 11.1465L10.2333 10.7838L10.134 10.9322ZM5.31496 10.4541C5.61305 9.18456 6.6729 7.93156 7.93147 7.48642C9.19004 7.02479 10.2499 7.50291 10.548 8.55806L5.31496 10.4541Z" fill="#404050"/>
<path d="M13.4141 8.1623V7.42039L14.7549 6.92578V7.66769L13.4141 8.1623Z" fill="white"/>
<path d="M13.4141 8.1623V7.42039L14.7549 6.92578V7.66769L13.4141 8.1623Z" fill="url(#paint4_linear_2711_9011)"/>
<path d="M15.748 6.92188V7.66378L17.0889 8.15839V7.41648L15.748 6.92188Z" fill="#4C4C4C"/>
<path d="M44.9082 8.1623V7.42039L46.2491 6.92578V7.66769L44.9082 8.1623Z" fill="white"/>
<path d="M44.9082 8.1623V7.42039L46.2491 6.92578V7.66769L44.9082 8.1623Z" fill="url(#paint5_linear_2711_9011)"/>
<path d="M47.2441 6.92188V7.66378L48.585 8.15839V7.41648L47.2441 6.92188Z" fill="#4C4C4C"/>
<path d="M29.1621 11.7852V12.5271L30.503 13.0052V12.2633L29.1621 11.7852Z" fill="#4C4C4C"/>
<path d="M31.4805 13.0052V12.2633L32.8213 11.7852V12.5271L31.4805 13.0052Z" fill="white"/>
<path d="M31.4805 13.0052V12.2633L32.8213 11.7852V12.5271L31.4805 13.0052Z" fill="url(#paint6_linear_2711_9011)"/>
<path d="M5.9925 25.3083V25.6711H3.77344V25.3908L4.89953 24.3026C4.98233 24.2037 5.06513 24.1213 5.13137 24.0389C5.19761 23.9564 5.26385 23.874 5.31353 23.7916C5.36321 23.7091 5.41289 23.6267 5.42945 23.5442C5.44601 23.4618 5.47913 23.3629 5.47913 23.2805C5.47913 23.1815 5.46257 23.0991 5.42945 23.0332C5.39633 22.9672 5.36321 22.9013 5.29697 22.8518C5.23073 22.8023 5.18105 22.7694 5.09825 22.7364C5.03201 22.7199 4.94921 22.7034 4.86641 22.7034C4.78361 22.7034 4.70081 22.7199 4.63457 22.7364C4.56833 22.7529 4.50208 22.8023 4.4524 22.8353C4.40272 22.8848 4.35304 22.9342 4.31992 22.9837C4.2868 23.0496 4.25368 23.0991 4.23712 23.1815C4.22056 23.2475 4.22056 23.2969 4.22056 23.3299L3.82312 23.264C3.83968 23.1156 3.88936 22.9837 3.9556 22.8683C4.02184 22.7529 4.10464 22.654 4.18744 22.5715C4.2868 22.4891 4.38616 22.4396 4.51864 22.3902C4.65113 22.3407 4.76705 22.3242 4.91609 22.3242C5.04857 22.3242 5.18105 22.3407 5.31353 22.3902C5.44601 22.4396 5.54537 22.4891 5.62818 22.5715C5.71098 22.654 5.79378 22.7529 5.84346 22.8518C5.89314 22.9672 5.92626 23.0991 5.92626 23.2475C5.92626 23.3629 5.9097 23.4783 5.87658 23.5937C5.84346 23.7091 5.79378 23.7915 5.72754 23.8905C5.6613 23.9894 5.59506 24.0718 5.51225 24.1707C5.42945 24.2697 5.34665 24.3521 5.24729 24.451L4.33648 25.3578C4.40272 25.3413 4.46896 25.3248 4.5352 25.3248C4.60145 25.3083 4.66769 25.3083 4.71737 25.3083H5.9925Z" fill="white"/>
<path d="M5.9925 25.3083V25.6711H3.77344V25.3908L4.89953 24.3026C4.98233 24.2037 5.06513 24.1213 5.13137 24.0389C5.19761 23.9564 5.26385 23.874 5.31353 23.7916C5.36321 23.7091 5.41289 23.6267 5.42945 23.5442C5.44601 23.4618 5.47913 23.3629 5.47913 23.2805C5.47913 23.1815 5.46257 23.0991 5.42945 23.0332C5.39633 22.9672 5.36321 22.9013 5.29697 22.8518C5.23073 22.8023 5.18105 22.7694 5.09825 22.7364C5.03201 22.7199 4.94921 22.7034 4.86641 22.7034C4.78361 22.7034 4.70081 22.7199 4.63457 22.7364C4.56833 22.7529 4.50208 22.8023 4.4524 22.8353C4.40272 22.8848 4.35304 22.9342 4.31992 22.9837C4.2868 23.0496 4.25368 23.0991 4.23712 23.1815C4.22056 23.2475 4.22056 23.2969 4.22056 23.3299L3.82312 23.264C3.83968 23.1156 3.88936 22.9837 3.9556 22.8683C4.02184 22.7529 4.10464 22.654 4.18744 22.5715C4.2868 22.4891 4.38616 22.4396 4.51864 22.3902C4.65113 22.3407 4.76705 22.3242 4.91609 22.3242C5.04857 22.3242 5.18105 22.3407 5.31353 22.3902C5.44601 22.4396 5.54537 22.4891 5.62818 22.5715C5.71098 22.654 5.79378 22.7529 5.84346 22.8518C5.89314 22.9672 5.92626 23.0991 5.92626 23.2475C5.92626 23.3629 5.9097 23.4783 5.87658 23.5937C5.84346 23.7091 5.79378 23.7915 5.72754 23.8905C5.6613 23.9894 5.59506 24.0718 5.51225 24.1707C5.42945 24.2697 5.34665 24.3521 5.24729 24.451L4.33648 25.3578C4.40272 25.3413 4.46896 25.3248 4.5352 25.3248C4.60145 25.3083 4.66769 25.3083 4.71737 25.3083H5.9925Z" fill="url(#paint7_linear_2711_9011)"/>
<path d="M8.75763 24.0341C8.75763 24.3308 8.72451 24.5781 8.65827 24.7925C8.59203 25.0068 8.50922 25.1717 8.40986 25.3201C8.29394 25.452 8.17802 25.5674 8.02898 25.6333C7.87994 25.6993 7.7309 25.7322 7.54874 25.7322C7.38313 25.7322 7.21753 25.6993 7.06849 25.6333C6.91945 25.5674 6.78697 25.4684 6.68761 25.3201C6.58825 25.1717 6.48889 25.0068 6.43921 24.7925C6.37296 24.5781 6.33984 24.3308 6.33984 24.0341C6.33984 23.7373 6.37296 23.49 6.43921 23.2757C6.50545 23.0614 6.58825 22.88 6.68761 22.7481C6.80353 22.6162 6.91945 22.5008 7.06849 22.4349C7.21753 22.3689 7.36657 22.3359 7.54874 22.3359C7.71434 22.3359 7.87994 22.3689 8.02898 22.4349C8.17802 22.5008 8.3105 22.5997 8.40986 22.7481C8.52578 22.88 8.60859 23.0614 8.65827 23.2757C8.74107 23.49 8.75763 23.7538 8.75763 24.0341ZM8.34362 24.0341C8.34362 23.7703 8.32706 23.556 8.27738 23.3911C8.2277 23.2262 8.17802 23.0778 8.09522 22.9789C8.02898 22.88 7.92962 22.7976 7.84682 22.7481C7.74746 22.6986 7.6481 22.6822 7.54874 22.6822C7.44937 22.6822 7.35001 22.6986 7.25065 22.7481C7.15129 22.7976 7.06849 22.8635 7.00225 22.9789C6.93601 23.0778 6.86977 23.2262 6.83665 23.3911C6.78697 23.5725 6.77041 23.7868 6.77041 24.0341C6.77041 24.2814 6.78697 24.4957 6.83665 24.6771C6.88633 24.8584 6.93601 24.9903 7.00225 25.1057C7.06849 25.2211 7.15129 25.2871 7.25065 25.3365C7.35001 25.386 7.44937 25.4025 7.54874 25.4025C7.6481 25.4025 7.74746 25.386 7.84682 25.3365C7.94618 25.2871 8.02898 25.2211 8.09522 25.1057C8.16146 24.9903 8.2277 24.8584 8.27738 24.6771C8.32706 24.4957 8.34362 24.2814 8.34362 24.0341Z" fill="white"/>
<path d="M8.75763 24.0341C8.75763 24.3308 8.72451 24.5781 8.65827 24.7925C8.59203 25.0068 8.50922 25.1717 8.40986 25.3201C8.29394 25.452 8.17802 25.5674 8.02898 25.6333C7.87994 25.6993 7.7309 25.7322 7.54874 25.7322C7.38313 25.7322 7.21753 25.6993 7.06849 25.6333C6.91945 25.5674 6.78697 25.4684 6.68761 25.3201C6.58825 25.1717 6.48889 25.0068 6.43921 24.7925C6.37296 24.5781 6.33984 24.3308 6.33984 24.0341C6.33984 23.7373 6.37296 23.49 6.43921 23.2757C6.50545 23.0614 6.58825 22.88 6.68761 22.7481C6.80353 22.6162 6.91945 22.5008 7.06849 22.4349C7.21753 22.3689 7.36657 22.3359 7.54874 22.3359C7.71434 22.3359 7.87994 22.3689 8.02898 22.4349C8.17802 22.5008 8.3105 22.5997 8.40986 22.7481C8.52578 22.88 8.60859 23.0614 8.65827 23.2757C8.74107 23.49 8.75763 23.7538 8.75763 24.0341ZM8.34362 24.0341C8.34362 23.7703 8.32706 23.556 8.27738 23.3911C8.2277 23.2262 8.17802 23.0778 8.09522 22.9789C8.02898 22.88 7.92962 22.7976 7.84682 22.7481C7.74746 22.6986 7.6481 22.6822 7.54874 22.6822C7.44937 22.6822 7.35001 22.6986 7.25065 22.7481C7.15129 22.7976 7.06849 22.8635 7.00225 22.9789C6.93601 23.0778 6.86977 23.2262 6.83665 23.3911C6.78697 23.5725 6.77041 23.7868 6.77041 24.0341C6.77041 24.2814 6.78697 24.4957 6.83665 24.6771C6.88633 24.8584 6.93601 24.9903 7.00225 25.1057C7.06849 25.2211 7.15129 25.2871 7.25065 25.3365C7.35001 25.386 7.44937 25.4025 7.54874 25.4025C7.6481 25.4025 7.74746 25.386 7.84682 25.3365C7.94618 25.2871 8.02898 25.2211 8.09522 25.1057C8.16146 24.9903 8.2277 24.8584 8.27738 24.6771C8.32706 24.4957 8.34362 24.2814 8.34362 24.0341Z" fill="url(#paint8_linear_2711_9011)"/>
<path d="M11.3236 25.3083V25.6711H9.12109V25.3908L10.2472 24.3026C10.33 24.2037 10.4128 24.1213 10.479 24.0389C10.5453 23.9564 10.6115 23.874 10.6612 23.7916C10.7109 23.7091 10.7605 23.6267 10.7771 23.5442C10.7937 23.4618 10.8268 23.3629 10.8268 23.2805C10.8268 23.1815 10.8102 23.0991 10.7771 23.0332C10.744 22.9672 10.7109 22.9013 10.6446 22.8518C10.5949 22.8023 10.5287 22.7694 10.4459 22.7364C10.3797 22.7199 10.2969 22.7034 10.2141 22.7034C10.1313 22.7034 10.0485 22.7199 9.98222 22.7364C9.91598 22.7529 9.84974 22.8023 9.80006 22.8353C9.75038 22.8848 9.7007 22.9342 9.66758 22.9837C9.63446 23.0496 9.60134 23.0991 9.58478 23.1815C9.56822 23.2475 9.56822 23.2969 9.56822 23.3299L9.17077 23.264C9.18733 23.1156 9.23702 22.9837 9.30326 22.8683C9.3695 22.7529 9.4523 22.654 9.5351 22.5715C9.63446 22.4891 9.73382 22.4396 9.8663 22.3902C9.99878 22.3407 10.1147 22.3242 10.2637 22.3242C10.3962 22.3242 10.5287 22.3407 10.6612 22.3902C10.7771 22.4396 10.893 22.4891 10.9758 22.5715C11.0586 22.654 11.1414 22.7529 11.1911 22.8518C11.2408 22.9672 11.2739 23.0991 11.2739 23.2475C11.2739 23.3629 11.2574 23.4783 11.2242 23.5937C11.1911 23.6926 11.1414 23.7915 11.0752 23.8905C11.009 23.9894 10.9427 24.0718 10.8599 24.1707C10.7771 24.2697 10.6943 24.3521 10.5949 24.451L9.68414 25.3578C9.75038 25.3413 9.81662 25.3248 9.88286 25.3248C9.9491 25.3083 10.0153 25.3083 10.065 25.3083H11.3236Z" fill="white"/>
<path d="M11.3236 25.3083V25.6711H9.12109V25.3908L10.2472 24.3026C10.33 24.2037 10.4128 24.1213 10.479 24.0389C10.5453 23.9564 10.6115 23.874 10.6612 23.7916C10.7109 23.7091 10.7605 23.6267 10.7771 23.5442C10.7937 23.4618 10.8268 23.3629 10.8268 23.2805C10.8268 23.1815 10.8102 23.0991 10.7771 23.0332C10.744 22.9672 10.7109 22.9013 10.6446 22.8518C10.5949 22.8023 10.5287 22.7694 10.4459 22.7364C10.3797 22.7199 10.2969 22.7034 10.2141 22.7034C10.1313 22.7034 10.0485 22.7199 9.98222 22.7364C9.91598 22.7529 9.84974 22.8023 9.80006 22.8353C9.75038 22.8848 9.7007 22.9342 9.66758 22.9837C9.63446 23.0496 9.60134 23.0991 9.58478 23.1815C9.56822 23.2475 9.56822 23.2969 9.56822 23.3299L9.17077 23.264C9.18733 23.1156 9.23702 22.9837 9.30326 22.8683C9.3695 22.7529 9.4523 22.654 9.5351 22.5715C9.63446 22.4891 9.73382 22.4396 9.8663 22.3902C9.99878 22.3407 10.1147 22.3242 10.2637 22.3242C10.3962 22.3242 10.5287 22.3407 10.6612 22.3902C10.7771 22.4396 10.893 22.4891 10.9758 22.5715C11.0586 22.654 11.1414 22.7529 11.1911 22.8518C11.2408 22.9672 11.2739 23.0991 11.2739 23.2475C11.2739 23.3629 11.2574 23.4783 11.2242 23.5937C11.1911 23.6926 11.1414 23.7915 11.0752 23.8905C11.009 23.9894 10.9427 24.0718 10.8599 24.1707C10.7771 24.2697 10.6943 24.3521 10.5949 24.451L9.68414 25.3578C9.75038 25.3413 9.81662 25.3248 9.88286 25.3248C9.9491 25.3083 10.0153 25.3083 10.065 25.3083H11.3236Z" fill="url(#paint9_linear_2711_9011)"/>
<path d="M14.1092 24.0341C14.1092 24.3308 14.0761 24.5781 14.0098 24.7925C13.9436 25.0068 13.8608 25.1717 13.7614 25.3201C13.6455 25.452 13.5296 25.5674 13.3805 25.6333C13.2315 25.6993 13.0825 25.7322 12.9003 25.7322C12.7347 25.7322 12.5691 25.6993 12.4201 25.6333C12.271 25.5674 12.1385 25.4684 12.0392 25.3201C11.9398 25.1717 11.8404 25.0068 11.7908 24.7925C11.7245 24.5781 11.6914 24.3308 11.6914 24.0341C11.6914 23.7373 11.7245 23.49 11.7908 23.2757C11.857 23.0614 11.9398 22.88 12.0392 22.7481C12.1551 22.6162 12.271 22.5008 12.4201 22.4349C12.5691 22.3689 12.7181 22.3359 12.9003 22.3359C13.0659 22.3359 13.2315 22.3689 13.3805 22.4349C13.5296 22.5008 13.6621 22.5997 13.7614 22.7481C13.8773 22.88 13.9601 23.0614 14.0098 23.2757C14.0761 23.49 14.1092 23.7538 14.1092 24.0341ZM13.6952 24.0341C13.6952 23.7703 13.6786 23.556 13.6289 23.3911C13.5793 23.2262 13.5296 23.0778 13.4468 22.9789C13.3805 22.88 13.2812 22.7976 13.1984 22.7481C13.1156 22.6986 12.9997 22.6822 12.9003 22.6822C12.8009 22.6822 12.7016 22.6986 12.6022 22.7481C12.5029 22.7976 12.4201 22.8635 12.3538 22.9789C12.2876 23.0778 12.2213 23.2262 12.1882 23.3911C12.1551 23.556 12.122 23.7868 12.122 24.0341C12.122 24.2814 12.1385 24.4957 12.1882 24.6771C12.2379 24.8584 12.2876 24.9903 12.3538 25.1057C12.4201 25.2211 12.5029 25.2871 12.6022 25.3365C12.7016 25.386 12.8009 25.4025 12.9003 25.4025C12.9997 25.4025 13.099 25.386 13.1984 25.3365C13.2977 25.2871 13.3805 25.2211 13.4468 25.1057C13.513 24.9903 13.5793 24.8584 13.6289 24.6771C13.6786 24.4957 13.6952 24.2814 13.6952 24.0341Z" fill="white"/>
<path d="M14.1092 24.0341C14.1092 24.3308 14.0761 24.5781 14.0098 24.7925C13.9436 25.0068 13.8608 25.1717 13.7614 25.3201C13.6455 25.452 13.5296 25.5674 13.3805 25.6333C13.2315 25.6993 13.0825 25.7322 12.9003 25.7322C12.7347 25.7322 12.5691 25.6993 12.4201 25.6333C12.271 25.5674 12.1385 25.4684 12.0392 25.3201C11.9398 25.1717 11.8404 25.0068 11.7908 24.7925C11.7245 24.5781 11.6914 24.3308 11.6914 24.0341C11.6914 23.7373 11.7245 23.49 11.7908 23.2757C11.857 23.0614 11.9398 22.88 12.0392 22.7481C12.1551 22.6162 12.271 22.5008 12.4201 22.4349C12.5691 22.3689 12.7181 22.3359 12.9003 22.3359C13.0659 22.3359 13.2315 22.3689 13.3805 22.4349C13.5296 22.5008 13.6621 22.5997 13.7614 22.7481C13.8773 22.88 13.9601 23.0614 14.0098 23.2757C14.0761 23.49 14.1092 23.7538 14.1092 24.0341ZM13.6952 24.0341C13.6952 23.7703 13.6786 23.556 13.6289 23.3911C13.5793 23.2262 13.5296 23.0778 13.4468 22.9789C13.3805 22.88 13.2812 22.7976 13.1984 22.7481C13.1156 22.6986 12.9997 22.6822 12.9003 22.6822C12.8009 22.6822 12.7016 22.6986 12.6022 22.7481C12.5029 22.7976 12.4201 22.8635 12.3538 22.9789C12.2876 23.0778 12.2213 23.2262 12.1882 23.3911C12.1551 23.556 12.122 23.7868 12.122 24.0341C12.122 24.2814 12.1385 24.4957 12.1882 24.6771C12.2379 24.8584 12.2876 24.9903 12.3538 25.1057C12.4201 25.2211 12.5029 25.2871 12.6022 25.3365C12.7016 25.386 12.8009 25.4025 12.9003 25.4025C12.9997 25.4025 13.099 25.386 13.1984 25.3365C13.2977 25.2871 13.3805 25.2211 13.4468 25.1057C13.513 24.9903 13.5793 24.8584 13.6289 24.6771C13.6786 24.4957 13.6952 24.2814 13.6952 24.0341Z" fill="url(#paint10_linear_2711_9011)"/>
<path d="M16.6394 23.1298C16.6394 23.3111 16.656 23.476 16.6891 23.6409C16.7222 23.8057 16.7885 23.9706 16.8547 24.119C16.921 24.2674 17.0203 24.3993 17.1197 24.5312C17.219 24.6466 17.3515 24.7455 17.484 24.8279L17.2522 25.0917C17.0534 24.9763 16.8878 24.8114 16.7554 24.6136C16.6229 24.4158 16.5235 24.1849 16.4407 23.9212C16.3745 24.2014 16.2585 24.4487 16.1261 24.6631C15.977 24.8774 15.8114 25.0587 15.6127 25.1906L15.3809 24.9104C15.5133 24.8279 15.6458 24.7125 15.7617 24.5971C15.8777 24.4652 15.9605 24.3168 16.0433 24.1685C16.1261 24.0201 16.1757 23.8387 16.2089 23.6574C16.242 23.476 16.2751 23.2946 16.2751 23.1133V22.7506H15.5133V22.4538H17.3515V22.7506H16.6394V23.1298ZM17.7158 22.0911H18.0636V25.8007H17.7158V23.7398H17.0534V23.443H17.7158V22.0911ZM18.8751 21.9922V25.9985H18.5273V21.9922H18.8751Z" fill="white"/>
<path d="M16.6394 23.1298C16.6394 23.3111 16.656 23.476 16.6891 23.6409C16.7222 23.8057 16.7885 23.9706 16.8547 24.119C16.921 24.2674 17.0203 24.3993 17.1197 24.5312C17.219 24.6466 17.3515 24.7455 17.484 24.8279L17.2522 25.0917C17.0534 24.9763 16.8878 24.8114 16.7554 24.6136C16.6229 24.4158 16.5235 24.1849 16.4407 23.9212C16.3745 24.2014 16.2585 24.4487 16.1261 24.6631C15.977 24.8774 15.8114 25.0587 15.6127 25.1906L15.3809 24.9104C15.5133 24.8279 15.6458 24.7125 15.7617 24.5971C15.8777 24.4652 15.9605 24.3168 16.0433 24.1685C16.1261 24.0201 16.1757 23.8387 16.2089 23.6574C16.242 23.476 16.2751 23.2946 16.2751 23.1133V22.7506H15.5133V22.4538H17.3515V22.7506H16.6394V23.1298ZM17.7158 22.0911H18.0636V25.8007H17.7158V23.7398H17.0534V23.443H17.7158V22.0911ZM18.8751 21.9922V25.9985H18.5273V21.9922H18.8751Z" fill="url(#paint11_linear_2711_9011)"/>
<path d="M23.2321 24.5825H21.5927V26.0003H21.2284V24.5825H19.6055V24.2857H23.2321V24.5825ZM19.8042 23.6592C19.9698 23.6262 20.152 23.5932 20.3176 23.5108C20.4832 23.4449 20.6322 23.3624 20.7647 23.2635C20.8972 23.1646 20.9965 23.0657 21.0793 22.9338C21.1621 22.8184 21.1952 22.6865 21.1952 22.5546V22.5381H19.9201V22.2578H22.8513V22.5546H21.5927V22.5711C21.5927 22.703 21.6258 22.8349 21.7086 22.9503C21.7914 23.0657 21.8908 23.1811 22.0233 23.28C22.1557 23.3789 22.3048 23.4614 22.4704 23.5273C22.636 23.5932 22.8181 23.6427 22.9837 23.6757L22.8347 23.9724C22.6857 23.9395 22.5201 23.9065 22.371 23.857C22.222 23.8076 22.0895 23.7416 21.957 23.6592C21.8245 23.5768 21.7086 23.4943 21.6092 23.3954C21.5099 23.2965 21.4271 23.1811 21.3608 23.0657C21.2946 23.1811 21.2118 23.2965 21.1124 23.3954C21.0131 23.4943 20.8972 23.5768 20.7647 23.6592C20.6322 23.7416 20.4997 23.8076 20.3507 23.857C20.2016 23.9065 20.0526 23.956 19.887 23.9724L19.8042 23.6592Z" fill="white"/>
<path d="M23.2321 24.5825H21.5927V26.0003H21.2284V24.5825H19.6055V24.2857H23.2321V24.5825ZM19.8042 23.6592C19.9698 23.6262 20.152 23.5932 20.3176 23.5108C20.4832 23.4449 20.6322 23.3624 20.7647 23.2635C20.8972 23.1646 20.9965 23.0657 21.0793 22.9338C21.1621 22.8184 21.1952 22.6865 21.1952 22.5546V22.5381H19.9201V22.2578H22.8513V22.5546H21.5927V22.5711C21.5927 22.703 21.6258 22.8349 21.7086 22.9503C21.7914 23.0657 21.8908 23.1811 22.0233 23.28C22.1557 23.3789 22.3048 23.4614 22.4704 23.5273C22.636 23.5932 22.8181 23.6427 22.9837 23.6757L22.8347 23.9724C22.6857 23.9395 22.5201 23.9065 22.371 23.857C22.222 23.8076 22.0895 23.7416 21.957 23.6592C21.8245 23.5768 21.7086 23.4943 21.6092 23.3954C21.5099 23.2965 21.4271 23.1811 21.3608 23.0657C21.2946 23.1811 21.2118 23.2965 21.1124 23.3954C21.0131 23.4943 20.8972 23.5768 20.7647 23.6592C20.6322 23.7416 20.4997 23.8076 20.3507 23.857C20.2016 23.9065 20.0526 23.956 19.887 23.9724L19.8042 23.6592Z" fill="url(#paint12_linear_2711_9011)"/>
<path d="M28.3503 25.1569V25.4537H24.707V25.1569H28.3503ZM28.0025 24.3161C27.8535 24.2831 27.7044 24.2336 27.5554 24.1677C27.4063 24.1018 27.2573 24.0193 27.1248 23.9204C26.9923 23.8215 26.8764 23.7061 26.7605 23.5907C26.6611 23.4588 26.5618 23.3269 26.5121 23.1785C26.4458 23.3269 26.363 23.4588 26.2637 23.5907C26.1643 23.7226 26.0318 23.8215 25.8994 23.9204C25.7669 24.0193 25.6344 24.1018 25.4854 24.1677C25.3363 24.2336 25.1873 24.2831 25.0382 24.3326L24.8726 24.0358C25.0548 24.0028 25.2204 23.9369 25.4026 23.8545C25.5682 23.772 25.7338 23.6566 25.8662 23.5412C25.9987 23.4093 26.1146 23.2774 26.1974 23.1125C26.2802 22.9477 26.3299 22.7993 26.3299 22.6179V22.3047H26.7108V22.6179C26.7108 22.7828 26.7605 22.9477 26.8433 23.1125C26.9261 23.2774 27.042 23.4093 27.1745 23.5412C27.307 23.6731 27.4726 23.772 27.6382 23.8709C27.8203 23.9534 27.9859 24.0193 28.1681 24.0523L28.0025 24.3161Z" fill="white"/>
<path d="M28.3503 25.1569V25.4537H24.707V25.1569H28.3503ZM28.0025 24.3161C27.8535 24.2831 27.7044 24.2336 27.5554 24.1677C27.4063 24.1018 27.2573 24.0193 27.1248 23.9204C26.9923 23.8215 26.8764 23.7061 26.7605 23.5907C26.6611 23.4588 26.5618 23.3269 26.5121 23.1785C26.4458 23.3269 26.363 23.4588 26.2637 23.5907C26.1643 23.7226 26.0318 23.8215 25.8994 23.9204C25.7669 24.0193 25.6344 24.1018 25.4854 24.1677C25.3363 24.2336 25.1873 24.2831 25.0382 24.3326L24.8726 24.0358C25.0548 24.0028 25.2204 23.9369 25.4026 23.8545C25.5682 23.772 25.7338 23.6566 25.8662 23.5412C25.9987 23.4093 26.1146 23.2774 26.1974 23.1125C26.2802 22.9477 26.3299 22.7993 26.3299 22.6179V22.3047H26.7108V22.6179C26.7108 22.7828 26.7605 22.9477 26.8433 23.1125C26.9261 23.2774 27.042 23.4093 27.1745 23.5412C27.307 23.6731 27.4726 23.772 27.6382 23.8709C27.8203 23.9534 27.9859 24.0193 28.1681 24.0523L28.0025 24.3161Z" fill="url(#paint13_linear_2711_9011)"/>
<path d="M28.9961 22.4035H30.8343V24.9919H28.9961V22.4035ZM29.3604 24.6952H30.4865V22.7003H29.3604V24.6952ZM32.5896 23.9038H31.9272V25.9976H31.5629V22.0078H31.9272V23.607H32.5896V23.9038Z" fill="white"/>
<path d="M28.9961 22.4035H30.8343V24.9919H28.9961V22.4035ZM29.3604 24.6952H30.4865V22.7003H29.3604V24.6952ZM32.5896 23.9038H31.9272V25.9976H31.5629V22.0078H31.9272V23.607H32.5896V23.9038Z" fill="url(#paint14_linear_2711_9011)"/>
<path d="M36.5964 25.1882V25.4849H32.9531V25.1882H36.5964ZM36.1824 24.4463H33.4334V22.3359H36.1492V22.6327H33.7977V23.2262H36.0499V23.5065H33.7977V24.1495H36.1824V24.4463Z" fill="white"/>
<path d="M36.5964 25.1882V25.4849H32.9531V25.1882H36.5964ZM36.1824 24.4463H33.4334V22.3359H36.1492V22.6327H33.7977V23.2262H36.0499V23.5065H33.7977V24.1495H36.1824V24.4463Z" fill="url(#paint15_linear_2711_9011)"/>
<path d="M38.4993 23.0638C38.4993 23.2452 38.5324 23.4265 38.5821 23.6079C38.6318 23.7893 38.7146 23.9541 38.814 24.1025C38.9133 24.2509 39.0293 24.3993 39.1617 24.5147C39.2942 24.6301 39.4267 24.729 39.5757 24.795L39.3605 25.0917C39.1286 24.9763 38.9299 24.8114 38.7477 24.5971C38.5656 24.3828 38.4331 24.119 38.3337 23.8387C38.2344 24.1355 38.1019 24.4158 37.9197 24.6466C37.7376 24.8774 37.5223 25.0587 37.2904 25.1742L37.0586 24.8774C37.2076 24.8114 37.3401 24.7125 37.4726 24.5806C37.6051 24.4487 37.721 24.3168 37.8204 24.152C37.9197 23.9871 38.0025 23.8222 38.0522 23.6244C38.1019 23.443 38.135 23.2452 38.135 23.0638V22.3384H38.4993V23.0638ZM40.3706 21.9922V25.9985H40.0063V21.9922H40.3706Z" fill="white"/>
<path d="M38.4993 23.0638C38.4993 23.2452 38.5324 23.4265 38.5821 23.6079C38.6318 23.7893 38.7146 23.9541 38.814 24.1025C38.9133 24.2509 39.0293 24.3993 39.1617 24.5147C39.2942 24.6301 39.4267 24.729 39.5757 24.795L39.3605 25.0917C39.1286 24.9763 38.9299 24.8114 38.7477 24.5971C38.5656 24.3828 38.4331 24.119 38.3337 23.8387C38.2344 24.1355 38.1019 24.4158 37.9197 24.6466C37.7376 24.8774 37.5223 25.0587 37.2904 25.1742L37.0586 24.8774C37.2076 24.8114 37.3401 24.7125 37.4726 24.5806C37.6051 24.4487 37.721 24.3168 37.8204 24.152C37.9197 23.9871 38.0025 23.8222 38.0522 23.6244C38.1019 23.443 38.135 23.2452 38.135 23.0638V22.3384H38.4993V23.0638ZM40.3706 21.9922V25.9985H40.0063V21.9922H40.3706Z" fill="url(#paint16_linear_2711_9011)"/>
<path d="M41.8263 24.729C42.0084 24.729 42.174 24.729 42.3396 24.729C42.5052 24.729 42.6543 24.7125 42.8033 24.7125C42.9524 24.696 43.1014 24.696 43.2339 24.6795C43.3829 24.6631 43.5154 24.6466 43.681 24.6136L43.7141 24.9104C43.5485 24.9433 43.3995 24.9598 43.2505 24.9763C43.1014 24.9928 42.9524 25.0093 42.8033 25.0093C42.6543 25.0258 42.4887 25.0258 42.3231 25.0258C42.1575 25.0258 41.9753 25.0258 41.7932 25.0258H41.4785V22.3549H43.4326V22.6517H41.8428V23.476H43.2836V23.7728H41.8428V24.729H41.8263ZM44.4925 21.9922V25.982H44.1281V21.9922H44.4925Z" fill="white"/>
<path d="M41.8263 24.729C42.0084 24.729 42.174 24.729 42.3396 24.729C42.5052 24.729 42.6543 24.7125 42.8033 24.7125C42.9524 24.696 43.1014 24.696 43.2339 24.6795C43.3829 24.6631 43.5154 24.6466 43.681 24.6136L43.7141 24.9104C43.5485 24.9433 43.3995 24.9598 43.2505 24.9763C43.1014 24.9928 42.9524 25.0093 42.8033 25.0093C42.6543 25.0258 42.4887 25.0258 42.3231 25.0258C42.1575 25.0258 41.9753 25.0258 41.7932 25.0258H41.4785V22.3549H43.4326V22.6517H41.8428V23.476H43.2836V23.7728H41.8428V24.729H41.8263ZM44.4925 21.9922V25.982H44.1281V21.9922H44.4925Z" fill="url(#paint17_linear_2711_9011)"/>
<path d="M48.1712 24.0201C47.9725 23.9541 47.8069 23.8552 47.6579 23.7233C47.5254 23.5914 47.4095 23.443 47.3432 23.2782C47.277 23.4595 47.1776 23.6244 47.0286 23.7728C46.8795 23.9212 46.7139 24.0366 46.5152 24.1025L46.3496 23.8222C46.4821 23.7728 46.5815 23.7068 46.6808 23.6409C46.7802 23.5584 46.863 23.476 46.9292 23.3771C46.9955 23.2782 47.0617 23.1792 47.0948 23.0803C47.1279 22.9814 47.1611 22.866 47.1611 22.7671V22.7341H46.4324V22.4538H47.1611V22.0252H47.5088V22.4538H48.2209V22.7341H47.5088V22.7671C47.5088 22.866 47.5254 22.9649 47.5751 23.0638C47.6082 23.1628 47.6744 23.2617 47.7407 23.3441C47.8069 23.4265 47.9063 23.509 48.0056 23.5749C48.105 23.6409 48.2209 23.7068 48.3534 23.7398L48.1712 24.0201ZM49.8769 25.6688V25.949H47.0783V24.9763H49.3636V24.5971H47.0783V24.3168H49.7279V25.2566H47.4426V25.6688H49.8769ZM48.8502 24.1025H48.519V22.0746H48.8668V22.899H49.3801V21.9922H49.7279V24.1355H49.3801V23.1957H48.8502V24.1025Z" fill="white"/>
<path d="M48.1712 24.0201C47.9725 23.9541 47.8069 23.8552 47.6579 23.7233C47.5254 23.5914 47.4095 23.443 47.3432 23.2782C47.277 23.4595 47.1776 23.6244 47.0286 23.7728C46.8795 23.9212 46.7139 24.0366 46.5152 24.1025L46.3496 23.8222C46.4821 23.7728 46.5815 23.7068 46.6808 23.6409C46.7802 23.5584 46.863 23.476 46.9292 23.3771C46.9955 23.2782 47.0617 23.1792 47.0948 23.0803C47.1279 22.9814 47.1611 22.866 47.1611 22.7671V22.7341H46.4324V22.4538H47.1611V22.0252H47.5088V22.4538H48.2209V22.7341H47.5088V22.7671C47.5088 22.866 47.5254 22.9649 47.5751 23.0638C47.6082 23.1628 47.6744 23.2617 47.7407 23.3441C47.8069 23.4265 47.9063 23.509 48.0056 23.5749C48.105 23.6409 48.2209 23.7068 48.3534 23.7398L48.1712 24.0201ZM49.8769 25.6688V25.949H47.0783V24.9763H49.3636V24.5971H47.0783V24.3168H49.7279V25.2566H47.4426V25.6688H49.8769ZM48.8502 24.1025H48.519V22.0746H48.8668V22.899H49.3801V21.9922H49.7279V24.1355H49.3801V23.1957H48.8502V24.1025Z" fill="url(#paint18_linear_2711_9011)"/>
<path d="M52.9406 24.2509C52.775 24.2839 52.626 24.3003 52.4769 24.3168C52.3279 24.3333 52.1789 24.3498 52.0132 24.3498C51.8642 24.3663 51.6986 24.3663 51.533 24.3663C51.3674 24.3663 51.1852 24.3663 51.0031 24.3663H50.6719V23.1463H52.1292V22.5857H50.6719V22.289H52.4935V23.443H51.0362V24.086C51.2184 24.086 51.384 24.086 51.5496 24.086C51.7152 24.086 51.8642 24.0695 52.0132 24.0695C52.1623 24.053 52.3113 24.053 52.4604 24.0366C52.6094 24.0201 52.7585 24.0036 52.9075 23.9706L52.9406 24.2509ZM53.8514 25.6193V25.9161H51.119V24.729H51.4833V25.6193H53.8514ZM53.7521 24.9433H53.3877V21.9922H53.7521V24.9433Z" fill="white"/>
<path d="M52.9406 24.2509C52.775 24.2839 52.626 24.3003 52.4769 24.3168C52.3279 24.3333 52.1789 24.3498 52.0132 24.3498C51.8642 24.3663 51.6986 24.3663 51.533 24.3663C51.3674 24.3663 51.1852 24.3663 51.0031 24.3663H50.6719V23.1463H52.1292V22.5857H50.6719V22.289H52.4935V23.443H51.0362V24.086C51.2184 24.086 51.384 24.086 51.5496 24.086C51.7152 24.086 51.8642 24.0695 52.0132 24.0695C52.1623 24.053 52.3113 24.053 52.4604 24.0366C52.6094 24.0201 52.7585 24.0036 52.9075 23.9706L52.9406 24.2509ZM53.8514 25.6193V25.9161H51.119V24.729H51.4833V25.6193H53.8514ZM53.7521 24.9433H53.3877V21.9922H53.7521V24.9433Z" fill="url(#paint19_linear_2711_9011)"/>
<path d="M56.0022 23.2114C56.0022 23.3762 56.0353 23.5411 56.085 23.7224C56.1347 23.8873 56.2175 24.0522 56.3169 24.1841C56.4162 24.316 56.5321 24.4644 56.6646 24.5633C56.7971 24.6787 56.9296 24.7611 57.0786 24.8271L56.8799 25.1238C56.764 25.0744 56.6481 25.0084 56.5487 24.926C56.4493 24.8436 56.35 24.7446 56.2506 24.6457C56.1513 24.5468 56.085 24.4314 56.0022 24.2995C55.9194 24.1676 55.8697 24.0357 55.8201 23.9038C55.7704 24.0522 55.7207 24.1841 55.6379 24.316C55.5551 24.4479 55.4889 24.5798 55.3895 24.6952C55.3067 24.8106 55.2073 24.9095 55.0914 25.0084C54.992 25.1073 54.8761 25.1733 54.7602 25.2227L54.5449 24.926C54.694 24.86 54.8264 24.7611 54.9589 24.6457C55.0914 24.5303 55.2073 24.3819 55.3067 24.2335C55.4061 24.0852 55.4889 23.9203 55.5385 23.7389C55.5882 23.5576 55.6213 23.3927 55.6213 23.2114V22.7003H54.694V22.42H56.9461V22.7167H56.0022V23.2114ZM57.857 22.0078V25.9976H57.4926V22.0078H57.857Z" fill="white"/>
<path d="M56.0022 23.2114C56.0022 23.3762 56.0353 23.5411 56.085 23.7224C56.1347 23.8873 56.2175 24.0522 56.3169 24.1841C56.4162 24.316 56.5321 24.4644 56.6646 24.5633C56.7971 24.6787 56.9296 24.7611 57.0786 24.8271L56.8799 25.1238C56.764 25.0744 56.6481 25.0084 56.5487 24.926C56.4493 24.8436 56.35 24.7446 56.2506 24.6457C56.1513 24.5468 56.085 24.4314 56.0022 24.2995C55.9194 24.1676 55.8697 24.0357 55.8201 23.9038C55.7704 24.0522 55.7207 24.1841 55.6379 24.316C55.5551 24.4479 55.4889 24.5798 55.3895 24.6952C55.3067 24.8106 55.2073 24.9095 55.0914 25.0084C54.992 25.1073 54.8761 25.1733 54.7602 25.2227L54.5449 24.926C54.694 24.86 54.8264 24.7611 54.9589 24.6457C55.0914 24.5303 55.2073 24.3819 55.3067 24.2335C55.4061 24.0852 55.4889 23.9203 55.5385 23.7389C55.5882 23.5576 55.6213 23.3927 55.6213 23.2114V22.7003H54.694V22.42H56.9461V22.7167H56.0022V23.2114ZM57.857 22.0078V25.9976H57.4926V22.0078H57.857Z" fill="url(#paint20_linear_2711_9011)"/>
<defs>
<linearGradient id="paint0_linear_2711_9011" x1="7.37755" y1="0" x2="7.37755" y2="20.0315" gradientUnits="userSpaceOnUse">
<stop stop-color="white"/>
<stop offset="1" stop-color="white" stop-opacity="0"/>
</linearGradient>
<linearGradient id="paint1_linear_2711_9011" x1="54.4321" y1="5.88672" x2="54.4321" y2="15.614" gradientUnits="userSpaceOnUse">
<stop stop-color="white"/>
<stop offset="1" stop-color="white" stop-opacity="0"/>
</linearGradient>
<linearGradient id="paint2_linear_2711_9011" x1="39.3128" y1="6.25781" x2="39.3128" y2="15.5615" gradientUnits="userSpaceOnUse">
<stop stop-color="white"/>
<stop offset="1" stop-color="white" stop-opacity="0"/>
</linearGradient>
<linearGradient id="paint3_linear_2711_9011" x1="22.8259" y1="5.72656" x2="22.8259" y2="14.5621" gradientUnits="userSpaceOnUse">
<stop stop-color="white"/>
<stop offset="1" stop-color="white" stop-opacity="0"/>
</linearGradient>
<linearGradient id="paint4_linear_2711_9011" x1="14.0845" y1="6.92578" x2="14.0845" y2="8.1623" gradientUnits="userSpaceOnUse">
<stop stop-color="white"/>
<stop offset="1" stop-color="white" stop-opacity="0"/>
</linearGradient>
<linearGradient id="paint5_linear_2711_9011" x1="45.5786" y1="6.92578" x2="45.5786" y2="8.1623" gradientUnits="userSpaceOnUse">
<stop stop-color="white"/>
<stop offset="1" stop-color="white" stop-opacity="0"/>
</linearGradient>
<linearGradient id="paint6_linear_2711_9011" x1="32.1509" y1="11.7852" x2="32.1509" y2="13.0052" gradientUnits="userSpaceOnUse">
<stop stop-color="white"/>
<stop offset="1" stop-color="white" stop-opacity="0"/>
</linearGradient>
<linearGradient id="paint7_linear_2711_9011" x1="4.88297" y1="22.3242" x2="4.88297" y2="25.6711" gradientUnits="userSpaceOnUse">
<stop stop-color="white"/>
<stop offset="1" stop-color="white" stop-opacity="0"/>
</linearGradient>
<linearGradient id="paint8_linear_2711_9011" x1="7.54874" y1="22.3359" x2="7.54874" y2="25.7322" gradientUnits="userSpaceOnUse">
<stop stop-color="white"/>
<stop offset="1" stop-color="white" stop-opacity="0"/>
</linearGradient>
<linearGradient id="paint9_linear_2711_9011" x1="10.2223" y1="22.3242" x2="10.2223" y2="25.6711" gradientUnits="userSpaceOnUse">
<stop stop-color="white"/>
<stop offset="1" stop-color="white" stop-opacity="0"/>
</linearGradient>
<linearGradient id="paint10_linear_2711_9011" x1="12.9003" y1="22.3359" x2="12.9003" y2="25.7322" gradientUnits="userSpaceOnUse">
<stop stop-color="white"/>
<stop offset="1" stop-color="white" stop-opacity="0"/>
</linearGradient>
<linearGradient id="paint11_linear_2711_9011" x1="17.128" y1="21.9922" x2="17.128" y2="25.9985" gradientUnits="userSpaceOnUse">
<stop stop-color="white"/>
<stop offset="1" stop-color="white" stop-opacity="0"/>
</linearGradient>
<linearGradient id="paint12_linear_2711_9011" x1="21.4188" y1="22.2578" x2="21.4188" y2="26.0003" gradientUnits="userSpaceOnUse">
<stop stop-color="white"/>
<stop offset="1" stop-color="white" stop-opacity="0"/>
</linearGradient>
<linearGradient id="paint13_linear_2711_9011" x1="26.5286" y1="22.3047" x2="26.5286" y2="25.4537" gradientUnits="userSpaceOnUse">
<stop stop-color="white"/>
<stop offset="1" stop-color="white" stop-opacity="0"/>
</linearGradient>
<linearGradient id="paint14_linear_2711_9011" x1="30.7929" y1="22.0078" x2="30.7929" y2="25.9976" gradientUnits="userSpaceOnUse">
<stop stop-color="white"/>
<stop offset="1" stop-color="white" stop-opacity="0"/>
</linearGradient>
<linearGradient id="paint15_linear_2711_9011" x1="34.7747" y1="22.3359" x2="34.7747" y2="25.4849" gradientUnits="userSpaceOnUse">
<stop stop-color="white"/>
<stop offset="1" stop-color="white" stop-opacity="0"/>
</linearGradient>
<linearGradient id="paint16_linear_2711_9011" x1="38.7146" y1="21.9922" x2="38.7146" y2="25.9985" gradientUnits="userSpaceOnUse">
<stop stop-color="white"/>
<stop offset="1" stop-color="white" stop-opacity="0"/>
</linearGradient>
<linearGradient id="paint17_linear_2711_9011" x1="42.9855" y1="21.9922" x2="42.9855" y2="25.982" gradientUnits="userSpaceOnUse">
<stop stop-color="white"/>
<stop offset="1" stop-color="white" stop-opacity="0"/>
</linearGradient>
<linearGradient id="paint18_linear_2711_9011" x1="48.1133" y1="21.9922" x2="48.1133" y2="25.949" gradientUnits="userSpaceOnUse">
<stop stop-color="white"/>
<stop offset="1" stop-color="white" stop-opacity="0"/>
</linearGradient>
<linearGradient id="paint19_linear_2711_9011" x1="52.2617" y1="21.9922" x2="52.2617" y2="25.9161" gradientUnits="userSpaceOnUse">
<stop stop-color="white"/>
<stop offset="1" stop-color="white" stop-opacity="0"/>
</linearGradient>
<linearGradient id="paint20_linear_2711_9011" x1="56.2009" y1="22.0078" x2="56.2009" y2="25.9976" gradientUnits="userSpaceOnUse">
<stop stop-color="white"/>
<stop offset="1" stop-color="white" stop-opacity="0"/>
</linearGradient>
</defs>
</svg>
