<svg width="18" height="20" viewBox="0 0 18 20" fill="none" xmlns="http://www.w3.org/2000/svg">
<path d="M3.72193 14.6046H14.2803C15.0171 14.6039 15.7232 14.3107 16.2439 13.7898C16.7646 13.2688 17.0573 12.5625 17.0578 11.8258C17.0583 11.0893 16.7665 10.3827 16.2465 9.86084L14.7583 8.3698V6.25715C14.7583 4.2003 13.6609 2.29972 11.8797 1.27141C10.0985 0.242863 7.90401 0.242863 6.12281 1.27141C4.3416 2.29972 3.24424 4.20036 3.24424 6.25715V8.37004L1.75607 9.85822V9.85799C1.23467 10.3796 0.941895 11.0867 0.941895 11.8242C0.941895 12.5616 1.23464 13.2687 1.75607 13.7903C2.27746 14.3117 2.98477 14.6047 3.72223 14.6047L3.72193 14.6046ZM3.38501 11.4872L4.87319 9.99899C5.30484 9.56687 5.54726 8.98066 5.54678 8.36974V6.35471V6.35494C5.53609 5.48309 5.84926 4.63835 6.42574 3.98446C7.00222 3.33032 7.80093 2.91342 8.66707 2.81441C9.63745 2.72015 10.6026 3.04044 11.3241 3.69623C12.0457 4.35176 12.4564 5.28202 12.4552 6.25715V8.37004V8.3698C12.4548 8.98072 12.6969 9.5669 13.1288 9.99905L14.617 11.4872C14.7241 11.591 14.7765 11.7394 14.758 11.8873C14.7165 12.1328 14.4999 12.3097 14.2513 12.3018H3.7507C3.50187 12.3097 3.28558 12.1328 3.24403 11.8873C3.22551 11.7394 3.27775 11.591 3.38506 11.4872L3.38501 11.4872Z" fill="#4F5866"/>
<path d="M9.91382 16.9563C9.34684 17.2737 8.6557 17.2737 8.08873 16.9563C7.79764 16.6654 7.37357 16.5517 6.97588 16.6581C6.57842 16.7647 6.2679 17.0752 6.16129 17.4727C6.05492 17.8704 6.16841 18.2945 6.45949 18.5855C7.1597 19.2026 8.06881 19.5289 9.00114 19.498C9.93377 19.5289 10.8429 19.2026 11.543 18.5855C11.8339 18.2944 11.9476 17.8704 11.841 17.4727C11.7346 17.0752 11.4241 16.7647 11.0264 16.6581C10.6289 16.5517 10.2046 16.6654 9.91379 16.9563H9.91382Z" fill="#4F5866"/>
</svg>
