<svg width="18" height="18" viewBox="0 0 18 18" fill="none" xmlns="http://www.w3.org/2000/svg">
<path d="M14.6235 15.6608C14.6726 15.7153 14.6944 15.789 14.6862 15.8627C14.6807 15.9364 14.6426 16.0045 14.5852 16.0508C12.979 17.3216 11.048 17.9953 9.00003 17.9953C4.03643 17.9953 0 13.9588 0 8.99511C0 4.14593 3.94363 0.112269 8.79 0.000603824C8.85818 -0.00490769 8.93456 0.0278462 8.98636 0.0769758C9.03817 0.128785 9.06809 0.199647 9.06809 0.273342V3.2434C9.06809 3.39063 8.95077 3.51063 8.80622 3.51614C5.8362 3.62243 3.51247 6.02797 3.51247 8.99541C3.51247 12.0228 5.97242 14.4856 8.99972 14.4856C10.2106 14.4856 11.3616 14.0928 12.3297 13.351C12.4442 13.261 12.6106 13.2801 12.7033 13.3919L14.6235 15.6608Z" fill="#4F5866"/>
<path d="M17.9999 8.99508C17.9999 11.3652 17.0836 13.6044 15.4226 15.298C15.3708 15.3498 15.3 15.3798 15.229 15.3798H15.2181C15.1417 15.3772 15.068 15.3417 15.0191 15.2844L13.0882 13.0017C13.001 12.8981 13.001 12.7453 13.0937 12.6417C13.9936 11.6327 14.4873 10.3371 14.4873 8.99533C14.4873 8.80983 14.4791 8.62449 14.46 8.43898C14.4463 8.29993 14.5391 8.17443 14.6755 8.14451L17.5855 7.52817C17.6592 7.51447 17.7382 7.52817 17.8009 7.57179C17.8609 7.61541 17.9018 7.68359 17.9127 7.75729C17.9699 8.17428 18 8.59156 18 8.99517L17.9999 8.99508Z" fill="#4F5866"/>
<path d="M9.61333 3.30865V0.311341C9.61333 0.234969 9.64609 0.16127 9.70341 0.109465C9.76073 0.0576551 9.83426 0.0330925 9.91347 0.0412799C13.6034 0.412122 16.7262 3.07132 17.6916 6.65493C17.7107 6.72579 17.6998 6.805 17.6589 6.86767C17.6208 6.93318 17.5579 6.97679 17.4844 6.99317L14.5744 7.60951C14.5553 7.61219 14.5363 7.61502 14.5171 7.61502C14.3997 7.61502 14.2908 7.53597 14.2552 7.41866C13.6552 5.40872 11.9234 3.90047 9.84507 3.57858C9.71154 3.55669 9.61328 3.44205 9.61328 3.30852L9.61333 3.30865Z" fill="#4F5866"/>
</svg>
