<svg width="48" height="49" viewBox="0 0 48 49" fill="none" xmlns="http://www.w3.org/2000/svg">
<path d="M35.5088 18.0605C35.5088 18.0605 35.4093 23.6124 33.7275 25.9535C33.7275 25.9535 32.3908 20.5941 29.9368 17.7651C26.9683 14.3403 24.1251 11.1799 24.9599 6.5957C24.9599 6.5957 20.0355 8.23576 19.195 12.3211C18.5404 15.4986 18.4707 18.6823 17.0872 21.7304C16.8637 22.2228 16.5768 22.6658 15.9739 22.8235C15.4526 22.0608 15.4384 20.9581 15.0562 20.1036L15.0559 20.1039C14.5228 18.8951 13.7262 17.7887 12.7104 16.8464C12.7104 16.8644 12.7093 21.8849 11.329 23.8259C6.87534 30.0882 10.7875 42.5483 20.5389 42.5753C20.5389 42.5753 20.7036 42.5753 20.9809 42.5762C17.6876 41.359 16.5574 36.6571 18.3577 34.1257C19.0002 33.2219 19.0016 30.8883 19.0016 30.8704V30.871C19.4752 31.3103 19.8471 31.8263 20.0957 32.3901C20.2735 32.7888 20.2806 33.3032 20.5232 33.6588C20.7797 33.5719 20.9727 33.382 21.0422 33.1487C21.6882 31.7273 21.7208 30.2427 22.0258 28.7602C22.4172 26.8549 24.7149 26.09 24.7149 26.09C24.3256 28.2278 25.6517 29.7019 27.0352 31.2989C28.18 32.6194 28.803 35.118 28.803 35.118C29.5872 34.0271 29.6343 31.4379 29.6343 31.4379C32.0556 34.2312 32.428 39.5873 28.8657 41.8098C28.3709 42.1197 27.84 42.3828 27.2817 42.5948C27.4089 42.5957 27.4811 42.5957 27.4822 42.5957C29.6032 42.601 32.2133 41.327 33.8599 40.3C41.4975 35.5352 40.6988 24.0527 35.5088 18.0606L35.5088 18.0605Z" fill="#BDBDBD"/>
</svg>
