<svg width="48" height="49" viewBox="0 0 48 49" fill="none" xmlns="http://www.w3.org/2000/svg">
<path d="M40.9964 15.7481C40.9964 15.7481 32.4881 14.6631 24 6.5957C15.512 14.6107 7.00358 15.6958 7.00358 15.6958C7.00358 15.6958 6.31625 35.9783 24 41.5957C41.6837 35.978 40.9964 15.7481 40.9964 15.7481ZM25.354 32.7235V32.7232C26.1369 32.3147 26.6158 31.581 26.6158 30.7894C26.6158 29.9981 26.1369 29.2644 25.354 28.8559C23.0095 27.491 23.03 26.0911 23.03 26.0911V26.0907C21.7321 27.449 21.1204 29.2024 21.3321 30.9556C21.4621 31.6654 21.9222 32.298 22.6056 32.7057C20.8964 32.4265 19.3445 31.6591 18.198 30.5267C17.0514 29.3942 16.376 27.9621 16.28 26.4582C16.4592 24.3509 17.5658 22.3839 19.3718 20.9631C19.8959 20.4643 20.3756 19.9322 20.8069 19.3706C21.615 18.4668 22.0303 17.3454 21.9791 16.2032C22.7052 16.4512 23.3605 16.8337 23.899 17.3232C24.834 18.0736 25.5301 19.0197 25.9197 20.0707C26.4134 21.6431 26.5439 23.2845 26.3038 24.9006C26.3038 24.9006 26.3038 25.6531 26.8091 25.8807C27.9005 26.3183 29.396 23.8856 28.2642 20.7358L28.5066 20.9108C30.4322 22.2896 31.5624 24.3301 31.5988 26.4931C31.5023 27.9839 30.8366 29.4049 29.7064 30.5325C28.5758 31.6602 27.0451 32.4306 25.354 32.723L25.354 32.7235Z" fill="#0051C7"/>
</svg>
