<svg width="16" height="18" viewBox="0 0 16 18" fill="none" xmlns="http://www.w3.org/2000/svg">
<path d="M15.2403 8.10099V16.3681C15.2403 16.5418 15.1713 16.7084 15.0485 16.8312C14.9256 16.954 14.7591 17.023 14.5854 17.023H10.4361C10.2624 17.023 10.0959 16.954 9.97297 16.8312C9.85021 16.7084 9.78119 16.5418 9.78119 16.3681V12.15H6.2183V16.3681C6.2183 16.5418 6.14928 16.7084 6.02638 16.8312C5.90361 16.954 5.73695 17.023 5.56325 17.023H1.41432C1.24064 17.023 1.07397 16.954 0.951194 16.8312C0.828292 16.7084 0.759277 16.5418 0.759277 16.3681V8.10099C0.759277 7.92542 0.829913 7.757 0.955245 7.63382L7.54099 1.1646C7.66362 1.04426 7.82839 0.977005 8.00004 0.977005C8.17168 0.977005 8.3366 1.0444 8.45894 1.16473L15.0443 7.63396C15.1697 7.75713 15.2403 7.92527 15.2403 8.10099Z" fill="#4F5866"/>
</svg>
