<svg width="16" height="17" viewBox="0 0 16 17" fill="none" xmlns="http://www.w3.org/2000/svg">
<path d="M9.32608 0.228464C7.85593 0.348937 6.47619 0.987512 5.43303 2.03067C4.39003 3.07389 3.7513 4.45336 3.63082 5.92372C3.58889 6.45394 3.61677 6.98753 3.7134 7.51075L0.451675 10.7725C0.161983 11.063 -0.000424191 11.4566 8.32122e-07 11.8667V14.6615C8.32122e-07 15.0721 0.163046 15.4659 0.453588 15.7562C0.743917 16.0465 1.13771 16.2098 1.5483 16.2098H4.34304C4.75364 16.2094 5.14721 16.0461 5.43732 15.7556L5.58951 15.6034L8.69905 12.4963C9.22224 12.593 9.75566 12.6206 10.2861 12.5789C12.4923 12.4074 14.4395 11.0719 15.3941 9.07559C16.3485 7.07924 16.1657 4.7251 14.9141 2.90022C13.6623 1.07524 11.5323 0.0567061 9.32614 0.228296L9.32608 0.228464ZM13.9118 6.85283C13.813 7.71874 13.4443 8.53162 12.8579 9.17635C12.2717 9.82108 11.4974 10.2649 10.6447 10.4449C9.79219 10.6246 8.9046 10.5252 8.11324 10.1612L7.22543 11.0488H6.15203C6.02602 11.0488 5.90533 11.0988 5.81614 11.188C5.72717 11.277 5.67715 11.3979 5.67715 11.5237V12.5973H4.60375C4.47774 12.5973 4.35705 12.6473 4.26786 12.7363C4.17889 12.8253 4.12887 12.9462 4.12887 13.072V14.1456H2.0644V12.0811L6.04878 8.09673C5.6848 7.30537 5.58519 6.41756 5.76484 5.56528C6.05538 4.16685 7.04791 3.01787 8.3893 2.52745C9.73069 2.03683 11.2303 2.27437 12.3543 3.15534C13.4786 4.03634 14.0676 5.43587 13.9118 6.85534L13.9118 6.85283Z" fill="#4F5866"/>
<path d="M11.8708 5.37182C11.8708 5.94206 11.4087 6.40414 10.8385 6.40414C10.2685 6.40414 9.8064 5.94203 9.8064 5.37182C9.8064 4.8018 10.2685 4.33972 10.8385 4.33972C11.4087 4.33972 11.8708 4.80183 11.8708 5.37182Z" fill="#4F5866"/>
</svg>
