<svg width="20" height="20" viewBox="0 0 20 20" fill="none" xmlns="http://www.w3.org/2000/svg">
<path d="M10 0C4.48411 0 0 4.48411 0 10C0 15.5159 4.48411 20 10 20C15.5159 20 20 15.5154 20 10C20 4.48455 15.5154 0 10 0ZM10 18.5472C5.28429 18.5472 1.45277 14.7157 1.45277 10C1.45277 5.28433 5.28433 1.45277 10 1.45277C14.7157 1.45277 18.5472 5.28433 18.5472 10C18.5472 14.7157 14.7157 18.5472 10 18.5472Z" fill="#0051C7"/>
<path d="M8.04211 7.64215C8.04211 8.35133 7.46714 8.9263 6.75796 8.9263C6.04878 8.9263 5.47363 8.35133 5.47363 7.64215C5.47363 6.93279 6.04878 6.35782 6.75796 6.35782C7.46714 6.35782 8.04211 6.93279 8.04211 7.64215Z" fill="#0051C7"/>
<path d="M14.3162 6.31561C14.1477 6.06295 13.7898 5.97873 13.5372 6.14717L11.9792 7.15762C11.8108 7.26285 11.7266 7.4523 11.7266 7.64177C11.7266 7.83124 11.8318 8.02067 11.9792 8.12592L13.5372 9.13637C13.6424 9.19958 13.7477 9.22059 13.8531 9.22059C14.0425 9.22059 14.232 9.13637 14.3372 8.96793C14.5057 8.69426 14.4425 8.35739 14.1688 8.18895L13.3478 7.66261L14.1688 7.13628C14.4215 6.92616 14.4847 6.56828 14.3162 6.3156L14.3162 6.31561Z" fill="#0051C7"/>
<path d="M13.5368 11.7475C13.1789 11.579 12.7368 11.7265 12.5683 12.0844C12.0842 13.0738 11.1158 13.6844 9.9999 13.6844C8.90521 13.6844 7.91575 13.0738 7.43147 12.0844C7.26302 11.7265 6.82093 11.5791 6.46303 11.7475C6.10514 11.9159 5.95772 12.358 6.12615 12.7159C6.84195 14.1897 8.33673 15.1159 9.97874 15.1159C11.6211 15.1159 13.1369 14.2107 13.8527 12.7159C14.0422 12.358 13.8947 11.937 13.5368 11.7475H13.5368Z" fill="#0051C7"/>
</svg>
