<svg width="20" height="20" viewBox="0 0 20 20" fill="none" xmlns="http://www.w3.org/2000/svg">
<path d="M8.5573 0.712662C6.05497 0.712662 3.70783 1.90887 2.24005 3.93271C0.772275 5.95656 0.358452 8.55587 1.13437 10.9353C1.90382 13.3148 3.77248 15.177 6.1455 15.9465C8.52497 16.7159 10.8915 16.509 12.9089 15.0412L16.795 18.9273C17.1053 19.2376 17.5579 19.3605 17.9782 19.2441C18.3985 19.1277 19.0968 18.4359 19.2068 18.0156C19.3231 17.5953 19.2003 17.1427 18.8899 16.8323L15.0039 12.9463C16.1419 11.388 16.5298 9.62275 16.3229 7.70236C16.1225 5.78197 15.2108 4.00384 13.7753 2.71711C12.3399 1.43038 10.4906 0.712662 8.5573 0.712662ZM8.5573 13.664C7.19298 13.664 5.88686 13.1208 4.92343 12.1574C3.96 11.194 3.41686 9.88786 3.41686 8.52354C3.41686 7.15922 3.96 5.8531 4.92343 4.88967C5.88686 3.92624 7.19298 3.3831 8.5573 3.3831C9.92162 3.3831 11.2277 3.92624 12.1912 4.88967C13.1546 5.8531 13.6978 7.15922 13.6978 8.52354C13.6978 9.88786 13.1546 11.194 12.1912 12.1574C11.2277 13.1208 9.92162 13.664 8.5573 13.664Z" fill="#4F5866"/>
</svg>
