<svg width="20" height="20" viewBox="0 0 20 20" fill="none" xmlns="http://www.w3.org/2000/svg">
<path d="M10 0C4.48411 0 0 4.48411 0 10C0 15.5159 4.48411 20 10 20C15.5159 20 20 15.5154 20 10C20 4.48455 15.5154 0 10 0ZM10 18.5472C5.28429 18.5472 1.45277 14.7157 1.45277 10C1.45277 5.28433 5.28433 1.45277 10 1.45277C14.7157 1.45277 18.5472 5.28433 18.5472 10C18.5472 14.7157 14.7157 18.5472 10 18.5472Z" fill="#DF0C25"/>
<path d="M8.25282 8.08446C8.25282 7.57915 7.95813 7.13705 7.51603 6.92656C7.8319 6.71609 8.12656 6.50546 8.35804 6.295C8.5685 6.10555 8.58968 5.76866 8.40006 5.55821C8.21061 5.34775 7.87372 5.32656 7.66328 5.51619C7.38961 5.76885 7.03171 6.0215 6.65283 6.25297C6.52659 6.33719 6.40017 6.4004 6.27393 6.46344C6.00008 6.63171 5.7896 6.73711 5.57915 6.82133C5.20025 6.98977 4.82116 7.1372 4.48446 7.22125C4.21079 7.28446 4.04235 7.57914 4.10556 7.85281C4.16877 8.08446 4.37923 8.25272 4.61087 8.25272C4.6529 8.25272 4.69509 8.25272 4.73712 8.23171C5.0318 8.1685 5.36868 8.04226 5.70555 7.89483C5.70555 7.95804 5.68454 8.02107 5.68454 8.08428C5.68454 8.80009 6.27409 9.36844 6.96869 9.36844C7.68432 9.38962 8.25284 8.80026 8.25284 8.08446L8.25282 8.08446Z" fill="#DF0C25"/>
<path d="M15.5162 7.22115C15.1793 7.13693 14.8004 7.01068 14.4215 6.82123C14.2321 6.73701 14.0004 6.63178 13.7057 6.46334C13.5795 6.40013 13.4531 6.31591 13.3268 6.25287C12.9269 6.02123 12.59 5.76872 12.3164 5.51609C12.1059 5.32664 11.7691 5.34765 11.5796 5.55811C11.3901 5.76857 11.4112 6.10543 11.6216 6.2949C11.8533 6.50536 12.148 6.716 12.4636 6.92646C12.0215 7.13692 11.7268 7.57905 11.7268 8.08436C11.7268 8.80016 12.3164 9.36851 13.011 9.36851C13.7058 9.36851 14.2951 8.77896 14.2951 8.08436C14.2951 8.02115 14.2951 7.95812 14.2741 7.89491C14.611 8.04234 14.9479 8.14757 15.2426 8.23179C15.2846 8.23179 15.3268 8.2528 15.3688 8.2528C15.6005 8.2528 15.8109 8.08436 15.8741 7.85288C15.9583 7.57904 15.7899 7.28436 15.5162 7.22114L15.5162 7.22115Z" fill="#DF0C25"/>
<path d="M10.0002 11.2421C8.3792 11.2421 6.86344 12.1895 6.14764 13.6421C5.9792 14 6.12663 14.4421 6.48452 14.6105C6.84241 14.7789 7.28452 14.6315 7.45295 14.2736C7.91608 13.3052 8.9267 12.6736 10.0214 12.6736C11.1161 12.6736 12.1055 13.2842 12.5898 14.2736C12.7161 14.5263 12.9687 14.6735 13.2424 14.6735C13.3477 14.6735 13.4529 14.6525 13.5583 14.5893C13.9162 14.4209 14.0636 13.9788 13.8952 13.6209C13.1372 12.1895 11.6214 11.242 10.0002 11.242L10.0002 11.2421Z" fill="#DF0C25"/>
</svg>
