<svg width="20" height="20" viewBox="0 0 20 20" fill="none" xmlns="http://www.w3.org/2000/svg">
<path d="M10 0C4.48411 0 0 4.48411 0 10C0 15.5159 4.48411 20 10 20C15.5159 20 20 15.5154 20 10C20 4.48455 15.5154 0 10 0ZM10 18.5472C5.28429 18.5472 1.45277 14.7157 1.45277 10C1.45277 5.28433 5.28433 1.45277 10 1.45277C14.7157 1.45277 18.5472 5.28433 18.5472 10C18.5472 14.7157 14.7157 18.5472 10 18.5472Z" fill="#F1790A"/>
<path d="M8.04211 7.64215C8.04211 8.35133 7.46714 8.9263 6.75796 8.9263C6.04878 8.9263 5.47363 8.35133 5.47363 7.64215C5.47363 6.93279 6.04878 6.35782 6.75796 6.35782C7.46714 6.35782 8.04211 6.93279 8.04211 7.64215Z" fill="#F1790A"/>
<path d="M14.526 7.64215C14.526 8.35133 13.951 8.9263 13.2419 8.9263C12.5325 8.9263 11.9575 8.35133 11.9575 7.64215C11.9575 6.93279 12.5325 6.35782 13.2419 6.35782C13.951 6.35782 14.526 6.93279 14.526 7.64215Z" fill="#F1790A"/>
<path d="M6.7583 12.2529H13.2215V13.7055H6.7583V12.2529Z" fill="#F1790A"/>
</svg>
