<svg width="20" height="22" viewBox="0 0 20 22" fill="none" xmlns="http://www.w3.org/2000/svg">
<path d="M14.7749 14.7755L20 20.25L19.5 21.25L14.0254 15.525C12.4195 16.9705 10.4387 17.6661 8.45804 17.6661C6.3169 17.6661 4.12186 16.8096 2.51594 15.2037H2.46246V15.1502C0.856531 13.5443 0 11.3492 0 9.20807C0 7.06694 0.856464 4.8719 2.46246 3.21245C4.1219 1.60653 6.31694 0.75 8.45808 0.75C10.5992 0.75 12.7943 1.60646 14.4002 3.21245C16.0596 4.8719 16.8626 7.01342 16.9161 9.15455C16.9161 11.1353 16.22 13.1696 14.7749 14.7755ZM8.45795 1.82028C6.58423 1.82028 4.65699 2.56978 3.26534 4.01532C1.81979 5.40735 1.0703 7.33421 1.0703 9.20793C1.0703 11.0817 1.8198 12.9555 3.26534 14.4005C4.65737 15.8461 6.58423 16.5956 8.45795 16.5956C10.3317 16.5956 12.2055 15.8461 13.6506 14.4544V14.401L13.7575 14.3475C15.1496 12.9019 15.8452 11.0286 15.8452 9.15487C15.7918 7.28115 15.0957 5.40733 13.6502 4.01568C12.2047 2.57013 10.3317 1.82028 8.45795 1.82028Z" fill="#4F5866"/>
<path fill-rule="evenodd" clip-rule="evenodd" d="M5.45358 8.67656C5.74642 8.96903 5.74642 9.44365 5.45358 9.73647C5.1611 10.0289 4.68649 10.0289 4.39367 9.73647C4.1012 9.44362 4.1012 8.96901 4.39367 8.67656C4.68652 8.38371 5.16113 8.38371 5.45358 8.67656Z" fill="#4F5866"/>
<path fill-rule="evenodd" clip-rule="evenodd" d="M8.98608 8.67656C9.27856 8.96903 9.27856 9.44365 8.98608 9.73647C8.69324 10.0289 8.21862 10.0289 7.92618 9.73647C7.63333 9.44362 7.63333 8.96901 7.92618 8.67656C8.21865 8.38371 8.69327 8.38371 8.98608 8.67656Z" fill="#4F5866"/>
<path fill-rule="evenodd" clip-rule="evenodd" d="M12.5188 8.67656C12.8116 8.96903 12.8116 9.44365 12.5188 9.73647C12.2259 10.0289 11.7517 10.0289 11.4589 9.73647C11.166 9.44362 11.166 8.96901 11.4589 8.67656C11.7517 8.38371 12.226 8.38371 12.5188 8.67656Z" fill="#4F5866"/>
</svg>
