<svg width="20" height="20" viewBox="0 0 20 20" fill="none" xmlns="http://www.w3.org/2000/svg">
<path d="M15.4208 13.1014L14.8221 12.6906H14.8223C14.1821 12.2541 13.4965 11.8924 12.7778 11.6118C13.4992 10.7309 13.8935 9.61749 13.8913 8.46788V6.15708C13.8913 3.51872 11.9157 1.25393 9.34453 1.11921C8.03407 1.05121 6.75369 1.53678 5.80242 2.46242C4.8514 3.38808 4.31296 4.6726 4.31296 6.01634V8.46794C4.31247 9.61826 4.70897 10.7317 5.43262 11.6119C4.71393 11.8924 4.0283 12.2541 3.38811 12.6907L2.7894 13.1014C1.49815 13.9795 0.721697 15.4613 0.721191 17.0484C0.721191 17.6985 0.973513 18.3221 1.42262 18.7819C1.87172 19.2416 2.48078 19.5 3.11578 19.5H15.0884C15.7234 19.5 16.3325 19.2417 16.7816 18.7819C17.2307 18.3221 17.483 17.6985 17.483 17.0484C17.4838 15.4623 16.7098 13.9811 15.4205 13.1014L15.4208 13.1014ZM6.70754 6.01645C6.70754 5.14036 7.16404 4.33124 7.90493 3.89323C8.64587 3.45544 9.55859 3.45544 10.2995 3.89323C11.0405 4.33128 11.4967 5.14036 11.4967 6.01645V8.46805C11.4967 9.34388 11.0404 10.1533 10.2995 10.5911C9.55859 11.0291 8.64587 11.0291 7.90493 10.5911C7.164 10.1533 6.70754 9.34394 6.70754 8.46805V6.01645ZM3.11581 17.0486C3.11557 16.2824 3.48961 15.5671 4.11253 15.1425L4.71124 14.7317C6.01014 13.8453 7.53638 13.3721 9.09769 13.3721C10.659 13.3721 12.1853 13.8452 13.4841 14.7317L14.0828 15.1425C14.7092 15.5648 15.0867 16.2807 15.0887 17.0486H3.11581Z" fill="#4F5866"/>
<path d="M19.2788 6.01646C19.2788 6.69337 18.7428 7.2421 18.0814 7.2421C17.4202 7.2421 16.8843 6.69334 16.8843 6.01646C16.8843 5.33928 17.4203 4.79056 18.0814 4.79056C18.7428 4.79056 19.2788 5.33932 19.2788 6.01646Z" fill="#4F5866"/>
<path d="M19.2788 1.72564C19.2788 2.40281 18.7428 2.95154 18.0814 2.95154C17.4202 2.95154 16.8843 2.40278 16.8843 1.72564C16.8843 1.04873 17.4203 0.5 18.0814 0.5C18.7428 0.5 19.2788 1.04876 19.2788 1.72564Z" fill="#4F5866"/>
<path d="M19.2788 10.3066C19.2788 10.9835 18.7428 11.5323 18.0814 11.5323C17.4202 11.5323 16.8843 10.9835 16.8843 10.3066C16.8843 9.62944 17.4203 9.08072 18.0814 9.08072C18.7428 9.08072 19.2788 9.62948 19.2788 10.3066Z" fill="#4F5866"/>
</svg>
