<svg width="48" height="49" viewBox="0 0 48 49" fill="none" xmlns="http://www.w3.org/2000/svg">
<path d="M12.5523 36.8695C12.5424 36.9713 12.5822 37.0827 12.6519 37.1639C12.7216 37.2451 12.8208 37.2857 12.9303 37.2857H35.0681C35.1776 37.2857 35.2768 37.2451 35.3465 37.1639C35.4162 37.0827 35.4559 36.9809 35.4461 36.8695L34.4412 27.6471C34.4412 21.7663 29.7571 16.9819 23.9983 16.9819C18.2401 16.9819 13.5553 21.7657 13.5654 27.6162L12.5523 36.8695Z" fill="#BDBDBD"/>
<path d="M24.0002 15.703C24.766 15.703 25.3826 15.0733 25.3826 14.2911V10.1778C25.3826 9.39562 24.766 8.76587 24.0002 8.76587C23.2343 8.76587 22.6177 9.39561 22.6177 10.1778V14.2911C22.6181 15.0733 23.2347 15.703 24.0002 15.703Z" fill="#BDBDBD"/>
<path d="M9.41017 27.7788H5.38248C4.61663 27.7788 4 28.4085 4 29.1907C4 29.9729 4.61662 30.6026 5.38248 30.6026H9.41017C10.176 30.6026 10.7927 29.9729 10.7927 29.1907C10.7927 28.4085 10.176 27.7788 9.41017 27.7788Z" fill="#BDBDBD"/>
<path d="M42.6177 27.7788H38.59C37.8241 27.7788 37.2075 28.4085 37.2075 29.1907C37.2075 29.9729 37.8241 30.6026 38.59 30.6026H42.6177C43.3835 30.6026 44.0002 29.9729 44.0002 29.1907C43.9998 28.4086 43.3733 27.7788 42.6177 27.7788Z" fill="#BDBDBD"/>
<path d="M34.3139 20.0701C34.6821 20.0701 35.0301 19.9278 35.2884 19.6535L38.1329 16.7485C38.67 16.2 38.67 15.306 38.1329 14.7474C37.5959 14.1989 36.7205 14.1989 36.1736 14.7474L33.3291 17.6524C32.792 18.201 32.792 19.0949 33.3291 19.6535C33.5976 19.9177 33.9457 20.0701 34.3138 20.0701H34.3139Z" fill="#BDBDBD"/>
<path d="M12.7025 19.6528C12.9612 19.917 13.3092 20.0694 13.677 20.0694C14.0452 20.0694 14.3932 19.927 14.6618 19.6528C15.1989 19.1043 15.1989 18.2103 14.6618 17.6517L11.8173 14.7467C11.2802 14.1982 10.3951 14.1982 9.85792 14.7467C9.32075 15.2952 9.32084 16.1892 9.85792 16.7478L12.7025 19.6528Z" fill="#BDBDBD"/>
<path d="M10.8423 37.7527H37.1573V40.6372H10.8423V37.7527Z" fill="#BDBDBD"/>
</svg>
