<svg width="18" height="18" viewBox="0 0 18 18" fill="none" xmlns="http://www.w3.org/2000/svg">
<path d="M8.99952 3.70996C6.08313 3.70996 3.70947 6.08352 3.70947 9C3.70966 11.9164 6.08322 14.29 8.99952 14.29C11.9161 14.29 14.2896 11.9165 14.2896 9C14.2896 6.08362 11.916 3.70996 8.99952 3.70996Z" fill="url(#paint0_radial_403_2779)"/>
<path d="M9.00043 14.6083C8.76735 14.6083 8.57861 14.7973 8.57861 15.0302V17.5782C8.57861 17.8111 8.76735 18 9.00043 18C9.23333 18 9.42207 17.8111 9.42207 17.5782V15.0302C9.42207 14.7973 9.23333 14.6083 9.00043 14.6083Z" fill="url(#paint1_radial_403_2779)"/>
<path d="M9.00043 3.39165C9.23333 3.39165 9.42207 3.20292 9.42207 2.96983V0.421821C9.42207 0.188736 9.23333 0 9.00043 0C8.76735 0 8.57861 0.188736 8.57861 0.421821V2.96983C8.57861 3.20273 8.76735 3.39165 9.00043 3.39165Z" fill="url(#paint2_radial_403_2779)"/>
<path d="M17.5781 8.57812H15.0297C14.7968 8.57812 14.6079 8.76686 14.6079 8.99995C14.6079 9.23303 14.7968 9.42177 15.0297 9.42177H17.5781C17.811 9.42177 17.9999 9.23303 17.9999 8.99995C17.9999 8.76686 17.811 8.57812 17.5781 8.57812Z" fill="url(#paint3_radial_403_2779)"/>
<path d="M3.39146 9.00001C3.39146 8.76692 3.20273 8.57819 2.96964 8.57819H0.421821C0.188736 8.57819 0 8.76692 0 9.00001C0 9.23309 0.188736 9.42183 0.421821 9.42183H2.96964C3.20273 9.42201 3.39146 9.23328 3.39146 9.00001Z" fill="url(#paint4_radial_403_2779)"/>
<path d="M13.5619 12.965C13.3971 12.8002 13.1302 12.8002 12.9654 12.965C12.8006 13.1298 12.8006 13.3967 12.9654 13.5615L14.7687 15.3648C14.8511 15.4472 14.9593 15.4882 15.0671 15.4882C15.1753 15.4882 15.2831 15.4472 15.3655 15.3648C15.5303 15.2 15.5303 14.9331 15.3655 14.7683L13.5619 12.965Z" fill="url(#paint5_radial_403_2779)"/>
<path d="M4.43775 5.03499C4.52015 5.11739 4.62815 5.1584 4.73616 5.1584C4.84416 5.1584 4.95217 5.11739 5.03456 5.03499C5.19936 4.87039 5.19936 4.60296 5.03456 4.43852L3.23129 2.63526C3.0665 2.47046 2.79964 2.47046 2.63483 2.63526C2.47003 2.79986 2.47003 3.06729 2.63483 3.23172L4.43775 5.03499Z" fill="url(#paint6_radial_403_2779)"/>
<path d="M4.4381 12.965L2.63483 14.7683C2.47003 14.9331 2.47003 15.2 2.63483 15.3648C2.71723 15.4472 2.82542 15.4882 2.93324 15.4882C3.04143 15.4882 3.14925 15.4472 3.23165 15.3648L5.03492 13.5615C5.19971 13.3967 5.19971 13.1298 5.03492 12.965C4.86993 12.8002 4.60289 12.8002 4.43812 12.965H4.4381Z" fill="url(#paint7_radial_403_2779)"/>
<path d="M13.2625 5.15847C13.3707 5.15847 13.4785 5.11746 13.5609 5.03506L15.3642 3.23179C15.529 3.06718 15.529 2.80013 15.3642 2.63532C15.1994 2.47051 14.9325 2.47052 14.7677 2.63532L12.9644 4.43859C12.7996 4.6032 12.7996 4.87025 12.9644 5.03506C13.0466 5.11746 13.1546 5.15847 13.2625 5.15847H13.2625Z" fill="url(#paint8_radial_403_2779)"/>
<defs>
<radialGradient id="paint0_radial_403_2779" cx="0" cy="0" r="1" gradientUnits="userSpaceOnUse" gradientTransform="translate(7.99976 7) rotate(55.008) scale(6.10328)">
<stop stop-color="#FFE710"/>
<stop offset="1" stop-color="#FDB700"/>
</radialGradient>
<radialGradient id="paint1_radial_403_2779" cx="0" cy="0" r="1" gradientUnits="userSpaceOnUse" gradientTransform="translate(9.00034 16.3042) rotate(90) scale(1.69583 0.421728)">
<stop stop-color="#FFC410"/>
<stop offset="1" stop-color="#FCB805"/>
</radialGradient>
<radialGradient id="paint2_radial_403_2779" cx="0" cy="0" r="1" gradientUnits="userSpaceOnUse" gradientTransform="translate(9.00034 1.69583) rotate(90) scale(1.69583 0.421728)">
<stop stop-color="#FFC410"/>
<stop offset="1" stop-color="#FCB805"/>
</radialGradient>
<radialGradient id="paint3_radial_403_2779" cx="0" cy="0" r="1" gradientUnits="userSpaceOnUse" gradientTransform="translate(16.3039 8.99995) rotate(90) scale(0.421821 1.69602)">
<stop stop-color="#FFC410"/>
<stop offset="1" stop-color="#FCB805"/>
</radialGradient>
<radialGradient id="paint4_radial_403_2779" cx="0" cy="0" r="1" gradientUnits="userSpaceOnUse" gradientTransform="translate(1.69573 9.00001) rotate(90) scale(0.421821 1.69573)">
<stop stop-color="#FFC410"/>
<stop offset="1" stop-color="#FCB805"/>
</radialGradient>
<radialGradient id="paint5_radial_403_2779" cx="0" cy="0" r="1" gradientUnits="userSpaceOnUse" gradientTransform="translate(14.1654 14.1648) rotate(90) scale(1.32337 1.32364)">
<stop stop-color="#FFC410"/>
<stop offset="1" stop-color="#FCB805"/>
</radialGradient>
<radialGradient id="paint6_radial_403_2779" cx="0" cy="0" r="1" gradientUnits="userSpaceOnUse" gradientTransform="translate(3.8347 3.83503) rotate(90) scale(1.32337 1.32347)">
<stop stop-color="#FFC410"/>
<stop offset="1" stop-color="#FCB805"/>
</radialGradient>
<radialGradient id="paint7_radial_403_2779" cx="0" cy="0" r="1" gradientUnits="userSpaceOnUse" gradientTransform="translate(3.83487 14.1648) rotate(90) scale(1.32337 1.32364)">
<stop stop-color="#FFC410"/>
<stop offset="1" stop-color="#FCB805"/>
</radialGradient>
<radialGradient id="paint8_radial_403_2779" cx="0" cy="0" r="1" gradientUnits="userSpaceOnUse" gradientTransform="translate(14.1643 3.83509) rotate(90) scale(1.32338 1.32347)">
<stop stop-color="#FFC410"/>
<stop offset="1" stop-color="#FCB805"/>
</radialGradient>
</defs>
</svg>
