<svg width="17" height="16" viewBox="0 0 17 16" fill="none" xmlns="http://www.w3.org/2000/svg">
<path d="M13.1666 4.17557C12.94 4.17557 12.7132 4.20342 12.4932 4.24497C12.4999 4.22412 12.4999 4.19642 12.4999 4.17557C12.4999 2.29802 10.2864 1.38986 9.06658 2.73109C8.23607 -0.360846 3.83339 0.26644 3.83339 3.4811C3.83339 3.72415 3.8667 3.96019 3.92003 4.18254C3.89329 4.17554 3.85998 4.17554 3.83339 4.17554C1.99335 4.17554 0.5 5.73112 0.5 7.64782C0.5 9.57139 1.99335 11.1201 3.83339 11.1201H13.1666C15.0132 11.1201 16.5 9.57154 16.5 7.64782C16.5 5.73112 15.0132 4.17554 13.1666 4.17554L13.1666 4.17557Z" fill="url(#paint0_radial_403_2585)"/>
<path d="M6.97153 15.0834L8.30545 13.6945C8.56594 13.4233 8.56594 12.9838 8.30545 12.7126C8.04509 12.4414 7.62317 12.4414 7.36283 12.7126L6.02876 14.1015C5.76841 14.3727 5.76841 14.8122 6.02876 15.0834C6.28926 15.3548 6.71119 15.3548 6.97153 15.0834Z" fill="#0091E2"/>
<path d="M2.97153 15.0834L4.30559 13.6945C4.56594 13.4233 4.56594 12.9838 4.30559 12.7126C4.04524 12.4414 3.62317 12.4414 3.36283 12.7126L2.02876 14.1015C1.76841 14.3727 1.76841 14.8122 2.02876 15.0834C2.28926 15.3548 2.71118 15.3548 2.97153 15.0834Z" fill="#0091E2"/>
<path d="M10.9715 15.0834L12.3054 13.6945C12.5659 13.4233 12.5659 12.9838 12.3054 12.7126C12.0451 12.4414 11.6232 12.4414 11.3628 12.7126L10.0288 14.1015C9.76841 14.3727 9.76841 14.8122 10.0288 15.0834C10.2893 15.3548 10.711 15.3548 10.9715 15.0834Z" fill="#0091E2"/>
<defs>
<radialGradient id="paint0_radial_403_2585" cx="0" cy="0" r="1" gradientUnits="userSpaceOnUse" gradientTransform="translate(7.5 6.00003) rotate(32.0054) scale(9.43398 9.48811)">
<stop stop-color="#EFF1F4"/>
<stop offset="1" stop-color="#C5CAD1"/>
</radialGradient>
</defs>
</svg>
