<svg width="101" height="101" viewBox="0 0 101 101" fill="none" xmlns="http://www.w3.org/2000/svg">
<path fill-rule="evenodd" clip-rule="evenodd" d="M87.4226 84.0366C87.3549 84.1095 87.2246 84.2553 87.2246 84.2553L49.9766 28.4503H64.0384L86.5736 62.2594C87.8132 58.504 88.4954 54.4933 88.4954 50.3265C88.4954 29.4972 71.7359 12.5797 50.9661 12.3297C50.8099 12.3297 50.6536 12.3245 50.4974 12.3245C50.2995 12.3245 50.1068 12.3245 49.9089 12.3297C44.7685 12.4078 39.873 13.5068 35.4201 15.434C35.3576 15.4601 34.4149 15.9236 34.3524 15.9497C32.2119 12.5328 27.9309 5.69392 27.9309 5.69392C28.1079 5.60538 28.285 5.51683 28.4673 5.42829C34.9357 2.24583 42.1853 0.422816 49.8568 0.329061C50.0703 0.323853 50.2891 0.323853 50.5026 0.323853C50.6588 0.323853 50.8151 0.323853 50.9713 0.323853C78.3709 0.573866 100.5 22.8667 100.5 50.3265C100.495 63.3167 95.5419 75.1507 87.4226 84.0366ZM28.6235 27.9295H42.6853L71.8504 72.7235H57.7887L28.6235 27.9295ZM50.4974 72.7235H36.4356L14.1764 39.1384C13.0879 42.675 12.4994 46.4304 12.4994 50.3265C12.4994 71.3119 29.5141 88.3284 50.4974 88.3284C55.7315 88.3284 60.7208 87.2711 65.257 85.3543C65.3768 85.3022 65.5018 85.2502 65.6216 85.1981C65.6216 85.1981 70.1682 91.912 72.439 95.2663C72.2723 95.3496 72.1056 95.4278 71.939 95.5059C65.4393 98.5946 58.1689 100.324 50.4974 100.324C22.8843 100.324 0.5 77.9373 0.5 50.3213C0.5 37.581 5.26538 25.9554 13.1035 17.1268C13.192 17.0278 13.2806 16.9289 13.3691 16.8299L50.4974 72.7235Z" fill="#0051C7"/>
</svg>
