<svg width="38" height="38" viewBox="0 0 38 38" fill="none" xmlns="http://www.w3.org/2000/svg">
<path d="M30.497 27.5998C30.0661 28.613 29.5561 29.5456 28.9651 30.403C28.1596 31.572 27.5001 32.3811 26.9918 32.8304C26.2039 33.5679 25.3597 33.9456 24.4557 33.9671C23.8067 33.9671 23.024 33.7791 22.113 33.3978C21.199 33.0183 20.359 32.8304 19.5909 32.8304C18.7854 32.8304 17.9215 33.0183 16.9975 33.3978C16.072 33.7791 15.3265 33.9778 14.7565 33.9975C13.8896 34.0351 13.0255 33.6467 12.163 32.8304C11.6125 32.3417 10.924 31.5039 10.0991 30.3171C9.2141 29.0498 8.4865 27.5801 7.91649 25.9046C7.30602 24.0948 7 22.3424 7 20.6457C7 18.7023 7.4126 17.026 8.23904 15.6214C8.88855 14.4931 9.75263 13.6031 10.8341 12.9497C11.9156 12.2963 13.0841 11.9634 14.3425 11.9421C15.031 11.9421 15.934 12.1588 17.056 12.5849C18.175 13.0124 18.8934 13.2291 19.2084 13.2291C19.4439 13.2291 20.242 12.9757 21.595 12.4703C22.8745 12.0017 23.9544 11.8076 24.8391 11.8841C27.2363 12.081 29.0372 13.0428 30.2349 14.7756C28.091 16.0977 27.0305 17.9495 27.0516 20.3251C27.0709 22.1755 27.7305 23.7154 29.0267 24.938C29.6141 25.5054 30.2701 25.944 31 26.2555C30.8417 26.7227 30.6746 27.1702 30.497 27.5998ZM24.9991 5.58017C24.9991 7.0305 24.4785 8.38467 23.4409 9.63807C22.1886 11.1281 20.674 11.9891 19.0315 11.8533C19.0106 11.6793 18.9984 11.4962 18.9984 11.3037C18.9984 9.91142 19.5939 8.42136 20.6515 7.20304C21.1795 6.58618 21.8509 6.07328 22.6653 5.66412C23.4778 5.26107 24.2464 5.03817 24.9692 5C24.9903 5.19389 24.9991 5.38779 24.9991 5.58015V5.58017Z" fill="white"/>
<path d="M30.497 27.5998C30.0661 28.613 29.5561 29.5456 28.9651 30.403C28.1596 31.572 27.5001 32.3811 26.9918 32.8304C26.2039 33.5679 25.3597 33.9456 24.4557 33.9671C23.8067 33.9671 23.024 33.7791 22.113 33.3978C21.199 33.0183 20.359 32.8304 19.5909 32.8304C18.7854 32.8304 17.9215 33.0183 16.9975 33.3978C16.072 33.7791 15.3265 33.9778 14.7565 33.9975C13.8896 34.0351 13.0255 33.6467 12.163 32.8304C11.6125 32.3417 10.924 31.5039 10.0991 30.3171C9.2141 29.0498 8.4865 27.5801 7.91649 25.9046C7.30602 24.0948 7 22.3424 7 20.6457C7 18.7023 7.4126 17.026 8.23904 15.6214C8.88855 14.4931 9.75263 13.6031 10.8341 12.9497C11.9156 12.2963 13.0841 11.9634 14.3425 11.9421C15.031 11.9421 15.934 12.1588 17.056 12.5849C18.175 13.0124 18.8934 13.2291 19.2084 13.2291C19.4439 13.2291 20.242 12.9757 21.595 12.4703C22.8745 12.0017 23.9544 11.8076 24.8391 11.8841C27.2363 12.081 29.0372 13.0428 30.2349 14.7756C28.091 16.0977 27.0305 17.9495 27.0516 20.3251C27.0709 22.1755 27.7305 23.7154 29.0267 24.938C29.6141 25.5054 30.2701 25.944 31 26.2555C30.8417 26.7227 30.6746 27.1702 30.497 27.5998ZM24.9991 5.58017C24.9991 7.0305 24.4785 8.38467 23.4409 9.63807C22.1886 11.1281 20.674 11.9891 19.0315 11.8533C19.0106 11.6793 18.9984 11.4962 18.9984 11.3037C18.9984 9.91142 19.5939 8.42136 20.6515 7.20304C21.1795 6.58618 21.8509 6.07328 22.6653 5.66412C23.4778 5.26107 24.2464 5.03817 24.9692 5C24.9903 5.19389 24.9991 5.38779 24.9991 5.58015V5.58017Z" fill="url(#paint0_linear_2875_7252)"/>
<defs>
<linearGradient id="paint0_linear_2875_7252" x1="19" y1="5" x2="19" y2="34" gradientUnits="userSpaceOnUse">
<stop stop-color="white"/>
<stop offset="1" stop-color="white" stop-opacity="0"/>
</linearGradient>
</defs>
</svg>
