<svg width="38" height="38" viewBox="0 0 38 38" fill="none" xmlns="http://www.w3.org/2000/svg">
<path d="M27.8693 15.0117L30.7826 9.97669C31.0359 9.48586 30.8459 8.88419 30.3709 8.63085C29.9118 8.39335 29.3418 8.53586 29.0568 8.97919L26.0801 14.1092C21.5518 12.1934 16.4534 12.1934 11.9251 14.1092L8.94844 8.97919C8.6476 8.52002 8.0301 8.37752 7.57094 8.66252C7.1276 8.94752 6.9851 9.51752 7.2226 9.97669L10.1359 15.0117C5.2276 17.8142 2.02927 22.865 1.58594 28.5017H36.4193C35.9759 22.865 32.7776 17.8142 27.8693 15.0117ZM11.0859 24.1475C9.99344 24.1475 9.10677 23.2609 9.10677 22.1684C9.10677 21.0759 9.99344 20.1892 11.0859 20.1892C12.1784 20.1892 13.0651 21.0759 13.0651 22.1684C13.0651 23.2609 12.1784 24.1475 11.0859 24.1475ZM26.9193 24.1475C25.8268 24.1475 24.9401 23.2609 24.9401 22.1684C24.9401 21.0759 25.8268 20.1892 26.9193 20.1892C28.0118 20.1892 28.8984 21.0759 28.8984 22.1684C28.8984 23.2609 28.0118 24.1475 26.9193 24.1475Z" fill="white"/>
<path d="M27.8693 15.0117L30.7826 9.97669C31.0359 9.48586 30.8459 8.88419 30.3709 8.63085C29.9118 8.39335 29.3418 8.53586 29.0568 8.97919L26.0801 14.1092C21.5518 12.1934 16.4534 12.1934 11.9251 14.1092L8.94844 8.97919C8.6476 8.52002 8.0301 8.37752 7.57094 8.66252C7.1276 8.94752 6.9851 9.51752 7.2226 9.97669L10.1359 15.0117C5.2276 17.8142 2.02927 22.865 1.58594 28.5017H36.4193C35.9759 22.865 32.7776 17.8142 27.8693 15.0117ZM11.0859 24.1475C9.99344 24.1475 9.10677 23.2609 9.10677 22.1684C9.10677 21.0759 9.99344 20.1892 11.0859 20.1892C12.1784 20.1892 13.0651 21.0759 13.0651 22.1684C13.0651 23.2609 12.1784 24.1475 11.0859 24.1475ZM26.9193 24.1475C25.8268 24.1475 24.9401 23.2609 24.9401 22.1684C24.9401 21.0759 25.8268 20.1892 26.9193 20.1892C28.0118 20.1892 28.8984 21.0759 28.8984 22.1684C28.8984 23.2609 28.0118 24.1475 26.9193 24.1475Z" fill="url(#paint0_linear_2875_7251)"/>
<defs>
<linearGradient id="paint0_linear_2875_7251" x1="19.0026" y1="8.51562" x2="19.0026" y2="28.5017" gradientUnits="userSpaceOnUse">
<stop stop-color="white"/>
<stop offset="1" stop-color="white" stop-opacity="0"/>
</linearGradient>
</defs>
</svg>
