<svg width="188" height="188" viewBox="0 0 188 188" fill="none" xmlns="http://www.w3.org/2000/svg">
<path fill-rule="evenodd" clip-rule="evenodd" d="M103.625 108.813C103.504 109.134 103.38 109.461 103.253 109.785L99.5254 119.53C95.4777 115.39 91.5018 111.102 87.5177 106.806C84.9326 104.018 82.3439 101.226 79.7301 98.4685L72.0701 90.6058C71.0606 89.6034 70.044 88.6135 69.0203 87.6361C66.7413 85.4556 64.3801 82.9334 62.0559 80.4507C60.702 79.0044 59.3606 77.5716 58.0553 76.2274L116.115 76.149L103.625 108.813ZM51.867 93.1597L54.8317 83.8957C58.0694 85.4709 84.6026 115.094 87.7411 118.964C93.1775 125.708 95.9507 127.396 103.128 127.345C104.865 127.333 106.61 127.349 108.355 127.364C110.556 127.385 112.755 127.405 114.93 127.369C116.675 137.018 121.172 145.099 128.818 150.363C133.548 153.776 139.112 155.962 144.975 156.711C150.837 157.46 156.802 156.747 162.295 154.639C167.788 152.532 172.625 149.102 176.342 144.678C180.058 140.255 182.529 134.987 183.516 129.38C184.503 123.774 183.975 118.017 181.98 112.664C179.986 107.311 176.593 102.541 172.127 98.812C167.662 95.0834 162.274 92.5216 156.482 91.373C150.69 90.2243 144.688 90.5272 139.052 92.2527C138.609 92.3175 138.162 92.3754 137.708 92.43L127.424 69.3979C126.747 67.7886 127.796 65.7701 129.467 63.2094C129.882 63.1668 130.399 63.1602 130.967 63.153C133.535 63.1203 137.151 63.0743 137.151 59.6293C137.145 56.2334 133.447 56.3249 130.32 56.4022C129.868 56.4134 129.428 56.4243 129.013 56.4243C127.976 56.4266 126.418 56.4026 124.593 56.3745C118.367 56.2787 109.025 56.135 106.604 56.8232C105.82 60.0518 107.213 60.2387 112.226 60.9113C112.359 60.9291 112.494 60.9473 112.632 60.9659L121.53 62.7219L119.097 69.1149L59.6014 69.1558C62.6324 56.784 63.8955 56.7912 69.959 56.8256C71.5574 56.8347 73.4894 56.8456 75.8753 56.6322C80.6166 56.2129 81.3826 50.1335 74.9781 50.021C63.0661 49.813 59.0624 51.0711 55.9098 57.4642C54.5558 60.2089 53.3586 63.9034 51.7609 68.8341C51.6596 69.1466 51.5567 69.4641 51.4521 69.7866L44.6007 91.1037C37.1125 89.8205 29.3932 90.9504 22.6415 94.318C15.8898 97.6856 10.4834 103.102 7.26199 109.727L7.22299 109.812C7.14497 109.969 7.05984 110.15 6.99602 110.286C6.96411 110.354 6.93307 110.423 6.90204 110.493C6.871 110.562 6.83997 110.631 6.80806 110.699C6.77969 110.767 6.74777 110.835 6.71585 110.903C6.07474 112.363 5.54727 113.866 5.13777 115.401C5.1236 115.454 5.11029 115.506 5.09698 115.559C5.08368 115.612 5.07037 115.665 5.0562 115.718L4.99237 115.963V116.018C4.78432 116.859 4.60937 117.712 4.46753 118.578C3.26488 125.41 4.39714 132.432 7.69463 138.593C10.1857 143.372 13.8417 147.502 18.3512 150.63C22.8606 153.757 28.0896 155.79 33.5926 156.555C39.0956 157.32 44.7094 156.794 49.9555 155.023C55.2016 153.251 59.9244 150.286 63.7214 146.381C67.5184 142.476 70.277 137.745 71.762 132.594C73.2471 127.442 73.4146 122.021 72.2502 116.794C71.0859 111.566 68.6242 106.687 65.075 102.572C61.5259 98.4566 56.9945 95.2275 51.867 93.1597ZM132.236 95.4631C128.438 96.8986 123.647 102.34 121.332 105.351C118.966 108.42 116.367 115.58 116.069 120.466H107.966C108.904 117.348 110.176 114.297 111.449 111.241L111.449 111.241C112.292 109.217 113.136 107.191 113.884 105.143L124.388 79.0082L132.236 95.4631ZM142.191 98.861C146.755 97.313 155.313 98.0392 159.742 99.8293C182.963 109.189 180.527 139.112 160.182 146.906C154.664 149.02 149.039 149.593 142.847 147.96C133.453 145.481 125.322 137.557 123.822 127.243L145.057 127.464C145.566 128.247 146.266 128.897 147.098 129.357C147.929 129.818 148.866 130.075 149.825 130.106C150.784 130.137 151.736 129.941 152.598 129.535C153.459 129.129 154.204 128.526 154.766 127.778C155.328 127.03 155.691 126.161 155.822 125.247C155.952 124.333 155.847 123.402 155.516 122.536C155.185 121.671 154.637 120.896 153.921 120.282C153.206 119.667 152.344 119.231 151.412 119.012L142.191 98.861ZM49.4408 101.273C61.601 107.894 68.3034 120.23 62.8634 133.344C50.6252 162.854 5.31096 148.834 12.2794 118.829C14.9639 107.27 26.5709 97.1302 41.7135 99.1009L36.3657 116.374C35.4494 116.865 34.7026 117.603 34.2171 118.497C33.7316 119.391 33.5287 120.402 33.6334 121.405C33.7381 122.409 34.1458 123.361 34.8063 124.144C35.4668 124.928 36.3512 125.508 37.3506 125.814C38.35 126.121 39.4208 126.139 40.4309 125.867C41.441 125.596 42.3465 125.046 43.0356 124.286C43.7248 123.525 44.1676 122.588 44.3094 121.589C44.4513 120.589 44.2861 119.572 43.8341 118.662L48.7138 102.875C48.9155 102.325 49.1585 101.789 49.4408 101.273ZM124.352 121.229L144.385 121.307L135.7 103.086C129.416 106.568 125.029 114.498 124.352 121.229Z" fill="#686868"/>
</svg>
