<svg width="100" height="100" viewBox="0 0 100 100" fill="none" xmlns="http://www.w3.org/2000/svg">
<path d="M74.9993 62.4993V74.9993H24.9993V62.4993H16.666V74.9993C16.666 79.5827 20.416 83.3327 24.9993 83.3327H74.9993C79.5827 83.3327 83.3327 79.5827 83.3327 74.9993V62.4993H74.9993ZM70.8327 45.8327L64.9577 39.9577L54.166 50.7077V16.666H45.8327V50.7077L35.041 39.9577L29.166 45.8327L49.9993 66.666L70.8327 45.8327Z" fill="white"/>
<path d="M74.9993 62.4993V74.9993H24.9993V62.4993H16.666V74.9993C16.666 79.5827 20.416 83.3327 24.9993 83.3327H74.9993C79.5827 83.3327 83.3327 79.5827 83.3327 74.9993V62.4993H74.9993ZM70.8327 45.8327L64.9577 39.9577L54.166 50.7077V16.666H45.8327V50.7077L35.041 39.9577L29.166 45.8327L49.9993 66.666L70.8327 45.8327Z" fill="url(#paint0_linear_2727_7339)"/>
<defs>
<linearGradient id="paint0_linear_2727_7339" x1="49.9993" y1="16.666" x2="49.9993" y2="83.3327" gradientUnits="userSpaceOnUse">
<stop stop-color="white"/>
<stop offset="1" stop-color="white" stop-opacity="0"/>
</linearGradient>
</defs>
</svg>
