<svg width="100" height="100" viewBox="0 0 100 100" fill="none" xmlns="http://www.w3.org/2000/svg">
<path d="M80.8667 52.7907H68.1438L68.1438 46.2791H80.8667V52.7907ZM80.8667 56.5116H68.1438L68.1438 63.0233H80.8667V56.5116ZM80.8667 25.814H68.1438L68.1438 32.3256H80.8667V25.814ZM80.8667 36.0465H68.1438L68.1438 42.5581H80.8667V36.0465ZM80.8667 66.7442H68.1438L68.1438 73.2558H80.8667V66.7442ZM89.6546 79.5814C89.2911 81.5163 87.0191 81.5628 85.5015 81.6279H57.2384V90H51.5949L10 82.5581V17.4512L51.8402 10H57.2384V17.414L84.5291 17.4139C86.0649 17.4791 87.7552 17.3674 89.0912 18.307C90.0272 19.6837 89.9364 21.4326 90 23.014L89.9636 71.4419C89.9181 74.1488 90.209 76.9116 89.6546 79.5814ZM43.325 64.986C40.8167 59.7767 38.2631 54.6046 35.7639 49.3953C38.2358 44.3256 40.6713 39.2372 43.0978 34.1488C41.0349 34.2512 38.9719 34.3814 36.9181 34.5302C35.3822 38.3535 33.5919 42.0744 32.3923 46.0279C31.2745 42.2977 29.7932 38.707 28.4392 35.0698C26.4398 35.1814 24.4405 35.3023 22.4412 35.4233C24.5496 40.1861 26.7943 44.8837 28.839 49.6744C26.4307 54.3256 24.177 59.0419 21.8414 63.7209C23.8316 63.8047 25.8219 63.8884 27.8121 63.9163C29.2298 60.214 30.9928 56.6512 32.2288 52.8744C33.3375 56.9302 35.2187 60.6791 36.7636 64.5581C38.9537 64.7163 41.1348 64.8558 43.325 64.986ZM85.6657 21.8319H57.2384L57.2384 25.814H64.5086V32.3256H57.2384V36.0465H64.5086V42.5581H57.2384V46.2791H64.5086V52.7907H57.2384V56.5116H64.5086V63.0233H57.2384V66.7442H64.5086V73.2558H57.2384V77.5577H85.6657V21.8319Z" fill="white"/>
<path d="M80.8667 52.7907H68.1438L68.1438 46.2791H80.8667V52.7907ZM80.8667 56.5116H68.1438L68.1438 63.0233H80.8667V56.5116ZM80.8667 25.814H68.1438L68.1438 32.3256H80.8667V25.814ZM80.8667 36.0465H68.1438L68.1438 42.5581H80.8667V36.0465ZM80.8667 66.7442H68.1438L68.1438 73.2558H80.8667V66.7442ZM89.6546 79.5814C89.2911 81.5163 87.0191 81.5628 85.5015 81.6279H57.2384V90H51.5949L10 82.5581V17.4512L51.8402 10H57.2384V17.414L84.5291 17.4139C86.0649 17.4791 87.7552 17.3674 89.0912 18.307C90.0272 19.6837 89.9364 21.4326 90 23.014L89.9636 71.4419C89.9181 74.1488 90.209 76.9116 89.6546 79.5814ZM43.325 64.986C40.8167 59.7767 38.2631 54.6046 35.7639 49.3953C38.2358 44.3256 40.6713 39.2372 43.0978 34.1488C41.0349 34.2512 38.9719 34.3814 36.9181 34.5302C35.3822 38.3535 33.5919 42.0744 32.3923 46.0279C31.2745 42.2977 29.7932 38.707 28.4392 35.0698C26.4398 35.1814 24.4405 35.3023 22.4412 35.4233C24.5496 40.1861 26.7943 44.8837 28.839 49.6744C26.4307 54.3256 24.177 59.0419 21.8414 63.7209C23.8316 63.8047 25.8219 63.8884 27.8121 63.9163C29.2298 60.214 30.9928 56.6512 32.2288 52.8744C33.3375 56.9302 35.2187 60.6791 36.7636 64.5581C38.9537 64.7163 41.1348 64.8558 43.325 64.986ZM85.6657 21.8319H57.2384L57.2384 25.814H64.5086V32.3256H57.2384V36.0465H64.5086V42.5581H57.2384V46.2791H64.5086V52.7907H57.2384V56.5116H64.5086V63.0233H57.2384V66.7442H64.5086V73.2558H57.2384V77.5577H85.6657V21.8319Z" fill="url(#paint0_linear_2264_797)"/>
<defs>
<linearGradient id="paint0_linear_2264_797" x1="50" y1="10" x2="50" y2="90" gradientUnits="userSpaceOnUse">
<stop stop-color="white"/>
<stop offset="1" stop-color="white" stop-opacity="0"/>
</linearGradient>
</defs>
</svg>
