<svg width="100" height="100" viewBox="0 0 100 100" fill="none" xmlns="http://www.w3.org/2000/svg">
<path d="M85.3571 5H14.6429C12.0854 5 9.63271 6.01594 7.82433 7.82433C6.01594 9.63271 5 12.0854 5 14.6429L5 85.3571C5 87.9146 6.01594 90.3673 7.82433 92.1757C9.63271 93.9841 12.0854 95 14.6429 95H42.2154V64.402H29.5592V50H42.2154V39.0232C42.2154 26.5377 49.6484 19.6411 61.033 19.6411C66.4853 19.6411 72.1866 20.6134 72.1866 20.6134V32.8679H65.9047C59.7152 32.8679 57.7846 36.7089 57.7846 40.6484V50H71.602L69.3922 64.402H57.7846V95H85.3571C87.9146 95 90.3673 93.9841 92.1757 92.1757C93.9841 90.3673 95 87.9146 95 85.3571V14.6429C95 12.0854 93.9841 9.63271 92.1757 7.82433C90.3673 6.01594 87.9146 5 85.3571 5Z" fill="white"/>
<path d="M85.3571 5H14.6429C12.0854 5 9.63271 6.01594 7.82433 7.82433C6.01594 9.63271 5 12.0854 5 14.6429L5 85.3571C5 87.9146 6.01594 90.3673 7.82433 92.1757C9.63271 93.9841 12.0854 95 14.6429 95H42.2154V64.402H29.5592V50H42.2154V39.0232C42.2154 26.5377 49.6484 19.6411 61.033 19.6411C66.4853 19.6411 72.1866 20.6134 72.1866 20.6134V32.8679H65.9047C59.7152 32.8679 57.7846 36.7089 57.7846 40.6484V50H71.602L69.3922 64.402H57.7846V95H85.3571C87.9146 95 90.3673 93.9841 92.1757 92.1757C93.9841 90.3673 95 87.9146 95 85.3571V14.6429C95 12.0854 93.9841 9.63271 92.1757 7.82433C90.3673 6.01594 87.9146 5 85.3571 5Z" fill="url(#paint0_linear_2832_8035)"/>
<defs>
<linearGradient id="paint0_linear_2832_8035" x1="50" y1="5" x2="50" y2="95" gradientUnits="userSpaceOnUse">
<stop stop-color="white"/>
<stop offset="1" stop-color="white" stop-opacity="0"/>
</linearGradient>
</defs>
</svg>
