<svg width="100" height="100" viewBox="0 0 100 100" fill="none" xmlns="http://www.w3.org/2000/svg">
<path d="M50 39.2844C47.8808 39.2852 45.8095 39.9143 44.0478 41.0922C42.2862 42.2702 40.9133 43.944 40.1029 45.9021C39.2925 47.8602 39.0809 50.0146 39.4948 52.093C39.9087 54.1713 40.9296 56.0803 42.4283 57.5785C43.9271 59.0767 45.8365 60.0969 47.915 60.51C49.9935 60.9232 52.1478 60.7107 54.1056 59.8996C56.0634 59.0884 57.7367 57.715 58.914 55.9529C60.0913 54.1908 60.7196 52.1192 60.7196 50C60.7175 47.158 59.5873 44.4331 57.5773 42.4238C55.5674 40.4146 52.842 39.2854 50 39.2844ZM75.0533 31.0478C74.5078 29.6653 73.6841 28.4097 72.6332 27.3588C71.5823 26.3079 70.3267 25.4841 68.9442 24.9386C64.7254 23.2732 54.6808 23.6469 50 23.6469C45.3192 23.6469 35.2846 23.2592 31.0538 24.9386C29.6713 25.4841 28.4157 26.3079 27.3648 27.3588C26.3139 28.4097 25.4902 29.6653 24.9446 31.0478C23.2812 35.2665 23.6529 45.3212 23.6529 49.998C23.6529 54.6748 23.2812 64.7174 24.9527 68.9502C25.4982 70.3327 26.3219 71.5883 27.3728 72.6392C28.4237 73.6901 29.6794 74.5139 31.0618 75.0594C35.2806 76.7248 45.3252 76.3511 50.008 76.3511C54.6908 76.3511 64.7214 76.7388 68.9522 75.0594C70.3347 74.5139 71.5903 73.6901 72.6412 72.6392C73.6921 71.5883 74.5159 70.3327 75.0614 68.9502C76.7388 64.7315 76.3531 54.6768 76.3531 50C76.3531 45.3232 76.7388 35.2826 75.0614 31.0498L75.0533 31.0478ZM50 66.4732C46.7419 66.4732 43.557 65.5071 40.848 63.697C38.139 61.8869 36.0276 59.3141 34.7807 56.304C33.5339 53.2939 33.2077 49.9817 33.8433 46.7862C34.4789 43.5907 36.0479 40.6555 38.3517 38.3517C40.6555 36.0479 43.5907 34.4789 46.7862 33.8433C49.9817 33.2077 53.2939 33.5339 56.304 34.7807C59.3141 36.0276 61.8869 38.139 63.697 40.848C65.5071 43.557 66.4732 46.7419 66.4732 50C66.4759 52.164 66.0516 54.3073 65.2246 56.3072C64.3977 58.307 63.1844 60.124 61.6542 61.6542C60.124 63.1844 58.307 64.3977 56.3072 65.2246C54.3073 66.0516 52.164 66.4759 50 66.4732ZM67.1522 36.6808C66.3917 36.6812 65.648 36.456 65.0155 36.0338C64.3829 35.6115 63.8897 35.0111 63.5984 34.3086C63.3071 33.606 63.2306 32.8328 63.3788 32.0868C63.5269 31.3408 63.893 30.6555 64.4306 30.1175C64.9683 29.5796 65.6534 29.2132 66.3993 29.0647C67.1453 28.9161 67.9185 28.9922 68.6212 29.2831C69.3239 29.5741 69.9246 30.0669 70.3472 30.6993C70.7697 31.3317 70.9953 32.0751 70.9953 32.8357C70.9974 33.3408 70.8998 33.8413 70.708 34.3086C70.5163 34.7758 70.2342 35.2006 69.8779 35.5586C69.5216 35.9166 69.0981 36.2007 68.6317 36.3947C68.1654 36.5886 67.6653 36.6886 67.1603 36.6888L67.1522 36.6808ZM85.3571 5H14.6429C12.0854 5 9.63271 6.01594 7.82433 7.82433C6.01594 9.63271 5 12.0854 5 14.6429L5 85.3571C5 87.9146 6.01594 90.3673 7.82433 92.1757C9.63271 93.9841 12.0854 95 14.6429 95H85.3571C87.9146 95 90.3673 93.9841 92.1757 92.1757C93.9841 90.3673 95 87.9146 95 85.3571V14.6429C95 12.0854 93.9841 9.63271 92.1757 7.82433C90.3673 6.01594 87.9146 5 85.3571 5ZM81.9179 63.2589C81.6587 68.4078 80.4835 72.9701 76.7248 76.7188C72.9661 80.4674 68.4078 81.6667 63.265 81.9118C57.9594 82.2112 42.0527 82.2112 36.7471 81.9118C31.5982 81.6527 27.052 80.4754 23.2873 76.7188C19.5225 72.9621 18.3393 68.3978 18.0942 63.2589C17.7949 57.9513 17.7949 42.0426 18.0942 36.7411C18.3533 31.5922 19.5145 27.0299 23.2873 23.2812C27.06 19.5326 31.6183 18.3473 36.7471 18.1022C42.0527 17.8029 57.9594 17.8029 63.265 18.1022C68.4138 18.3614 72.9741 19.5386 76.7248 23.2953C80.4754 27.052 81.6728 31.6163 81.9179 36.7652C82.2172 42.0527 82.2172 57.9473 81.9179 63.2589Z" fill="white"/>
<path d="M50 39.2844C47.8808 39.2852 45.8095 39.9143 44.0478 41.0922C42.2862 42.2702 40.9133 43.944 40.1029 45.9021C39.2925 47.8602 39.0809 50.0146 39.4948 52.093C39.9087 54.1713 40.9296 56.0803 42.4283 57.5785C43.9271 59.0767 45.8365 60.0969 47.915 60.51C49.9935 60.9232 52.1478 60.7107 54.1056 59.8996C56.0634 59.0884 57.7367 57.715 58.914 55.9529C60.0913 54.1908 60.7196 52.1192 60.7196 50C60.7175 47.158 59.5873 44.4331 57.5773 42.4238C55.5674 40.4146 52.842 39.2854 50 39.2844ZM75.0533 31.0478C74.5078 29.6653 73.6841 28.4097 72.6332 27.3588C71.5823 26.3079 70.3267 25.4841 68.9442 24.9386C64.7254 23.2732 54.6808 23.6469 50 23.6469C45.3192 23.6469 35.2846 23.2592 31.0538 24.9386C29.6713 25.4841 28.4157 26.3079 27.3648 27.3588C26.3139 28.4097 25.4902 29.6653 24.9446 31.0478C23.2812 35.2665 23.6529 45.3212 23.6529 49.998C23.6529 54.6748 23.2812 64.7174 24.9527 68.9502C25.4982 70.3327 26.3219 71.5883 27.3728 72.6392C28.4237 73.6901 29.6794 74.5139 31.0618 75.0594C35.2806 76.7248 45.3252 76.3511 50.008 76.3511C54.6908 76.3511 64.7214 76.7388 68.9522 75.0594C70.3347 74.5139 71.5903 73.6901 72.6412 72.6392C73.6921 71.5883 74.5159 70.3327 75.0614 68.9502C76.7388 64.7315 76.3531 54.6768 76.3531 50C76.3531 45.3232 76.7388 35.2826 75.0614 31.0498L75.0533 31.0478ZM50 66.4732C46.7419 66.4732 43.557 65.5071 40.848 63.697C38.139 61.8869 36.0276 59.3141 34.7807 56.304C33.5339 53.2939 33.2077 49.9817 33.8433 46.7862C34.4789 43.5907 36.0479 40.6555 38.3517 38.3517C40.6555 36.0479 43.5907 34.4789 46.7862 33.8433C49.9817 33.2077 53.2939 33.5339 56.304 34.7807C59.3141 36.0276 61.8869 38.139 63.697 40.848C65.5071 43.557 66.4732 46.7419 66.4732 50C66.4759 52.164 66.0516 54.3073 65.2246 56.3072C64.3977 58.307 63.1844 60.124 61.6542 61.6542C60.124 63.1844 58.307 64.3977 56.3072 65.2246C54.3073 66.0516 52.164 66.4759 50 66.4732ZM67.1522 36.6808C66.3917 36.6812 65.648 36.456 65.0155 36.0338C64.3829 35.6115 63.8897 35.0111 63.5984 34.3086C63.3071 33.606 63.2306 32.8328 63.3788 32.0868C63.5269 31.3408 63.893 30.6555 64.4306 30.1175C64.9683 29.5796 65.6534 29.2132 66.3993 29.0647C67.1453 28.9161 67.9185 28.9922 68.6212 29.2831C69.3239 29.5741 69.9246 30.0669 70.3472 30.6993C70.7697 31.3317 70.9953 32.0751 70.9953 32.8357C70.9974 33.3408 70.8998 33.8413 70.708 34.3086C70.5163 34.7758 70.2342 35.2006 69.8779 35.5586C69.5216 35.9166 69.0981 36.2007 68.6317 36.3947C68.1654 36.5886 67.6653 36.6886 67.1603 36.6888L67.1522 36.6808ZM85.3571 5H14.6429C12.0854 5 9.63271 6.01594 7.82433 7.82433C6.01594 9.63271 5 12.0854 5 14.6429L5 85.3571C5 87.9146 6.01594 90.3673 7.82433 92.1757C9.63271 93.9841 12.0854 95 14.6429 95H85.3571C87.9146 95 90.3673 93.9841 92.1757 92.1757C93.9841 90.3673 95 87.9146 95 85.3571V14.6429C95 12.0854 93.9841 9.63271 92.1757 7.82433C90.3673 6.01594 87.9146 5 85.3571 5ZM81.9179 63.2589C81.6587 68.4078 80.4835 72.9701 76.7248 76.7188C72.9661 80.4674 68.4078 81.6667 63.265 81.9118C57.9594 82.2112 42.0527 82.2112 36.7471 81.9118C31.5982 81.6527 27.052 80.4754 23.2873 76.7188C19.5225 72.9621 18.3393 68.3978 18.0942 63.2589C17.7949 57.9513 17.7949 42.0426 18.0942 36.7411C18.3533 31.5922 19.5145 27.0299 23.2873 23.2812C27.06 19.5326 31.6183 18.3473 36.7471 18.1022C42.0527 17.8029 57.9594 17.8029 63.265 18.1022C68.4138 18.3614 72.9741 19.5386 76.7248 23.2953C80.4754 27.052 81.6728 31.6163 81.9179 36.7652C82.2172 42.0527 82.2172 57.9473 81.9179 63.2589Z" fill="url(#paint0_linear_2832_8036)"/>
<defs>
<linearGradient id="paint0_linear_2832_8036" x1="50" y1="5" x2="50" y2="95" gradientUnits="userSpaceOnUse">
<stop stop-color="white"/>
<stop offset="1" stop-color="white" stop-opacity="0"/>
</linearGradient>
</defs>
</svg>
