<svg width="188" height="188" viewBox="0 0 188 188" fill="none" xmlns="http://www.w3.org/2000/svg">
<path fill-rule="evenodd" clip-rule="evenodd" d="M54.9631 34.4799C54.7158 34.4799 54.4716 34.4664 54.2313 34.4401L43.0875 102.51L71.7885 140.75H126.684C128.964 127.958 139.593 118.048 152.67 116.962C152.937 116.94 153.205 116.975 153.457 117.063C153.71 117.151 153.942 117.29 154.138 117.473C154.334 117.656 154.491 117.878 154.598 118.124C154.705 118.371 154.76 118.637 154.759 118.907C154.761 119.392 154.582 119.861 154.257 120.22C153.932 120.579 153.485 120.802 153.004 120.845C141.913 121.761 132.855 130.006 130.63 140.75H133.622C135.919 130.999 144.638 123.723 155.016 123.723C167.14 123.723 177 133.656 177 145.861C177 158.067 167.138 168 155.016 168C144.641 168 135.922 160.726 133.623 150.976H63.4359C62.0902 150.973 60.8008 150.433 59.8491 149.475C58.8975 148.517 58.3609 147.218 58.3566 145.863C58.3572 145.696 58.3658 145.529 58.3824 145.364C58.692 127.398 46.4316 121.596 40.2546 119.814L39.4547 124.701C48.43 127.489 54.9689 135.922 54.9689 145.861C54.9689 158.067 45.1068 168 32.9845 168C20.8621 168 11 158.069 11 145.861C11 133.654 20.8604 123.723 32.9845 123.723C33.2742 123.723 33.5627 123.728 33.8498 123.74L48.9545 31.4827C48.9837 31.3076 49.0288 31.1368 49.0886 30.9724C48.5668 30.0127 48.2701 28.9112 48.2701 27.74C48.2701 24.0176 51.2667 21 54.9631 21C58.6596 21 61.6561 24.0176 61.6561 27.74C61.6561 31.4624 58.6596 34.4799 54.9631 34.4799ZM32.8321 129.955L31.2511 139.611L25.6955 131.899C25.6688 131.863 25.6411 131.827 25.6125 131.793C27.8329 130.613 30.3075 129.98 32.8321 129.955ZM37.7177 135.311L38.4337 130.937C39.0668 131.172 39.6846 131.448 40.2832 131.763C40.2458 131.807 40.21 131.852 40.1759 131.899L37.7177 135.311ZM152.751 150.976H146.779L141.309 152.766C141.154 152.817 140.994 152.85 140.833 152.866C141.595 154.429 142.61 155.865 143.846 157.109C146.055 159.334 148.87 160.849 151.934 161.463C152.246 161.525 152.559 161.578 152.872 161.621C152.792 161.388 152.751 161.142 152.751 160.89V150.976ZM158.799 149.522C158.333 149.979 157.789 150.338 157.2 150.584V160.89C157.2 161.146 157.156 161.396 157.074 161.633C158.436 161.452 159.777 161.093 161.061 160.558C163.947 159.354 166.414 157.315 168.15 154.699C168.54 154.111 168.889 153.499 169.196 152.869C169.041 152.853 168.887 152.82 168.737 152.771L158.799 149.522ZM159.566 143.162C159.968 143.81 160.222 144.544 160.307 145.308L170.108 148.514L170.113 148.508C170.268 148.558 170.417 148.626 170.557 148.709C170.726 147.774 170.812 146.821 170.812 145.861C170.809 141.643 169.144 137.599 166.182 134.617C166.096 134.53 166.009 134.445 165.921 134.36C165.887 134.419 165.849 134.477 165.809 134.532C165.809 134.532 161.626 140.319 159.566 143.162ZM154.113 140.75H155.261C155.446 140.751 155.63 140.761 155.813 140.782C157.718 138.135 162.214 131.895 162.214 131.895C162.247 131.849 162.283 131.804 162.319 131.761C160.085 130.587 157.583 129.956 155.016 129.954C152.442 129.954 149.916 130.587 147.653 131.788C147.682 131.823 147.709 131.859 147.735 131.895L154.113 140.75ZM140.057 140.75H148.64C146.567 137.89 144.136 134.529 144.136 134.529C144.107 134.49 144.079 134.45 144.053 134.408C142.496 135.92 141.257 137.744 140.422 139.774C140.289 140.096 140.168 140.421 140.057 140.75ZM48.1482 115.369C48.1489 114.842 47.9942 114.326 47.7037 113.887C47.4133 113.449 47.0001 113.107 46.5166 112.904C46.033 112.702 45.5007 112.649 44.9871 112.752C44.4735 112.854 44.0017 113.108 43.6313 113.481C43.261 113.853 43.0088 114.328 42.9066 114.846C42.8044 115.363 42.8568 115.899 43.0573 116.386C43.2577 116.873 43.5972 117.289 44.0326 117.582C44.4681 117.875 44.98 118.031 45.5036 118.031C46.2045 118.03 46.8764 117.749 47.3721 117.25C47.8678 116.751 48.147 116.075 48.1482 115.369ZM57.6097 125.097C57.6113 124.569 57.4574 124.053 57.1673 123.614C56.8773 123.174 56.4643 122.831 55.9806 122.629C55.4969 122.426 54.9643 122.372 54.4504 122.474C53.9364 122.577 53.4641 122.83 53.0934 123.203C52.7227 123.576 52.4702 124.051 52.368 124.569C52.2658 125.086 52.3184 125.623 52.5192 126.11C52.72 126.597 53.0599 127.014 53.4959 127.306C53.9319 127.599 54.4444 127.754 54.9683 127.753C55.668 127.753 56.3389 127.473 56.834 126.975C57.329 126.477 57.608 125.801 57.6097 125.097ZM59.3652 135.374C59.3652 135.901 59.5203 136.416 59.811 136.854C60.1017 137.292 60.5148 137.633 60.9982 137.835C61.4815 138.036 62.0133 138.089 62.5264 137.986C63.0394 137.883 63.5107 137.629 63.8804 137.257C64.2502 136.884 64.502 136.409 64.6039 135.893C64.7057 135.376 64.6531 134.84 64.4527 134.354C64.2523 133.867 63.913 133.451 63.4779 133.159C63.0428 132.866 62.5313 132.711 62.0082 132.711C61.661 132.711 61.3172 132.78 60.9964 132.914C60.6756 133.047 60.3842 133.244 60.1387 133.491C59.8933 133.738 59.6986 134.032 59.5659 134.355C59.4332 134.678 59.365 135.024 59.3652 135.374ZM36.4109 144.703L48.0708 148.518L48.0659 148.511C48.2271 148.564 48.3803 148.634 48.5233 148.721C48.6938 147.782 48.7807 146.825 48.7807 145.861H48.7725C48.7695 141.645 47.1054 137.602 44.1455 134.62C44.0593 134.533 43.9723 134.447 43.8843 134.363C43.8496 134.422 43.812 134.48 43.7716 134.536C43.7716 134.536 36.4662 144.641 36.4109 144.703ZM46.1185 154.699C46.5078 154.112 46.8563 153.502 47.1629 152.874C47.0039 152.858 46.8458 152.825 46.6915 152.775L35.1521 149.003V160.902C35.1521 161.154 35.11 161.401 35.0299 161.634C36.3969 161.455 37.742 161.095 39.0294 160.558C41.9158 159.354 44.3828 157.315 46.1185 154.699ZM29.9028 161.463C30.2074 161.524 30.5132 161.576 30.8198 161.618C30.7432 161.39 30.703 161.148 30.703 160.902V149.034L19.2695 152.77C19.1177 152.82 18.9614 152.853 18.8034 152.868C19.5647 154.431 20.5796 155.865 21.8148 157.109C24.024 159.334 26.8386 160.849 29.9028 161.463ZM18.3906 139.774C17.2276 142.601 16.8999 145.705 17.4439 148.712C17.5859 148.627 17.7372 148.558 17.8951 148.506L29.4784 144.715C29.4133 144.646 22.0965 134.533 22.0965 134.533C22.0688 134.494 22.0424 134.454 22.0173 134.413C20.4627 135.923 19.2249 137.746 18.3906 139.774Z" fill="#686868"/>
</svg>
