<svg width="100" height="100" viewBox="0 0 100 100" fill="none" xmlns="http://www.w3.org/2000/svg">
<path d="M70.8333 33.3333L64.9583 39.2083L71.5417 45.8333H37.5V54.1667H71.5417L64.9583 60.75L70.8333 66.6667L87.5 50L70.8333 33.3333ZM20.8333 20.8333H50V12.5H20.8333C16.25 12.5 12.5 16.25 12.5 20.8333V79.1667C12.5 83.75 16.25 87.5 20.8333 87.5H50V79.1667H20.8333V20.8333Z" fill="white"/>
<path d="M70.8333 33.3333L64.9583 39.2083L71.5417 45.8333H37.5V54.1667H71.5417L64.9583 60.75L70.8333 66.6667L87.5 50L70.8333 33.3333ZM20.8333 20.8333H50V12.5H20.8333C16.25 12.5 12.5 16.25 12.5 20.8333V79.1667C12.5 83.75 16.25 87.5 20.8333 87.5H50V79.1667H20.8333V20.8333Z" fill="url(#paint0_linear_2830_6603)"/>
<defs>
<linearGradient id="paint0_linear_2830_6603" x1="50" y1="12.5" x2="50" y2="87.5" gradientUnits="userSpaceOnUse">
<stop stop-color="white"/>
<stop offset="1" stop-color="white" stop-opacity="0"/>
</linearGradient>
</defs>
</svg>
