<svg width="188" height="188" viewBox="0 0 188 188" fill="none" xmlns="http://www.w3.org/2000/svg">
<path fill-rule="evenodd" clip-rule="evenodd" d="M155.554 98.9203C151.565 98.9288 147.616 99.7187 143.929 101.246L140.957 94.4008C140.897 94.3396 140.864 94.2573 140.864 94.1715C140.864 94.0858 140.897 94.0035 140.957 93.9423L176.127 72.2942C177.13 71.6832 177.958 70.822 178.53 69.7946C179.102 68.7672 179.4 67.6087 179.393 66.4319V57.2945C179.393 55.4617 178.667 53.7041 177.374 52.4081C176.082 51.1122 174.33 50.3841 172.502 50.3841H154.77C153.806 50.3819 152.852 50.5817 151.969 50.9709C151.086 51.36 150.294 51.9299 149.644 52.6439L139.651 63.6481C139.207 64.1487 138.646 64.5312 138.018 64.7616L105.102 75.8968C104.497 71.4856 102.65 67.3389 99.7787 63.9428C97.609 61.6335 95.0003 59.7832 92.1064 58.5007C89.2125 57.2183 86.0919 56.5298 82.9286 56.4757L91.223 48.5501H109.967C110.833 48.5501 111.664 48.205 112.276 47.5909C112.889 46.9767 113.233 46.1436 113.233 45.275C113.233 44.4065 112.889 43.5734 112.276 42.9592C111.664 42.345 110.833 42 109.967 42H91.223C89.5573 42.0063 87.9569 42.6506 86.7493 43.8013L76.6588 53.3317L71.042 49.1724C69.8599 48.3122 68.4369 47.849 66.9764 47.849C65.516 47.849 64.0929 48.3122 62.9108 49.1724C54.3551 55.3622 34.5333 72.3924 30.2555 99.1823C24.5327 99.7796 19.0965 101.993 14.5784 105.566C10.0602 109.139 6.64575 113.924 4.73166 119.366C2.81758 124.808 2.48247 130.682 3.76528 136.307C5.04808 141.933 7.89614 147.077 11.9785 151.143C16.0609 155.21 21.21 158.031 26.8274 159.278C32.4449 160.526 38.3002 160.15 43.7128 158.193C49.1254 156.236 53.8733 152.779 57.4046 148.223C60.9359 143.667 63.1057 138.2 63.6619 132.457H73.9483C75.7518 132.436 77.4752 131.707 78.7487 130.426L85.2798 124.4L102.032 124.597L106.212 129.804C106.852 130.623 107.67 131.284 108.604 131.738C109.538 132.192 110.562 132.427 111.6 132.424H125.413C126.001 138.292 128.275 143.862 131.959 148.459C135.643 153.056 140.578 156.481 146.165 158.319C151.753 160.157 157.752 160.329 163.435 158.813C169.118 157.298 174.24 154.16 178.179 149.782C182.118 145.403 184.705 139.972 185.625 134.147C186.546 128.322 185.761 122.355 183.365 116.969C180.969 111.583 177.066 107.011 172.129 103.807C167.192 100.603 161.434 98.9055 155.554 98.9203ZM66.8295 54.4124C66.8911 54.3672 66.9654 54.3428 67.0417 54.3428C67.1181 54.3428 67.1924 54.3672 67.254 54.4124L75.9077 60.9625C77.6656 62.2543 79.7709 62.9847 81.9489 63.0586C84.3332 63.0016 86.7045 63.4276 88.9209 64.3111C91.1372 65.1946 93.1531 66.5174 94.8478 68.2004C97.2115 71.0595 98.5865 74.6106 98.7664 78.3203L75.9077 89.5865C72.4562 91.2949 69.6654 94.1006 67.9701 97.5662C66.2749 101.032 65.7705 104.962 66.5356 108.745L69.8011 125.874H63.5966C62.8046 119.083 59.7596 112.756 54.9506 107.909C50.1417 103.062 43.848 99.9773 37.0804 99.1496C38.5508 90.9768 41.6375 83.1819 46.1586 76.2243H62.1598C63.0258 76.2243 63.8564 75.8792 64.4688 75.265C65.0813 74.6508 65.4253 73.8178 65.4253 72.9492C65.4253 72.0806 65.0813 71.2476 64.4688 70.6334C63.8564 70.0192 63.0258 69.6742 62.1598 69.6742H50.861C55.495 63.9081 60.8637 58.777 66.8295 54.4124ZM33.423 153.352C28.7018 153.352 24.0866 151.948 20.161 149.317C16.2354 146.686 13.1758 142.947 11.369 138.573C9.5623 134.198 9.08957 129.384 10.0106 124.74C10.9317 120.096 13.2052 115.831 16.5436 112.482C19.8821 109.134 24.1355 106.854 28.766 105.93C33.3966 105.007 38.1962 105.481 42.5581 107.293C46.92 109.105 50.6481 112.173 53.2711 116.11C55.8941 120.047 57.2941 124.676 57.2941 129.411C57.2855 135.758 54.7677 141.842 50.2929 146.33C45.8181 150.818 39.7514 153.343 33.423 153.352ZM111.208 125.743L106.996 120.601C106.354 119.805 105.543 119.162 104.622 118.72C103.701 118.278 102.694 118.048 101.673 118.047H85.3451C84.4288 118.001 83.5132 118.15 82.658 118.482C81.8028 118.815 81.0271 119.325 80.3815 119.979L76.2016 123.876L72.936 107.501C72.4632 105.141 72.7797 102.691 73.8365 100.529C74.8933 98.3682 76.6313 96.6169 78.7813 95.547L103.371 83.4294L140.206 70.9514C141.841 70.3919 143.319 69.4487 144.517 68.2004L154.313 57.229C154.359 57.2082 154.41 57.1975 154.46 57.1975C154.511 57.1975 154.561 57.2082 154.607 57.229H172.437C172.532 57.229 172.624 57.2669 172.691 57.3345C172.758 57.4021 172.796 57.4937 172.796 57.5892V66.7266L137.724 88.2109C136.298 89.0557 135.229 90.3942 134.717 91.9744C134.206 93.5547 134.288 95.2679 134.949 96.7916L138.214 104.455C134.687 106.918 131.722 110.103 129.515 113.801C127.308 117.5 125.91 121.626 125.413 125.907H111.502C111.444 125.903 111.388 125.886 111.337 125.858C111.286 125.83 111.242 125.79 111.208 125.743ZM155.554 153.352C150.831 153.358 146.213 151.96 142.283 149.333C138.353 146.706 135.289 142.969 133.477 138.595C131.665 134.221 131.188 129.407 132.105 124.761C133.022 120.114 135.293 115.846 138.631 112.494C141.968 109.143 146.221 106.859 150.852 105.933C155.484 105.006 160.285 105.479 164.649 107.29C169.013 109.101 172.743 112.169 175.367 116.107C177.992 120.045 179.393 124.675 179.393 129.411C179.384 135.752 176.871 141.832 172.403 146.319C167.935 150.805 161.877 153.334 155.554 153.352ZM155.555 113.56C152.427 113.553 149.368 114.478 146.765 116.215C144.161 117.953 142.131 120.427 140.929 123.322C139.728 126.218 139.41 129.406 140.017 132.483C140.623 135.56 142.125 138.388 144.334 140.608C146.544 142.828 149.36 144.341 152.427 144.955C155.493 145.57 158.673 145.258 161.563 144.059C164.453 142.86 166.923 140.828 168.661 138.221C170.399 135.614 171.327 132.548 171.327 129.411C171.327 125.213 169.667 121.186 166.71 118.214C163.753 115.242 159.741 113.569 155.555 113.56ZM155.555 138.712C153.719 138.719 151.923 138.179 150.393 137.161C148.864 136.143 147.67 134.692 146.963 132.993C146.256 131.294 146.068 129.423 146.422 127.617C146.776 125.81 147.657 124.15 148.953 122.846C150.248 121.542 151.901 120.653 153.701 120.291C155.501 119.93 157.367 120.112 159.063 120.815C160.76 121.518 162.21 122.71 163.231 124.24C164.251 125.771 164.796 127.57 164.796 129.411C164.796 131.872 163.824 134.233 162.091 135.977C160.359 137.72 158.009 138.704 155.555 138.712ZM24.6425 116.231C27.2416 114.49 30.2974 113.56 33.4234 113.56C37.6152 113.56 41.6353 115.23 44.5993 118.203C47.5634 121.175 49.2286 125.207 49.2286 129.411C49.2286 132.546 48.3016 135.611 46.5649 138.218C44.8282 140.824 42.3598 142.856 39.4718 144.056C36.5837 145.256 33.4058 145.569 30.3399 144.958C27.274 144.346 24.4578 142.836 22.2474 140.62C20.037 138.403 18.5317 135.578 17.9219 132.504C17.312 129.429 17.625 126.242 18.8213 123.345C20.0175 120.449 22.0433 117.973 24.6425 116.231ZM28.2709 137.145C29.7961 138.167 31.5891 138.712 33.4234 138.712C34.6413 138.712 35.8472 138.472 36.9724 138.004C38.0976 137.537 39.12 136.852 39.9812 135.988C40.8424 135.124 41.5255 134.099 41.9915 132.971C42.4576 131.842 42.6975 130.633 42.6975 129.411C42.6975 127.572 42.1536 125.773 41.1345 124.244C40.1155 122.714 38.667 121.522 36.9724 120.818C35.2778 120.114 33.4131 119.93 31.6141 120.289C29.8151 120.648 28.1626 121.533 26.8656 122.834C25.5686 124.135 24.6853 125.792 24.3274 127.597C23.9696 129.401 24.1533 131.271 24.8552 132.971C25.5571 134.67 26.7458 136.123 28.2709 137.145Z" fill="#686868"/>
</svg>
