<svg width="100" height="100" viewBox="0 0 100 100" fill="none" xmlns="http://www.w3.org/2000/svg">
<path d="M49.9967 8.33398C26.9967 8.33398 8.33008 27.0007 8.33008 50.0007C8.33008 73.0007 26.9967 91.6673 49.9967 91.6673C72.9967 91.6673 91.6634 73.0007 91.6634 50.0007C91.6634 27.0007 72.9967 8.33398 49.9967 8.33398ZM41.6634 68.7507V31.2507L66.6634 50.0007L41.6634 68.7507Z" fill="white"/>
<path d="M49.9967 8.33398C26.9967 8.33398 8.33008 27.0007 8.33008 50.0007C8.33008 73.0007 26.9967 91.6673 49.9967 91.6673C72.9967 91.6673 91.6634 73.0007 91.6634 50.0007C91.6634 27.0007 72.9967 8.33398 49.9967 8.33398ZM41.6634 68.7507V31.2507L66.6634 50.0007L41.6634 68.7507Z" fill="url(#paint0_linear_2875_6607)"/>
<defs>
<linearGradient id="paint0_linear_2875_6607" x1="49.9967" y1="8.33398" x2="49.9967" y2="91.6673" gradientUnits="userSpaceOnUse">
<stop stop-color="white"/>
<stop offset="1" stop-color="white" stop-opacity="0"/>
</linearGradient>
</defs>
</svg>
