<svg width="100" height="100" viewBox="0 0 100 100" fill="none" xmlns="http://www.w3.org/2000/svg">
<mask id="mask0_2379_2803" style="mask-type:alpha" maskUnits="userSpaceOnUse" x="8" y="8" width="84" height="84">
<path fill-rule="evenodd" clip-rule="evenodd" d="M50.0007 8.33398C27.0007 8.33398 8.33398 27.0007 8.33398 50.0007C8.33398 73.0007 27.0007 91.6673 50.0007 91.6673C73.0007 91.6673 91.6673 73.0007 91.6673 50.0007C91.6673 27.0007 73.0007 8.33398 50.0007 8.33398ZM50.0006 83.334C31.584 83.334 16.6673 68.4173 16.6673 50.0006C16.6673 31.584 31.584 16.6673 50.0006 16.6673C68.4173 16.6673 83.334 31.584 83.334 50.0006C83.334 68.4173 68.4173 83.334 50.0006 83.334ZM70.834 50.0006C70.834 61.5066 61.5066 70.834 50.0006 70.834C38.4947 70.834 29.1673 61.5066 29.1673 50.0006C29.1673 38.4947 38.4947 29.1673 50.0006 29.1673C61.5066 29.1673 70.834 38.4947 70.834 50.0006Z" fill="white"/>
</mask>
<g mask="url(#mask0_2379_2803)">
<rect width="100" height="100" fill="white"/>
</g>
</svg>
