<svg width="100" height="100" viewBox="0 0 100 100" fill="none" xmlns="http://www.w3.org/2000/svg">
<mask id="mask0_2379_2815" style="mask-type:alpha" maskUnits="userSpaceOnUse" x="8" y="8" width="84" height="84">
<path fill-rule="evenodd" clip-rule="evenodd" d="M8.33398 50.0007C8.33398 27.0007 27.0007 8.33398 50.0007 8.33398C73.0007 8.33398 91.6673 27.0007 91.6673 50.0007C91.6673 73.0007 73.0007 91.6673 50.0007 91.6673C27.0007 91.6673 8.33398 73.0007 8.33398 50.0007ZM16.6673 50.0006C16.6673 68.4173 31.584 83.334 50.0006 83.334C68.4173 83.334 83.334 68.4173 83.334 50.0006C83.334 31.584 68.4173 16.6673 50.0006 16.6673C31.584 16.6673 16.6673 31.584 16.6673 50.0006Z" fill="white"/>
</mask>
<g mask="url(#mask0_2379_2815)">
<rect width="100" height="100" fill="white"/>
</g>
</svg>
