<svg width="147" height="62" viewBox="0 0 147 62" fill="none" xmlns="http://www.w3.org/2000/svg">
<path d="M37.3381 35.0199V0.00341797L72.3235 12.7485V47.7649L37.3381 35.0199Z" fill="#878C8A"/>
<path d="M0 47.7654V12.745L34.9854 0V35.0204L0 47.7654Z" fill="#49A78F"/>
<path d="M112.015 35.0199V0.00341797L147 12.7485V47.7649L112.015 35.0199Z" fill="#AEB5B3"/>
<path d="M74.6799 47.7654V12.745L109.661 0V35.0204L74.6799 47.7654Z" fill="#9FA5A3"/>
<path d="M130.442 15.2949L130.348 15.0198L127.667 14.0452L120.227 30.8342L123.587 32.0564L125.35 27.7924L132.664 30.4569L134.451 36.014L137.796 37.2323L130.442 15.2949ZM131.659 27.3168L126.371 25.3911L129.009 19.0717L131.659 27.3168Z" fill="white"/>
<path d="M99.297 17.1903C98.5864 16.0584 97.5578 15.3471 96.2504 15.0681C94.9469 14.793 93.4275 14.9659 91.7393 15.579L86.0779 17.6422V37.139L86.4548 37.0015L91.6411 35.1112C93.3765 34.4627 94.9234 33.5116 96.2386 32.2933C97.5617 31.0632 98.5942 29.6052 99.3088 27.9546C100.015 26.3197 100.373 24.5669 100.373 22.7473V21.5487C100.365 19.7762 99.9998 18.3103 99.297 17.1903ZM97.173 22.7631V23.8595C97.173 25.9424 96.6705 27.7463 95.6811 29.2161C94.6878 30.6899 93.3254 31.7274 91.5194 32.3837L89.3012 33.1933V19.2457L91.8021 18.3339C93.5374 17.7169 94.8331 17.7916 95.7675 18.554C96.7019 19.3204 97.173 20.7352 97.173 22.7631Z" fill="white"/>
<path d="M59.441 27.2621C58.9895 26.4918 58.3967 25.7923 57.6703 25.1792C58.2907 25.0299 58.8089 24.7312 59.2172 24.2871C59.7865 23.6701 60.077 22.9076 60.077 22.0155C60.077 20.251 59.5313 18.6436 58.4516 17.2484C57.3798 15.8611 55.8958 14.8118 54.0426 14.1358C52.2838 13.4953 50.8075 13.4874 49.6533 14.1083C48.4912 14.7371 47.9022 15.8611 47.9022 17.4528V17.8301L51.0353 18.9737V18.5964C51.0353 17.724 51.2983 17.1462 51.8401 16.824C52.3858 16.5017 53.1043 16.5096 54.0426 16.8515C56.0214 17.5746 56.944 18.8362 56.944 20.8247C56.944 21.6972 56.6692 22.2671 56.1038 22.5657C55.5346 22.8683 54.7258 22.8408 53.705 22.4832L51.5378 21.6933V24.3932L53.6971 25.1792C54.8593 25.6194 55.7505 26.2167 56.3473 26.9516C56.9362 27.6787 57.2188 28.5119 57.2188 29.4944C57.2188 30.5083 56.9479 31.1921 56.4179 31.5222C55.884 31.8524 55.087 31.8288 54.0466 31.4515C53.0572 31.0899 52.2916 30.5555 51.7184 29.8127C51.153 29.0856 50.8743 28.2996 50.8743 27.4154V27.0381L47.7295 25.8905V26.2678C47.7295 27.9381 48.3302 29.5219 49.5119 30.976C50.678 32.4104 52.2052 33.4794 54.0466 34.1475C55.8918 34.8195 57.4152 34.8431 58.5812 34.2222C59.7551 33.5934 60.3519 32.3672 60.3519 30.583C60.3597 29.4236 60.0496 28.3036 59.441 27.2621Z" fill="white"/>
<path d="M24.0481 26.0529C22.8467 28.1909 20.8876 29.9201 18.8068 30.6786C15.7523 31.7908 13.1925 30.5724 12.5486 27.9433L28.2647 22.2447L28.2529 20.5077L28.249 20.4998C28.0802 15.493 23.9146 12.9424 18.8107 14.8013C13.5968 16.6956 9.3606 22.4805 9.3606 27.6957C9.3606 32.9108 13.5968 35.6068 18.8068 33.7086C21.8691 32.5925 24.7509 30.0498 26.5176 26.9018L26.7178 26.5442L24.2483 25.6953L24.0481 26.0529ZM12.5957 24.9211C13.3063 21.891 15.819 18.916 18.8068 17.8274C21.7945 16.7388 24.3033 17.8824 25.0178 20.3937L12.5957 24.9211Z" fill="white"/>
<path d="M31.7932 19.4543V17.6701L34.9851 16.5068V18.2911L31.7932 19.4543Z" fill="white"/>
<path d="M37.3381 16.5068V18.2911L40.53 19.4543V17.6701L37.3381 16.5068Z" fill="#4C4C4C"/>
<path d="M106.466 19.4543V17.6701L109.658 16.5068V18.2911L106.466 19.4543Z" fill="white"/>
<path d="M112.011 16.5068V18.2911L115.203 19.4543V17.6701L112.011 16.5068Z" fill="#4C4C4C"/>
<path d="M69.1279 28.0798V29.8641L72.3198 31.0273V29.2431L69.1279 28.0798Z" fill="#4C4C4C"/>
<path d="M74.6384 31.0273V29.2431L77.8264 28.0798V29.8641L74.6384 31.0273Z" fill="white"/>
<path d="M14.2 60.3291V61.1898H8.96265V60.5099L11.652 57.9239C11.8562 57.7038 12.0486 57.4955 12.2213 57.303C12.394 57.1104 12.5432 56.91 12.6689 56.7135C12.7906 56.513 12.8887 56.3126 12.9594 56.1122C13.0301 55.9117 13.0654 55.6956 13.0654 55.4677C13.0576 55.2319 13.0183 55.0314 12.9476 54.8624C12.877 54.6934 12.7749 54.552 12.6453 54.438C12.5158 54.324 12.3626 54.2376 12.1899 54.1825C12.0171 54.1275 11.8287 54.0961 11.6324 54.0961C11.4322 54.0961 11.2516 54.1236 11.0788 54.1825C10.91 54.2376 10.7608 54.3201 10.6312 54.4262C10.5017 54.5323 10.3957 54.6541 10.3054 54.7917C10.2151 54.9292 10.1562 55.0825 10.1208 55.2554C10.0934 55.3969 10.0777 55.5227 10.0777 55.6288L9.11969 55.4677C9.17073 55.1061 9.26888 54.7878 9.41807 54.5166C9.56726 54.2454 9.75179 54.0136 9.97558 53.8288C10.1994 53.6441 10.4546 53.5026 10.7451 53.4083C11.0356 53.314 11.3458 53.2668 11.6795 53.2668C12.0054 53.2668 12.3116 53.3179 12.6021 53.4162C12.8927 53.5144 13.1439 53.6599 13.3599 53.8485C13.5758 54.0371 13.7446 54.2651 13.8663 54.5362C13.988 54.8074 14.0469 55.114 14.0469 55.4598C14.0469 55.7506 14.0037 56.0218 13.9134 56.2733C13.8231 56.5248 13.7054 56.7606 13.5522 56.9846C13.4031 57.2087 13.2303 57.4287 13.034 57.6488C12.8377 57.8689 12.6296 58.089 12.4098 58.3091L10.2308 60.4666C10.38 60.4234 10.5292 60.392 10.6823 60.3723C10.8354 60.3527 10.9767 60.3409 11.1141 60.3409H14.2V60.3291Z" fill="#878C8A"/>
<path d="M20.7875 57.3108C20.7875 58.0064 20.7129 58.6038 20.5637 59.1068C20.4145 59.6099 20.2143 60.0304 19.9551 60.3605C19.6999 60.6946 19.3976 60.9382 19.0521 61.0994C18.7027 61.2605 18.3297 61.3391 17.9253 61.3391C17.521 61.3391 17.1441 61.2605 16.7986 61.0994C16.4491 60.9382 16.1468 60.6946 15.8877 60.3605C15.6286 60.0265 15.4284 59.6099 15.2831 59.1068C15.1378 58.6038 15.0632 58.0064 15.0632 57.3108C15.0632 56.6152 15.1378 56.0139 15.2831 55.507C15.4284 55 15.6325 54.5795 15.8877 54.2454C16.1468 53.9114 16.4491 53.6677 16.7986 53.5066C17.148 53.3454 17.521 53.2668 17.9253 53.2668C18.3297 53.2668 18.7066 53.3454 19.0521 53.5066C19.4016 53.6677 19.6999 53.9114 19.9551 54.2454C20.2103 54.5795 20.4145 55 20.5637 55.507C20.7129 56.0139 20.7875 56.6152 20.7875 57.3108ZM19.7981 57.303C19.7981 56.6938 19.7471 56.179 19.645 55.7624C19.5429 55.3458 19.4055 55.0118 19.2327 54.7603C19.06 54.5087 18.8598 54.328 18.632 54.2179C18.4043 54.1079 18.1688 54.0528 17.9214 54.0528C17.6741 54.0528 17.4346 54.1079 17.2108 54.2179C16.987 54.328 16.7868 54.5087 16.614 54.7603C16.4452 55.0118 16.3078 55.3458 16.2057 55.7624C16.1036 56.179 16.0526 56.6899 16.0526 57.303C16.0526 57.9082 16.1036 58.4152 16.2057 58.8317C16.3078 59.2483 16.4452 59.5824 16.614 59.8378C16.7829 60.0933 16.9831 60.278 17.2108 60.388C17.4385 60.4981 17.6741 60.5531 17.9214 60.5531C18.1688 60.5531 18.4083 60.4981 18.632 60.388C18.8598 60.278 19.06 60.0933 19.2327 59.8378C19.4055 59.5824 19.5429 59.2483 19.645 58.8317C19.7471 58.4191 19.7981 57.9082 19.7981 57.303Z" fill="#878C8A"/>
<path d="M26.8653 60.3291V61.1898H21.6279V60.5099L24.3173 57.9239C24.5215 57.7038 24.7138 57.4955 24.8866 57.303C25.0593 57.1065 25.2085 56.91 25.3342 56.7135C25.4598 56.517 25.554 56.3126 25.6247 56.1122C25.6954 55.9117 25.7307 55.6956 25.7307 55.4677C25.7228 55.2319 25.6836 55.0314 25.6129 54.8624C25.5422 54.6934 25.4402 54.552 25.3106 54.438C25.181 54.324 25.0279 54.2376 24.8552 54.1825C24.6824 54.1275 24.494 54.0961 24.2977 54.0961C24.1014 54.0961 23.9168 54.1236 23.7441 54.1825C23.5713 54.2415 23.4261 54.3201 23.2965 54.4262C23.1709 54.5323 23.0609 54.6541 22.9706 54.7917C22.8803 54.9292 22.8215 55.0825 22.7861 55.2554C22.7586 55.3969 22.7429 55.5227 22.7429 55.6288L21.785 55.4677C21.836 55.1061 21.9342 54.7878 22.0834 54.5166C22.2325 54.2454 22.4171 54.0136 22.6409 53.8288C22.8646 53.6441 23.1198 53.5026 23.4104 53.4083C23.7009 53.314 24.0111 53.2668 24.3448 53.2668C24.6706 53.2668 24.9769 53.3179 25.2674 53.4162C25.5579 53.5144 25.8092 53.6599 26.0251 53.8485C26.2411 54.0371 26.406 54.2651 26.5316 54.5362C26.6533 54.8074 26.7122 55.114 26.7122 55.4598C26.7122 55.7506 26.669 56.0218 26.5787 56.2733C26.4884 56.5248 26.3706 56.7606 26.2175 56.9846C26.0683 57.2087 25.8956 57.4287 25.6993 57.6488C25.503 57.8689 25.2949 58.089 25.075 58.3091L22.8961 60.4666C23.0452 60.4234 23.1944 60.392 23.3476 60.3723C23.5007 60.3527 23.642 60.3409 23.7794 60.3409H26.8653V60.3291Z" fill="#878C8A"/>
<path d="M33.4496 57.3108C33.4496 58.0064 33.375 58.6038 33.2258 59.1068C33.0766 59.6099 32.8764 60.0304 32.6172 60.3605C32.3621 60.6946 32.0597 60.9382 31.7142 61.0994C31.3648 61.2605 30.9918 61.3391 30.5875 61.3391C30.1831 61.3391 29.8062 61.2605 29.4607 61.0994C29.1152 60.9382 28.8089 60.6946 28.5498 60.3605C28.2907 60.0265 28.0905 59.6099 27.9452 59.1068C27.7999 58.6038 27.7253 58.0064 27.7253 57.3108C27.7253 56.6152 27.7999 56.0139 27.9452 55.507C28.0905 55 28.2946 54.5795 28.5498 54.2454C28.8089 53.9114 29.1113 53.6677 29.4607 53.5066C29.8101 53.3454 30.1831 53.2668 30.5875 53.2668C30.9918 53.2668 31.3688 53.3454 31.7142 53.5066C32.0637 53.6677 32.3621 53.9114 32.6172 54.2454C32.8724 54.5795 33.0766 55 33.2258 55.507C33.375 56.0139 33.4496 56.6152 33.4496 57.3108ZM32.4602 57.303C32.4602 56.6938 32.4092 56.179 32.3071 55.7624C32.205 55.3458 32.0676 55.0118 31.8948 54.7603C31.7221 54.5087 31.5219 54.328 31.2942 54.2179C31.0664 54.1079 30.8309 54.0528 30.5835 54.0528C30.3362 54.0528 30.0967 54.1079 29.8729 54.2179C29.6452 54.328 29.4489 54.5087 29.2761 54.7603C29.1073 55.0118 28.9699 55.3458 28.8678 55.7624C28.7658 56.179 28.7147 56.6899 28.7147 57.303C28.7147 57.9082 28.7658 58.4152 28.8678 58.8317C28.9699 59.2483 29.1073 59.5824 29.2761 59.8378C29.445 60.0933 29.6452 60.278 29.8729 60.388C30.1006 60.4981 30.3362 60.5531 30.5835 60.5531C30.8309 60.5531 31.0704 60.4981 31.2942 60.388C31.5219 60.278 31.7221 60.0933 31.8948 59.8378C32.0676 59.5824 32.205 59.2483 32.3071 58.8317C32.4092 58.4191 32.4602 57.9082 32.4602 57.303Z" fill="#878C8A"/>
<path d="M39.4595 55.1301C39.4595 55.5467 39.5027 55.9593 39.593 56.3641C39.6794 56.7689 39.8089 57.1501 39.9817 57.5078C40.1544 57.8654 40.3625 58.1916 40.6138 58.4824C40.8651 58.7732 41.1556 59.009 41.4893 59.1937L40.9593 59.8304C40.4921 59.5553 40.0956 59.1741 39.7736 58.6868C39.4517 58.1994 39.2083 57.6532 39.0473 57.044C38.8824 57.7042 38.635 58.2977 38.2974 58.8243C37.9598 59.3509 37.5554 59.7636 37.0803 60.0623L36.5503 59.4138C36.884 59.2173 37.1785 58.9619 37.4376 58.6553C37.6967 58.3448 37.9126 58.0029 38.0854 57.6296C38.2581 57.2562 38.3916 56.8554 38.4819 56.427C38.5722 56.0026 38.6193 55.5703 38.6193 55.1301V54.2694H36.8133V53.5581H41.1595V54.2694H39.4595V55.1301V55.1301ZM42.0115 52.6542H42.8399V61.481H42.0115V56.5803H40.441V55.8689H42.0115V52.6542ZM44.7637 52.4302V61.9683H43.9235V52.4302H44.7637Z" fill="#878C8A"/>
<path d="M55.0657 58.5846H51.1671V61.9762H50.2955V58.5846H46.4519V57.8733H55.0579L55.0657 58.5846ZM46.9623 56.3838C47.3745 56.3209 47.775 56.2069 48.1715 56.0497C48.5681 55.8886 48.9214 55.696 49.2355 55.4642C49.5496 55.2323 49.7969 54.9729 49.9854 54.686C50.1738 54.3991 50.2681 54.1005 50.2681 53.7861V53.735H47.2607V53.0315H54.2177V53.735H51.2339V53.7861C51.2339 54.0965 51.3281 54.3991 51.5166 54.686C51.705 54.9729 51.9524 55.2323 52.2664 55.4642C52.5766 55.696 52.9339 55.8886 53.3343 56.0497C53.7348 56.2109 54.1431 56.3209 54.5593 56.3838L54.2177 57.0755C53.8487 57.0126 53.4875 56.9144 53.1341 56.7886C52.7808 56.6628 52.451 56.5017 52.1447 56.317C51.8385 56.1284 51.5676 55.9161 51.3281 55.6803C51.0886 55.4445 50.8962 55.1812 50.7549 54.8983C50.6057 55.1812 50.4094 55.4406 50.1699 55.6803C49.9304 55.9161 49.6595 56.1323 49.3572 56.317C49.0549 56.5056 48.729 56.6628 48.3757 56.7886C48.0223 56.9183 47.6611 57.0126 47.2921 57.0755L46.9623 56.3838Z" fill="#878C8A"/>
<path d="M67.2307 59.9911V60.7024H58.5933V59.9911H67.2307ZM66.4023 57.9593C66.0411 57.8728 65.6799 57.751 65.3226 57.5859C64.9653 57.4248 64.6316 57.2244 64.3175 56.9846C64.0034 56.7449 63.7247 56.4777 63.4695 56.1829C63.2143 55.8842 63.014 55.558 62.8688 55.2043C62.7235 55.5502 62.5233 55.8764 62.2681 56.1711C62.0129 56.4698 61.7302 56.737 61.42 56.9729C61.1099 57.2087 60.7762 57.413 60.4228 57.5781C60.0695 57.7431 59.7122 57.8689 59.351 57.9554L58.9584 57.2322C59.3746 57.1458 59.7907 57.0004 60.203 56.7921C60.6152 56.5838 60.9842 56.3283 61.314 56.0257C61.6438 55.7231 61.9108 55.3851 62.115 55.0118C62.3191 54.6345 62.4251 54.2454 62.4251 53.8406V53.1057H63.3281V53.8406C63.3281 54.2454 63.4302 54.6345 63.6344 55.0118C63.8385 55.3891 64.1055 55.727 64.4353 56.0257C64.7651 56.3283 65.1381 56.5838 65.5503 56.796C65.9625 57.0082 66.3787 57.1536 66.7988 57.2322L66.4023 57.9593Z" fill="#878C8A"/>
<path d="M68.7495 53.3971H73.1271V59.5554H68.7495V53.3971ZM69.6093 58.8519H72.2634V54.1005H69.6093V58.8519ZM77.2691 56.9812H75.6987V61.9802H74.8271V52.4539H75.6987V56.2503H77.2691V56.9812Z" fill="#878C8A"/>
<path d="M86.7773 60.0304V60.7417H78.1282V60.0304H86.7773ZM85.7801 58.2894H79.2471V53.2708H85.6859V53.9742H80.1187V55.389H85.4739V56.0689H80.1187V57.5898H85.7801V58.2894V58.2894Z" fill="#878C8A"/>
<path d="M91.2934 54.9812C91.2934 55.4214 91.3602 55.8537 91.4937 56.2781C91.6271 56.7025 91.8117 57.0995 92.0394 57.465C92.271 57.8305 92.538 58.1567 92.8482 58.4475C93.1583 58.7383 93.4881 58.9623 93.8415 59.1156L93.3193 59.8191C92.7736 59.5479 92.2867 59.1509 91.8549 58.6243C91.423 58.0977 91.0932 57.4885 90.8655 56.8008C90.6456 57.5239 90.3198 58.1645 89.8879 58.7265C89.456 59.2846 88.9613 59.7129 88.3999 60.0038L87.8699 59.2924C88.2154 59.1234 88.5452 58.8876 88.8593 58.589C89.1733 58.2903 89.4442 57.9523 89.6759 57.5671C89.9075 57.1859 90.092 56.7733 90.2295 56.3292C90.3629 55.8851 90.4297 55.4371 90.4297 54.9851V53.2716H91.2895V54.9812H91.2934ZM95.7103 52.4385V62.0002H94.8387V52.4385H95.7103Z" fill="#878C8A"/>
<path d="M99.1533 58.9702C99.5851 58.9702 99.9895 58.9662 100.37 58.9544C100.747 58.9427 101.112 58.9269 101.466 58.9073C101.815 58.8876 102.161 58.8562 102.502 58.813C102.844 58.7697 103.189 58.7186 103.543 58.6518L103.629 59.3632C103.252 59.426 102.891 59.4811 102.541 59.5243C102.192 59.5675 101.831 59.599 101.462 59.6186C101.093 59.6383 100.712 59.654 100.319 59.6658C99.9267 59.6776 99.5027 59.6815 99.0512 59.6815H98.2974V53.3031H102.918V54.0144H99.1572V55.9834H102.569V56.6868H99.1572V58.9702H99.1533ZM105.506 52.4385V61.9648H104.634V52.4385H105.506Z" fill="#878C8A"/>
<path d="M114.217 57.2681C113.75 57.107 113.349 56.8673 113.016 56.5489C112.682 56.2345 112.427 55.8769 112.25 55.48C112.085 55.9123 111.838 56.3013 111.508 56.6511C111.178 57.0009 110.77 57.2642 110.299 57.4489L109.895 56.7887C110.193 56.6747 110.46 56.5254 110.695 56.3406C110.931 56.1559 111.135 55.9516 111.3 55.7276C111.465 55.5035 111.595 55.2677 111.689 55.0162C111.783 54.7647 111.826 54.5171 111.826 54.2656V54.2027H110.107V53.5228H111.826V52.4932H112.655V53.5228H114.355V54.2027H112.655V54.2656C112.655 54.5014 112.702 54.7372 112.792 54.973C112.882 55.2088 113.016 55.4328 113.185 55.6411C113.353 55.8494 113.561 56.038 113.801 56.207C114.04 56.3721 114.311 56.5057 114.61 56.6039L114.217 57.2681ZM118.241 61.1824V61.8623H111.614V59.5318H117.02V58.6279H111.591V57.948H117.88V60.1803H112.474V61.1785H118.241V61.1824ZM115.831 57.4607H115.022V52.6346H115.831V54.6114H117.04V52.4539H117.88V57.5472H117.04V55.3228H115.831V57.4607Z" fill="#878C8A"/>
<path d="M125.509 57.7985C125.129 57.8613 124.756 57.9164 124.398 57.9596C124.041 58.0028 123.68 58.0343 123.311 58.0539C122.942 58.0736 122.561 58.0893 122.164 58.1011C121.768 58.1129 121.344 58.1168 120.888 58.1168H120.115V55.2125H123.558V53.8213H120.083V53.1178H124.418V55.8727H120.975V57.4055C121.407 57.4055 121.815 57.4015 122.196 57.3897C122.577 57.3779 122.946 57.3622 123.299 57.3426C123.652 57.3229 124.002 57.2915 124.351 57.2483C124.697 57.205 125.054 57.1539 125.423 57.0871L125.509 57.7985ZM127.688 61.0525V61.7638H121.206V58.9264H122.078V61.0525H127.688ZM127.421 59.4687H126.55V52.4497H127.421V59.4687Z" fill="#878C8A"/>
<path d="M132.783 55.354C132.783 55.7588 132.85 56.1596 132.983 56.5566C133.117 56.9535 133.301 57.3229 133.529 57.6688C133.756 58.0146 134.027 58.3211 134.338 58.5884C134.644 58.8596 134.978 59.0678 135.331 59.2172L134.844 59.9207C134.569 59.7949 134.302 59.6298 134.051 59.4333C133.8 59.2368 133.564 59.0128 133.348 58.7613C133.132 58.5137 132.94 58.2386 132.771 57.9439C132.602 57.6491 132.461 57.3347 132.347 57.0085C132.241 57.3544 132.104 57.6884 131.931 58.0068C131.758 58.3251 131.57 58.6238 131.358 58.8949C131.146 59.17 130.914 59.4137 130.667 59.6298C130.419 59.846 130.16 60.0228 129.889 60.1565L129.379 59.453C129.72 59.2879 130.042 59.0639 130.353 58.7731C130.659 58.4823 130.93 58.1522 131.161 57.7827C131.393 57.4133 131.574 57.0203 131.707 56.6037C131.841 56.1871 131.907 55.7706 131.907 55.3579V54.1475H129.697V53.4361H135.021V54.1475H132.779V55.354H132.783ZM137.184 52.4497V61.9761H136.312V52.4497H137.184Z" fill="#878C8A"/>
</svg>
