<svg width="147" height="62" viewBox="0 0 147 62" fill="none" xmlns="http://www.w3.org/2000/svg">
<path d="M37.3379 35.0283V0L72.3209 12.7376V47.7659L37.3379 35.0283Z" fill="#878C8A"/>
<path d="M0 47.7659V12.7376L34.9831 0V35.0283L0 47.7659Z" fill="white"/>
<path d="M112.018 35.0283V0L147.001 12.7376V47.7659L112.018 35.0283Z" fill="#AEB5B3"/>
<path d="M74.6797 47.7659V12.7376L109.663 0V35.0283L74.6797 47.7659Z" fill="#9FA5A3"/>
<path d="M130.429 15.2932L130.35 15.018L127.68 14.0352L120.26 30.822L123.636 32.0407L125.403 27.7949L132.706 30.4682L134.512 36.0114L137.849 37.2301L130.429 15.2932ZM131.646 27.3231L126.345 25.3968L128.976 19.0673L131.646 27.3231Z" fill="white"/>
<path d="M99.294 17.1808C98.5873 16.0407 97.5665 15.333 96.2315 15.0578C94.9359 14.7826 93.4046 14.9399 91.7163 15.5689L86.0625 17.6132V37.1127L86.4551 36.9948L91.6378 35.1077C93.3654 34.4394 94.9359 33.4959 96.2315 32.2771C97.5665 31.0584 98.5873 29.6038 99.294 27.9527C100.001 26.3015 100.354 24.5717 100.354 22.7633V21.5446C100.354 19.7755 100.001 18.3209 99.294 17.1808ZM97.1738 22.7633V23.8641C97.1738 25.9477 96.6634 27.7561 95.6819 29.2107C94.7003 30.6653 93.3261 31.7268 91.52 32.3951L89.282 33.2207V19.2644L91.7949 18.3602C93.5224 17.7312 94.8181 17.8098 95.7604 18.5961C96.7027 19.343 97.1738 20.7583 97.1738 22.7633Z" fill="white"/>
<path d="M59.444 27.2847C59.0121 26.4984 58.3839 25.8301 57.6772 25.2011C58.3054 25.0438 58.8158 24.7686 59.2084 24.2969C59.7974 23.6679 60.0722 22.9209 60.0722 22.0167C60.0722 20.2476 59.5225 18.6357 58.4625 17.2598C57.4024 15.8838 55.9104 14.8223 54.065 14.154C52.2982 13.525 50.8455 13.4857 49.6676 14.1147C48.4897 14.7437 47.9008 15.8838 47.9008 17.4563V17.8495L51.0418 18.9895V18.5964C51.0418 17.7315 51.3166 17.1418 51.8271 16.8273C52.3767 16.5128 53.0835 16.5128 54.0258 16.8666C55.9889 17.5743 56.9312 18.8323 56.9312 20.8373C56.9312 21.7022 56.6564 22.2919 56.1067 22.5671C55.5177 22.8816 54.7325 22.8423 53.7117 22.4884L51.5522 21.7022V24.4148L53.7117 25.2011C54.8895 25.6335 55.7533 26.2232 56.3815 26.9702C56.9705 27.7171 57.2453 28.5427 57.2453 29.5256C57.2453 30.5477 56.9705 31.216 56.4601 31.5699C55.9104 31.8844 55.1251 31.8844 54.1043 31.4912C53.1227 31.1374 52.3375 30.587 51.7878 29.8401C51.2381 29.0931 50.9633 28.3462 50.9633 27.4419V27.0488L47.8223 25.9087V26.3019C47.8223 27.953 48.4112 29.5649 49.5891 31.0195C50.767 32.4348 52.2982 33.5355 54.1436 34.2039C55.9889 34.8722 57.5201 34.9115 58.6588 34.2825C59.8366 33.6535 60.4256 32.4348 60.4256 30.6263C60.3471 29.4469 60.0722 28.3068 59.444 27.2847Z" fill="white"/>
<path d="M24.0297 26.0635C22.8126 28.1864 20.8887 29.9162 18.8078 30.7025C15.7453 31.8033 13.1932 30.5846 12.565 27.9506L28.2701 22.2501V20.5203C28.1131 15.5275 23.9512 12.9721 18.8471 14.8199C13.6251 16.7069 9.38477 22.486 9.38477 27.7147C9.38477 32.9434 13.6251 35.6167 18.8471 33.7296C21.9096 32.6289 24.7757 30.0735 26.5426 26.9284L26.7389 26.5746L24.2653 25.7097L24.0297 26.0635ZM12.6043 24.9234C13.311 21.8963 15.8238 18.9085 18.8078 17.847C21.7918 16.7462 24.3046 17.8863 25.0113 20.4024L12.6043 24.9234Z" fill="#404050"/>
<path d="M31.8027 19.4598V17.6909L34.9818 16.5117V18.2805L31.8027 19.4598Z" fill="white"/>
<path d="M37.3379 16.5117V18.2805L40.517 19.4598V17.6909L37.3379 16.5117Z" fill="#4C4C4C"/>
<path d="M106.479 19.4598V17.6909L109.658 16.5117V18.2805L106.479 19.4598Z" fill="white"/>
<path d="M112.018 16.5117V18.2805L115.197 19.4598V17.6909L112.018 16.5117Z" fill="#4C4C4C"/>
<path d="M69.1406 28.1094V29.8782L72.3197 31.0181V29.2493L69.1406 28.1094Z" fill="#4C4C4C"/>
<path d="M74.6367 31.0181V29.2493L77.8158 28.1094V29.8782L74.6367 31.0181Z" fill="white"/>
<path d="M14.2143 60.3462V61.2111H8.95312V60.5428L11.623 57.9481C11.8193 57.7122 12.0156 57.5156 12.1727 57.3191C12.3297 57.1225 12.4868 56.9259 12.6046 56.7294C12.7223 56.5328 12.8401 56.3362 12.8794 56.1397C12.9187 55.9431 12.9972 55.7072 12.9972 55.5107C12.9972 55.2748 12.9579 55.0782 12.8794 54.9209C12.8009 54.7637 12.7223 54.6064 12.5653 54.4885C12.4082 54.3706 12.2905 54.2919 12.0941 54.2133C11.9371 54.174 11.7408 54.1347 11.5445 54.1347C11.3481 54.1347 11.1518 54.174 10.9948 54.2133C10.8377 54.2526 10.6807 54.3706 10.5629 54.4492C10.4451 54.5671 10.3273 54.6851 10.2488 54.803C10.1703 54.9603 10.0917 55.0782 10.0525 55.2748C10.0132 55.432 10.0132 55.55 10.0132 55.6286L9.07091 55.4713C9.11018 55.1175 9.22796 54.803 9.38501 54.5278C9.54207 54.2526 9.73838 54.0167 9.93469 53.8202C10.1703 53.6236 10.4058 53.5057 10.7199 53.3877C11.034 53.2698 11.3089 53.2305 11.6623 53.2305C11.9764 53.2305 12.2905 53.2698 12.6046 53.3877C12.9187 53.5057 13.1542 53.6236 13.3505 53.8202C13.5469 54.0167 13.7432 54.2526 13.861 54.4885C13.9787 54.7637 14.0573 55.0782 14.0573 55.432C14.0573 55.7072 14.018 55.9824 13.9395 56.2576C13.861 56.5328 13.7432 56.7294 13.5861 56.9652C13.4291 57.2011 13.272 57.3977 13.0757 57.6336C12.8794 57.8695 12.6831 58.066 12.4475 58.3019L10.2881 60.4642C10.4451 60.4248 10.6022 60.3855 10.7592 60.3855C10.9163 60.3462 11.0733 60.3462 11.1911 60.3462H14.2143Z" fill="white"/>
<path d="M20.7695 57.3208C20.7695 58.0284 20.6909 58.6181 20.5339 59.1292C20.3768 59.6403 20.1805 60.0334 19.9449 60.3872C19.6701 60.7017 19.3953 60.9769 19.0419 61.1342C18.6885 61.2914 18.3352 61.3701 17.9033 61.3701C17.5107 61.3701 17.118 61.2914 16.7647 61.1342C16.4113 60.9769 16.0972 60.741 15.8616 60.3872C15.6261 60.0334 15.3905 59.6403 15.2727 59.1292C15.1156 58.6181 15.0371 58.0284 15.0371 57.3208C15.0371 56.6131 15.1156 56.0234 15.2727 55.5124C15.4297 55.0013 15.6261 54.5688 15.8616 54.2543C16.1365 53.9398 16.4113 53.6646 16.7647 53.5074C17.118 53.3501 17.4714 53.2715 17.9033 53.2715C18.2959 53.2715 18.6885 53.3501 19.0419 53.5074C19.3953 53.6646 19.7094 53.9005 19.9449 54.2543C20.2198 54.5688 20.4161 55.0013 20.5339 55.5124C20.7302 56.0234 20.7695 56.6524 20.7695 57.3208ZM19.7879 57.3208C19.7879 56.6918 19.7486 56.1807 19.6308 55.7875C19.5131 55.3944 19.3953 55.0406 19.199 54.8047C19.0419 54.5688 18.8063 54.3723 18.61 54.2543C18.3744 54.1364 18.1389 54.0971 17.9033 54.0971C17.6677 54.0971 17.4321 54.1364 17.1966 54.2543C16.961 54.3723 16.7647 54.5295 16.6076 54.8047C16.4506 55.0406 16.2935 55.3944 16.215 55.7875C16.0972 56.22 16.0579 56.7311 16.0579 57.3208C16.0579 57.9105 16.0972 58.4215 16.215 58.854C16.3328 59.2864 16.4506 59.601 16.6076 59.8762C16.7647 60.1513 16.961 60.3086 17.1966 60.4265C17.4321 60.5445 17.6677 60.5838 17.9033 60.5838C18.1389 60.5838 18.3744 60.5445 18.61 60.4265C18.8456 60.3086 19.0419 60.1513 19.199 59.8762C19.356 59.601 19.5131 59.2864 19.6308 58.854C19.7486 58.4215 19.7879 57.9105 19.7879 57.3208Z" fill="white"/>
<path d="M26.8606 60.3462V61.2111H21.6387V60.5428L24.3085 57.9481C24.5048 57.7122 24.7012 57.5156 24.8582 57.3191C25.0153 57.1225 25.1723 56.9259 25.2901 56.7294C25.4079 56.5328 25.5257 56.3362 25.5649 56.1397C25.6042 55.9431 25.6827 55.7072 25.6827 55.5107C25.6827 55.2748 25.6435 55.0782 25.5649 54.9209C25.4864 54.7637 25.4079 54.6064 25.2508 54.4885C25.1331 54.3706 24.976 54.2919 24.7797 54.2133C24.6226 54.174 24.4263 54.1347 24.23 54.1347C24.0337 54.1347 23.8374 54.174 23.6803 54.2133C23.5233 54.2526 23.3662 54.3706 23.2484 54.4492C23.1307 54.5671 23.0129 54.6851 22.9343 54.803C22.8558 54.9603 22.7773 55.0782 22.738 55.2748C22.6988 55.432 22.6988 55.55 22.6988 55.6286L21.7565 55.4713C21.7957 55.1175 21.9135 54.803 22.0706 54.5278C22.2276 54.2526 22.4239 54.0167 22.6202 53.8202C22.8558 53.6236 23.0914 53.5057 23.4055 53.3877C23.7196 53.2698 23.9944 53.2305 24.3478 53.2305C24.6619 53.2305 24.976 53.2698 25.2901 53.3877C25.5649 53.5057 25.8398 53.6236 26.0361 53.8202C26.2324 54.0167 26.4287 54.2526 26.5465 54.4885C26.6643 54.7637 26.7428 55.0782 26.7428 55.432C26.7428 55.7072 26.7036 55.9824 26.625 56.2576C26.5465 56.4935 26.4287 56.7294 26.2717 56.9652C26.1146 57.2011 25.9576 57.3977 25.7613 57.6336C25.5649 57.8695 25.3686 58.066 25.1331 58.3019L22.9736 60.4642C23.1307 60.4248 23.2877 60.3855 23.4448 60.3855C23.6018 60.3462 23.7589 60.3462 23.8766 60.3462H26.8606Z" fill="white"/>
<path d="M33.455 57.3208C33.455 58.0284 33.3765 58.6181 33.2194 59.1292C33.0624 59.6403 32.8661 60.0334 32.6305 60.3872C32.3557 60.7017 32.0808 60.9769 31.7275 61.1342C31.3741 61.2914 31.0207 61.3701 30.5888 61.3701C30.1962 61.3701 29.8036 61.2914 29.4502 61.1342C29.0969 60.9769 28.7827 60.741 28.5472 60.3872C28.3116 60.0334 28.076 59.6403 27.9582 59.1292C27.8012 58.6181 27.7227 58.0284 27.7227 57.3208C27.7227 56.6131 27.8012 56.0234 27.9582 55.5124C28.1153 55.0013 28.3116 54.5688 28.5472 54.2543C28.822 53.9398 29.0969 53.6646 29.4502 53.5074C29.8036 53.3501 30.1569 53.2715 30.5888 53.2715C30.9815 53.2715 31.3741 53.3501 31.7275 53.5074C32.0808 53.6646 32.3949 53.9005 32.6305 54.2543C32.9053 54.5688 33.1016 55.0013 33.2194 55.5124C33.3765 56.0234 33.455 56.6524 33.455 57.3208ZM32.4734 57.3208C32.4734 56.6918 32.4342 56.1807 32.3164 55.7875C32.1986 55.3944 32.0808 55.0406 31.8845 54.8047C31.7274 54.5688 31.4919 54.3723 31.2956 54.2543C31.0992 54.1364 30.8244 54.0971 30.5888 54.0971C30.3533 54.0971 30.1177 54.1364 29.8821 54.2543C29.6465 54.3723 29.4502 54.5295 29.2932 54.8047C29.1361 55.0406 28.9791 55.3944 28.9005 55.7875C28.822 56.1807 28.7435 56.7311 28.7435 57.3208C28.7435 57.9105 28.7827 58.4215 28.9005 58.854C29.0183 59.2864 29.1361 59.601 29.2932 59.8762C29.4502 60.1513 29.6465 60.3086 29.8821 60.4265C30.1177 60.5445 30.3533 60.5838 30.5888 60.5838C30.8244 60.5838 31.06 60.5445 31.2956 60.4265C31.5311 60.3086 31.7274 60.1513 31.8845 59.8762C32.0416 59.601 32.1986 59.2864 32.3164 58.854C32.4342 58.4215 32.4734 57.9105 32.4734 57.3208Z" fill="white"/>
<path d="M39.4605 55.1579C39.4605 55.5904 39.4998 55.9835 39.5783 56.3767C39.6568 56.7698 39.8139 57.1629 39.9709 57.5168C40.128 57.8706 40.3636 58.1851 40.5991 58.4996C40.8347 58.7748 41.1488 59.0107 41.4629 59.2072L40.9132 59.8362C40.4421 59.5611 40.0495 59.1679 39.7354 58.6962C39.4213 58.2244 39.1857 57.674 38.9894 57.045C38.8323 57.7133 38.5575 58.303 38.2434 58.8141C37.89 59.3252 37.4974 59.7576 37.0262 60.0721L36.4766 59.4038C36.7907 59.2072 37.1048 58.932 37.3796 58.6568C37.6544 58.3423 37.8508 57.9885 38.0471 57.6347C38.2434 57.2809 38.3612 56.8484 38.4397 56.416C38.5182 55.9835 38.5967 55.5511 38.5967 55.1186V54.2537H36.7907V53.5461H41.1488V54.2537H39.4605V55.1579V55.1579ZM42.0126 52.6812H42.8371V61.5267H42.0126V56.6125H40.4421V55.9049H42.0126V52.6812ZM44.761 52.4453V61.9985H43.9365V52.4453H44.761Z" fill="white"/>
<path d="M55.0868 58.6174H51.1998V61.9984H50.336V58.6174H46.4883V57.9098H55.0868V58.6174ZM46.9594 56.4159C47.3521 56.3372 47.7839 56.2586 48.1766 56.062C48.5692 55.9048 48.9226 55.7082 49.2367 55.4723C49.5508 55.2365 49.7863 55.0006 49.9827 54.6861C50.179 54.4109 50.2575 54.0964 50.2575 53.7819V53.7425H47.2343V53.0742H54.1838V53.7819H51.1998V53.8212C51.1998 54.1357 51.2783 54.4502 51.4746 54.7254C51.671 55.0006 51.9065 55.2758 52.2206 55.5117C52.5347 55.7475 52.8881 55.9441 53.2807 56.1014C53.6734 56.2586 54.1052 56.3766 54.4979 56.4552L54.1445 57.1628C53.7911 57.0842 53.3985 57.0056 53.0452 56.8876C52.6918 56.7697 52.3777 56.6124 52.0636 56.4159C51.7495 56.2193 51.4746 56.0227 51.2391 55.7868C51.0035 55.551 50.8072 55.2758 50.6501 55.0006C50.4931 55.2758 50.2968 55.551 50.0612 55.7868C49.8256 56.0227 49.5508 56.2193 49.2367 56.4159C48.9226 56.6124 48.6085 56.7697 48.2551 56.8876C47.9017 57.0056 47.5484 57.1235 47.1557 57.1628L46.9594 56.4159Z" fill="white"/>
<path d="M67.2198 59.9946V60.7022H58.582V59.9946H67.2198ZM66.3953 57.9896C66.0419 57.911 65.6886 57.793 65.3352 57.6358C64.9818 57.4785 64.6285 57.282 64.3144 57.0461C64.0003 56.8102 63.7254 56.535 63.4506 56.2598C63.215 55.9453 62.9795 55.6308 62.8617 55.277C62.7046 55.6308 62.5083 55.9453 62.2727 56.2598C62.0372 56.5743 61.723 56.8102 61.4089 57.0461C61.0948 57.282 60.7807 57.4785 60.4274 57.6358C60.074 57.793 59.7206 57.911 59.3673 58.0289L58.9747 57.3213C59.4065 57.2426 59.7992 57.0854 60.2311 56.8888C60.6237 56.6923 61.0163 56.4171 61.3304 56.1419C61.6445 55.8274 61.9194 55.5129 62.1157 55.1197C62.312 54.7266 62.4298 54.3728 62.4298 53.9403V53.1934H63.3328V53.9403C63.3328 54.3334 63.4506 54.7266 63.6469 55.1197C63.8432 55.5129 64.1181 55.8274 64.4322 56.1419C64.7463 56.4564 65.1389 56.6923 65.5315 56.9281C65.9634 57.1247 66.356 57.282 66.7879 57.3606L66.3953 57.9896Z" fill="white"/>
<path d="M68.752 53.4259H73.1101V59.5982H68.752V53.4259ZM69.6157 58.8905H72.2856V54.1336H69.6157V58.8905ZM77.272 57.0035H75.7014V61.9963H74.8377V52.4824H75.7014V56.2958H77.272V57.0035Z" fill="white"/>
<path d="M86.7726 60.0727V60.7804H78.1348V60.0727H86.7726ZM85.791 58.3036H79.2734V53.2715H85.7125V53.9791H80.1372V55.3944H85.4769V56.0627H80.1372V57.596H85.791V58.3036V58.3036Z" fill="white"/>
<path d="M91.2889 55.0007C91.2889 55.4331 91.3674 55.8656 91.4852 56.298C91.603 56.7305 91.7993 57.1236 92.0349 57.4774C92.2705 57.8313 92.5453 58.1851 92.8594 58.4603C93.1735 58.7355 93.4876 58.9714 93.841 59.1286L93.3306 59.8362C92.7809 59.5611 92.3097 59.1679 91.8778 58.6568C91.4459 58.1458 91.1318 57.5168 90.8963 56.8484C90.6607 57.5561 90.3466 58.2244 89.9147 58.7748C89.4828 59.3252 88.9724 59.7576 88.4227 60.0328L87.873 59.3252C88.2264 59.1679 88.5405 58.932 88.8546 58.6175C89.1687 58.303 89.4436 57.9885 89.6791 57.5954C89.9147 57.2022 90.111 56.8091 90.2288 56.3374C90.3466 55.9049 90.4251 55.4331 90.4251 55.0007V53.2709H91.2889V55.0007V55.0007ZM95.7256 52.4453V61.9985H94.8618V52.4453H95.7256Z" fill="white"/>
<path d="M99.178 58.9714C99.6099 58.9714 100.003 58.9714 100.395 58.9714C100.788 58.9714 101.141 58.932 101.495 58.932C101.848 58.8927 102.201 58.8927 102.515 58.8534C102.869 58.8141 103.183 58.7748 103.575 58.6962L103.654 59.4038C103.261 59.4824 102.908 59.5217 102.555 59.5611C102.201 59.6004 101.848 59.6397 101.495 59.6397C101.141 59.679 100.749 59.679 100.356 59.679C99.9633 59.679 99.5314 59.679 99.0995 59.679H98.3535V53.3102H102.987V54.0179H99.2173V55.9835H102.633V56.6912H99.2173V58.9714H99.178ZM105.499 52.4453V61.9592H104.636V52.4453H105.499Z" fill="white"/>
<path d="M114.215 57.2809C113.744 57.1236 113.352 56.8877 112.998 56.5732C112.684 56.2587 112.409 55.9049 112.252 55.5118C112.095 55.9442 111.86 56.3373 111.506 56.6912C111.153 57.045 110.76 57.3202 110.289 57.4774L109.896 56.8091C110.211 56.6912 110.446 56.5339 110.682 56.3767C110.917 56.1801 111.114 55.9835 111.271 55.7476C111.428 55.5118 111.585 55.2759 111.663 55.04C111.742 54.8041 111.82 54.5289 111.82 54.2931V54.2144H110.093V53.5461H111.82V52.5239H112.645V53.5461H114.333V54.2144H112.645V54.2931C112.645 54.5289 112.684 54.7648 112.802 55.0007C112.88 55.2366 113.037 55.4725 113.195 55.669C113.352 55.8656 113.587 56.0622 113.823 56.2194C114.058 56.3767 114.333 56.5339 114.647 56.6125L114.215 57.2809ZM118.259 61.2122V61.8805H111.624V59.5611H117.042V58.6568H111.624V57.9885H117.906V60.2294H112.488V61.2122H118.259V61.2122ZM115.825 57.4774H115.04V52.6419H115.864V54.6076H117.082V52.4453H117.906V57.5561H117.082V55.3152H115.825V57.4774Z" fill="white"/>
<path d="M125.525 57.8313C125.133 57.9099 124.779 57.9492 124.426 57.9885C124.073 58.0278 123.719 58.0671 123.327 58.0671C122.973 58.1065 122.581 58.1065 122.188 58.1065C121.796 58.1065 121.364 58.1065 120.932 58.1065H120.146V55.1973H123.602V53.8606H120.146V53.153H124.465V55.9049H121.01V57.4381C121.442 57.4381 121.835 57.4381 122.227 57.4381C122.62 57.4381 122.973 57.3988 123.327 57.3988C123.68 57.3595 124.033 57.3595 124.387 57.3202C124.74 57.2809 125.094 57.2416 125.447 57.1629L125.525 57.8313ZM127.685 61.0943V61.8019H121.207V58.9714H122.07V61.0943H127.685V61.0943ZM127.449 59.4824H126.586V52.4453H127.449V59.4824Z" fill="white"/>
<path d="M132.789 55.3523C132.789 55.7454 132.868 56.1386 132.985 56.571C133.103 56.9642 133.3 57.3573 133.535 57.6718C133.771 57.9863 134.046 58.3401 134.36 58.576C134.674 58.8512 134.988 59.0478 135.341 59.205L134.87 59.9127C134.595 59.7947 134.32 59.6375 134.085 59.4409C133.849 59.2443 133.614 59.0085 133.378 58.7726C133.142 58.5367 132.985 58.2615 132.789 57.947C132.593 57.6325 132.475 57.318 132.357 57.0035C132.239 57.3573 132.122 57.6718 131.925 57.9863C131.729 58.3008 131.572 58.6153 131.336 58.8905C131.14 59.1657 130.904 59.4016 130.63 59.6375C130.394 59.8734 130.119 60.0306 129.844 60.1486L129.334 59.4409C129.687 59.2837 130.001 59.0478 130.316 58.7726C130.63 58.4974 130.904 58.1436 131.14 57.7897C131.376 57.4359 131.572 57.0428 131.69 56.6103C131.808 56.1779 131.886 55.7848 131.886 55.3523V54.1336H129.687V53.4653H135.027V54.1729H132.789V55.3523V55.3523ZM137.187 52.4824V61.9963H136.323V52.4824H137.187Z" fill="white"/>
</svg>
