<svg width="44" height="94" viewBox="0 0 44 94" fill="none" xmlns="http://www.w3.org/2000/svg">
<g clip-path="url(#clip0_2471_5669)">
<path d="M16.5177 29.7532C16.8018 29.7532 17.0743 29.6391 17.2752 29.436C17.476 29.2329 17.5889 28.9574 17.5889 28.6702V23.4675C17.5797 23.1863 17.4628 22.9197 17.2628 22.724C17.0628 22.5283 16.7954 22.4189 16.5171 22.4189C16.2388 22.4189 15.9714 22.5283 15.7714 22.724C15.5714 22.9197 15.4545 23.1863 15.4453 23.4675V28.6702C15.4453 28.8125 15.4731 28.9534 15.527 29.0849C15.5809 29.2164 15.6599 29.3358 15.7595 29.4364C15.8591 29.537 15.9773 29.6167 16.1074 29.6711C16.2375 29.7255 16.3769 29.7534 16.5177 29.7532Z" fill="white"/>
<path d="M16.5177 29.7532C16.8018 29.7532 17.0743 29.6391 17.2752 29.436C17.476 29.2329 17.5889 28.9574 17.5889 28.6702V23.4675C17.5797 23.1863 17.4628 22.9197 17.2628 22.724C17.0628 22.5283 16.7954 22.4189 16.5171 22.4189C16.2388 22.4189 15.9714 22.5283 15.7714 22.724C15.5714 22.9197 15.4545 23.1863 15.4453 23.4675V28.6702C15.4453 28.8125 15.4731 28.9534 15.527 29.0849C15.5809 29.2164 15.6599 29.3358 15.7595 29.4364C15.8591 29.537 15.9773 29.6167 16.1074 29.6711C16.2375 29.7255 16.3769 29.7534 16.5177 29.7532Z" fill="url(#paint0_linear_2471_5669)"/>
<path d="M43.2448 9.30465C43.0445 9.30465 42.8524 9.38509 42.7108 9.52828C42.5692 9.67148 42.4896 9.86569 42.4896 10.0682V14.0962C42.4702 15.3485 41.9645 16.543 41.0816 17.4217C40.1988 18.3004 39.0096 18.7929 37.7708 18.7929C36.532 18.7929 35.3428 18.3004 34.46 17.4217C33.5771 16.543 33.0714 15.3485 33.052 14.0962V8.41659C33.052 6.18437 32.1749 4.04358 30.6138 2.46516C29.0526 0.886745 26.9352 0 24.7274 0C22.5196 0 20.4022 0.886745 18.8411 2.46516C17.2799 4.04358 16.4028 6.18437 16.4028 8.41659V20.1317C16.4031 20.3271 16.4674 20.517 16.5858 20.6715C16.7041 20.8261 16.8698 20.9366 17.057 20.9857C17.5221 21.1082 17.934 21.3831 18.2282 21.7673C18.5225 22.1515 18.6826 22.6235 18.6835 23.1095V31.633C18.6835 32.2146 18.455 32.7725 18.0482 33.1838C17.6414 33.5951 17.0897 33.8261 16.5144 33.8261C15.9391 33.8261 15.3874 33.5951 14.9806 33.1838C14.5738 32.7725 14.3452 32.2146 14.3452 31.633V23.1095C14.3449 22.8064 14.4067 22.5065 14.5267 22.2287C14.6467 21.9509 14.8222 21.7013 15.0423 21.4955C15.1341 21.4193 15.2096 21.325 15.264 21.2184C15.3185 21.1117 15.3508 20.9949 15.359 20.8751C15.3672 20.7553 15.3511 20.6352 15.3116 20.5219C15.2722 20.4087 15.2103 20.3048 15.1298 20.2166C15.0492 20.1284 14.9517 20.0578 14.8432 20.0091C14.7346 19.9604 14.6174 19.9346 14.4987 19.9334C14.3799 19.9321 14.2622 19.9554 14.1527 20.0019C14.0432 20.0483 13.9442 20.1168 13.8619 20.2033C13.4639 20.5741 13.146 21.0241 12.9283 21.525C12.7106 22.026 12.5977 22.567 12.5967 23.1142V31.6377C12.5967 32.6866 13.0088 33.6927 13.7424 34.4344C14.4761 35.1761 15.4711 35.5928 16.5086 35.5928C17.5461 35.5928 18.5411 35.1761 19.2747 34.4344C20.0083 33.6927 20.4205 32.6866 20.4205 31.6377V23.1095C20.4197 22.3522 20.2043 21.611 19.7996 20.9737C19.395 20.3364 18.8182 19.8298 18.1375 19.5138V14.2136C18.2358 14.2246 18.3334 14.2363 18.4303 14.2489C25.7568 15.2156 31.2814 21.5824 31.2825 29.0593V44.3007C31.2825 52.5376 24.66 59.238 16.5086 59.238C12.593 59.2315 8.83978 57.6554 6.07182 54.8553C3.30386 52.0552 1.74706 48.2596 1.74276 44.3007V29.0616C1.74276 21.5848 7.2673 15.218 14.595 14.2512C14.7085 14.2358 14.8178 14.1979 14.9167 14.1398C15.0157 14.0817 15.1024 14.0044 15.1718 13.9124C15.2412 13.8204 15.2921 13.7154 15.3214 13.6036C15.3507 13.4917 15.3579 13.3751 15.3427 13.2604C15.3274 13.1457 15.29 13.0352 15.2324 12.9351C15.1749 12.835 15.0985 12.7474 15.0075 12.6772C14.9165 12.607 14.8127 12.5556 14.7021 12.526C14.5914 12.4964 14.4761 12.4891 14.3627 12.5045C6.1775 13.584 0 20.7026 0 29.0616V44.3007C0 53.5091 7.40905 61 16.5167 61C25.6244 61 33.0322 53.5091 33.0334 44.3007V29.0616C33.0334 20.7026 26.8559 13.584 18.6638 12.5045C18.4163 12.4716 18.1653 12.4446 17.9132 12.4234V8.41659C17.9132 6.58938 18.6312 4.83701 19.9091 3.54497C21.187 2.25294 22.9202 1.52709 24.7274 1.52709C26.5347 1.52709 28.2679 2.25294 29.5458 3.54497C30.8237 4.83701 31.5416 6.58938 31.5416 8.41659V14.0962C31.564 15.7516 32.2301 17.3316 33.3959 18.4943C34.5616 19.6569 36.1333 20.3088 37.7708 20.3088C39.4083 20.3088 40.98 19.6569 42.1457 18.4943C43.3115 17.3316 43.9776 15.7516 44 14.0962V10.0682C44 9.86569 43.9204 9.67148 43.7788 9.52828C43.6372 9.38509 43.4451 9.30465 43.2448 9.30465Z" fill="white"/>
<path d="M43.2448 9.30465C43.0445 9.30465 42.8524 9.38509 42.7108 9.52828C42.5692 9.67148 42.4896 9.86569 42.4896 10.0682V14.0962C42.4702 15.3485 41.9645 16.543 41.0816 17.4217C40.1988 18.3004 39.0096 18.7929 37.7708 18.7929C36.532 18.7929 35.3428 18.3004 34.46 17.4217C33.5771 16.543 33.0714 15.3485 33.052 14.0962V8.41659C33.052 6.18437 32.1749 4.04358 30.6138 2.46516C29.0526 0.886745 26.9352 0 24.7274 0C22.5196 0 20.4022 0.886745 18.8411 2.46516C17.2799 4.04358 16.4028 6.18437 16.4028 8.41659V20.1317C16.4031 20.3271 16.4674 20.517 16.5858 20.6715C16.7041 20.8261 16.8698 20.9366 17.057 20.9857C17.5221 21.1082 17.934 21.3831 18.2282 21.7673C18.5225 22.1515 18.6826 22.6235 18.6835 23.1095V31.633C18.6835 32.2146 18.455 32.7725 18.0482 33.1838C17.6414 33.5951 17.0897 33.8261 16.5144 33.8261C15.9391 33.8261 15.3874 33.5951 14.9806 33.1838C14.5738 32.7725 14.3452 32.2146 14.3452 31.633V23.1095C14.3449 22.8064 14.4067 22.5065 14.5267 22.2287C14.6467 21.9509 14.8222 21.7013 15.0423 21.4955C15.1341 21.4193 15.2096 21.325 15.264 21.2184C15.3185 21.1117 15.3508 20.9949 15.359 20.8751C15.3672 20.7553 15.3511 20.6352 15.3116 20.5219C15.2722 20.4087 15.2103 20.3048 15.1298 20.2166C15.0492 20.1284 14.9517 20.0578 14.8432 20.0091C14.7346 19.9604 14.6174 19.9346 14.4987 19.9334C14.3799 19.9321 14.2622 19.9554 14.1527 20.0019C14.0432 20.0483 13.9442 20.1168 13.8619 20.2033C13.4639 20.5741 13.146 21.0241 12.9283 21.525C12.7106 22.026 12.5977 22.567 12.5967 23.1142V31.6377C12.5967 32.6866 13.0088 33.6927 13.7424 34.4344C14.4761 35.1761 15.4711 35.5928 16.5086 35.5928C17.5461 35.5928 18.5411 35.1761 19.2747 34.4344C20.0083 33.6927 20.4205 32.6866 20.4205 31.6377V23.1095C20.4197 22.3522 20.2043 21.611 19.7996 20.9737C19.395 20.3364 18.8182 19.8298 18.1375 19.5138V14.2136C18.2358 14.2246 18.3334 14.2363 18.4303 14.2489C25.7568 15.2156 31.2814 21.5824 31.2825 29.0593V44.3007C31.2825 52.5376 24.66 59.238 16.5086 59.238C12.593 59.2315 8.83978 57.6554 6.07182 54.8553C3.30386 52.0552 1.74706 48.2596 1.74276 44.3007V29.0616C1.74276 21.5848 7.2673 15.218 14.595 14.2512C14.7085 14.2358 14.8178 14.1979 14.9167 14.1398C15.0157 14.0817 15.1024 14.0044 15.1718 13.9124C15.2412 13.8204 15.2921 13.7154 15.3214 13.6036C15.3507 13.4917 15.3579 13.3751 15.3427 13.2604C15.3274 13.1457 15.29 13.0352 15.2324 12.9351C15.1749 12.835 15.0985 12.7474 15.0075 12.6772C14.9165 12.607 14.8127 12.5556 14.7021 12.526C14.5914 12.4964 14.4761 12.4891 14.3627 12.5045C6.1775 13.584 0 20.7026 0 29.0616V44.3007C0 53.5091 7.40905 61 16.5167 61C25.6244 61 33.0322 53.5091 33.0334 44.3007V29.0616C33.0334 20.7026 26.8559 13.584 18.6638 12.5045C18.4163 12.4716 18.1653 12.4446 17.9132 12.4234V8.41659C17.9132 6.58938 18.6312 4.83701 19.9091 3.54497C21.187 2.25294 22.9202 1.52709 24.7274 1.52709C26.5347 1.52709 28.2679 2.25294 29.5458 3.54497C30.8237 4.83701 31.5416 6.58938 31.5416 8.41659V14.0962C31.564 15.7516 32.2301 17.3316 33.3959 18.4943C34.5616 19.6569 36.1333 20.3088 37.7708 20.3088C39.4083 20.3088 40.98 19.6569 42.1457 18.4943C43.3115 17.3316 43.9776 15.7516 44 14.0962V10.0682C44 9.86569 43.9204 9.67148 43.7788 9.52828C43.6372 9.38509 43.4451 9.30465 43.2448 9.30465Z" fill="url(#paint1_linear_2471_5669)"/>
</g>
<path d="M17.75 60C17.75 59.5858 17.4142 59.25 17 59.25C16.5858 59.25 16.25 59.5858 16.25 60H17.75ZM16.25 93C16.25 93.4142 16.5858 93.75 17 93.75C17.4142 93.75 17.75 93.4142 17.75 93H16.25ZM16.25 60V93H17.75V60H16.25Z" fill="white"/>
<path d="M17.75 60C17.75 59.5858 17.4142 59.25 17 59.25C16.5858 59.25 16.25 59.5858 16.25 60H17.75ZM16.25 93C16.25 93.4142 16.5858 93.75 17 93.75C17.4142 93.75 17.75 93.4142 17.75 93H16.25ZM16.25 60V93H17.75V60H16.25Z" fill="url(#paint2_linear_2471_5669)"/>
<defs>
<linearGradient id="paint0_linear_2471_5669" x1="16.5171" y1="22.4189" x2="16.5171" y2="29.7532" gradientUnits="userSpaceOnUse">
<stop stop-color="white"/>
<stop offset="1" stop-color="white" stop-opacity="0"/>
</linearGradient>
<linearGradient id="paint1_linear_2471_5669" x1="22" y1="0" x2="22" y2="61" gradientUnits="userSpaceOnUse">
<stop stop-color="white"/>
<stop offset="1" stop-color="white" stop-opacity="0"/>
</linearGradient>
<linearGradient id="paint2_linear_2471_5669" x1="17.5" y1="60" x2="17.5" y2="93" gradientUnits="userSpaceOnUse">
<stop stop-color="white"/>
<stop offset="1" stop-color="white" stop-opacity="0"/>
</linearGradient>
<clipPath id="clip0_2471_5669">
<rect width="44" height="61" fill="white"/>
</clipPath>
</defs>
</svg>
