<svg width="50" height="51" viewBox="0 0 50 51" fill="none" xmlns="http://www.w3.org/2000/svg">
<path fill-rule="evenodd" clip-rule="evenodd" d="M35.5903 3.84765L29.9036 0.594194L29.2128 0.370154L28.4949 0.197253L27.7548 0.0779271L26.9902 0.0121761L26.201 0L25.3921 0.043834L24.5611 0.143678L23.7129 0.301968L22.8451 0.516267L21.9624 0.789012L21.0626 1.11777L20.148 1.50984L19.2187 1.95792L18.2795 2.46932L17.3379 3.03429L16.411 3.64553L15.4964 4.30304L14.5966 4.99951L13.7115 5.73982L12.8436 6.51666L11.9954 7.33246L11.1644 8.17991L10.3555 9.06146L9.56631 9.97467L8.80169 10.9147L8.0592 11.8839L7.34376 12.875L6.6529 13.8905L5.98909 14.9279L5.35477 15.9824L4.74996 17.0539L4.17466 18.1424L3.63131 19.2431L3.12239 20.3536L2.64788 21.4738L2.2078 22.6013L1.80213 23.7337L1.43581 24.8685L1.10882 26.0057L0.821164 27.1406L0.575306 28.2754L0.371245 29.4029L0.211437 30.5231L0.0934258 31.6384L0.0245857 32.7391L0 33.8301L0.0245857 34.8919L0.0934258 35.9122L0.211437 36.8912L0.371245 37.8288L0.575306 38.7225L0.821164 39.5748L1.10882 40.3809L1.43581 41.1431L1.80213 41.859L2.2078 42.5287L2.64788 43.1521L3.12239 43.7293L3.63131 44.2577L4.17466 44.735L9.86134 47.9885L9.32045 47.5088L8.80907 46.9827L8.33457 46.4056L7.89448 45.7822L7.49127 45.1125L7.12495 44.3965L6.79796 43.6343L6.5103 42.8258L6.26199 41.9759L6.05793 41.0822L5.89812 40.1446L5.78257 39.1657L5.71127 38.1429L5.68668 37.0811L5.71127 35.9926L5.78257 34.8894L5.89812 33.7765L6.05793 32.6539L6.26199 31.5264L6.5103 30.394L6.79796 29.2568L7.12495 28.1195L7.49127 26.9847L7.89448 25.8523L8.33457 24.7248L8.80907 23.6046L9.32045 22.4942L9.86134 21.3934L10.4366 20.3073L11.0415 19.2358L11.6782 18.1789L12.3396 17.144L13.0304 16.1285L13.7483 15.1349L14.4884 14.1681L15.2554 13.2257L16.0422 12.3149L16.8535 11.4334L17.6821 10.5835L18.5327 9.77011L19.4006 8.99084L20.2832 8.25297L21.1831 7.55406L22.0977 6.89899L23.027 6.28774L23.9662 5.72277L24.9078 5.21138L25.8347 4.76086L26.7493 4.37122L27.6491 4.04003L28.5342 3.76729L29.3996 3.55543L30.2503 3.39714L31.0788 3.29729L31.8902 3.25346L32.6769 3.2632L33.4415 3.32895L34.184 3.44828L34.8995 3.62118L35.5903 3.84765Z" fill="#BF392A"/>
<path fill-rule="evenodd" clip-rule="evenodd" d="M23.967 47.5301C34.0594 41.7586 42.2416 27.7244 42.2416 16.1815C42.2416 4.63851 34.0594 -0.04686 23.967 5.72462C13.8745 11.4961 5.6875 25.5327 5.6875 37.083C5.6875 48.6333 13.8745 53.3016 23.967 47.5301Z" fill="#E74C3C"/>
<path fill-rule="evenodd" clip-rule="evenodd" d="M23.9664 42.9856C32.0428 38.3587 38.59 27.1348 38.59 17.9028C38.59 8.67089 32.0428 4.91578 23.9664 9.5354C15.89 14.155 9.33789 25.3887 9.33789 34.6328C9.33789 43.8769 15.8826 47.6028 23.9664 42.9856Z" fill="white"/>
<path fill-rule="evenodd" clip-rule="evenodd" d="M23.9664 42.9856C32.0428 38.3587 38.59 27.1348 38.59 17.9028C38.59 8.67089 32.0428 4.91578 23.9664 9.5354C15.89 14.155 9.33789 25.3887 9.33789 34.6328C9.33789 43.8769 15.8826 47.6028 23.9664 42.9856Z" fill="url(#paint0_linear_2875_6617)"/>
<path fill-rule="evenodd" clip-rule="evenodd" d="M23.9619 38.8143C30.0247 35.349 34.9394 26.9158 34.9394 19.9827C34.9394 13.0497 30.0223 10.2418 23.9619 13.7072C17.9015 17.1725 12.9844 25.6032 12.9844 32.5387C12.9844 39.4743 17.8991 42.2821 23.9619 38.8143Z" fill="#E74C3C"/>
<path fill-rule="evenodd" clip-rule="evenodd" d="M23.9613 18.2448C28.0081 15.9314 31.2903 17.8065 31.2903 22.4358C31.2903 27.0652 28.0081 32.693 23.9613 35.0089C19.9145 37.3248 16.6348 35.4472 16.6348 30.8179C16.6348 26.1885 19.9145 20.5607 23.9613 18.2448Z" fill="white"/>
<path fill-rule="evenodd" clip-rule="evenodd" d="M23.9613 18.2448C28.0081 15.9314 31.2903 17.8065 31.2903 22.4358C31.2903 27.0652 28.0081 32.693 23.9613 35.0089C19.9145 37.3248 16.6348 35.4472 16.6348 30.8179C16.6348 26.1885 19.9145 20.5607 23.9613 18.2448Z" fill="url(#paint1_linear_2875_6617)"/>
<path fill-rule="evenodd" clip-rule="evenodd" d="M23.9633 30.4618C21.9325 31.6234 20.2754 30.681 20.2754 28.3602C20.2754 26.0394 21.9202 23.2146 23.9633 22.0554C26.0063 20.8962 27.6388 21.8338 27.6388 24.157C27.6388 26.4802 25.9916 29.3002 23.9633 30.4618Z" fill="#E74C3C"/>
<path fill-rule="evenodd" clip-rule="evenodd" d="M35.5923 3.84765L29.9056 0.594194L29.2148 0.370154L28.4993 0.197253L27.7568 0.0779271L26.9922 0.0121761L26.203 0L25.3942 0.043834L24.5632 0.143678L23.715 0.301968L22.8471 0.516267L21.9644 0.789012L21.0646 1.11777L20.15 1.50984L19.2207 1.95792L18.2815 2.46932L17.3399 3.03429L16.413 3.64553L15.4984 4.30304L14.5986 4.99951L13.7135 5.73982L12.8456 6.51666L11.9974 7.33246L11.1664 8.17991L10.3575 9.06146L9.56832 9.97467L8.8037 10.9147L8.06122 11.8839L7.34577 12.875L6.65491 13.8905L5.9911 14.9279L5.35678 15.9824L4.75198 17.0539L4.17667 18.1424L3.63332 19.2431L3.1244 20.3536L2.6499 21.4738L2.20981 22.6013L1.80415 23.7337L1.43782 24.8685L1.32227 25.2752L7.00895 28.5262L7.12696 28.1195L7.49328 26.9847L7.89649 25.8523L8.33658 24.7248L8.81108 23.6046L9.32246 22.4942L9.86581 21.3934L10.4387 20.3073L11.0435 19.2358L11.6802 18.1789L12.3416 17.144L13.0325 16.1285L13.7504 15.1349L14.4904 14.1681L15.2575 13.2257L16.0442 12.3149L16.8555 11.4334L17.6841 10.5835L18.5347 9.77011L19.4026 8.99084L20.2852 8.25297L21.1851 7.55406L22.0997 6.89899L23.029 6.28775L23.9682 5.72277L24.9098 5.21138L25.8367 4.76086L26.7513 4.37123L27.6511 4.04003L28.5362 3.76729L29.4016 3.55543L30.2523 3.39714L31.0808 3.29729L31.8922 3.25346L32.6789 3.2632L33.4435 3.32895L34.186 3.44828L34.9015 3.62118L35.5923 3.84765Z" fill="#BF392A"/>
<path fill-rule="evenodd" clip-rule="evenodd" d="M5.26562 16.1397L10.9548 19.3932L11.0408 19.2373L11.6776 18.1805L12.3389 17.1455L13.0298 16.13L13.7477 15.1364L14.4877 14.1696L15.2548 13.2272L16.0416 12.3164L16.8529 11.4349L17.6814 10.585L18.5321 9.77163L19.4 8.99235L20.2826 8.25448L21.1824 7.55557L22.097 6.9005L23.0264 6.28926L23.9655 5.72428L24.9072 5.21289L25.834 4.76237L26.7486 4.37274L27.6485 4.04155L28.5336 3.7688L29.399 3.55694L29.9054 3.46196L24.2163 0.210938L23.7123 0.303476L22.8444 0.517776L21.9618 0.790521L21.062 1.11928L20.1474 1.51135L19.218 1.95943L18.2789 2.47083L17.3372 3.0358L16.4103 3.64704L15.4957 4.30455L14.5959 5.00102L13.7108 5.74133L12.8429 6.51817L11.9947 7.33397L11.1637 8.18143L10.3549 9.06298L9.56567 9.97619L8.80105 10.9162L8.05856 11.8854L7.34312 12.8765L6.65226 13.892L5.98845 14.9294L5.35413 15.9839L5.26562 16.1397Z" fill="#BF392A"/>
<path fill-rule="evenodd" clip-rule="evenodd" d="M23.967 47.5301C34.0594 41.7586 42.2416 27.7244 42.2416 16.1815C42.2416 4.63851 34.0594 -0.04686 23.967 5.72462C13.8745 11.4961 5.6875 25.5327 5.6875 37.083C5.6875 48.6333 13.8745 53.3016 23.967 47.5301ZM23.967 47.0431C14.1106 52.6806 6.11529 48.1145 6.11529 36.8419C6.11529 25.5693 14.1106 11.8516 23.967 6.2141C33.8234 0.576558 41.8138 5.14747 41.8138 16.4274C41.8138 27.7074 33.8308 41.4079 23.967 47.0406V47.0431Z" fill="#BF392A"/>
<path fill-rule="evenodd" clip-rule="evenodd" d="M37.8223 33.5292L40.9324 32.1995C41.07 32.1387 41.1782 32.2312 41.2839 32.2969L49.6431 37.0578C49.7669 37.1232 49.8665 37.226 49.9275 37.3512C49.9885 37.4764 50.0077 37.6176 49.9823 37.7543C49.9233 38.0197 48.967 38.4483 48.6277 38.6285L47.6443 39.1521L37.8223 33.5292Z" fill="#E74C3C"/>
<path fill-rule="evenodd" clip-rule="evenodd" d="M37.6016 34.0156L37.9925 37.2472C38.0121 37.3982 38.14 37.4371 38.2531 37.5029L46.5926 42.3003C46.7119 42.3738 46.8518 42.4078 46.9919 42.3973C47.1321 42.3868 47.2652 42.3323 47.372 42.2418C47.5736 42.0592 47.4678 41.1241 47.458 40.7442L47.426 39.6386L37.6016 34.0156Z" fill="#E74C3C"/>
<path fill-rule="evenodd" clip-rule="evenodd" d="M47.7201 40.246L23.8031 26.5674C23.7448 26.5343 23.6936 26.4901 23.6526 26.4374C23.6116 26.3847 23.5815 26.3244 23.5642 26.2601C23.5468 26.1958 23.5425 26.1288 23.5514 26.0628C23.5603 25.9968 23.5824 25.9332 23.6162 25.8758L23.7834 25.586C23.817 25.5281 23.8618 25.4774 23.9153 25.4368C23.9688 25.3961 24.0298 25.3663 24.0949 25.3491C24.16 25.3319 24.2279 25.3277 24.2947 25.3365C24.3615 25.3454 24.4259 25.3673 24.4841 25.4009L48.3962 39.0869C48.5135 39.1541 48.5991 39.2647 48.6341 39.3944C48.6692 39.524 48.6508 39.6622 48.5831 39.7785L48.4183 40.0609C48.35 40.1767 48.2383 40.261 48.1076 40.2956C47.9769 40.3303 47.8376 40.3125 47.7201 40.246Z" fill="#383838"/>
<defs>
<linearGradient id="paint0_linear_2875_6617" x1="23.9639" y1="7.55859" x2="23.9639" y2="44.9665" gradientUnits="userSpaceOnUse">
<stop stop-color="white"/>
<stop offset="1" stop-color="white" stop-opacity="0"/>
</linearGradient>
<linearGradient id="paint1_linear_2875_6617" x1="23.9625" y1="17.2539" x2="23.9625" y2="36.0009" gradientUnits="userSpaceOnUse">
<stop stop-color="white"/>
<stop offset="1" stop-color="white" stop-opacity="0"/>
</linearGradient>
</defs>
</svg>
