<svg width="512" height="512" viewBox="0 0 512 512" fill="none" xmlns="http://www.w3.org/2000/svg">
<rect width="512" height="512" fill="#4C56C0"/>
<path d="M150.018 456.795C182.061 456.795 208.036 430.681 208.036 398.469C208.036 366.256 182.061 340.143 150.018 340.143C117.976 340.143 92 366.256 92 398.469C92 430.681 117.976 456.795 150.018 456.795Z" fill="white"/>
<path d="M363.07 55C350.541 55.0174 338.358 59.1285 328.356 66.7136C305.346 77.3466 280.251 82.6403 254.93 82.2027C231.374 82.5177 208 78.0222 186.223 68.9886H115.783V157.663H186.175C207.945 148.736 231.276 144.292 254.786 144.595C279.459 144.225 303.933 149.074 326.622 158.825C333.844 164.505 342.306 168.375 351.31 170.116C360.314 171.857 369.601 171.419 378.403 168.838C387.205 166.257 395.269 161.607 401.93 155.272C408.591 148.937 413.656 141.1 416.707 132.408C419.759 123.716 420.708 114.418 419.478 105.284C418.248 96.1499 414.873 87.4412 409.632 79.8778C404.391 72.3144 397.435 66.1135 389.339 61.7876C381.242 57.4617 372.238 55.1351 363.07 55Z" fill="url(#paint0_linear_2201:947)"/>
<path d="M150.018 171.652C182.061 171.652 208.036 145.539 208.036 113.326C208.036 81.1134 182.061 55 150.018 55C117.976 55 92 81.1134 92 113.326C92 145.539 117.976 171.652 150.018 171.652Z" fill="white"/>
<path d="M298.168 198.262C286.061 198.299 274.272 202.16 264.465 209.298L263.887 209.782C262.202 211.04 260.613 212.395 259.072 213.799C248.721 221.711 236.017 225.881 223.016 225.636C210.015 225.39 197.476 220.742 187.428 212.444H150.018V300.925H187.573C197.959 292.424 210.961 287.815 224.355 287.885C237.748 287.956 250.701 292.702 260.998 301.312C268.145 307.186 276.589 311.253 285.621 313.172C294.653 315.09 304.011 314.805 312.911 312.341C321.811 309.876 329.994 305.303 336.775 299.005C343.555 292.707 348.736 284.868 351.883 276.143C355.03 267.418 356.051 258.062 354.862 248.859C353.673 239.656 350.307 230.873 345.047 223.247C339.787 215.62 332.785 209.371 324.629 205.024C316.473 200.677 307.399 198.358 298.168 198.262Z" fill="url(#paint1_linear_2201:947)"/>
<path d="M150.018 312.312C182.061 312.312 208.036 286.199 208.036 253.986C208.036 221.774 182.061 195.66 150.018 195.66C117.976 195.66 92 221.774 92 253.986C92 286.199 117.976 312.312 150.018 312.312Z" fill="white"/>
<defs>
<linearGradient id="paint0_linear_2201:947" x1="114.885" y1="112.214" x2="419.261" y2="112.214" gradientUnits="userSpaceOnUse">
<stop stop-color="white" stop-opacity="0"/>
<stop offset="0.640625" stop-color="white"/>
</linearGradient>
<linearGradient id="paint1_linear_2201:947" x1="355.182" y1="256.391" x2="149.213" y2="256.391" gradientUnits="userSpaceOnUse">
<stop offset="0.362226" stop-color="white"/>
<stop offset="1" stop-color="white" stop-opacity="0"/>
</linearGradient>
</defs>
</svg>
