<svg width="100" height="100" viewBox="0 0 100 100" fill="none" xmlns="http://www.w3.org/2000/svg">
<path d="M91.6668 38.5006L61.7085 35.9173L50.0002 8.33398L38.2918 35.959L8.3335 38.5006L31.0835 58.209L24.2502 87.5006L50.0002 71.959L75.7502 87.5006L68.9585 58.209L91.6668 38.5006ZM50.0002 64.1673L34.3335 73.6256L38.5002 55.7923L24.6668 43.7923L42.9168 42.209L50.0002 25.4173L57.1252 42.2507L75.3752 43.834L61.5418 55.834L65.7085 73.6673L50.0002 64.1673Z" fill="white"/>
<path d="M91.6668 38.5006L61.7085 35.9173L50.0002 8.33398L38.2918 35.959L8.3335 38.5006L31.0835 58.209L24.2502 87.5006L50.0002 71.959L75.7502 87.5006L68.9585 58.209L91.6668 38.5006ZM50.0002 64.1673L34.3335 73.6256L38.5002 55.7923L24.6668 43.7923L42.9168 42.209L50.0002 25.4173L57.1252 42.2507L75.3752 43.834L61.5418 55.834L65.7085 73.6673L50.0002 64.1673Z" fill="url(#paint0_linear_4472:3679)"/>
<defs>
<linearGradient id="paint0_linear_4472:3679" x1="50.0002" y1="8.33398" x2="50.0002" y2="87.5006" gradientUnits="userSpaceOnUse">
<stop stop-color="white"/>
<stop offset="1" stop-color="white" stop-opacity="0"/>
</linearGradient>
</defs>
</svg>
