<svg width="100" height="100" viewBox="0 0 100 100" fill="none" xmlns="http://www.w3.org/2000/svg">
<path d="M50.0002 8.33398C27.0002 8.33398 8.3335 27.0007 8.3335 50.0007C8.3335 73.0007 27.0002 91.6673 50.0002 91.6673C73.0002 91.6673 91.6668 73.0007 91.6668 50.0007C91.6668 27.0007 73.0002 8.33398 50.0002 8.33398ZM29.4585 76.1673C31.2502 72.4173 42.1668 68.7507 50.0002 68.7507C57.8335 68.7507 68.7918 72.4173 70.5418 76.1673C64.8752 80.6673 57.7502 83.334 50.0002 83.334C42.2502 83.334 35.1252 80.6673 29.4585 76.1673ZM76.5002 70.1257C70.5418 62.8757 56.0835 60.4173 50.0002 60.4173C43.9168 60.4173 29.4585 62.8757 23.5002 70.1257C19.2502 64.5423 16.6668 57.584 16.6668 50.0007C16.6668 31.6257 31.6252 16.6673 50.0002 16.6673C68.3752 16.6673 83.3335 31.6257 83.3335 50.0007C83.3335 57.584 80.7502 64.5423 76.5002 70.1257ZM50.0002 25.0007C41.9168 25.0007 35.4168 31.5007 35.4168 39.584C35.4168 47.6673 41.9168 54.1673 50.0002 54.1673C58.0835 54.1673 64.5835 47.6673 64.5835 39.584C64.5835 31.5007 58.0835 25.0007 50.0002 25.0007ZM50.0002 45.834C46.5418 45.834 43.7502 43.0423 43.7502 39.584C43.7502 36.1257 46.5418 33.334 50.0002 33.334C53.4585 33.334 56.2502 36.1257 56.2502 39.584C56.2502 43.0423 53.4585 45.834 50.0002 45.834Z" fill="white"/>
<path d="M50.0002 8.33398C27.0002 8.33398 8.3335 27.0007 8.3335 50.0007C8.3335 73.0007 27.0002 91.6673 50.0002 91.6673C73.0002 91.6673 91.6668 73.0007 91.6668 50.0007C91.6668 27.0007 73.0002 8.33398 50.0002 8.33398ZM29.4585 76.1673C31.2502 72.4173 42.1668 68.7507 50.0002 68.7507C57.8335 68.7507 68.7918 72.4173 70.5418 76.1673C64.8752 80.6673 57.7502 83.334 50.0002 83.334C42.2502 83.334 35.1252 80.6673 29.4585 76.1673ZM76.5002 70.1257C70.5418 62.8757 56.0835 60.4173 50.0002 60.4173C43.9168 60.4173 29.4585 62.8757 23.5002 70.1257C19.2502 64.5423 16.6668 57.584 16.6668 50.0007C16.6668 31.6257 31.6252 16.6673 50.0002 16.6673C68.3752 16.6673 83.3335 31.6257 83.3335 50.0007C83.3335 57.584 80.7502 64.5423 76.5002 70.1257ZM50.0002 25.0007C41.9168 25.0007 35.4168 31.5007 35.4168 39.584C35.4168 47.6673 41.9168 54.1673 50.0002 54.1673C58.0835 54.1673 64.5835 47.6673 64.5835 39.584C64.5835 31.5007 58.0835 25.0007 50.0002 25.0007ZM50.0002 45.834C46.5418 45.834 43.7502 43.0423 43.7502 39.584C43.7502 36.1257 46.5418 33.334 50.0002 33.334C53.4585 33.334 56.2502 36.1257 56.2502 39.584C56.2502 43.0423 53.4585 45.834 50.0002 45.834Z" fill="url(#paint0_linear_4472:3636)"/>
<defs>
<linearGradient id="paint0_linear_4472:3636" x1="50.0002" y1="8.33398" x2="50.0002" y2="91.6673" gradientUnits="userSpaceOnUse">
<stop stop-color="white"/>
<stop offset="1" stop-color="white" stop-opacity="0"/>
</linearGradient>
</defs>
</svg>
