<svg width="100" height="100" viewBox="0 0 100 100" fill="none" xmlns="http://www.w3.org/2000/svg">
<path d="M79.1662 20.8333V79.1667H20.8328V20.8333H79.1662ZM79.1662 12.5H20.8328C16.2495 12.5 12.4995 16.25 12.4995 20.8333V79.1667C12.4995 83.75 16.2495 87.5 20.8328 87.5H79.1662C83.7495 87.5 87.4995 83.75 87.4995 79.1667V20.8333C87.4995 16.25 83.7495 12.5 79.1662 12.5Z" fill="white"/>
<path d="M79.1662 20.8333V79.1667H20.8328V20.8333H79.1662ZM79.1662 12.5H20.8328C16.2495 12.5 12.4995 16.25 12.4995 20.8333V79.1667C12.4995 83.75 16.2495 87.5 20.8328 87.5H79.1662C83.7495 87.5 87.4995 83.75 87.4995 79.1667V20.8333C87.4995 16.25 83.7495 12.5 79.1662 12.5Z" fill="url(#paint0_linear_4472:3648)"/>
<defs>
<linearGradient id="paint0_linear_4472:3648" x1="49.9995" y1="12.5" x2="49.9995" y2="87.5" gradientUnits="userSpaceOnUse">
<stop stop-color="white"/>
<stop offset="1" stop-color="white" stop-opacity="0"/>
</linearGradient>
</defs>
</svg>
