<svg width="100" height="100" viewBox="0 0 100 100" fill="none" xmlns="http://www.w3.org/2000/svg">
<path d="M50.0002 8.33398C27.0002 8.33398 8.3335 27.0007 8.3335 50.0007C8.3335 73.0007 27.0002 91.6673 50.0002 91.6673C73.0002 91.6673 91.6668 73.0007 91.6668 50.0007C91.6668 27.0007 73.0002 8.33398 50.0002 8.33398ZM50.0002 83.334C31.6252 83.334 16.6668 68.3757 16.6668 50.0007C16.6668 31.6257 31.6252 16.6673 50.0002 16.6673C68.3752 16.6673 83.3335 31.6257 83.3335 50.0007C83.3335 68.3757 68.3752 83.334 50.0002 83.334ZM69.1252 31.584L41.6668 59.0423L30.8752 48.2923L25.0002 54.1673L41.6668 70.834L75.0002 37.5007L69.1252 31.584Z" fill="white"/>
<path d="M50.0002 8.33398C27.0002 8.33398 8.3335 27.0007 8.3335 50.0007C8.3335 73.0007 27.0002 91.6673 50.0002 91.6673C73.0002 91.6673 91.6668 73.0007 91.6668 50.0007C91.6668 27.0007 73.0002 8.33398 50.0002 8.33398ZM50.0002 83.334C31.6252 83.334 16.6668 68.3757 16.6668 50.0007C16.6668 31.6257 31.6252 16.6673 50.0002 16.6673C68.3752 16.6673 83.3335 31.6257 83.3335 50.0007C83.3335 68.3757 68.3752 83.334 50.0002 83.334ZM69.1252 31.584L41.6668 59.0423L30.8752 48.2923L25.0002 54.1673L41.6668 70.834L75.0002 37.5007L69.1252 31.584Z" fill="url(#paint0_linear_4472:3601)"/>
<defs>
<linearGradient id="paint0_linear_4472:3601" x1="50.0002" y1="8.33398" x2="50.0002" y2="91.6673" gradientUnits="userSpaceOnUse">
<stop stop-color="white"/>
<stop offset="1" stop-color="white" stop-opacity="0"/>
</linearGradient>
</defs>
</svg>
