<svg width="100" height="100" viewBox="0 0 100 100" fill="none" xmlns="http://www.w3.org/2000/svg">
<path d="M50.0002 29.1667V12.5H8.3335V87.5H91.6668V29.1667H50.0002ZM25.0002 79.1667H16.6668V70.8333H25.0002V79.1667ZM25.0002 62.5H16.6668V54.1667H25.0002V62.5ZM25.0002 45.8333H16.6668V37.5H25.0002V45.8333ZM25.0002 29.1667H16.6668V20.8333H25.0002V29.1667ZM41.6668 79.1667H33.3335V70.8333H41.6668V79.1667ZM41.6668 62.5H33.3335V54.1667H41.6668V62.5ZM41.6668 45.8333H33.3335V37.5H41.6668V45.8333ZM41.6668 29.1667H33.3335V20.8333H41.6668V29.1667ZM83.3335 79.1667H50.0002V70.8333H58.3335V62.5H50.0002V54.1667H58.3335V45.8333H50.0002V37.5H83.3335V79.1667ZM75.0002 45.8333H66.6668V54.1667H75.0002V45.8333ZM75.0002 62.5H66.6668V70.8333H75.0002V62.5Z" fill="white"/>
<path d="M50.0002 29.1667V12.5H8.3335V87.5H91.6668V29.1667H50.0002ZM25.0002 79.1667H16.6668V70.8333H25.0002V79.1667ZM25.0002 62.5H16.6668V54.1667H25.0002V62.5ZM25.0002 45.8333H16.6668V37.5H25.0002V45.8333ZM25.0002 29.1667H16.6668V20.8333H25.0002V29.1667ZM41.6668 79.1667H33.3335V70.8333H41.6668V79.1667ZM41.6668 62.5H33.3335V54.1667H41.6668V62.5ZM41.6668 45.8333H33.3335V37.5H41.6668V45.8333ZM41.6668 29.1667H33.3335V20.8333H41.6668V29.1667ZM83.3335 79.1667H50.0002V70.8333H58.3335V62.5H50.0002V54.1667H58.3335V45.8333H50.0002V37.5H83.3335V79.1667ZM75.0002 45.8333H66.6668V54.1667H75.0002V45.8333ZM75.0002 62.5H66.6668V70.8333H75.0002V62.5Z" fill="url(#paint0_linear_4472:3657)"/>
<defs>
<linearGradient id="paint0_linear_4472:3657" x1="50.0002" y1="12.5" x2="50.0002" y2="87.5" gradientUnits="userSpaceOnUse">
<stop stop-color="white"/>
<stop offset="1" stop-color="white" stop-opacity="0"/>
</linearGradient>
</defs>
</svg>
