<svg width="100" height="100" viewBox="0 0 100 100" fill="none" xmlns="http://www.w3.org/2000/svg">
<path d="M66.6668 45.8333V12.5H33.3335V37.5H8.3335V87.5H91.6668V45.8333H66.6668ZM41.6668 20.8333H58.3335V79.1667H41.6668V20.8333ZM16.6668 45.8333H33.3335V79.1667H16.6668V45.8333ZM83.3335 79.1667H66.6668V54.1667H83.3335V79.1667Z" fill="white"/>
<path d="M66.6668 45.8333V12.5H33.3335V37.5H8.3335V87.5H91.6668V45.8333H66.6668ZM41.6668 20.8333H58.3335V79.1667H41.6668V20.8333ZM16.6668 45.8333H33.3335V79.1667H16.6668V45.8333ZM83.3335 79.1667H66.6668V54.1667H83.3335V79.1667Z" fill="url(#paint0_linear_4472:3660)"/>
<defs>
<linearGradient id="paint0_linear_4472:3660" x1="50.0002" y1="12.5" x2="50.0002" y2="87.5" gradientUnits="userSpaceOnUse">
<stop stop-color="white"/>
<stop offset="1" stop-color="white" stop-opacity="0"/>
</linearGradient>
</defs>
</svg>
