<svg width="100" height="100" viewBox="0 0 100 100" fill="none" xmlns="http://www.w3.org/2000/svg">
<path d="M91.6668 24.9993C91.6668 20.416 87.9168 16.666 83.3335 16.666H16.6668C12.0835 16.666 8.3335 20.416 8.3335 24.9993V74.9993C8.3335 79.5827 12.0835 83.3327 16.6668 83.3327H83.3335C87.9168 83.3327 91.6668 79.5827 91.6668 74.9993V24.9993ZM83.3335 24.9993L50.0002 45.8327L16.6668 24.9993H83.3335ZM83.3335 74.9993H16.6668V33.3327L50.0002 54.166L83.3335 33.3327V74.9993Z" fill="white"/>
<path d="M91.6668 24.9993C91.6668 20.416 87.9168 16.666 83.3335 16.666H16.6668C12.0835 16.666 8.3335 20.416 8.3335 24.9993V74.9993C8.3335 79.5827 12.0835 83.3327 16.6668 83.3327H83.3335C87.9168 83.3327 91.6668 79.5827 91.6668 74.9993V24.9993ZM83.3335 24.9993L50.0002 45.8327L16.6668 24.9993H83.3335ZM83.3335 74.9993H16.6668V33.3327L50.0002 54.166L83.3335 33.3327V74.9993Z" fill="url(#paint0_linear_4472:3706)"/>
<defs>
<linearGradient id="paint0_linear_4472:3706" x1="50.0002" y1="16.666" x2="50.0002" y2="83.3327" gradientUnits="userSpaceOnUse">
<stop stop-color="white"/>
<stop offset="1" stop-color="white" stop-opacity="0"/>
</linearGradient>
</defs>
</svg>
