<svg width="100" height="100" viewBox="0 0 100 100" fill="none" xmlns="http://www.w3.org/2000/svg">
<path d="M45.8335 75.0007H54.1668V66.6673H45.8335V75.0007ZM50.0002 8.33398C27.0002 8.33398 8.3335 27.0007 8.3335 50.0007C8.3335 73.0007 27.0002 91.6673 50.0002 91.6673C73.0002 91.6673 91.6668 73.0007 91.6668 50.0007C91.6668 27.0007 73.0002 8.33398 50.0002 8.33398ZM50.0002 83.334C31.6252 83.334 16.6668 68.3757 16.6668 50.0007C16.6668 31.6257 31.6252 16.6673 50.0002 16.6673C68.3752 16.6673 83.3335 31.6257 83.3335 50.0007C83.3335 68.3757 68.3752 83.334 50.0002 83.334ZM50.0002 25.0007C40.7918 25.0007 33.3335 32.459 33.3335 41.6673H41.6668C41.6668 37.084 45.4168 33.334 50.0002 33.334C54.5835 33.334 58.3335 37.084 58.3335 41.6673C58.3335 50.0007 45.8335 48.959 45.8335 62.5007H54.1668C54.1668 53.1257 66.6668 52.084 66.6668 41.6673C66.6668 32.459 59.2085 25.0007 50.0002 25.0007Z" fill="white"/>
<path d="M45.8335 75.0007H54.1668V66.6673H45.8335V75.0007ZM50.0002 8.33398C27.0002 8.33398 8.3335 27.0007 8.3335 50.0007C8.3335 73.0007 27.0002 91.6673 50.0002 91.6673C73.0002 91.6673 91.6668 73.0007 91.6668 50.0007C91.6668 27.0007 73.0002 8.33398 50.0002 8.33398ZM50.0002 83.334C31.6252 83.334 16.6668 68.3757 16.6668 50.0007C16.6668 31.6257 31.6252 16.6673 50.0002 16.6673C68.3752 16.6673 83.3335 31.6257 83.3335 50.0007C83.3335 68.3757 68.3752 83.334 50.0002 83.334ZM50.0002 25.0007C40.7918 25.0007 33.3335 32.459 33.3335 41.6673H41.6668C41.6668 37.084 45.4168 33.334 50.0002 33.334C54.5835 33.334 58.3335 37.084 58.3335 41.6673C58.3335 50.0007 45.8335 48.959 45.8335 62.5007H54.1668C54.1668 53.1257 66.6668 52.084 66.6668 41.6673C66.6668 32.459 59.2085 25.0007 50.0002 25.0007Z" fill="url(#paint0_linear_4472:3630)"/>
<defs>
<linearGradient id="paint0_linear_4472:3630" x1="50.0002" y1="8.33398" x2="50.0002" y2="91.6673" gradientUnits="userSpaceOnUse">
<stop stop-color="white"/>
<stop offset="1" stop-color="white" stop-opacity="0"/>
</linearGradient>
</defs>
</svg>
