<svg width="100" height="100" viewBox="0 0 100 100" fill="none" xmlns="http://www.w3.org/2000/svg">
<path d="M74.9998 33.3327H70.8332V24.9994C70.8332 13.4993 61.4998 4.16602 49.9998 4.16602C38.4998 4.16602 29.1665 13.4993 29.1665 24.9994V33.3327H24.9998C20.4165 33.3327 16.6665 37.0827 16.6665 41.666V83.3327C16.6665 87.916 20.4165 91.666 24.9998 91.666H74.9998C79.5832 91.666 83.3332 87.916 83.3332 83.3327V41.666C83.3332 37.0827 79.5832 33.3327 74.9998 33.3327ZM37.4998 24.9994C37.4998 18.0827 43.0832 12.4993 49.9998 12.4993C56.9165 12.4993 62.4998 18.0827 62.4998 24.9994V33.3327H37.4998V24.9994ZM74.9998 83.3327H24.9998V41.666H74.9998V83.3327ZM49.9998 70.8327C54.5832 70.8327 58.3332 67.0827 58.3332 62.4994C58.3332 57.916 54.5832 54.166 49.9998 54.166C45.4165 54.166 41.6665 57.916 41.6665 62.4994C41.6665 67.0827 45.4165 70.8327 49.9998 70.8327Z" fill="white"/>
<path d="M74.9998 33.3327H70.8332V24.9994C70.8332 13.4993 61.4998 4.16602 49.9998 4.16602C38.4998 4.16602 29.1665 13.4993 29.1665 24.9994V33.3327H24.9998C20.4165 33.3327 16.6665 37.0827 16.6665 41.666V83.3327C16.6665 87.916 20.4165 91.666 24.9998 91.666H74.9998C79.5832 91.666 83.3332 87.916 83.3332 83.3327V41.666C83.3332 37.0827 79.5832 33.3327 74.9998 33.3327ZM37.4998 24.9994C37.4998 18.0827 43.0832 12.4993 49.9998 12.4993C56.9165 12.4993 62.4998 18.0827 62.4998 24.9994V33.3327H37.4998V24.9994ZM74.9998 83.3327H24.9998V41.666H74.9998V83.3327ZM49.9998 70.8327C54.5832 70.8327 58.3332 67.0827 58.3332 62.4994C58.3332 57.916 54.5832 54.166 49.9998 54.166C45.4165 54.166 41.6665 57.916 41.6665 62.4994C41.6665 67.0827 45.4165 70.8327 49.9998 70.8327Z" fill="url(#paint0_linear_4472:3709)"/>
<defs>
<linearGradient id="paint0_linear_4472:3709" x1="49.9998" y1="4.16602" x2="49.9998" y2="91.666" gradientUnits="userSpaceOnUse">
<stop stop-color="white"/>
<stop offset="1" stop-color="white" stop-opacity="0"/>
</linearGradient>
</defs>
</svg>
