<svg width="100" height="100" viewBox="0 0 100 100" fill="none" xmlns="http://www.w3.org/2000/svg">
<path d="M49.9585 8.33398C26.9585 8.33398 8.3335 27.0007 8.3335 50.0007C8.3335 73.0007 26.9585 91.6673 49.9585 91.6673C73.0002 91.6673 91.6668 73.0007 91.6668 50.0007C91.6668 27.0007 73.0002 8.33398 49.9585 8.33398ZM78.8335 33.334H66.5418C65.2085 28.1257 63.2918 23.1257 60.7918 18.5007C68.4585 21.1257 74.8335 26.459 78.8335 33.334ZM50.0002 16.834C53.4585 21.834 56.1668 27.3757 57.9585 33.334H42.0418C43.8335 27.3757 46.5418 21.834 50.0002 16.834ZM17.7502 58.334C17.0835 55.6673 16.6668 52.8757 16.6668 50.0007C16.6668 47.1257 17.0835 44.334 17.7502 41.6673H31.8335C31.5002 44.4173 31.2502 47.1673 31.2502 50.0007C31.2502 52.834 31.5002 55.584 31.8335 58.334H17.7502ZM21.1668 66.6673H33.4585C34.7918 71.8757 36.7085 76.8757 39.2085 81.5007C31.5418 78.8757 25.1668 73.584 21.1668 66.6673ZM33.4585 33.334H21.1668C25.1668 26.4173 31.5418 21.1257 39.2085 18.5007C36.7085 23.1257 34.7918 28.1257 33.4585 33.334ZM50.0002 83.1673C46.5418 78.1673 43.8335 72.6257 42.0418 66.6673H57.9585C56.1668 72.6257 53.4585 78.1673 50.0002 83.1673ZM59.7502 58.334H40.2502C39.8752 55.584 39.5835 52.834 39.5835 50.0007C39.5835 47.1673 39.8752 44.3757 40.2502 41.6673H59.7502C60.1252 44.3757 60.4168 47.1673 60.4168 50.0007C60.4168 52.834 60.1252 55.584 59.7502 58.334ZM60.7918 81.5007C63.2918 76.8757 65.2085 71.8757 66.5418 66.6673H78.8335C74.8335 73.5423 68.4585 78.8757 60.7918 81.5007ZM68.1668 58.334C68.5002 55.584 68.7502 52.834 68.7502 50.0007C68.7502 47.1673 68.5002 44.4173 68.1668 41.6673H82.2502C82.9168 44.334 83.3335 47.1257 83.3335 50.0007C83.3335 52.8757 82.9168 55.6673 82.2502 58.334H68.1668Z" fill="white"/>
<path d="M49.9585 8.33398C26.9585 8.33398 8.3335 27.0007 8.3335 50.0007C8.3335 73.0007 26.9585 91.6673 49.9585 91.6673C73.0002 91.6673 91.6668 73.0007 91.6668 50.0007C91.6668 27.0007 73.0002 8.33398 49.9585 8.33398ZM78.8335 33.334H66.5418C65.2085 28.1257 63.2918 23.1257 60.7918 18.5007C68.4585 21.1257 74.8335 26.459 78.8335 33.334ZM50.0002 16.834C53.4585 21.834 56.1668 27.3757 57.9585 33.334H42.0418C43.8335 27.3757 46.5418 21.834 50.0002 16.834ZM17.7502 58.334C17.0835 55.6673 16.6668 52.8757 16.6668 50.0007C16.6668 47.1257 17.0835 44.334 17.7502 41.6673H31.8335C31.5002 44.4173 31.2502 47.1673 31.2502 50.0007C31.2502 52.834 31.5002 55.584 31.8335 58.334H17.7502ZM21.1668 66.6673H33.4585C34.7918 71.8757 36.7085 76.8757 39.2085 81.5007C31.5418 78.8757 25.1668 73.584 21.1668 66.6673ZM33.4585 33.334H21.1668C25.1668 26.4173 31.5418 21.1257 39.2085 18.5007C36.7085 23.1257 34.7918 28.1257 33.4585 33.334ZM50.0002 83.1673C46.5418 78.1673 43.8335 72.6257 42.0418 66.6673H57.9585C56.1668 72.6257 53.4585 78.1673 50.0002 83.1673ZM59.7502 58.334H40.2502C39.8752 55.584 39.5835 52.834 39.5835 50.0007C39.5835 47.1673 39.8752 44.3757 40.2502 41.6673H59.7502C60.1252 44.3757 60.4168 47.1673 60.4168 50.0007C60.4168 52.834 60.1252 55.584 59.7502 58.334ZM60.7918 81.5007C63.2918 76.8757 65.2085 71.8757 66.5418 66.6673H78.8335C74.8335 73.5423 68.4585 78.8757 60.7918 81.5007ZM68.1668 58.334C68.5002 55.584 68.7502 52.834 68.7502 50.0007C68.7502 47.1673 68.5002 44.4173 68.1668 41.6673H82.2502C82.9168 44.334 83.3335 47.1257 83.3335 50.0007C83.3335 52.8757 82.9168 55.6673 82.2502 58.334H68.1668Z" fill="url(#paint0_linear_4472:3639)"/>
<defs>
<linearGradient id="paint0_linear_4472:3639" x1="50.0002" y1="8.33398" x2="50.0002" y2="91.6673" gradientUnits="userSpaceOnUse">
<stop stop-color="white"/>
<stop offset="1" stop-color="white" stop-opacity="0"/>
</linearGradient>
</defs>
</svg>
