<svg width="100" height="100" viewBox="0 0 100 100" fill="none" xmlns="http://www.w3.org/2000/svg">
<path d="M83.3332 25.0007H91.6665V83.334C91.6665 87.9173 87.9165 91.6673 83.3332 91.6673H24.9998V83.334H83.3332V25.0007ZM16.6665 8.33398H66.6665C71.2498 8.33398 74.9998 12.084 74.9998 16.6673V66.6673C74.9998 71.2507 71.2498 75.0007 66.6665 75.0007H16.6665C12.0832 75.0007 8.33316 71.2507 8.33316 66.6673V16.6673C8.33316 12.084 12.0832 8.33398 16.6665 8.33398ZM16.6665 66.6673H66.6665V16.6673H16.6665V66.6673Z" fill="white"/>
<path d="M83.3332 25.0007H91.6665V83.334C91.6665 87.9173 87.9165 91.6673 83.3332 91.6673H24.9998V83.334H83.3332V25.0007ZM16.6665 8.33398H66.6665C71.2498 8.33398 74.9998 12.084 74.9998 16.6673V66.6673C74.9998 71.2507 71.2498 75.0007 66.6665 75.0007H16.6665C12.0832 75.0007 8.33316 71.2507 8.33316 66.6673V16.6673C8.33316 12.084 12.0832 8.33398 16.6665 8.33398ZM16.6665 66.6673H66.6665V16.6673H16.6665V66.6673Z" fill="url(#paint0_linear_4472:3604)"/>
<defs>
<linearGradient id="paint0_linear_4472:3604" x1="49.9998" y1="8.33398" x2="49.9998" y2="91.6673" gradientUnits="userSpaceOnUse">
<stop stop-color="white"/>
<stop offset="1" stop-color="white" stop-opacity="0"/>
</linearGradient>
</defs>
</svg>
