<svg width="100" height="100" viewBox="0 0 100 100" fill="none" xmlns="http://www.w3.org/2000/svg">
<path d="M50.0002 8.33398C27.0002 8.33398 8.3335 27.0007 8.3335 50.0007C8.3335 73.0007 27.0002 91.6673 50.0002 91.6673C73.0002 91.6673 91.6668 73.0007 91.6668 50.0007C91.6668 27.0007 73.0002 8.33398 50.0002 8.33398ZM50.0002 83.334C31.6252 83.334 16.6668 68.3757 16.6668 50.0007C16.6668 31.6257 31.6252 16.6673 50.0002 16.6673C68.3752 16.6673 83.3335 31.6257 83.3335 50.0007C83.3335 68.3757 68.3752 83.334 50.0002 83.334ZM53.7085 46.2507C46.2918 43.7923 42.7085 42.2507 42.7085 38.334C42.7085 34.084 47.3335 32.5423 50.2502 32.5423C55.7085 32.5423 57.7085 36.6673 58.1668 38.1257L64.7502 35.334C64.1252 33.5007 61.3335 27.3757 53.6668 26.0423V20.834H46.3752V26.084C35.5418 28.4173 35.4585 37.959 35.4585 38.4173C35.4585 47.8757 44.8335 50.5423 49.4168 52.209C56.0002 54.5423 58.9168 56.6673 58.9168 60.6673C58.9168 65.3757 54.5418 67.3757 50.6668 67.3757C43.0835 67.3757 40.9168 59.584 40.6668 58.6673L33.7502 61.459C36.3752 70.584 43.2502 73.0423 46.3335 73.7923V79.1673H53.6252V74.0007C55.7918 73.6257 66.2085 71.5423 66.2085 60.584C66.2502 54.7923 63.7085 49.709 53.7085 46.2507Z" fill="white"/>
<path d="M50.0002 8.33398C27.0002 8.33398 8.3335 27.0007 8.3335 50.0007C8.3335 73.0007 27.0002 91.6673 50.0002 91.6673C73.0002 91.6673 91.6668 73.0007 91.6668 50.0007C91.6668 27.0007 73.0002 8.33398 50.0002 8.33398ZM50.0002 83.334C31.6252 83.334 16.6668 68.3757 16.6668 50.0007C16.6668 31.6257 31.6252 16.6673 50.0002 16.6673C68.3752 16.6673 83.3335 31.6257 83.3335 50.0007C83.3335 68.3757 68.3752 83.334 50.0002 83.334ZM53.7085 46.2507C46.2918 43.7923 42.7085 42.2507 42.7085 38.334C42.7085 34.084 47.3335 32.5423 50.2502 32.5423C55.7085 32.5423 57.7085 36.6673 58.1668 38.1257L64.7502 35.334C64.1252 33.5007 61.3335 27.3757 53.6668 26.0423V20.834H46.3752V26.084C35.5418 28.4173 35.4585 37.959 35.4585 38.4173C35.4585 47.8757 44.8335 50.5423 49.4168 52.209C56.0002 54.5423 58.9168 56.6673 58.9168 60.6673C58.9168 65.3757 54.5418 67.3757 50.6668 67.3757C43.0835 67.3757 40.9168 59.584 40.6668 58.6673L33.7502 61.459C36.3752 70.584 43.2502 73.0423 46.3335 73.7923V79.1673H53.6252V74.0007C55.7918 73.6257 66.2085 71.5423 66.2085 60.584C66.2502 54.7923 63.7085 49.709 53.7085 46.2507Z" fill="url(#paint0_linear_4472:3698)"/>
<defs>
<linearGradient id="paint0_linear_4472:3698" x1="50.0002" y1="8.33398" x2="50.0002" y2="91.6673" gradientUnits="userSpaceOnUse">
<stop stop-color="white"/>
<stop offset="1" stop-color="white" stop-opacity="0"/>
</linearGradient>
</defs>
</svg>
