<svg width="100" height="100" viewBox="0 0 100 100" fill="none" xmlns="http://www.w3.org/2000/svg">
<path d="M73.5403 26.4596C67.4987 20.418 59.207 16.668 49.9987 16.668C31.582 16.668 16.707 31.5846 16.707 50.0013C16.707 68.418 31.582 83.3346 49.9987 83.3346C65.5404 83.3346 78.4987 72.7096 82.207 58.3346H73.5403C70.1237 68.043 60.8737 75.0013 49.9987 75.0013C36.207 75.0013 24.9987 63.793 24.9987 50.0013C24.9987 36.2096 36.207 25.0013 49.9987 25.0013C56.9154 25.0013 63.082 27.8763 67.582 32.418L54.1654 45.8346H83.332V16.668L73.5403 26.4596Z" fill="white"/>
<path d="M73.5403 26.4596C67.4987 20.418 59.207 16.668 49.9987 16.668C31.582 16.668 16.707 31.5846 16.707 50.0013C16.707 68.418 31.582 83.3346 49.9987 83.3346C65.5404 83.3346 78.4987 72.7096 82.207 58.3346H73.5403C70.1237 68.043 60.8737 75.0013 49.9987 75.0013C36.207 75.0013 24.9987 63.793 24.9987 50.0013C24.9987 36.2096 36.207 25.0013 49.9987 25.0013C56.9154 25.0013 63.082 27.8763 67.582 32.418L54.1654 45.8346H83.332V16.668L73.5403 26.4596Z" fill="url(#paint0_linear_4472:3720)"/>
<defs>
<linearGradient id="paint0_linear_4472:3720" x1="50.0195" y1="16.668" x2="50.0195" y2="83.3346" gradientUnits="userSpaceOnUse">
<stop stop-color="white"/>
<stop offset="1" stop-color="white" stop-opacity="0"/>
</linearGradient>
</defs>
</svg>
