<svg width="100" height="100" viewBox="0 0 100 100" fill="none" xmlns="http://www.w3.org/2000/svg">
<path d="M50.0002 8.33398C27.0002 8.33398 8.3335 27.0007 8.3335 50.0007C8.3335 73.0007 27.0002 91.6673 50.0002 91.6673C73.0002 91.6673 91.6668 73.0007 91.6668 50.0007C91.6668 27.0007 73.0002 8.33398 50.0002 8.33398ZM50.0002 83.334C31.6252 83.334 16.6668 68.3757 16.6668 50.0007C16.6668 31.6257 31.6252 16.6673 50.0002 16.6673C68.3752 16.6673 83.3335 31.6257 83.3335 50.0007C83.3335 68.3757 68.3752 83.334 50.0002 83.334Z" fill="white"/>
<path d="M50.0002 8.33398C27.0002 8.33398 8.3335 27.0007 8.3335 50.0007C8.3335 73.0007 27.0002 91.6673 50.0002 91.6673C73.0002 91.6673 91.6668 73.0007 91.6668 50.0007C91.6668 27.0007 73.0002 8.33398 50.0002 8.33398ZM50.0002 83.334C31.6252 83.334 16.6668 68.3757 16.6668 50.0007C16.6668 31.6257 31.6252 16.6673 50.0002 16.6673C68.3752 16.6673 83.3335 31.6257 83.3335 50.0007C83.3335 68.3757 68.3752 83.334 50.0002 83.334Z" fill="url(#paint0_linear_4472:3685)"/>
<path d="M70.8328 41.6673H51.7078L54.1244 27.459V26.6257C54.0828 25.5423 53.6244 24.5007 52.8744 23.709L49.9994 20.834L30.8328 41.6673C29.7078 42.7507 29.0828 44.2507 29.1661 45.834V66.6673C29.1661 71.2506 32.9161 75.0006 37.4994 75.0006H60.4161C62.7494 75.1256 64.9161 73.7923 65.8328 71.6673L74.5828 51.2507C74.9161 50.6257 75.0828 49.8757 74.9994 49.1673V45.834C74.9994 43.5423 73.1244 41.6673 70.8328 41.6673Z" fill="white"/>
<path d="M70.8328 41.6673H51.7078L54.1244 27.459V26.6257C54.0828 25.5423 53.6244 24.5007 52.8744 23.709L49.9994 20.834L30.8328 41.6673C29.7078 42.7507 29.0828 44.2507 29.1661 45.834V66.6673C29.1661 71.2506 32.9161 75.0006 37.4994 75.0006H60.4161C62.7494 75.1256 64.9161 73.7923 65.8328 71.6673L74.5828 51.2507C74.9161 50.6257 75.0828 49.8757 74.9994 49.1673V45.834C74.9994 43.5423 73.1244 41.6673 70.8328 41.6673Z" fill="url(#paint1_linear_4472:3685)"/>
<defs>
<linearGradient id="paint0_linear_4472:3685" x1="50.0002" y1="8.33398" x2="50.0002" y2="91.6673" gradientUnits="userSpaceOnUse">
<stop stop-color="white"/>
<stop offset="1" stop-color="white" stop-opacity="0"/>
</linearGradient>
<linearGradient id="paint1_linear_4472:3685" x1="52.0897" y1="20.834" x2="52.0897" y2="75.0087" gradientUnits="userSpaceOnUse">
<stop stop-color="white"/>
<stop offset="1" stop-color="white" stop-opacity="0"/>
</linearGradient>
</defs>
</svg>
