<svg width="100" height="100" viewBox="0 0 100 100" fill="none" xmlns="http://www.w3.org/2000/svg">
<path d="M80.9547 54.084C81.1214 52.7507 81.2464 51.4173 81.2464 50.0007C81.2464 48.584 81.1214 47.2507 80.9547 45.9173L89.7464 39.0423C90.5381 38.4173 90.7464 37.2923 90.2464 36.3757L81.9131 21.959C81.5381 21.2923 80.8297 20.9173 80.0797 20.9173C79.8297 20.9173 79.5797 20.959 79.3714 21.0423L68.9964 25.209C66.8297 23.5423 64.4964 22.1673 61.9547 21.1257L60.3714 10.084C60.2464 9.08398 59.3714 8.33398 58.3297 8.33398H41.6631C40.6214 8.33398 39.7464 9.08398 39.6214 10.084L38.0381 21.1257C35.4964 22.1673 33.1631 23.584 30.9964 25.209L20.6214 21.0423C20.3714 20.959 20.1214 20.9173 19.8714 20.9173C19.1631 20.9173 18.4547 21.2923 18.0797 21.959L9.7464 36.3757C9.20473 37.2923 9.45473 38.4173 10.2464 39.0423L19.0381 45.9173C18.8714 47.2507 18.7464 48.6257 18.7464 50.0007C18.7464 51.3757 18.8714 52.7507 19.0381 54.084L10.2464 60.959C9.45473 61.584 9.2464 62.709 9.7464 63.6257L18.0797 78.0423C18.4547 78.709 19.1631 79.084 19.9131 79.084C20.1631 79.084 20.4131 79.0423 20.6214 78.959L30.9964 74.7923C33.1631 76.459 35.4964 77.834 38.0381 78.8757L39.6214 89.9173C39.7464 90.9173 40.6214 91.6673 41.6631 91.6673H58.3297C59.3714 91.6673 60.2464 90.9173 60.3714 89.9173L61.9547 78.8757C64.4964 77.834 66.8297 76.4173 68.9964 74.7923L79.3714 78.959C79.6214 79.0423 79.8714 79.084 80.1214 79.084C80.8297 79.084 81.5381 78.709 81.9131 78.0423L90.2464 63.6257C90.7464 62.709 90.5381 61.584 89.7464 60.959L80.9547 54.084ZM72.7047 46.959C72.8714 48.2507 72.9131 49.1257 72.9131 50.0007C72.9131 50.8757 72.8297 51.7923 72.7047 53.0423L72.1214 57.7507L75.8297 60.6673L80.3297 64.1673L77.4131 69.209L72.1214 67.084L67.7881 65.334L64.0381 68.1673C62.2464 69.5007 60.5381 70.5007 58.8297 71.209L54.4131 73.0007L53.7464 77.709L52.9131 83.334H47.0797L46.2881 77.709L45.6214 73.0007L41.2047 71.209C39.4131 70.459 37.7464 69.5007 36.0797 68.2507L32.2881 65.334L27.8714 67.1257L22.5797 69.2507L19.6631 64.209L24.1631 60.709L27.8714 57.7923L27.2881 53.084C27.1631 51.7923 27.0797 50.834 27.0797 50.0007C27.0797 49.1673 27.1631 48.209 27.2881 46.959L27.8714 42.2507L24.1631 39.334L19.6631 35.834L22.5797 30.7923L27.8714 32.9173L32.2047 34.6673L35.9547 31.834C37.7464 30.5007 39.4547 29.5007 41.1631 28.7923L45.5797 27.0007L46.2464 22.2923L47.0797 16.6673H52.8714L53.6631 22.2923L54.3297 27.0007L58.7464 28.7923C60.5381 29.5423 62.2047 30.5007 63.8714 31.7507L67.6631 34.6673L72.0797 32.8757L77.3714 30.7507L80.2881 35.7923L75.8297 39.334L72.1214 42.2507L72.7047 46.959ZM49.9964 33.334C40.7881 33.334 33.3297 40.7923 33.3297 50.0007C33.3297 59.209 40.7881 66.6673 49.9964 66.6673C59.2047 66.6673 66.6631 59.209 66.6631 50.0007C66.6631 40.7923 59.2047 33.334 49.9964 33.334ZM49.9964 58.334C45.4131 58.334 41.6631 54.584 41.6631 50.0007C41.6631 45.4173 45.4131 41.6673 49.9964 41.6673C54.5797 41.6673 58.3297 45.4173 58.3297 50.0007C58.3297 54.584 54.5797 58.334 49.9964 58.334Z" fill="white"/>
<path d="M80.9547 54.084C81.1214 52.7507 81.2464 51.4173 81.2464 50.0007C81.2464 48.584 81.1214 47.2507 80.9547 45.9173L89.7464 39.0423C90.5381 38.4173 90.7464 37.2923 90.2464 36.3757L81.9131 21.959C81.5381 21.2923 80.8297 20.9173 80.0797 20.9173C79.8297 20.9173 79.5797 20.959 79.3714 21.0423L68.9964 25.209C66.8297 23.5423 64.4964 22.1673 61.9547 21.1257L60.3714 10.084C60.2464 9.08398 59.3714 8.33398 58.3297 8.33398H41.6631C40.6214 8.33398 39.7464 9.08398 39.6214 10.084L38.0381 21.1257C35.4964 22.1673 33.1631 23.584 30.9964 25.209L20.6214 21.0423C20.3714 20.959 20.1214 20.9173 19.8714 20.9173C19.1631 20.9173 18.4547 21.2923 18.0797 21.959L9.7464 36.3757C9.20473 37.2923 9.45473 38.4173 10.2464 39.0423L19.0381 45.9173C18.8714 47.2507 18.7464 48.6257 18.7464 50.0007C18.7464 51.3757 18.8714 52.7507 19.0381 54.084L10.2464 60.959C9.45473 61.584 9.2464 62.709 9.7464 63.6257L18.0797 78.0423C18.4547 78.709 19.1631 79.084 19.9131 79.084C20.1631 79.084 20.4131 79.0423 20.6214 78.959L30.9964 74.7923C33.1631 76.459 35.4964 77.834 38.0381 78.8757L39.6214 89.9173C39.7464 90.9173 40.6214 91.6673 41.6631 91.6673H58.3297C59.3714 91.6673 60.2464 90.9173 60.3714 89.9173L61.9547 78.8757C64.4964 77.834 66.8297 76.4173 68.9964 74.7923L79.3714 78.959C79.6214 79.0423 79.8714 79.084 80.1214 79.084C80.8297 79.084 81.5381 78.709 81.9131 78.0423L90.2464 63.6257C90.7464 62.709 90.5381 61.584 89.7464 60.959L80.9547 54.084ZM72.7047 46.959C72.8714 48.2507 72.9131 49.1257 72.9131 50.0007C72.9131 50.8757 72.8297 51.7923 72.7047 53.0423L72.1214 57.7507L75.8297 60.6673L80.3297 64.1673L77.4131 69.209L72.1214 67.084L67.7881 65.334L64.0381 68.1673C62.2464 69.5007 60.5381 70.5007 58.8297 71.209L54.4131 73.0007L53.7464 77.709L52.9131 83.334H47.0797L46.2881 77.709L45.6214 73.0007L41.2047 71.209C39.4131 70.459 37.7464 69.5007 36.0797 68.2507L32.2881 65.334L27.8714 67.1257L22.5797 69.2507L19.6631 64.209L24.1631 60.709L27.8714 57.7923L27.2881 53.084C27.1631 51.7923 27.0797 50.834 27.0797 50.0007C27.0797 49.1673 27.1631 48.209 27.2881 46.959L27.8714 42.2507L24.1631 39.334L19.6631 35.834L22.5797 30.7923L27.8714 32.9173L32.2047 34.6673L35.9547 31.834C37.7464 30.5007 39.4547 29.5007 41.1631 28.7923L45.5797 27.0007L46.2464 22.2923L47.0797 16.6673H52.8714L53.6631 22.2923L54.3297 27.0007L58.7464 28.7923C60.5381 29.5423 62.2047 30.5007 63.8714 31.7507L67.6631 34.6673L72.0797 32.8757L77.3714 30.7507L80.2881 35.7923L75.8297 39.334L72.1214 42.2507L72.7047 46.959ZM49.9964 33.334C40.7881 33.334 33.3297 40.7923 33.3297 50.0007C33.3297 59.209 40.7881 66.6673 49.9964 66.6673C59.2047 66.6673 66.6631 59.209 66.6631 50.0007C66.6631 40.7923 59.2047 33.334 49.9964 33.334ZM49.9964 58.334C45.4131 58.334 41.6631 54.584 41.6631 50.0007C41.6631 45.4173 45.4131 41.6673 49.9964 41.6673C54.5797 41.6673 58.3297 45.4173 58.3297 50.0007C58.3297 54.584 54.5797 58.334 49.9964 58.334Z" fill="url(#paint0_linear_4472:3633)"/>
<defs>
<linearGradient id="paint0_linear_4472:3633" x1="49.9872" y1="8.33398" x2="49.9872" y2="91.6673" gradientUnits="userSpaceOnUse">
<stop stop-color="white"/>
<stop offset="1" stop-color="white" stop-opacity="0"/>
</linearGradient>
</defs>
</svg>
