<svg width="100" height="100" viewBox="0 0 100 100" fill="none" xmlns="http://www.w3.org/2000/svg">
<path d="M49.9998 24.9967C65.7915 24.9967 79.8748 33.8717 86.7498 47.9134C84.2915 52.9967 80.8332 57.3717 76.7082 60.9134L82.5832 66.7884C88.3748 61.6634 92.9582 55.2467 95.8332 47.9134C88.6248 29.6217 70.8332 16.6634 49.9998 16.6634C44.7082 16.6634 39.6248 17.4967 34.8332 19.0384L41.7082 25.9134C44.4165 25.3717 47.1665 24.9967 49.9998 24.9967ZM45.5415 29.7467L54.1665 38.3717C56.5415 39.4134 58.4582 41.3301 59.4998 43.7051L68.1248 52.3301C68.4582 50.9134 68.7082 49.4134 68.7082 47.8717C68.7498 37.5384 60.3332 29.1634 49.9998 29.1634C48.4582 29.1634 46.9998 29.3717 45.5415 29.7467ZM8.37484 16.1217L19.5415 27.2884C12.7498 32.6217 7.37484 39.7051 4.1665 47.9134C11.3748 66.2051 29.1665 79.1634 49.9998 79.1634C56.3332 79.1634 62.4165 77.9551 67.9998 75.7467L82.2498 89.9967L88.1248 84.1217L14.2498 10.2051L8.37484 16.1217ZM39.6248 47.3717L50.4998 58.2467C50.3332 58.2884 50.1665 58.3301 49.9998 58.3301C44.2498 58.3301 39.5832 53.6634 39.5832 47.9134C39.5832 47.7051 39.6248 47.5801 39.6248 47.3717ZM25.4582 33.2051L32.7498 40.4967C31.7915 42.7884 31.2498 45.2884 31.2498 47.9134C31.2498 58.2467 39.6665 66.6634 49.9998 66.6634C52.6248 66.6634 55.1248 66.1217 57.3748 65.1634L61.4582 69.2467C57.7915 70.2467 53.9582 70.8301 49.9998 70.8301C34.2082 70.8301 20.1248 61.9551 13.2498 47.9134C16.1665 41.9551 20.4165 37.0384 25.4582 33.2051Z" fill="white"/>
<path d="M49.9998 24.9967C65.7915 24.9967 79.8748 33.8717 86.7498 47.9134C84.2915 52.9967 80.8332 57.3717 76.7082 60.9134L82.5832 66.7884C88.3748 61.6634 92.9582 55.2467 95.8332 47.9134C88.6248 29.6217 70.8332 16.6634 49.9998 16.6634C44.7082 16.6634 39.6248 17.4967 34.8332 19.0384L41.7082 25.9134C44.4165 25.3717 47.1665 24.9967 49.9998 24.9967ZM45.5415 29.7467L54.1665 38.3717C56.5415 39.4134 58.4582 41.3301 59.4998 43.7051L68.1248 52.3301C68.4582 50.9134 68.7082 49.4134 68.7082 47.8717C68.7498 37.5384 60.3332 29.1634 49.9998 29.1634C48.4582 29.1634 46.9998 29.3717 45.5415 29.7467ZM8.37484 16.1217L19.5415 27.2884C12.7498 32.6217 7.37484 39.7051 4.1665 47.9134C11.3748 66.2051 29.1665 79.1634 49.9998 79.1634C56.3332 79.1634 62.4165 77.9551 67.9998 75.7467L82.2498 89.9967L88.1248 84.1217L14.2498 10.2051L8.37484 16.1217ZM39.6248 47.3717L50.4998 58.2467C50.3332 58.2884 50.1665 58.3301 49.9998 58.3301C44.2498 58.3301 39.5832 53.6634 39.5832 47.9134C39.5832 47.7051 39.6248 47.5801 39.6248 47.3717ZM25.4582 33.2051L32.7498 40.4967C31.7915 42.7884 31.2498 45.2884 31.2498 47.9134C31.2498 58.2467 39.6665 66.6634 49.9998 66.6634C52.6248 66.6634 55.1248 66.1217 57.3748 65.1634L61.4582 69.2467C57.7915 70.2467 53.9582 70.8301 49.9998 70.8301C34.2082 70.8301 20.1248 61.9551 13.2498 47.9134C16.1665 41.9551 20.4165 37.0384 25.4582 33.2051Z" fill="url(#paint0_linear_4472:3619)"/>
<defs>
<linearGradient id="paint0_linear_4472:3619" x1="49.9998" y1="10.2051" x2="49.9998" y2="89.9967" gradientUnits="userSpaceOnUse">
<stop stop-color="white"/>
<stop offset="1" stop-color="white" stop-opacity="0"/>
</linearGradient>
</defs>
</svg>
