<svg width="100" height="100" viewBox="0 0 100 100" fill="none" xmlns="http://www.w3.org/2000/svg">
<path d="M49.9998 24.9993C65.7915 24.9993 79.8748 33.8744 86.7498 47.916C79.8748 61.9577 65.7915 70.8327 49.9998 70.8327C34.2082 70.8327 20.1248 61.9577 13.2498 47.916C20.1248 33.8744 34.2082 24.9993 49.9998 24.9993ZM49.9998 16.666C29.1665 16.666 11.3748 29.6244 4.1665 47.916C11.3748 66.2077 29.1665 79.166 49.9998 79.166C70.8332 79.166 88.6248 66.2077 95.8332 47.916C88.6248 29.6244 70.8332 16.666 49.9998 16.666ZM49.9998 37.4994C55.7498 37.4994 60.4165 42.166 60.4165 47.916C60.4165 53.666 55.7498 58.3327 49.9998 58.3327C44.2498 58.3327 39.5832 53.666 39.5832 47.916C39.5832 42.166 44.2498 37.4994 49.9998 37.4994ZM49.9998 29.166C39.6665 29.166 31.2498 37.5827 31.2498 47.916C31.2498 58.2494 39.6665 66.666 49.9998 66.666C60.3332 66.666 68.7498 58.2494 68.7498 47.916C68.7498 37.5827 60.3332 29.166 49.9998 29.166Z" fill="white"/>
<path d="M49.9998 24.9993C65.7915 24.9993 79.8748 33.8744 86.7498 47.916C79.8748 61.9577 65.7915 70.8327 49.9998 70.8327C34.2082 70.8327 20.1248 61.9577 13.2498 47.916C20.1248 33.8744 34.2082 24.9993 49.9998 24.9993ZM49.9998 16.666C29.1665 16.666 11.3748 29.6244 4.1665 47.916C11.3748 66.2077 29.1665 79.166 49.9998 79.166C70.8332 79.166 88.6248 66.2077 95.8332 47.916C88.6248 29.6244 70.8332 16.666 49.9998 16.666ZM49.9998 37.4994C55.7498 37.4994 60.4165 42.166 60.4165 47.916C60.4165 53.666 55.7498 58.3327 49.9998 58.3327C44.2498 58.3327 39.5832 53.666 39.5832 47.916C39.5832 42.166 44.2498 37.4994 49.9998 37.4994ZM49.9998 29.166C39.6665 29.166 31.2498 37.5827 31.2498 47.916C31.2498 58.2494 39.6665 66.666 49.9998 66.666C60.3332 66.666 68.7498 58.2494 68.7498 47.916C68.7498 37.5827 60.3332 29.166 49.9998 29.166Z" fill="url(#paint0_linear_4472:3622)"/>
<defs>
<linearGradient id="paint0_linear_4472:3622" x1="49.9998" y1="16.666" x2="49.9998" y2="79.166" gradientUnits="userSpaceOnUse">
<stop stop-color="white"/>
<stop offset="1" stop-color="white" stop-opacity="0"/>
</linearGradient>
</defs>
</svg>
