<svg width="88" height="84" viewBox="0 0 88 84" fill="none" xmlns="http://www.w3.org/2000/svg">
<path d="M34.6746 26.896H18.5445C16.2806 26.896 14.4453 28.7305 14.4453 30.9934V75.1126C14.4453 77.3755 16.2806 79.21 18.5445 79.21H34.6746C36.9385 79.21 38.7737 77.3755 38.7737 75.1126V30.9934C38.7737 28.7305 36.9385 26.896 34.6746 26.896Z" fill="white"/>
<path d="M34.6746 26.896H18.5445C16.2806 26.896 14.4453 28.7305 14.4453 30.9934V75.1126C14.4453 77.3755 16.2806 79.21 18.5445 79.21H34.6746C36.9385 79.21 38.7737 77.3755 38.7737 75.1126V30.9934C38.7737 28.7305 36.9385 26.896 34.6746 26.896Z" fill="url(#paint0_linear_2469_5618)"/>
<path fill-rule="evenodd" clip-rule="evenodd" d="M18.5445 27.896C16.8325 27.896 15.4453 29.2832 15.4453 30.9934V75.1126C15.4453 76.8228 16.8325 78.21 18.5445 78.21H34.6746C36.3866 78.21 37.7737 76.8228 37.7737 75.1126V30.9934C37.7737 29.2832 36.3866 27.896 34.6746 27.896H18.5445ZM13.4453 30.9934C13.4453 28.1778 15.7287 25.896 18.5445 25.896H34.6746C37.4904 25.896 39.7737 28.1778 39.7737 30.9934V75.1126C39.7737 77.9282 37.4904 80.21 34.6746 80.21H18.5445C15.7287 80.21 13.4453 77.9282 13.4453 75.1126V30.9934Z" fill="#686868"/>
<path d="M34.6253 35.0498H18.5977V45.6622H34.6253V35.0498Z" fill="white"/>
<path d="M34.6253 35.0498H18.5977V45.6622H34.6253V35.0498Z" fill="url(#paint1_linear_2469_5618)"/>
<path fill-rule="evenodd" clip-rule="evenodd" d="M17.5977 35.0498C17.5977 34.4975 18.0454 34.0498 18.5977 34.0498H34.6253C35.1776 34.0498 35.6253 34.4975 35.6253 35.0498V45.6622C35.6253 46.2144 35.1776 46.6622 34.6253 46.6622H18.5977C18.0454 46.6622 17.5977 46.2144 17.5977 45.6622V35.0498ZM19.5977 36.0498V44.6622H33.6253V36.0498H19.5977Z" fill="#686868"/>
<path fill-rule="evenodd" clip-rule="evenodd" d="M11.6199 41.4729C11.9421 41.9215 11.8396 42.5463 11.391 42.8685L6.92969 46.0725V52.5252C6.92969 53.0775 6.48197 53.5252 5.92969 53.5252C5.3774 53.5252 4.92969 53.0775 4.92969 52.5252V45.5595C4.92969 45.2375 5.08478 44.9352 5.34635 44.7473L10.2243 41.244C10.6729 40.9218 11.2977 41.0243 11.6199 41.4729Z" fill="#686868"/>
<path fill-rule="evenodd" clip-rule="evenodd" d="M6.92969 51.7021V59.6794H8.56768V51.7021H6.92969ZM4.92969 51.665C4.92969 50.5806 5.80908 49.7021 6.89299 49.7021H8.60438C9.68828 49.7021 10.5677 50.5806 10.5677 51.665V59.7165C10.5677 60.801 9.68828 61.6794 8.60438 61.6794H6.89299C5.80908 61.6794 4.92969 60.801 4.92969 59.7165V51.665Z" fill="#686868"/>
<path fill-rule="evenodd" clip-rule="evenodd" d="M7.75391 59.6792C8.30619 59.6792 8.75391 60.1269 8.75391 60.6792V72.5451H13.8719C14.4242 72.5451 14.8719 72.9929 14.8719 73.5451C14.8719 74.0974 14.4242 74.5451 13.8719 74.5451H7.75391C7.20162 74.5451 6.75391 74.0974 6.75391 73.5451V60.6792C6.75391 60.1269 7.20162 59.6792 7.75391 59.6792Z" fill="#686868"/>
<path fill-rule="evenodd" clip-rule="evenodd" d="M9.80469 38.645C9.80469 38.0927 10.2524 37.645 10.8047 37.645H14.4427C14.995 37.645 15.4427 38.0927 15.4427 38.645V48.694C15.4427 49.2463 14.995 49.694 14.4427 49.694H10.8047C10.2524 49.694 9.80469 49.2463 9.80469 48.694V38.645ZM11.8047 39.645V47.694H13.4427V39.645H11.8047Z" fill="#686868"/>
<path fill-rule="evenodd" clip-rule="evenodd" d="M17.9141 79.21C17.9141 78.6577 18.3618 78.21 18.9141 78.21H34.3063C34.8586 78.21 35.3063 78.6577 35.3063 79.21V83.0001C35.3063 83.5524 34.8586 84.0001 34.3063 84.0001H18.9141C18.3618 84.0001 17.9141 83.5524 17.9141 83.0001V79.21ZM19.9141 80.21V82.0001H33.3063V80.21H19.9141Z" fill="#686868"/>
<path d="M53.216 78.939H69.3462C71.6101 78.939 73.4453 77.1045 73.4453 74.8415V30.7224C73.4453 28.4595 71.6101 26.625 69.3462 26.625H53.216C50.9522 26.625 49.1169 28.4595 49.1169 30.7224L49.1169 74.8415C49.1169 77.1045 50.9522 78.939 53.216 78.939Z" fill="white"/>
<path d="M53.216 78.939H69.3462C71.6101 78.939 73.4453 77.1045 73.4453 74.8415V30.7224C73.4453 28.4595 71.6101 26.625 69.3462 26.625H53.216C50.9522 26.625 49.1169 28.4595 49.1169 30.7224L49.1169 74.8415C49.1169 77.1045 50.9522 78.939 53.216 78.939Z" fill="url(#paint2_linear_2469_5618)"/>
<path fill-rule="evenodd" clip-rule="evenodd" d="M69.3462 77.939C71.0582 77.939 72.4453 76.5518 72.4453 74.8415V30.7224C72.4453 29.0121 71.0582 27.625 69.3462 27.625H53.216C51.504 27.625 50.1169 29.0121 50.1169 30.7224L50.1169 74.8415C50.1169 76.5518 51.504 77.939 53.216 77.939H69.3462ZM74.4453 74.8415C74.4453 77.6572 72.162 79.939 69.3462 79.939H53.216C50.4003 79.939 48.1169 77.6572 48.1169 74.8415L48.1169 30.7224C48.1169 27.9068 50.4003 25.625 53.216 25.625H69.3462C72.162 25.625 74.4453 27.9068 74.4453 30.7224V74.8415Z" fill="#686868"/>
<path d="M53.3669 45.6621H69.3945V35.0498H53.3669V45.6621Z" fill="white"/>
<path d="M53.3669 45.6621H69.3945V35.0498H53.3669V45.6621Z" fill="url(#paint3_linear_2469_5618)"/>
<path fill-rule="evenodd" clip-rule="evenodd" d="M70.3945 45.6621C70.3945 46.2144 69.9468 46.6621 69.3945 46.6621H53.3669C52.8146 46.6621 52.3669 46.2144 52.3669 45.6621V35.0498C52.3669 34.4975 52.8146 34.0498 53.3669 34.0498H69.3945C69.9468 34.0498 70.3945 34.4975 70.3945 35.0498V45.6621ZM68.3945 44.6621V36.0498H54.3669V44.6621H68.3945Z" fill="#686868"/>
<path fill-rule="evenodd" clip-rule="evenodd" d="M76.3675 41.4729C76.6897 41.0243 77.3145 40.9218 77.7631 41.244L82.6411 44.7473C82.9027 44.9352 83.0577 45.2375 83.0577 45.5595V52.5252C83.0577 53.0775 82.61 53.5252 82.0577 53.5252C81.5055 53.5252 81.0577 53.0775 81.0577 52.5252V46.0725L76.5964 42.8685C76.1478 42.5463 76.0454 41.9215 76.3675 41.4729Z" fill="#686868"/>
<path fill-rule="evenodd" clip-rule="evenodd" d="M81.0625 59.6792V51.7019H79.4245V59.6792H81.0625ZM83.0625 59.7163C83.0625 60.8008 82.1831 61.6792 81.0992 61.6792H79.3878C78.3039 61.6792 77.4245 60.8008 77.4245 59.7163V51.6648C77.4245 50.5804 78.3039 49.7019 79.3878 49.7019H81.0992C82.1831 49.7019 83.0625 50.5804 83.0625 51.6648V59.7163Z" fill="#686868"/>
<path d="M56.5415 54.8125C57.2483 54.8125 57.8212 54.2389 57.8212 53.5313C57.8212 52.8236 57.2483 52.25 56.5415 52.25C55.8347 52.25 55.2617 52.8236 55.2617 53.5313C55.2617 54.2389 55.8347 54.8125 56.5415 54.8125Z" fill="#686868"/>
<path d="M21.7329 54.8125C22.4397 54.8125 23.0126 54.2389 23.0126 53.5313C23.0126 52.8236 22.4397 52.25 21.7329 52.25C21.0261 52.25 20.4531 52.8236 20.4531 53.5313C20.4531 54.2389 21.0261 54.8125 21.7329 54.8125Z" fill="#686868"/>
<path d="M61.6587 54.8125C62.3655 54.8125 62.9384 54.2389 62.9384 53.5313C62.9384 52.8236 62.3655 52.25 61.6587 52.25C60.9519 52.25 60.3789 52.8236 60.3789 53.5313C60.3789 54.2389 60.9519 54.8125 61.6587 54.8125Z" fill="#686868"/>
<path d="M26.854 54.8125C27.5608 54.8125 28.1337 54.2389 28.1337 53.5313C28.1337 52.8236 27.5608 52.25 26.854 52.25C26.1472 52.25 25.5742 52.8236 25.5742 53.5313C25.5742 54.2389 26.1472 54.8125 26.854 54.8125Z" fill="#686868"/>
<path d="M66.7798 54.8125C67.4866 54.8125 68.0595 54.2389 68.0595 53.5313C68.0595 52.8236 67.4866 52.25 66.7798 52.25C66.073 52.25 65.5 52.8236 65.5 53.5313C65.5 54.2389 66.073 54.8125 66.7798 54.8125Z" fill="#686868"/>
<path d="M31.9712 54.8125C32.678 54.8125 33.2509 54.2389 33.2509 53.5313C33.2509 52.8236 32.678 52.25 31.9712 52.25C31.2644 52.25 30.6914 52.8236 30.6914 53.5313C30.6914 54.2389 31.2644 54.8125 31.9712 54.8125Z" fill="#686868"/>
<path fill-rule="evenodd" clip-rule="evenodd" d="M80.243 59.6792C80.7953 59.6792 81.243 60.1269 81.243 60.6792V73.5451C81.243 74.0974 80.7953 74.5451 80.243 74.5451H74.125C73.5727 74.5451 73.125 74.0974 73.125 73.5451C73.125 72.9929 73.5727 72.5451 74.125 72.5451H79.243V60.6792C79.243 60.1269 79.6907 59.6792 80.243 59.6792Z" fill="#686868"/>
<path fill-rule="evenodd" clip-rule="evenodd" d="M78.1914 48.6943C78.1914 49.2466 77.7437 49.6943 77.1914 49.6943H73.5534C73.0011 49.6943 72.5534 49.2466 72.5534 48.6943V38.6454C72.5534 38.0931 73.0011 37.6454 73.5534 37.6454H77.1914C77.7437 37.6454 78.1914 38.0931 78.1914 38.6454V48.6943ZM76.1914 47.6943V39.6454H74.5534V47.6943H76.1914Z" fill="#686868"/>
<path fill-rule="evenodd" clip-rule="evenodd" d="M70.0781 83C70.0781 83.5523 69.6304 84 69.0781 84H53.6858C53.1336 84 52.6858 83.5523 52.6858 83V79.2099C52.6858 78.6576 53.1336 78.2099 53.6858 78.2099H69.0781C69.6304 78.2099 70.0781 78.6576 70.0781 79.2099V83ZM68.0781 82V80.2099H54.6858V82H68.0781Z" fill="#686868"/>
<path d="M87 23.3003H1L8.35796 12.5957H79.642L87 23.3003Z" fill="white"/>
<path d="M87 23.3003H1L8.35796 12.5957H79.642L87 23.3003Z" fill="url(#paint4_linear_2469_5618)"/>
<path fill-rule="evenodd" clip-rule="evenodd" d="M7.53387 12.0292C7.72042 11.7579 8.02863 11.5957 8.35796 11.5957H79.642C79.9714 11.5957 80.2796 11.7579 80.4661 12.0292L87.8241 22.7338C88.0344 23.0398 88.0579 23.4372 87.885 23.7658C87.7121 24.0945 87.3713 24.3003 87 24.3003H1C0.628659 24.3003 0.287894 24.0945 0.115001 23.7658C-0.0578922 23.4372 -0.0344397 23.0398 0.17591 22.7338L7.53387 12.0292ZM8.88405 13.5957L2.90083 22.3003H85.0992L79.116 13.5957H8.88405Z" fill="#686868"/>
<path fill-rule="evenodd" clip-rule="evenodd" d="M7.58203 1C7.58203 0.447715 8.02975 0 8.58203 0H79.405C79.9572 0 80.405 0.447715 80.405 1V6.94128C80.405 7.49356 79.9572 7.94128 79.405 7.94128H8.58203C8.02975 7.94128 7.58203 7.49356 7.58203 6.94128V1ZM9.58203 2V5.94128H78.405V2H9.58203Z" fill="#686868"/>
<path fill-rule="evenodd" clip-rule="evenodd" d="M17.4375 5.94141C17.9898 5.94141 18.4375 6.38912 18.4375 6.94141V12.5959C18.4375 13.1482 17.9898 13.5959 17.4375 13.5959C16.8852 13.5959 16.4375 13.1482 16.4375 12.5959V6.94141C16.4375 6.38912 16.8852 5.94141 17.4375 5.94141Z" fill="#686868"/>
<path fill-rule="evenodd" clip-rule="evenodd" d="M70.5547 5.94141C71.107 5.94141 71.5547 6.38912 71.5547 6.94141V12.5959C71.5547 13.1482 71.107 13.5959 70.5547 13.5959C70.0024 13.5959 69.5547 13.1482 69.5547 12.5959V6.94141C69.5547 6.38912 70.0024 5.94141 70.5547 5.94141Z" fill="#686868"/>
<path fill-rule="evenodd" clip-rule="evenodd" d="M2.60938 22.29C3.16166 22.29 3.60938 22.7378 3.60938 23.29V82.9999C3.60938 83.5522 3.16166 83.9999 2.60938 83.9999C2.05709 83.9999 1.60938 83.5522 1.60938 82.9999V23.29C1.60938 22.7378 2.05709 22.29 2.60938 22.29Z" fill="#686868"/>
<path fill-rule="evenodd" clip-rule="evenodd" d="M85.3789 22.29C85.9312 22.29 86.3789 22.7378 86.3789 23.29V82.9999C86.3789 83.5522 85.9312 83.9999 85.3789 83.9999C84.8266 83.9999 84.3789 83.5522 84.3789 82.9999V23.29C84.3789 22.7378 84.8266 22.29 85.3789 22.29Z" fill="#686868"/>
<defs>
<linearGradient id="paint0_linear_2469_5618" x1="26.6095" y1="26.896" x2="26.6095" y2="79.21" gradientUnits="userSpaceOnUse">
<stop stop-color="white"/>
<stop offset="1" stop-color="white" stop-opacity="0"/>
</linearGradient>
<linearGradient id="paint1_linear_2469_5618" x1="26.6115" y1="35.0498" x2="26.6115" y2="45.6622" gradientUnits="userSpaceOnUse">
<stop stop-color="white"/>
<stop offset="1" stop-color="white" stop-opacity="0"/>
</linearGradient>
<linearGradient id="paint2_linear_2469_5618" x1="61.2811" y1="78.939" x2="61.2811" y2="26.625" gradientUnits="userSpaceOnUse">
<stop stop-color="white"/>
<stop offset="1" stop-color="white" stop-opacity="0"/>
</linearGradient>
<linearGradient id="paint3_linear_2469_5618" x1="61.3807" y1="45.6621" x2="61.3807" y2="35.0498" gradientUnits="userSpaceOnUse">
<stop stop-color="white"/>
<stop offset="1" stop-color="white" stop-opacity="0"/>
</linearGradient>
<linearGradient id="paint4_linear_2469_5618" x1="44" y1="12.5957" x2="44" y2="23.3003" gradientUnits="userSpaceOnUse">
<stop stop-color="white"/>
<stop offset="1" stop-color="white" stop-opacity="0"/>
</linearGradient>
</defs>
</svg>
