<svg width="86" height="71" viewBox="0 0 86 71" fill="none" xmlns="http://www.w3.org/2000/svg">
<path d="M7.90695 71H32.0948C34.1907 70.9977 36.2001 70.1793 37.6821 68.7243C39.1641 67.2693 39.9977 65.2965 40 63.2388L40 14.7643C39.9977 12.7065 39.1641 10.7338 37.6821 9.27872C36.2001 7.8237 34.1907 7.00528 32.0948 7.00302L27.9582 7.00302C27.7431 5.07834 26.8121 3.29931 25.3435 2.00699C23.8749 0.714669 21.9722 0 20 0C18.0279 0 16.1251 0.714669 14.6565 2.00699C13.1879 3.29931 12.2569 5.07834 12.0418 7.00302L7.90695 7.00302C5.81076 7.00482 3.80093 7.82305 2.31854 9.27812C0.836142 10.7332 0.00229815 12.7062 0 14.7643L0 63.2388C0.00229815 65.2968 0.836142 67.2698 2.31854 68.7249C3.80093 70.18 5.81076 70.9982 7.90695 71ZM3.47177 14.7591C3.47315 13.6049 3.94092 12.4983 4.77243 11.6822C5.60394 10.8662 6.73125 10.4073 7.90695 10.4064H13.7361C14.1964 10.4064 14.638 10.2269 14.9635 9.90727C15.2891 9.58766 15.4719 9.15418 15.4719 8.70218V7.85004C15.4952 6.68473 15.983 5.57483 16.8306 4.75877C17.6782 3.94271 18.818 3.48559 20.0052 3.48559C21.1924 3.48559 22.3322 3.94271 23.1798 4.75877C24.0274 5.57483 24.5152 6.68473 24.5385 7.85004V8.70218C24.5385 9.15418 24.7214 9.58766 25.0469 9.90727C25.3724 10.2269 25.814 10.4064 26.2744 10.4064L32.1 10.4064C33.2754 10.4078 34.4023 10.8668 35.2334 11.6828C36.0645 12.4988 36.5321 13.6052 36.5334 14.7591L36.5334 63.2388C36.5321 64.3928 36.0645 65.4991 35.2334 66.3151C34.4023 67.1311 33.2754 67.5901 32.1 67.5915H7.90695C6.73125 67.5906 5.60394 67.1317 4.77243 66.3157C3.94092 65.4996 3.47315 64.3931 3.47177 63.2388L3.47177 14.7591Z" fill="#686868"/>
<path d="M7.90598 64.4662H32.0938C32.4251 64.4657 32.7428 64.3363 32.9771 64.1063C33.2114 63.8762 33.3432 63.5644 33.3436 63.2391V46.9395L8.22538 59.4437L6.66309 60.2242L6.66309 63.2391C6.66354 63.5632 6.7944 63.874 7.02719 64.1039C7.25999 64.3337 7.57584 64.4639 7.90598 64.4662Z" fill="#686868"/>
<path d="M33.3458 17.7858V14.7659C33.3458 14.4403 33.2142 14.128 32.9799 13.8976C32.7455 13.6672 32.4276 13.5376 32.096 13.5371L7.90121 13.5371C7.56957 13.5376 7.25168 13.6672 7.01734 13.8976C6.783 14.128 6.65137 14.4403 6.65137 14.7659L6.65137 31.0655L31.7679 18.5613L33.3458 17.7858Z" fill="#686868"/>
<path d="M33.3389 21.6016L6.65137 34.8863L6.65137 56.4027L33.3389 43.1162V21.6016Z" fill="#686868"/>
<path d="M53.907 71H78.0948C80.1907 70.9977 82.2001 70.1793 83.6821 68.7243C85.1641 67.2693 85.9977 65.2965 86 63.2388V14.7643C85.9977 12.7065 85.1641 10.7338 83.6821 9.27872C82.2001 7.8237 80.1907 7.00528 78.0948 7.00302L73.9582 7.00302C73.7431 5.07834 72.8121 3.29931 71.3435 2.00699C69.8749 0.714669 67.9722 0 66 0C64.0279 0 62.1251 0.714669 60.6565 2.00699C59.1879 3.29931 58.2569 5.07834 58.0418 7.00302L53.907 7.00302C51.8108 7.00482 49.8009 7.82305 48.3185 9.27812C46.8361 10.7332 46.0023 12.7062 46 14.7643L46 63.2388C46.0023 65.2968 46.8361 67.2698 48.3185 68.7249C49.8009 70.18 51.8108 70.9982 53.907 71ZM49.4718 14.7591C49.4731 13.6049 49.9409 12.4983 50.7724 11.6822C51.6039 10.8662 52.7313 10.4073 53.907 10.4064H59.7361C60.1964 10.4064 60.638 10.2269 60.9635 9.90727C61.2891 9.58766 61.4719 9.15418 61.4719 8.70218V7.85004C61.4952 6.68473 61.983 5.57483 62.8306 4.75877C63.6782 3.94271 64.818 3.48559 66.0052 3.48559C67.1924 3.48559 68.3322 3.94271 69.1798 4.75877C70.0274 5.57483 70.5152 6.68473 70.5385 7.85004V8.70218C70.5385 9.15418 70.7214 9.58766 71.0469 9.90727C71.3724 10.2269 71.814 10.4064 72.2744 10.4064L78.1 10.4064C79.2754 10.4078 80.4023 10.8668 81.2334 11.6828C82.0645 12.4988 82.5321 13.6052 82.5334 14.7591V63.2388C82.5321 64.3928 82.0645 65.4991 81.2334 66.3151C80.4023 67.1311 79.2754 67.5901 78.1 67.5915H53.907C52.7313 67.5906 51.6039 67.1317 50.7724 66.3157C49.9409 65.4996 49.4731 64.3931 49.4718 63.2388L49.4718 14.7591Z" fill="#686868"/>
<path d="M53.906 64.4662H78.0938C78.4251 64.4657 78.7428 64.3363 78.9771 64.1063C79.2114 63.8762 79.3432 63.5644 79.3436 63.2391V46.9395L54.2254 59.4437L52.6631 60.2242V63.2391C52.6635 63.5632 52.7944 63.874 53.0272 64.1039C53.26 64.3337 53.5758 64.4639 53.906 64.4662Z" fill="#686868"/>
<path d="M79.3458 17.7858V14.7659C79.3458 14.4403 79.2142 14.128 78.9799 13.8976C78.7455 13.6672 78.4276 13.5376 78.096 13.5371L53.9012 13.5371C53.5696 13.5376 53.2517 13.6672 53.0173 13.8976C52.783 14.128 52.6514 14.4403 52.6514 14.7659L52.6514 31.0655L77.7679 18.5613L79.3458 17.7858Z" fill="#686868"/>
<path d="M79.3389 21.6016L52.6514 34.8863L52.6514 56.4027L79.3389 43.1162V21.6016Z" fill="#686868"/>
</svg>
