<svg width="117" height="62" viewBox="0 0 117 62" fill="none" xmlns="http://www.w3.org/2000/svg">
<path d="M31.6395 52.8747H53.0267C53.3817 52.8747 53.7222 52.7354 53.9732 52.4874C54.2242 52.2393 54.3652 51.9029 54.3652 51.5521C54.3652 51.2014 54.2242 50.8649 53.9732 50.6169C53.7222 50.3689 53.3817 50.2295 53.0267 50.2295H31.6395C31.2845 50.2295 30.944 50.3689 30.693 50.6169C30.442 50.8649 30.301 51.2014 30.301 51.5521C30.301 51.9029 30.442 52.2393 30.693 52.4874C30.944 52.7354 31.2845 52.8747 31.6395 52.8747Z" fill="#686868"/>
<path d="M2.34058 52.8743H12.1985C12.5534 52.8743 12.8939 52.735 13.1449 52.487C13.3959 52.239 13.5369 51.9026 13.5369 51.5518C13.5369 51.2011 13.3959 50.8647 13.1449 50.6167C12.8939 50.3687 12.5534 50.2293 12.1985 50.2293H3.66637V42.7958H81.1402V50.2293H72.4432C72.0882 50.2293 71.7477 50.3687 71.4967 50.6167C71.2457 50.8647 71.1047 51.2011 71.1047 51.5518C71.1047 51.9026 71.2457 52.239 71.4967 52.487C71.7477 52.735 72.0882 52.8743 72.4432 52.8743H82.4787C82.6547 52.8747 82.8291 52.8408 82.9918 52.7745C83.1546 52.7083 83.3025 52.6109 83.4272 52.4881C83.5518 52.3652 83.6507 52.2193 83.7181 52.0586C83.7856 51.898 83.8203 51.7258 83.8203 51.5518V41.4734C83.8203 41.2994 83.7856 41.1272 83.7181 40.9666C83.6507 40.8059 83.5518 40.6599 83.4272 40.5371C83.3025 40.4143 83.1546 40.3169 82.9918 40.2507C82.8291 40.1844 82.6547 40.1505 82.4787 40.1509H2.34058C2.16454 40.1505 1.99014 40.1844 1.82738 40.2507C1.66462 40.3169 1.51669 40.4143 1.39207 40.5371C1.26744 40.6599 1.16856 40.8059 1.1011 40.9666C1.03364 41.1272 0.998917 41.2994 0.998917 41.4734V51.5518C0.998917 51.7258 1.03364 51.898 1.1011 52.0586C1.16856 52.2193 1.26744 52.3652 1.39207 52.4881C1.51669 52.6109 1.66462 52.7083 1.82738 52.7745C1.99014 52.8408 2.16454 52.8747 2.34058 52.8743Z" fill="#686868"/>
<path d="M62.7266 62.0002C64.9128 62.0002 67.0499 61.3596 68.8677 60.1596C70.6855 58.9595 72.1022 57.2538 72.9389 55.2582C73.7755 53.2625 73.9944 51.0666 73.5679 48.948C73.1414 46.8295 72.0886 44.8835 70.5427 43.3561C68.9969 41.8287 67.0273 40.7885 64.8831 40.3671C62.7389 39.9457 60.5164 40.162 58.4966 40.9886C56.4768 41.8152 54.7505 43.215 53.5359 45.011C52.3213 46.8071 51.673 48.9186 51.673 51.0787C51.6764 53.9742 52.842 56.7502 54.9142 58.7977C56.9865 60.8451 59.7961 61.9968 62.7266 62.0002ZM62.7266 42.8022C64.3835 42.8016 66.0034 43.2865 67.3813 44.1955C68.7593 45.1046 69.8334 46.397 70.4679 47.9092C71.1024 49.4215 71.2688 51.0857 70.9459 52.6914C70.623 54.2971 69.8255 55.7722 68.6541 56.93C67.4828 58.0878 65.9902 58.8763 64.3652 59.1959C62.7402 59.5155 61.0557 59.3518 59.5249 58.7255C57.9941 58.0992 56.6857 57.0383 55.7651 55.6772C54.8445 54.316 54.3531 52.7158 54.3531 51.0787C54.3531 48.8836 55.235 46.7783 56.8051 45.2252C58.3752 43.6722 60.505 42.7984 62.7266 42.7959V42.8022Z" fill="#686868"/>
<path d="M21.9249 62.0002C24.1111 62.0002 26.2482 61.3596 28.0659 60.1596C29.8837 58.9595 31.3005 57.2538 32.1371 55.2582C32.9737 53.2625 33.1926 51.0666 32.7661 48.948C32.3396 46.8295 31.2869 44.8835 29.741 43.3561C28.1951 41.8287 26.2255 40.7885 24.0813 40.3671C21.9371 39.9457 19.7146 40.162 17.6948 40.9886C15.675 41.8152 13.9487 43.215 12.7341 45.011C11.5195 46.8071 10.8712 48.9186 10.8712 51.0787C10.8754 53.974 12.0414 56.7495 14.1134 58.7968C16.1855 60.844 18.9946 61.996 21.9249 62.0002ZM21.9249 42.8022C23.5816 42.8022 25.2012 43.2876 26.5787 44.1971C27.9562 45.1065 29.0299 46.3991 29.6639 47.9114C30.2979 49.4238 30.4638 51.0879 30.1406 52.6934C29.8174 54.2989 29.0196 55.7736 27.8481 56.9311C26.6766 58.0886 25.184 58.8768 23.5591 59.1961C21.9342 59.5155 20.2499 59.3516 18.7193 58.7252C17.1886 58.0988 15.8804 57.0379 14.9599 55.6769C14.0395 54.3158 13.5482 52.7156 13.5482 51.0787C13.5482 48.8831 14.4306 46.7773 16.0013 45.2241C17.572 43.671 19.7027 42.7976 21.9249 42.7959V42.8022Z" fill="#686868"/>
<path d="M27.5952 42.7958H82.4669C82.643 42.7962 82.8174 42.7623 82.9801 42.696C83.1429 42.6297 83.2908 42.5324 83.4154 42.4096C83.5401 42.2867 83.6389 42.1408 83.7064 41.9801C83.7739 41.8195 83.8086 41.6473 83.8086 41.4733V1.32248C83.8086 1.14854 83.7739 0.976332 83.7064 0.815676C83.6389 0.65502 83.5401 0.509071 83.4154 0.386226C83.2908 0.263381 83.1429 0.166049 82.9801 0.0997727C82.8174 0.0334962 82.643 -0.000408455 82.4669 3.71323e-06H27.5952C27.2402 3.71323e-06 26.8998 0.139321 26.6488 0.387335C26.3977 0.635349 26.2567 0.971733 26.2567 1.32248V41.4733C26.2567 41.8241 26.3977 42.1604 26.6488 42.4085C26.8998 42.6565 27.2402 42.7958 27.5952 42.7958ZM81.1411 40.1508H28.9369V2.64495H81.1411V40.1508Z" fill="#686868"/>
<path d="M2.33729 42.7956C2.57216 42.7959 2.803 42.7353 3.00672 42.6198C3.21043 42.5043 3.3799 42.338 3.49816 42.1375L15.8998 21.0405H27.5941C27.9491 21.0405 28.2896 20.9011 28.5406 20.6531C28.7916 20.4051 28.9326 20.0687 28.9326 19.718C28.9326 19.3672 28.7916 19.0309 28.5406 18.7829C28.2896 18.5349 27.9491 18.3955 27.5941 18.3955H15.1291C14.8947 18.3958 14.6645 18.4567 14.4614 18.5721C14.2583 18.6876 14.0894 18.8536 13.9714 19.0536L1.1796 40.8088C1.06139 41.0098 0.998903 41.238 0.998436 41.4705C0.997969 41.703 1.05954 41.9315 1.17694 42.133C1.29433 42.3345 1.46341 42.5018 1.66712 42.6181C1.87084 42.7345 2.102 42.7957 2.33729 42.7956Z" fill="#686868"/>
<path d="M8.13308 32.943H21.9271C22.2821 32.943 22.6226 32.8036 22.8736 32.5556C23.1246 32.3076 23.2656 31.9712 23.2656 31.6205V23.6511C23.2656 23.3003 23.1246 22.964 22.8736 22.7159C22.6226 22.4679 22.2821 22.3286 21.9271 22.3286H12.8178C12.4628 22.3286 12.1224 22.4679 11.8713 22.7159C11.6203 22.964 11.4793 23.3003 11.4793 23.6511C11.4793 24.0018 11.6203 24.3382 11.8713 24.5862C12.1224 24.8342 12.4628 24.9736 12.8178 24.9736H20.5855V30.3011H8.13308C7.77809 30.3011 7.43765 30.4405 7.18663 30.6885C6.93562 30.9365 6.79459 31.2728 6.79459 31.6236C6.79459 31.9743 6.93562 32.3107 7.18663 32.5587C7.43765 32.8067 7.77809 32.9461 8.13308 32.9461V32.943Z" fill="#686868"/>
<path d="M72.4418 35.3624C72.6178 35.3624 72.7921 35.3281 72.9547 35.2615C73.1173 35.1948 73.265 35.0971 73.3894 34.974C73.5137 34.8509 73.6122 34.7047 73.6793 34.5439C73.7464 34.3831 73.7807 34.2108 73.7803 34.0368V8.45211C73.7635 8.11209 73.615 7.79146 73.3655 7.55667C73.1161 7.32188 72.7847 7.19092 72.4402 7.19092C72.0957 7.19092 71.7643 7.32188 71.5148 7.55667C71.2654 7.79146 71.1169 8.11209 71.1001 8.45211V34.0368C71.1001 34.3884 71.2415 34.7256 71.4931 34.9742C71.7447 35.2228 72.086 35.3624 72.4418 35.3624Z" fill="#686868"/>
<path d="M37.2767 35.3622C37.4528 35.3622 37.6271 35.3279 37.7897 35.2613C37.9523 35.1946 38.1 35.0969 38.2243 34.9738C38.3487 34.8506 38.4472 34.7044 38.5143 34.5436C38.5813 34.3828 38.6156 34.2105 38.6152 34.0366V8.45187C38.6152 8.10112 38.4742 7.76474 38.2232 7.51673C37.9722 7.26871 37.6317 7.12939 37.2767 7.12939C36.9218 7.12939 36.5813 7.26871 36.3303 7.51673C36.0793 7.76474 35.9383 8.10112 35.9383 8.45187V34.0366C35.9378 34.2105 35.9722 34.3828 36.0392 34.5436C36.1063 34.7044 36.2048 34.8506 36.3292 34.9738C36.4535 35.0969 36.6012 35.1946 36.7638 35.2613C36.9264 35.3279 37.1007 35.3622 37.2767 35.3622Z" fill="#686868"/>
<path d="M61.6137 35.3622C61.7897 35.3622 61.964 35.3279 62.1266 35.2613C62.2892 35.1946 62.4369 35.0969 62.5612 34.9738C62.6856 34.8506 62.7841 34.7044 62.8512 34.5436C62.9182 34.3828 62.9526 34.2105 62.9521 34.0366V8.45187C62.9521 8.10112 62.8111 7.76474 62.5601 7.51673C62.3091 7.26871 61.9686 7.12939 61.6137 7.12939C61.2587 7.12939 60.9182 7.26871 60.6672 7.51673C60.4162 7.76474 60.2752 8.10112 60.2752 8.45187V34.0366C60.2748 34.2105 60.3091 34.3828 60.3761 34.5436C60.4432 34.7044 60.5417 34.8506 60.6661 34.9738C60.7904 35.0969 60.9381 35.1946 61.1007 35.2613C61.2633 35.3279 61.4376 35.3622 61.6137 35.3622Z" fill="#686868"/>
<path d="M50.5209 35.3622C50.6969 35.3622 50.8712 35.3279 51.0338 35.2613C51.1964 35.1946 51.3441 35.0969 51.4685 34.9738C51.5928 34.8506 51.6913 34.7044 51.7584 34.5436C51.8255 34.3828 51.8598 34.2105 51.8594 34.0366V8.45187C51.8594 8.10112 51.7183 7.76474 51.4673 7.51673C51.2163 7.26871 50.8759 7.12939 50.5209 7.12939C50.1659 7.12939 49.8254 7.26871 49.5744 7.51673C49.3234 7.76474 49.1824 8.10112 49.1824 8.45187V34.0366C49.182 34.2105 49.2163 34.3828 49.2834 34.5436C49.3505 34.7044 49.449 34.8506 49.5733 34.9738C49.6976 35.0969 49.8453 35.1946 50.0079 35.2613C50.1705 35.3279 50.3448 35.3622 50.5209 35.3622Z" fill="#686868"/>
<path d="M28.941 50.9949C28.941 54.8605 25.8139 57.9942 21.9563 57.9942C18.0988 57.9942 14.9717 54.8605 14.9717 50.9949C14.9717 47.1293 18.0988 43.9956 21.9563 43.9956C25.8139 43.9956 28.941 47.1293 28.941 50.9949Z" fill="#686868"/>
<path d="M69.8512 50.9949C69.8512 54.8605 66.724 57.9942 62.8665 57.9942C59.009 57.9942 55.8818 54.8605 55.8818 50.9949C55.8818 47.1293 59.009 43.9956 62.8665 43.9956C66.724 43.9956 69.8512 47.1293 69.8512 50.9949Z" fill="#686868"/>
<path fill-rule="evenodd" clip-rule="evenodd" d="M95.8792 19.25C95.4421 19.25 95.0254 19.4224 94.7201 19.7251C94.4153 20.0275 94.2465 20.4347 94.2465 20.8567V58.75H114.504V20.8567C114.504 20.4347 114.335 20.0275 114.031 19.7251C113.725 19.4224 113.309 19.25 112.871 19.25H95.8792ZM95.8792 16.75H112.871C113.962 16.75 115.01 17.1796 115.785 17.9483C116.561 18.7174 116.999 19.7633 116.999 20.8567V60C116.999 60.6904 116.44 61.25 115.751 61.25H92.9992C92.3104 61.25 91.752 60.6904 91.752 60V20.8567C91.752 19.7633 92.19 18.7174 92.9654 17.9483C93.7404 17.1796 94.7888 16.75 95.8792 16.75Z" fill="#686868"/>
<path fill-rule="evenodd" clip-rule="evenodd" d="M95.6924 21.585C95.6924 20.8946 96.2508 20.335 96.9396 20.335H111.786C112.475 20.335 113.033 20.8946 113.033 21.585V28.7552C113.033 29.4455 112.475 30.0052 111.786 30.0052H96.9396C96.2508 30.0052 95.6924 29.4455 95.6924 28.7552V21.585ZM98.1869 22.835V27.5052H110.539V22.835H98.1869Z" fill="#686868"/>
<path fill-rule="evenodd" clip-rule="evenodd" d="M99.9719 33.29C100.661 33.29 101.219 33.8497 101.219 34.54V36.4611C101.219 37.1515 100.661 37.7111 99.9719 37.7111C99.283 37.7111 98.7246 37.1515 98.7246 36.4611V34.54C98.7246 33.8497 99.283 33.29 99.9719 33.29Z" fill="#686868"/>
<path fill-rule="evenodd" clip-rule="evenodd" d="M104.368 33.29C105.057 33.29 105.616 33.8497 105.616 34.54V36.4611C105.616 37.1515 105.057 37.7111 104.368 37.7111C103.68 37.7111 103.121 37.1515 103.121 36.4611V34.54C103.121 33.8497 103.68 33.29 104.368 33.29Z" fill="#686868"/>
<path fill-rule="evenodd" clip-rule="evenodd" d="M108.762 33.29C109.451 33.29 110.009 33.8497 110.009 34.54V36.4611C110.009 37.1515 109.451 37.7111 108.762 37.7111C108.073 37.7111 107.515 37.1515 107.515 36.4611V34.54C107.515 33.8497 108.073 33.29 108.762 33.29Z" fill="#686868"/>
<path fill-rule="evenodd" clip-rule="evenodd" d="M93.7962 23.3302C94.2237 23.8715 94.1324 24.6577 93.5923 25.0861L88.2406 29.3314V32.1901H90.7302C91.419 32.1901 91.9775 32.7498 91.9775 33.4401V37.1466C91.9775 37.9727 91.6473 38.7626 91.0635 39.3439C90.4802 39.9247 89.6912 40.2503 88.8701 40.2535L88.8654 40.2535C88.0422 40.2535 87.2502 39.9293 86.6643 39.3481C86.0779 38.7664 85.7461 37.9748 85.7461 37.1466V28.7267C85.7461 28.3446 85.9204 27.9836 86.2193 27.7465L92.0441 23.1259C92.5842 22.6974 93.3687 22.7889 93.7962 23.3302ZM88.2406 34.6901V37.1466C88.2406 37.3034 88.3033 37.4564 88.419 37.5712C88.5347 37.6859 88.6941 37.7529 88.863 37.7535C89.0316 37.7522 89.1903 37.685 89.3054 37.5704C89.4206 37.4556 89.4829 37.303 89.4829 37.1466V34.6901H88.2406Z" fill="#686868"/>
<path fill-rule="evenodd" clip-rule="evenodd" d="M89.4875 38.2417C90.1763 38.2417 90.7348 38.8013 90.7348 39.4917V47.4546C90.7348 48.145 90.1763 48.7046 89.4875 48.7046C88.7987 48.7046 88.2402 48.145 88.2402 47.4546V39.4917C88.2402 38.8013 88.7987 38.2417 89.4875 38.2417Z" fill="#686868"/>
<path fill-rule="evenodd" clip-rule="evenodd" d="M81.5752 47.7578C81.5752 47.0675 82.1336 46.5078 82.8225 46.5078L89.4894 46.5078C90.1783 46.5078 90.7367 47.0675 90.7367 47.7578C90.7367 48.4482 90.1783 49.0078 89.4894 49.0078L82.8225 49.0078C82.1336 49.0078 81.5752 48.4482 81.5752 47.7578Z" fill="#686868"/>
</svg>
