<svg width="122" height="38" viewBox="0 0 122 38" fill="none" xmlns="http://www.w3.org/2000/svg">
<path d="M120.422 38H1.57435C1.36728 38 1.16223 37.9578 0.970978 37.8758C0.779725 37.7938 0.606024 37.6736 0.459783 37.5221C0.313542 37.3706 0.197673 37.1908 0.118775 36.993C0.0398756 36.7951 -0.000486246 36.5831 4.42043e-06 36.3691V1.63088C-0.000486246 1.41689 0.0398756 1.20488 0.118775 1.00704C0.197673 0.809193 0.313542 0.629385 0.459783 0.477893C0.606024 0.3264 0.779725 0.20621 0.970978 0.124203C1.16223 0.0421962 1.36728 -6.00805e-07 1.57435 0L120.422 0C120.84 0 121.242 0.171807 121.538 0.477657C121.834 0.783508 122 1.19834 122 1.63088V36.3614C122.001 36.5762 121.961 36.7891 121.882 36.9879C121.803 37.1866 121.687 37.3674 121.54 37.5196C121.394 37.6719 121.219 37.7927 121.028 37.8751C120.836 37.9576 120.63 38 120.422 38ZM3.16363 34.7421H118.848V3.26562H3.14869L3.16363 34.7421Z" fill="#686868"/>
<path d="M13.6367 32.2088C13.4296 32.2093 13.2245 32.1676 13.0331 32.0861C12.8416 32.0045 12.6676 31.8847 12.521 31.7336C12.3744 31.5825 12.2582 31.403 12.1788 31.2053C12.0995 31.0076 12.0586 30.7957 12.0586 30.5817V7.41393C12.0783 6.99561 12.253 6.60115 12.5464 6.31229C12.8399 6.02343 13.2296 5.8623 13.6349 5.8623C14.0401 5.8623 14.4299 6.02343 14.7233 6.31229C15.0167 6.60115 15.1913 6.99561 15.211 7.41393V30.5702C15.2125 30.7848 15.1729 30.9976 15.0945 31.1964C15.016 31.3951 14.9002 31.5758 14.7539 31.7281C14.6076 31.8805 14.4336 32.0014 14.2418 32.0839C14.0501 32.1663 13.8444 32.2088 13.6367 32.2088Z" fill="#686868"/>
<path d="M107.094 32.209C106.676 32.209 106.276 32.0376 105.981 31.7324C105.685 31.4273 105.52 31.0135 105.52 30.5819V7.41413C105.52 6.98261 105.685 6.56876 105.981 6.26364C106.276 5.95851 106.676 5.78711 107.094 5.78711C107.511 5.78711 107.912 5.95851 108.207 6.26364C108.502 6.56876 108.668 6.98261 108.668 7.41413V30.5704C108.67 30.785 108.63 30.9978 108.552 31.1966C108.473 31.3953 108.358 31.576 108.211 31.7283C108.065 31.8806 107.891 32.0016 107.699 32.0841C107.507 32.1665 107.302 32.209 107.094 32.209Z" fill="#686868"/>
<path d="M24.7853 32.209C24.3677 32.209 23.9673 32.0376 23.6721 31.7324C23.3768 31.4273 23.2109 31.0135 23.2109 30.5819V7.41413C23.2109 6.98261 23.3768 6.56876 23.6721 6.26364C23.9673 5.95851 24.3677 5.78711 24.7853 5.78711C25.2028 5.78711 25.6033 5.95851 25.8986 6.26364C26.1938 6.56876 26.3597 6.98261 26.3597 7.41413V30.5704C26.3612 30.785 26.3215 30.9978 26.2431 31.1966C26.1646 31.3953 26.0489 31.576 25.9025 31.7283C25.7562 31.8806 25.5822 32.0016 25.3904 32.0841C25.1987 32.1665 24.993 32.209 24.7853 32.209Z" fill="#686868"/>
<path d="M95.9455 32.209C95.5279 32.209 95.1275 32.0376 94.8322 31.7324C94.537 31.4273 94.3711 31.0135 94.3711 30.5819V7.41413C94.3711 7.20046 94.4118 6.98891 94.491 6.79151C94.5701 6.59411 94.686 6.41472 94.8322 6.26364C94.9784 6.11255 95.152 5.9927 95.343 5.91094C95.534 5.82917 95.7387 5.78711 95.9455 5.78711C96.1522 5.78711 96.3569 5.82917 96.548 5.91094C96.739 5.9927 96.9126 6.11255 97.0588 6.26364C97.2049 6.41472 97.3209 6.59411 97.4 6.79151C97.4792 6.98891 97.5198 7.20046 97.5198 7.41413V30.5704C97.5213 30.785 97.4817 30.9978 97.4032 31.1966C97.3248 31.3953 97.209 31.576 97.0627 31.7283C96.9163 31.8806 96.7423 32.0016 96.5506 32.0841C96.3589 32.1665 96.1531 32.209 95.9455 32.209Z" fill="#686868"/>
<path d="M53.953 11.1999H44.873V25.9999H54.173V23.5199H47.833V19.5599H53.033V17.0799H47.833V13.6599H53.953V11.1999Z" fill="#383838"/>
<path d="M61.5977 26.2799C65.0177 26.2799 67.0377 24.2199 67.0377 21.7999C67.0377 19.6399 65.8977 18.5199 64.0577 17.7799L62.1177 16.9599C60.8577 16.4799 59.7977 16.0199 59.7977 15.0199C59.7977 14.0399 60.6377 13.4599 61.9377 13.4599C63.1577 13.4599 64.1377 13.8999 65.0777 14.6799L66.5777 12.8199C65.3777 11.5999 63.6977 10.9199 61.9377 10.9199C58.9577 10.9199 56.8177 12.7799 56.8177 15.1999C56.8177 17.3599 58.3177 18.5399 59.8177 19.1799L61.7977 20.0199C63.1377 20.5999 64.0177 20.8999 64.0177 22.0199C64.0177 23.0599 63.1977 23.7199 61.6577 23.7199C60.3577 23.7199 58.9577 23.0599 57.8977 22.0799L56.1977 24.1199C57.6377 25.4999 59.5977 26.2799 61.5977 26.2799Z" fill="#383838"/>
<path d="M73.7071 26.2799C77.1271 26.2799 79.1471 24.2199 79.1471 21.7999C79.1471 19.6399 78.0071 18.5199 76.1671 17.7799L74.2271 16.9599C72.9671 16.4799 71.9071 16.0199 71.9071 15.0199C71.9071 14.0399 72.7471 13.4599 74.0471 13.4599C75.2671 13.4599 76.2471 13.8999 77.1871 14.6799L78.6871 12.8199C77.4871 11.5999 75.8071 10.9199 74.0471 10.9199C71.0671 10.9199 68.9271 12.7799 68.9271 15.1999C68.9271 17.3599 70.4271 18.5399 71.9271 19.1799L73.9071 20.0199C75.2471 20.5999 76.1271 20.8999 76.1271 22.0199C76.1271 23.0599 75.3071 23.7199 73.7671 23.7199C72.4671 23.7199 71.0671 23.0599 70.0071 22.0799L68.3071 24.1199C69.7471 25.4999 71.7071 26.2799 73.7071 26.2799Z" fill="#383838"/>
</svg>
